<?xml version="1.0" encoding="utf-8"?>
<!-- Generator: Adobe Illustrator 27.0.0, SVG Export Plug-In . SVG Version: 6.00 Build 0)  -->
<svg version="1.1" id="_x3C_Layer_x3E_" xmlns="http://www.w3.org/2000/svg" xmlns:xlink="http://www.w3.org/1999/xlink" x="0px"
	 y="0px" viewBox="0 0 1856 812" style="enable-background:new 0 0 1856 812;" xml:space="preserve">
<style type="text/css">
	.st0{fill:#541C0D;}
	.st1{fill:#AA6F46;}
	.st2{opacity:0.4;fill:#492C18;enable-background:new    ;}
	.st3{fill:#935C37;}
	.st4{fill:#59361E;}
	.st5{fill:#492C18;}
	.st6{opacity:0.5;fill:#AA6F46;enable-background:new    ;}
	.st7{fill:#CE7125;}
	.st8{opacity:0.3;fill:#CE7125;enable-background:new    ;}
	.st9{fill:#DB893E;}
	.st10{fill:#F2984E;}
</style>
<g>
	<g>
		<g>
			<path class="st0" d="M932.3,462.8c3.8-5.6,9.3-9.8,15.7-12.1c3.2-1.1,6.6-1.7,10.2-1.7c3.6,0,7,0.6,10.2,1.7
				c6.5,2.2,12,6.5,15.7,12.1h42.9l-4.5-12.1l-0.6-1.7l-4.5-12.1l-0.6-1.7l-4.5-12.1H902.6l-4.1,12.1l-0.6,1.7l-4.1,12.1l-0.6,1.7
				l-4.1,12.1H932.3z"/>
			<g>
				<polygon class="st1" points="1016.9,435.3 898.4,435.3 902.6,423.2 1012.4,423.2 				"/>
				<polygon class="st1" points="1022,449.1 893.7,449.1 897.9,437 1017.5,437 				"/>
				<path class="st1" d="M932.3,462.8c3.8-5.6,9.3-9.8,15.7-12.1h-54.9l-4.1,12.1H932.3z"/>
				<path class="st1" d="M984.2,462.8h42.9l-4.5-12.1h-54.2C974.9,453,980.4,457.3,984.2,462.8z"/>
			</g>
		</g>
		<g>
			<g>
				<path class="st0" d="M907.1,428.5c0,0.8-0.6,1.4-1.4,1.4c-0.8,0-1.4-0.6-1.4-1.4c0-0.8,0.6-1.4,1.4-1.4
					C906.4,427.1,907.1,427.7,907.1,428.5z"/>
				<path class="st0" d="M903.2,442.3c0,0.8-0.6,1.4-1.4,1.4c-0.8,0-1.4-0.6-1.4-1.4c0-0.8,0.6-1.4,1.4-1.4
					C902.6,440.9,903.2,441.5,903.2,442.3z"/>
				<path class="st0" d="M898.6,456.6c0,0.8-0.6,1.4-1.4,1.4c-0.8,0-1.4-0.6-1.4-1.4s0.6-1.4,1.4-1.4
					C897.9,455.2,898.6,455.8,898.6,456.6z"/>
			</g>
			<g>
				<path class="st0" d="M1007.7,428.5c0,0.8,0.6,1.4,1.4,1.4c0.8,0,1.4-0.6,1.4-1.4c0-0.8-0.6-1.4-1.4-1.4
					C1008.4,427.1,1007.7,427.7,1007.7,428.5z"/>
				<path class="st0" d="M1011.6,442.3c0,0.8,0.6,1.4,1.4,1.4c0.8,0,1.4-0.6,1.4-1.4c0-0.8-0.6-1.4-1.4-1.4
					C1012.2,440.9,1011.6,441.5,1011.6,442.3z"/>
				<path class="st0" d="M1016.3,456.6c0,0.8,0.6,1.4,1.4,1.4c0.8,0,1.4-0.6,1.4-1.4s-0.6-1.4-1.4-1.4
					C1016.9,455.2,1016.3,455.8,1016.3,456.6z"/>
			</g>
		</g>
	</g>
	<g>
		<path class="st2" d="M1020.4,381.8c0,34.3-28,62.3-62.3,62.3c-34.4,0-62.4-27.9-62.4-62.3c0-2.9,0.2-5.8,0.6-8.6
			c4.2,30.3,30.3,53.7,61.8,53.7c31.5,0,57.6-23.4,61.8-53.7C1020.2,376,1020.4,378.9,1020.4,381.8z"/>
		<g>
			<path class="st1" d="M958.1,293.9c-40.3,0-72.9,32.6-72.9,72.8c0,40.2,32.7,72.8,72.9,72.8c40.3,0,72.9-32.6,72.9-72.8
				C1031,326.5,998.3,293.9,958.1,293.9z M958.1,435c-37.7,0-68.4-30.6-68.4-68.3c0-37.6,30.7-68.3,68.4-68.3
				c37.7,0,68.4,30.6,68.4,68.3C1026.4,404.4,995.8,435,958.1,435z"/>
			<path class="st3" d="M958.1,304.1c-34.6,0-62.8,28.1-62.8,62.7c0,34.6,28.2,62.7,62.8,62.7c34.6,0,62.8-28.1,62.8-62.7
				C1020.8,332.2,992.7,304.1,958.1,304.1z M958.1,298.5c-37.7,0-68.4,30.6-68.4,68.3c0,37.6,30.7,68.3,68.4,68.3
				c37.7,0,68.4-30.6,68.4-68.3C1026.4,329.1,995.8,298.5,958.1,298.5z"/>
			<path class="st4" d="M958.1,432.5c-36.3,0-65.9-29.5-65.9-65.8c0-36.3,29.5-65.8,65.9-65.8s65.9,29.5,65.9,65.8
				C1023.9,403,994.4,432.5,958.1,432.5z M1013.4,358.5c-1.5-10.4-5.9-19.9-12.4-27.6c-2.5-2.9-5.2-5.6-8.2-8
				c-9.6-7.6-21.6-12.1-34.8-12.1s-25.2,4.5-34.8,12.1c-2.3,1.8-4.4,3.8-6.4,5.9c-0.6,0.7-1.2,1.4-1.8,2.1
				c-6.5,7.7-10.9,17.2-12.4,27.6c-0.4,2.7-0.6,5.4-0.6,8.2c0,1.1,0,2.3,0.1,3.4c0.6,10.2,3.9,19.6,9.3,27.6c2.7,4,5.9,7.7,9.5,10.9
				c9.9,8.7,22.9,14,37.1,14c13.4,0,25.7-4.7,35.4-12.6c0.6-0.5,1.2-1,1.7-1.5c3.6-3.2,6.8-6.9,9.5-10.9c5.3-8,8.7-17.4,9.3-27.6
				c0.1-1.1,0.1-2.2,0.1-3.4C1014,364,1013.8,361.2,1013.4,358.5z"/>
			<path class="st5" d="M958.1,304.5c-34.4,0-62.4,27.9-62.4,62.3c0,34.3,28,62.3,62.4,62.3c34.4,0,62.3-27.9,62.3-62.3
				C1020.4,332.4,992.5,304.5,958.1,304.5z M1004.7,397.7c-2.7,4-5.9,7.7-9.5,10.9c-0.6,0.5-1.1,1-1.7,1.5
				c-9.6,7.9-22,12.6-35.4,12.6c-14.2,0-27.2-5.3-37.1-14c-3.6-3.2-6.8-6.9-9.5-10.9c-5.3-8-8.7-17.4-9.3-27.6
				c-0.1-1.1-0.1-2.2-0.1-3.4c0-2.8,0.2-5.5,0.6-8.2c1.5-10.4,5.9-19.9,12.4-27.6c0.6-0.7,1.2-1.4,1.8-2.1c2-2.1,4.1-4.1,6.4-5.9
				c9.6-7.6,21.6-12.1,34.8-12.1s25.2,4.5,34.8,12.1c3,2.4,5.7,5,8.2,8c6.5,7.7,10.9,17.2,12.4,27.6c0.4,2.7,0.6,5.4,0.6,8.2
				c0,1.1,0,2.3-0.1,3.4C1013.3,380.3,1010,389.8,1004.7,397.7z"/>
			<g>
				<path class="st5" d="M1014,366.8c0,1.1,0,2.3-0.1,3.4c-0.6,10.2-3.9,19.6-9.3,27.6c-2.7,4-5.9,7.7-9.5,10.9
					c-0.6,0.5-1.1,1-1.7,1.5c-9.6,7.9-22,12.6-35.4,12.6c-14.2,0-27.2-5.3-37.1-14c-3.6-3.2-6.8-6.9-9.5-10.9
					c-5.3-8-8.7-17.4-9.3-27.6c-0.1-1.1-0.1-2.2-0.1-3.4c0-2.8,0.2-5.5,0.6-8.2c1.5-10.4,5.9-19.9,12.4-27.6
					c0.6-0.7,1.2-1.4,1.8-2.1c2-2.1,4.1-4.1,6.4-5.9c9.6-7.6,21.6-12.1,34.8-12.1s25.2,4.5,34.8,12.1c3,2.4,5.7,5.1,8.2,8
					c6.5,7.7,10.9,17.2,12.4,27.6C1013.8,361.2,1014,364,1014,366.8z"/>
				<g>
					<path class="st6" d="M992.9,323h-69.6c9.6-7.6,21.6-12.1,34.8-12.1C971.2,310.9,983.3,315.4,992.9,323z"/>
					<path class="st6" d="M995.2,408.6c-9.9,8.7-22.9,14-37.1,14s-27.2-5.3-37.1-14H995.2z"/>
					<path class="st6" d="M1013.4,358.5H902.7c1.5-10.4,5.9-19.9,12.4-27.6h86C1007.5,338.7,1011.9,348.1,1013.4,358.5z"/>
					<path class="st6" d="M1013.9,370.2c-0.6,10.2-3.9,19.6-9.3,27.6h-93.2c-5.3-8-8.7-17.4-9.3-27.6H1013.9z"/>
				</g>
			</g>
			<g>
				<path class="st5" d="M970.7,386.1c0,6.9-5.6,12.6-12.6,12.6c-7,0-12.6-5.6-12.6-12.6c0-7,5.6-12.6,12.6-12.6
					C965,373.5,970.7,379.1,970.7,386.1z"/>
				<g>
					<rect x="954.5" y="365.1" class="st7" width="7.2" height="22.8"/>
					<rect x="956.1" y="365.1" class="st8" width="3.9" height="21.5"/>
					<g>
						<g>
							<rect x="955.2" y="387.1" class="st7" width="5.6" height="11.6"/>
							<path class="st7" d="M963.3,398c0,0.7-0.5,1.2-1.2,1.2h-8.2c-0.7,0-1.2-0.5-1.2-1.2l0,0c0-0.7,0.5-1.2,1.2-1.2h8.2
								C962.8,396.7,963.3,397.3,963.3,398L963.3,398z"/>
						</g>
						<rect x="956.8" y="387.9" class="st9" width="2.5" height="11.3"/>
					</g>
					<g>
						<path class="st7" d="M965.1,382.7c0,1.4-1.2,2.6-2.6,2.6h-8.8c-1.4,0-2.6-1.2-2.6-2.6l0,0c0-1.4,1.2-2.6,2.6-2.6h8.8
							C963.9,380.1,965.1,381.2,965.1,382.7L965.1,382.7z"/>
						<g>
							<path class="st9" d="M969.5,385.3c0,1.4-1.2,2.6-2.6,2.6h-17.7c-1.4,0-2.6-1.2-2.6-2.6l0,0c0-1.4,1.2-2.6,2.6-2.6h17.7
								C968.4,382.7,969.5,383.8,969.5,385.3L969.5,385.3z"/>
							<path class="st10" d="M965.5,385.3c0,1.1-0.9,2.1-2.1,2.1h-10.8c-1.1,0-2.1-0.9-2.1-2.1l0,0c0-1.1,0.9-2.1,2.1-2.1h10.8
								C964.6,383.2,965.5,384.1,965.5,385.3L965.5,385.3z"/>
						</g>
					</g>
					<g>
						<path class="st9" d="M968.3,360.9c-1.6,0-2.4,1.4-3.6,2.1c-2.8,1.6-10.3,1.6-13.1,0c-1.3-0.7-2.1-2.1-3.6-2.1
							c-2.3,0-4.2,1.9-4.2,4.2s1.9,4.2,4.2,4.2c1.6,0,2.4-1.4,3.6-2.1c2.8-1.6,10.3-1.6,13.1,0c1.3,0.7,2.1,2.1,3.6,2.1
							c2.3,0,4.2-1.9,4.2-4.2C972.5,362.8,970.6,360.9,968.3,360.9z"/>
						<g>
							<path class="st10" d="M948.5,363.2c0,0.7-0.6,1.3-1.3,1.3c-0.7,0-1.3-0.6-1.3-1.3c0-0.7,0.6-1.3,1.3-1.3
								C948,362,948.5,362.5,948.5,363.2z"/>
							<path class="st10" d="M970.2,363.6c0,0.7-0.6,1.3-1.3,1.3c-0.7,0-1.3-0.6-1.3-1.3c0-0.7,0.6-1.3,1.3-1.3
								C969.6,362.4,970.2,362.9,970.2,363.6z"/>
						</g>
					</g>
				</g>
			</g>
			<path class="st2" d="M1020.4,367.1c0,34.3-28,62.3-62.3,62.3c-34.4,0-62.4-27.9-62.4-62.3c0-2.9,0.2-5.8,0.6-8.6
				c4.2,30.3,30.3,53.7,61.8,53.7c31.5,0,57.6-23.4,61.8-53.7C1020.2,361.3,1020.4,364.2,1020.4,367.1z"/>
		</g>
	</g>
</g>
</svg>
