<?xml version="1.0" encoding="utf-8"?>
<!-- Generator: Adobe Illustrator 27.0.0, SVG Export Plug-In . SVG Version: 6.00 Build 0)  -->
<svg version="1.1" id="BACKGROUND" xmlns="http://www.w3.org/2000/svg" xmlns:xlink="http://www.w3.org/1999/xlink" x="0px" y="0px"
	 viewBox="0 0 837.3 604" style="enable-background:new 0 0 837.3 604;" xml:space="preserve">
<style type="text/css">
	.st0{clip-path:url(#SVGID_00000142150665937452622980000017269548870286989987_);}
	.st1{fill:#FFDF9F;}
	.st2{fill:#FFFFFF;}
	.st3{fill:#470F02;}
	.st4{fill:#6B1900;}
	.st5{fill:#6B130C;}
	.st6{fill:#470805;}
	.st7{opacity:0.68;}
	.st8{fill:#FF810C;}
	.st9{opacity:0.57;}
	.st10{fill:#5A0700;}
	.st11{fill:#C12B0E;}
	.st12{fill:#851F13;}
	.st13{opacity:0.1;fill:#FF682F;enable-background:new    ;}
	.st14{fill:#FF920E;}
	.st15{opacity:0.18;fill:#770000;enable-background:new    ;}
	.st16{fill:#96401A;}
	.st17{opacity:0.23;fill:#F9F4BB;enable-background:new    ;}
	.st18{opacity:0.24;fill:#770000;enable-background:new    ;}
	.st19{opacity:0.17;fill:#770000;enable-background:new    ;}
	.st20{opacity:0.16;fill:#770000;enable-background:new    ;}
	.st21{fill:#BF3D23;}
	.st22{opacity:0.49;}
	.st23{opacity:0.62;}
	.st24{fill:#B72C11;}
	.st25{fill:#FF682F;}
	.st26{opacity:0.21;fill:#770000;enable-background:new    ;}
	.st27{opacity:0.61;}
</style>
<g>
	<defs>
		<rect id="SVGID_1_" x="-28.8" y="0.7" width="903.9" height="602.6"/>
	</defs>
	<clipPath id="SVGID_00000041265225616283621210000009017277611069747600_">
		<use xlink:href="#SVGID_1_"  style="overflow:visible;"/>
	</clipPath>
	<g style="clip-path:url(#SVGID_00000041265225616283621210000009017277611069747600_);">
		<rect x="-28.8" y="0.7" class="st1" width="903.9" height="602.6"/>
		<g>
			<path class="st2" d="M249.1,97.7c0,0-35.3,10.8-42.5,0s14.2-14.4,21.2-12c0,0-8-2.4-5.6-9.3c2.4-6.9,9.9-4.8,9.9-4.8
				s-9.3-5.6-3.3-13.3c6-7.8,16-1.1,16-1.1s-12.4-22.3,8.4-29.5s31.3,15.1,31.6,25.9c0,0,5.7-7.8,13-2.4c7.2,5.4,1.2,16.6,1.2,16.6
				s7.8-2.8,12.4,1.9c4.5,4.7,2.1,10.8,2.1,10.8s15.4-10.5,25.6-2.7c10.2,7.8,2.4,27.7-25.3,18.1c0,0-13.3,11.1-23.2-2.1
				C290.7,93.6,272.6,110.2,249.1,97.7z"/>
			<path class="st2" d="M9.8,126.4c0,0-22.8-4-24,10.7c-1.2,14.6,30.4,10.4,39.5,6.5c0,0,14.5,9,31-1.5c0,0,37.4,8.4,54.2-1.2
				s3-19-8.1-16c0,0,1.8-7.2-5.4-8.4c-7.2-1.2-10.8,5.1-10.8,5.1s5.5-11.4-2.2-16.3s-14.6,1.2-14.6,1.2s8.5-26.7-13.2-28
				c-21.7-1.2-24.4,21.7-22,27.7c0,0-5.7-5.7-11.4-0.9s-2,9.9-2,9.9s-6.1-2.4-9.7,2.4S9.8,126.4,9.8,126.4z"/>
			<path class="st2" d="M478.6,198.6c0,0-19.9-3.4-20.9,9.3c-1,12.8,26.5,9.1,34.4,5.7c0,0,12.6,7.9,27.1-1.3c0,0,32.6,7.4,47.3-1
				c14.7-8.4,2.6-16.5-7.1-13.9c0,0,1.6-6.3-4.7-7.4c-6.3-1-9.5,4.5-9.5,4.5s4.8-10-2-14.2c-6.7-4.2-12.8,1-12.8,1
				s7.4-23.3-11.5-24.4c-18.9-1.1-21.3,18.9-19.2,24.1c0,0-5-5-10-0.8c-5,4.2-1.7,8.7-1.7,8.7s-5.3-2.1-8.5,2.1
				C476.3,195.2,478.6,198.6,478.6,198.6L478.6,198.6z"/>
			<path class="st2" d="M590.3,66.8c0,0-19.3-3.4-20.3,9.1c-1,12.4,25.8,8.8,33.5,5.5c0,0,12.3,7.7,26.3-1.3c0,0,31.7,7.2,46-1
				c14.3-8.2,2.6-16.1-6.9-13.5c0,0,1.5-6.1-4.6-7.2c-6.1-1-9.2,4.3-9.2,4.3s4.6-9.7-1.9-13.8c-6.5-4.1-12.4,1-12.4,1
				s7.2-22.7-11.2-23.7c-18.4-1.1-20.7,18.4-18.7,23.5c0,0-4.9-4.9-9.7-0.8s-1.7,8.4-1.7,8.4s-5.2-2-8.3,2
				C588.1,63.5,590.3,66.8,590.3,66.8L590.3,66.8z"/>
			<path class="st2" d="M813.2,164.6c0,0-29.2-5.1-30.8,13.7s39,13.4,50.6,8.3c0,0,18.5,11.6,39.8-1.9c0,0,47.9,10.8,69.5-1.5
				s3.9-24.3-10.4-20.5c0,0,2.3-9.3-7-10.8c-9.3-1.5-13.9,6.6-13.9,6.6s7-14.7-2.9-20.9c-9.9-6.2-18.8,1.5-18.8,1.5
				s10.9-34.3-17-35.9c-27.9-1.6-31.3,27.8-28.2,35.5c0,0-7.3-7.3-14.7-1.2c-7.3,6.2-2.6,12.8-2.6,12.8s-7.9-3.1-12.5,3.1
				S813.2,164.6,813.2,164.6L813.2,164.6z"/>
		</g>
		<g>
			<path class="st3" d="M526.8,197.3c116.9-2.5,149.9,125.1,348.3,128v202.3H-26.5V340.3c0,0,305.8,29.1,384.6-41.3
				S471.4,198.5,526.8,197.3z"/>
			<path class="st4" d="M-28.8,293.9c0,0,74.2-157.2,196.8-153.2c108.1,3.5,114.8,96,215.9,174.6C485,393.9,875.1,380,875.1,380
				v147.3H-26.5L-28.8,293.9L-28.8,293.9z"/>
		</g>
		<g>
			<path class="st5" d="M875.1,348.2c0,0-225.3-35.6-414.8,38.8s-488.8,98.6-488.8,98.6v117.9h903.6L875.1,348.2z"/>
			<g>
				<path class="st6" d="M596.7,370.6c5.5,1.8,29.5,9.6,49.8,18.3c2.6,1.1,3,4.5,0.8,6.3c-3.2,2.5-8,5.7-14.3,8.2
					c-0.8,0.3-1.7,0.3-2.5,0.1c-6.3-2.1-34.8-11.5-54.1-19.2c-3-1.2-3.1-5.5,0-6.8c4.8-2,11.3-4.6,18-6.9
					C595.1,370.3,595.9,370.3,596.7,370.6L596.7,370.6z"/>
				<path class="st6" d="M564.2,387.6c6.1,2.5,30.5,12.6,50.8,23.7c2.1,1.2,2.6,4,0.9,5.7c-3,3.2-8.3,8-15.5,11.7
					c-0.9,0.5-2,0.5-3,0.1c-7.1-2.9-36.8-15.4-55.8-25c-2.6-1.3-2.7-5.1-0.1-6.5c4.9-2.6,12.1-6.3,19.7-9.7
					C562.2,387.2,563.3,387.2,564.2,387.6L564.2,387.6z"/>
			</g>
			<g class="st7">
				<g>
					<path class="st6" d="M826.9,364.1c36.4,2.8,24.9,19.4-2.4,20.2C797.2,385.2,794,361.6,826.9,364.1z"/>
					<path class="st6" d="M809.2,399.4c17.9,0.8,19.3,14.7,0,13.9C789.9,412.5,785.9,398.3,809.2,399.4z"/>
				</g>
				<path class="st6" d="M726.5,403c34.8,0.7,32.9,14.3,0,13.5C693.5,415.7,693.5,402.3,726.5,403z"/>
			</g>
		</g>
		<g>
			<g>
				<path class="st8" d="M702.2,376.4c0,0,23.7-47.9,50.5-45.3C781.5,333.9,751.6,378.4,702.2,376.4z"/>
				<g class="st9">
					<path class="st10" d="M702.9,376.4c4.2-4.4,8.7-8.5,13.3-12.4c4.6-3.9,9.4-7.6,14.4-11.1c2.5-1.7,5-3.4,7.6-5
						c1.3-0.8,2.6-1.5,3.9-2.3l2-1.1l2-1c2.7-1.4,5.5-2.6,8.3-3.7l4.4-1.4c1.5-0.3,3-0.6,4.5-0.8c-5.8,1.7-11.1,4.6-16.3,7.6
						c-5.2,3-10.2,6.3-15.1,9.8c-4.9,3.4-9.8,7-14.6,10.6L702.9,376.4L702.9,376.4z"/>
				</g>
			</g>
			<g>
				<path class="st11" d="M707.4,365c0,0,16.5-42.3,35.3-63.1c18.8-20.8,32-17.5,34-6.6C778.8,306.1,751.8,336.8,707.4,365z"/>
				<g class="st9">
					<path class="st10" d="M707.4,365c4.2-7.3,8.7-14.4,13.6-21.3c4.9-6.9,10.1-13.6,15.5-20c2.8-3.2,5.6-6.3,8.5-9.4
						c3-3,6-6,9.2-8.7c6.4-5.5,13.4-10.6,21.3-13.7c-3.7,1.9-7.2,4.3-10.5,6.9c-3.3,2.6-6.4,5.3-9.5,8.2c-6,5.8-11.7,11.9-17.2,18.3
						c-5.5,6.4-10.7,12.9-15.9,19.5C717.4,351.4,712.4,358.1,707.4,365L707.4,365z"/>
				</g>
			</g>
		</g>
		<g>
			<path class="st12" d="M875.1,511.2v91.9H-28.7l0-264.6c0,0,59.6-52,195.4-52.7c21-0.1,43.9,1,68.6,3.7c6.6,0.7,13.4,1.6,20.3,2.5
				c118.7,16.7,234.8,84.9,357.7,141.1c17,7.8,34.1,15.3,51.3,22.4C731.9,483.4,801.6,505.3,875.1,511.2L875.1,511.2z"/>
			<path class="st13" d="M664.6,455.6c-58.1,5.7-117.5-2.4-171.9-23.7c-15.8-6.2-31.2-13.5-47-19.9c-45.8-18.5-94.4-28.9-143-38
				c-23.6-4.4-48.1-8.8-68.2-22c-12.7-8.4-23.9-22.6-21.1-37.6c2.1-11.3,11.4-19.3,21.9-24.9c6.6,0.7,13.4,1.6,20.3,2.5
				c118.7,16.7,234.8,84.9,357.7,141.1C630.2,440.9,647.3,448.4,664.6,455.6z"/>
			<g>
				<path class="st5" d="M365.7,333.2c16.9,4.5,21.7,16.6-2.4,11.4C339.2,339.4,342.4,327,365.7,333.2z"/>
				<path class="st5" d="M389,362.7c18.4,6.6,12.9,9.6,0,8S377.3,358.5,389,362.7z"/>
			</g>
		</g>
		<g>
			<g>
				<path class="st14" d="M109.5,243.6c1.7,8.1,1.3,18.9-9.1,26.4c-18.5,13.5-30.4,0.1-30.4,0.1C8.8,292.2-11,253.2-10.3,222.6
					c0.7-30.6,19.1-25.5,19.1-25.5s3.4-28.3,29-34.5c4.3-1,8.1-1.3,11.4-1c16.5,1.3,21.6,15.6,21.6,15.6s19.8-11.3,36.7,11.1
					c16.9,22.3-1.9,44.3-1.9,44.3S108.3,237.2,109.5,243.6L109.5,243.6z"/>
				<path class="st15" d="M100.5,270.1c-18.5,13.5-30.4,0.1-30.4,0.1C8.8,292.2-11,253.2-10.3,222.6c0.7-30.6,19.1-25.5,19.1-25.5
					s3.4-28.3,29-34.5c4.3-1,8.1-1.3,11.4-1c-1.2,0.2-2.4,0.5-3.7,1c-9.8,3.3-18.1,12-19.5,22.4c-2.2,15.9,12,32,28.1,31.8
					c-11.2,4.1-22,14.6-19.5,26.2c1.9,8.7,10.9,14.4,19.7,15c8.8,0.6,17.4-2.9,25.2-7.1c1.8,5.8,8.1,9.5,14.2,9
					c6-0.5,11.4-4.8,13.9-10.3c0.9-1.9,1.5-3.8,2.1-5.8C111.2,251.8,110.8,262.6,100.5,270.1L100.5,270.1z"/>
				<path class="st16" d="M86.5,320c0,0-11,4.4-19.4,1.6c0,0,10-31.4-2.3-51.9c-8.4-13.9-29.5-47.6-28.6-71.3c0-1.1,0.7-2.1,1.7-2.3
					l1-0.2c1-0.2,2,0.6,2.1,1.9c1,7.4,5.5,31.7,23.7,50.9c0,0-10.3-14.8-7-36.2c0.2-1,0.8-1.8,1.7-1.9h0.1c1.2-0.2,2.2,0.9,2.1,2.3
					c-0.2,7.3,0.4,27.6,13.2,41.9c0,0,4.7-2.5,6.1-15.3c0.1-1,0.8-1.8,1.6-2l0,0c1.1-0.3,2.2,0.7,2.2,2.1c0.2,4.4-0.1,13.5-4.5,18.9
					C80.2,258.5,89.1,290.4,86.5,320L86.5,320z"/>
				<path class="st17" d="M86,181.8c-2.4-0.1-5,0-6.8,1.6c-2.4,2-2.6,5.6-2.2,8.7c1.3,10.1,7.3,19.4,15.8,24.8
					c3,1.9,6.8,3.4,10.2,2.2c3.8-1.3,5.8-5.6,6.2-9.6C111,195.4,100,182.6,86,181.8L86,181.8z"/>
			</g>
			<g>
				<path class="st14" d="M600.4,320.8c0.7,3.5,0.5,8.1-3.9,11.4c-8,5.8-13.1,0-13.1,0c-26.3,9.5-34.8-7.3-34.5-20.4
					c0.3-13.1,8.2-10.9,8.2-10.9s1.5-12.2,12.4-14.8c1.8-0.4,3.5-0.6,4.9-0.4c7.1,0.5,9.3,6.7,9.3,6.7s8.5-4.8,15.8,4.7
					c7.3,9.6-0.8,19-0.8,19S599.8,318,600.4,320.8L600.4,320.8z"/>
				<path class="st18" d="M596.4,332.1c-8,5.8-13.1,0-13.1,0c-26.3,9.5-34.8-7.3-34.5-20.4c0.3-13.1,8.2-10.9,8.2-10.9
					s1.5-12.2,12.4-14.8c1.8-0.4,3.5-0.6,4.9-0.4c-0.5,0.1-1,0.2-1.6,0.4c-4.2,1.4-7.8,5.2-8.4,9.6c-0.9,6.8,5.2,13.7,12.1,13.7
					c-4.8,1.8-9.5,6.2-8.4,11.2c0.8,3.7,4.7,6.2,8.4,6.4c3.8,0.3,7.5-1.3,10.8-3.1c0.7,2.5,3.5,4.1,6.1,3.9c2.6-0.2,4.9-2.1,6-4.4
					c0.4-0.8,0.6-1.6,0.9-2.5C601,324.3,600.8,328.9,596.4,332.1L596.4,332.1z"/>
				<path class="st16" d="M590.5,353.6c0,0-4.7,1.9-8.3,0.7c0,0,4.3-13.5-1-22.3c-3.6-6-12.7-20.5-12.3-30.6c0-0.5,0.3-0.9,0.7-1
					l0.4-0.1c0.4-0.1,0.8,0.3,0.9,0.8c0.4,3.2,2.4,13.6,10.2,21.9c0,0-4.4-6.4-3-15.5c0.1-0.4,0.4-0.8,0.7-0.8h0
					c0.5-0.1,0.9,0.4,0.9,1c-0.1,3.1,0.2,11.8,5.7,18c0,0,2-1.1,2.6-6.6c0-0.4,0.3-0.8,0.7-0.9l0,0c0.5-0.1,0.9,0.3,1,0.9
					c0.1,1.9,0,5.8-1.9,8.1C587.8,327.2,591.6,340.8,590.5,353.6L590.5,353.6z"/>
				<path class="st17" d="M590.3,294.2c-1-0.1-2.2,0-2.9,0.7c-1,0.9-1.1,2.4-0.9,3.7c0.6,4.3,3.1,8.3,6.8,10.7
					c1.3,0.8,2.9,1.5,4.4,1c1.6-0.6,2.5-2.4,2.7-4.1C601,300.1,596.2,294.6,590.3,294.2L590.3,294.2z"/>
			</g>
			<g>
				<path class="st14" d="M394.1,309.2c-1.6,6.7-1.2,15.6,8.9,21.8c18.2,11.1,29.9,0.1,29.9,0.1c60.2,18.2,79.6-14,79-39.3
					c-0.7-25.3-18.7-21.1-18.7-21.1s-3.3-23.4-28.5-28.5c-4.2-0.9-7.9-1.1-11.2-0.9c-16.2,1-21.3,12.9-21.3,12.9s-19.4-9.3-36.1,9.1
					C379.5,281.9,398,300,398,300S395.4,303.9,394.1,309.2L394.1,309.2z"/>
				<path class="st19" d="M403.1,331c18.2,11.1,29.9,0.1,29.9,0.1c60.2,18.2,79.6-14,79-39.3c-0.7-25.3-18.7-21.1-18.7-21.1
					s-3.3-23.4-28.5-28.5c-4.2-0.9-7.9-1.1-11.2-0.9c1.2,0.2,2.4,0.4,3.6,0.8c9.6,2.7,17.8,9.9,19.2,18.5
					c2.1,13.1-11.8,26.4-27.6,26.3c11,3.4,21.6,12,19.2,21.6c-1.8,7.1-10.7,11.9-19.3,12.4c-8.7,0.5-17.1-2.4-24.7-5.9
					c-1.7,4.8-8,7.9-13.9,7.4c-5.9-0.4-11.2-4-13.7-8.5c-0.9-1.5-1.4-3.2-2.1-4.8C392.5,315.9,392.9,324.8,403.1,331L403.1,331z"/>
				<path class="st16" d="M416.7,372.3c0,0,10.8,3.6,19.1,1.3c0,0-9.8-25.9,2.3-42.9c8.2-11.5,29-39.4,28.1-58.9
					c0-0.9-0.7-1.7-1.6-1.9l-1-0.2c-1-0.2-1.9,0.5-2.1,1.5c-1,6.1-5.4,26.2-23.2,42.1c0,0,10.1-12.2,6.9-29.9
					c-0.2-0.8-0.8-1.5-1.6-1.6h-0.1c-1.1-0.2-2.1,0.7-2.1,1.9c0.2,6-0.4,22.8-13,34.6c0,0-4.6-2.1-6-12.6c-0.1-0.8-0.7-1.5-1.5-1.7
					l0,0c-1.1-0.2-2.1,0.6-2.2,1.7c-0.2,3.7,0.1,11.1,4.4,15.6C423,321.5,414.3,347.8,416.7,372.3L416.7,372.3z"/>
				<path class="st17" d="M417.2,258.1c2.4-0.1,4.9,0,6.7,1.3c2.4,1.7,2.5,4.7,2.1,7.2c-1.3,8.3-7.2,16-15.6,20.5
					c-3,1.6-6.7,2.8-10,1.8c-3.7-1.1-5.7-4.6-6.1-7.9C392.7,269.4,403.5,258.8,417.2,258.1L417.2,258.1z"/>
			</g>
			<g>
				<path class="st14" d="M791.2,301.4c-1.3,5.5-1,13,7.4,18.1c15.1,9.2,24.8,0,24.8,0c49.9,15.1,66-11.6,65.4-32.6
					c-0.6-21-15.5-17.5-15.5-17.5s-2.8-19.4-23.6-23.6c-3.5-0.7-6.6-0.9-9.3-0.7c-13.4,0.9-17.6,10.7-17.6,10.7s-16.1-7.7-29.9,7.6
					s1.5,30.3,1.5,30.3S792.3,297,791.2,301.4L791.2,301.4z"/>
				<path class="st20" d="M798.6,319.5c15.1,9.2,24.8,0,24.8,0c49.9,15.1,66-11.6,65.4-32.6c-0.6-21-15.5-17.5-15.5-17.5
					s-2.8-19.4-23.6-23.6c-3.5-0.7-6.6-0.9-9.3-0.7c1,0.1,2,0.4,3,0.7c8,2.3,14.7,8.2,15.9,15.4c1.8,10.9-9.8,21.9-22.9,21.8
					c9.1,2.8,17.9,10,15.9,17.9c-1.5,5.9-8.8,9.8-16,10.2c-7.2,0.4-14.2-2-20.5-4.9c-1.4,4-6.6,6.5-11.5,6.2
					c-4.9-0.4-9.3-3.3-11.3-7.1c-0.7-1.3-1.2-2.6-1.7-4C789.9,306.9,790.2,314.3,798.6,319.5L798.6,319.5z"/>
				<path class="st16" d="M810,353.7c0,0,8.9,3,15.8,1.1c0,0-8.1-21.5,1.9-35.5c6.8-9.5,24-32.6,23.3-48.8c0-0.8-0.6-1.4-1.3-1.6
					l-0.8-0.1c-0.8-0.1-1.6,0.4-1.7,1.3c-0.8,5.1-4.5,21.7-19.3,34.9c0,0,8.4-10.1,5.7-24.8c-0.1-0.7-0.7-1.2-1.3-1.3H832
					c-1-0.2-1.8,0.6-1.7,1.6c0.2,5-0.3,18.9-10.8,28.7c0,0-3.8-1.7-5-10.5c-0.1-0.7-0.6-1.3-1.3-1.4l0,0c-0.9-0.2-1.8,0.5-1.8,1.4
					c-0.1,3,0.1,9.2,3.6,12.9C815.1,311.6,807.9,333.4,810,353.7L810,353.7z"/>
				<path class="st17" d="M810.4,259.1c2-0.1,4.1,0,5.6,1.1c1.9,1.4,2.1,3.9,1.8,6c-1.1,6.9-5.9,13.3-12.9,17
					c-2.5,1.3-5.5,2.4-8.3,1.5c-3.1-0.9-4.7-3.8-5.1-6.6C790.1,268.4,799,259.7,810.4,259.1L810.4,259.1z"/>
			</g>
		</g>
		<g>
			<path class="st21" d="M-28.4,461.9c0,0,55.8-43.7,243.8-42.9s487.7,112.3,659.7,133.9l0,50.2l-903.9,0.3L-28.4,461.9L-28.4,461.9
				z"/>
			<g class="st22">
				<g>
					<path class="st10" d="M188.7,547.2c5.1,5,12.9,11.1,22.6,13c1.3,0.3,2.7,0.1,3.9-0.3c7.3-2.8,35.7-13.8,52.3-24.2
						c4.3-2.7,4.4-8.9,0.2-11.8c-3.6-2.5-7.9-5.2-11.9-6.8c-1.3-0.5-2.7-0.7-4.1-0.3c-7.6,1.7-35,8-60.7,19
						C186.4,537.6,185.2,543.6,188.7,547.2L188.7,547.2z"/>
					<path class="st10" d="M227.6,573.7c6.1,5.9,15.7,13.5,26.3,15.6c1.2,0.2,2.5,0.2,3.7-0.2c7.3-2.5,36.3-12.7,52.9-22.9
						c4.2-2.6,4.5-8.4,0.7-11.5c-6.2-5-15.1-11.8-21.2-14.9c-1.8-0.9-3.8-1-5.7-0.3c-7.7,2.9-30.7,11.8-54.8,22.8
						C225,564.3,224,570.2,227.6,573.7L227.6,573.7z"/>
					<path class="st10" d="M270.6,602.4c6,5.8,15.5,13.3,25.9,15.5c1.5,0.3,3,0.1,4.4-0.5c7.2-3.4,32-15.2,47.6-25.7
						c4.3-2.9,4.1-9.3-0.3-11.9c-5.9-3.6-13.6-8-19.1-10.3c-1.7-0.7-3.6-0.8-5.3-0.1c-7,2.7-27.9,10.8-51.3,21.6
						C268,592.9,267,598.9,270.6,602.4L270.6,602.4z"/>
				</g>
			</g>
			<g class="st23">
				<g>
					<path class="st12" d="M452.5,467.8c38,3.8,25.7,15.6,0,13.9C426.8,480,419.6,464.5,452.5,467.8z"/>
					<path class="st12" d="M456.5,496.1c56.7,3.8,43.4,26.3-4.8,23.2S409.9,492.9,456.5,496.1z"/>
					<path class="st12" d="M519.2,487.5c23.3,1.7,16.1,10.9,0,10.9C503.1,498.4,502.6,486.3,519.2,487.5z"/>
				</g>
			</g>
		</g>
		<g>
			<g>
				<path class="st11" d="M252.9,475.1c0,0,33.3-16.8,53-44.9c19.8-28.1,14-54.6,14-54.6S242.5,387.4,252.9,475.1z"/>
				<g class="st9">
					<path class="st10" d="M252.9,475.1c2.8-9.8,6.5-19.3,10.7-28.6c4.2-9.3,9-18.3,14.4-27c2.7-4.3,5.6-8.6,8.6-12.7
						c3.1-4.1,6.3-8.1,9.8-11.8c3.5-3.8,7.1-7.4,11-10.7c4-3.3,8.1-6.3,12.5-8.8c-4,3.2-7.8,6.5-11.3,10.1
						c-3.6,3.5-6.9,7.4-10.1,11.2c-3.2,3.9-6.2,7.9-9.1,12c-2.9,4.1-5.7,8.3-8.3,12.6c-2.7,4.2-5.2,8.6-7.7,13
						c-2.5,4.4-4.9,8.8-7.2,13.3C261.5,456.8,257.1,465.9,252.9,475.1L252.9,475.1z"/>
				</g>
			</g>
			<g>
				<path class="st8" d="M245,501c-0.9,9.7,25.5-28.3,63.5-25.1c38,3.3,49.9-19.6,31.3-31C312.2,428.2,250,447.4,245,501L245,501z"
					/>
				<g class="st9">
					<path class="st10" d="M245,501c4.4-9.2,10.7-17.5,18-24.8c7.3-7.3,15.8-13.4,25.3-17.7c4.8-2.1,9.7-3.7,14.8-4.9
						c5.1-1,10.3-1.6,15.5-1.5c10.4,0.1,20.6,2.4,29.9,6.4c-9.9-2.5-19.9-3.9-29.9-3.6c-5,0.3-9.9,0.9-14.8,2.1
						c-4.8,1.2-9.5,2.8-14.1,4.8c-4.6,2-8.9,4.5-13,7.2c-4.2,2.7-8.1,5.9-11.8,9.2C257.4,485,250.7,492.6,245,501L245,501z"/>
				</g>
			</g>
			<g>
				<path class="st8" d="M82.8,479.2c0,0-54-15.6-52.9-28.6c1-13,15.1-4.8,15.6-11.5c0.5-6.7-21.8-15.5-20.3-28.3
					c1.6-12.7,13-4.9,14-10.7c1-5.7-17.2-29-1.6-36.1c15.6-7.2,20.3,26.8,26,26.3s5-9.9,14.2-6.2c9.2,3.6-6.2,41.6,0.5,43
					c6.8,1.4,3.8-10,14.6-6.5C103.7,424.1,90.5,471.9,82.8,479.2L82.8,479.2z"/>
				<g class="st9">
					<path class="st10" d="M37.6,364c4.9,9.1,9.2,18.5,13.3,28c2.1,4.7,4.1,9.5,6,14.2c2,4.8,3.9,9.6,5.7,14.4
						c3.7,9.6,7.3,19.3,10.7,29.1c3.4,9.7,6.5,19.6,9.4,29.5c-4.2-9.4-8.1-19-12-28.5c-2-4.8-3.8-9.6-5.7-14.4l-5.6-14.4l-5.6-14.4
						c-1.8-4.8-3.7-9.6-5.5-14.5C44.7,383.4,41.1,373.7,37.6,364L37.6,364z"/>
				</g>
			</g>
			<g>
				<path class="st24" d="M109.9,497.9c0,0-40.6,9.6-82.1-3c-41.6-12.6-34.3-43.8-4.2-46.9S90.7,473.4,109.9,497.9L109.9,497.9z"/>
				<g class="st9">
					<path class="st10" d="M0.2,461.9c4.8-0.3,9.7-0.2,14.5,0.1c2.4,0.1,4.8,0.4,7.3,0.6c2.4,0.3,4.8,0.6,7.2,0.9
						c9.6,1.4,19.1,3.7,28.4,6.7c4.7,1.4,9.2,3.3,13.7,5.1c2.2,1,4.4,2,6.6,3.1l3.3,1.6l3.2,1.8c2.1,1.2,4.3,2.3,6.4,3.6l6.1,4
						c1,0.7,2,1.3,3,2.1l2.9,2.3c1.9,1.5,3.8,3,5.6,4.6c-2.1-1.2-4.1-2.5-6.2-3.8l-3-1.9c-1-0.6-2.1-1.1-3.2-1.7l-6.3-3.5l-6.5-3.1
						l-3.2-1.6l-3.3-1.4c-2.2-0.9-4.4-1.9-6.6-2.8l-6.7-2.5c-2.2-0.9-4.5-1.5-6.8-2.3l-3.4-1.1c-1.1-0.4-2.3-0.7-3.4-1
						c-2.3-0.6-4.6-1.3-6.9-1.9l-7-1.8c-2.3-0.5-4.7-1-7-1.6C19.3,464.4,9.8,462.9,0.2,461.9L0.2,461.9z"/>
				</g>
			</g>
		</g>
		<g>
			<g>
				<path class="st25" d="M-19.4,682.4C-52,643-66.7,580.9-49.1,519.1c9.2-32.3,40.1-46.9,67.8-41.1l0,0c3.1,0.7,6.1,1.5,9.1,2.7
					c15.8,6.1,29.4,19.4,35.7,40.4c2.2,7.2,3.5,15.3,3.7,24.4C69.5,646.1-19.4,682.3-19.4,682.4L-19.4,682.4z"/>
				<g class="st9">
					<path class="st10" d="M-19.4,682.4c0-17.4,1-34.8,2.7-52.1c0.8-8.7,1.9-17.3,3-25.9c0.6-4.3,1.3-8.6,1.9-12.9
						c0.7-4.3,1.4-8.6,2.1-12.9c1.6-8.6,3.2-17.1,5.1-25.6c1.9-8.5,3.9-17,6.3-25.4c2.3-8.4,4.8-16.8,7.6-25
						C12,494.2,15,486,18.6,478l0,0l0,0l0,0l0.1-0.1l0,0.1l0,0l0,0l0,0c-2.4,8.4-4.6,16.8-6.6,25.2c-2.1,8.4-4,16.9-5.9,25.3
						C4.4,537,2.5,545.5,0.9,554l-2.5,12.7c-0.8,4.3-1.6,8.5-2.3,12.8c-1.6,8.5-3,17.1-4.4,25.6c-1.4,8.5-2.7,17.1-4,25.7
						C-14.7,647.9-17,665.1-19.4,682.4L-19.4,682.4z"/>
				</g>
				<path class="st18" d="M-19.4,682.4C-52,643-66.7,580.9-49.1,519.1c9.2-32.3,40.1-46.9,67.8-41.1l0,0c3.1,0.7,6.1,1.5,9.1,2.7
					c-3.8,1-7.5,2-11.2,3.3C1.3,489-11.9,497-19.1,515.5c-10.1,23.3-6.9,50.5,1.7,74.4c0.8,2.3,1.8,4.8,3.7,6.3
					c1.2,1,2.4,1.4,3.7,1.6c5.5,0.5,11.7-5.7,15.2-11.2c12.2-19.1,26.6-36.8,42.8-52.7c4.7-4.6,9.8-9.1,15.3-12.7
					c2.2,7.2,3.5,15.3,3.7,24.4C69.5,646.1-19.4,682.3-19.4,682.4L-19.4,682.4z"/>
			</g>
			<g>
				<g>
					<path class="st14" d="M137.3,581c-18.1,26.3-45.5,55.5-71.6,80.9c-38.4,37.4-74.2,66.7-74.2,66.7S-23.3,647.4,37.7,561
						c25.7-36.4,55.3-50.1,77.7-48.9c6.4,0.3,12.1,1.8,17,4.4C151.4,526.2,158,551.1,137.3,581L137.3,581z"/>
					<g class="st9">
						<path class="st10" d="M133.3,515.2c-10.8,18.5-22.1,36.6-33.5,54.6c-5.7,9-11.5,18-17.3,26.9l-17.6,26.8L47,650.1
							c-6,8.8-12,17.7-18.1,26.4c-12.2,17.5-24.5,35-37.3,52.1C2.4,710.2,13.7,692,25.2,674c5.7-9,11.5-18,17.3-26.9L60,620.3
							l17.8-26.6c6-8.8,12-17.7,18.1-26.4C108.2,549.8,120.5,532.3,133.3,515.2L133.3,515.2z"/>
					</g>
				</g>
				<path class="st26" d="M39.2,600.6c-3,11.7-5.1,24-2.3,35.7c1.2,5,3.4,9.8,6.5,13.9c4.2,5.6,10,9.8,16.8,11.1
					c1.9,0.4,3.7,0.5,5.7,0.5c-38.4,37.4-74.2,66.7-74.2,66.7S-23.3,647.4,37.7,561c25.7-36.4,55.3-50.1,77.7-48.9
					c-18.1,4.4-33.6,12.6-50,31.4C52.5,560.2,44.4,580.2,39.2,600.6L39.2,600.6z"/>
			</g>
			<g>
				<path class="st25" d="M229.8,543.3c-4.6,42.4-19.6,75.6-38.7,101.4c-47.8,64.5-121.2,82.5-121.2,82.5
					c17.5-113.6,67.3-157.4,106.8-174.1C206.2,540.7,229.8,543.3,229.8,543.3L229.8,543.3z"/>
				<g class="st9">
					<path class="st10" d="M229.8,543.3c-8.3,6.1-16.3,12.5-24.2,19.1c-7.9,6.5-15.5,13.4-23.1,20.3c-7.5,7-14.9,14-22,21.4
						c-7.1,7.3-14.1,14.8-20.9,22.5c-13.5,15.3-26.2,31.4-37.9,48.2c-11.7,16.8-22.2,34.4-31.9,52.5c3.9-9.5,8.2-18.9,13.1-28
						c2.3-4.6,5-9,7.5-13.5c1.3-2.2,2.7-4.4,4-6.6c1.3-2.2,2.7-4.4,4.1-6.6l4.2-6.5c1.4-2.1,2.9-4.2,4.4-6.4l2.2-3.2l2.3-3.1
						l4.6-6.2c6.3-8.2,12.8-16.2,19.6-24c6.9-7.7,14-15.2,21.3-22.5c7.4-7.2,14.9-14.3,22.8-21c7.8-6.7,15.9-13.2,24.1-19.3
						C212.4,554.4,220.9,548.5,229.8,543.3L229.8,543.3z"/>
				</g>
				<path class="st18" d="M191.1,644.7c-47.8,64.5-121.2,82.5-121.2,82.5c17.5-113.6,67.3-157.4,106.8-174.1
					c-20.6,17.3-38,38.4-50.8,62c-3.6,6.7-7,13.9-6.2,21.5c1.3,13.7,16,22.8,29.7,22.9c13.7,0.1,26.5-6.5,38.5-13.1
					C189,645.9,190.1,645.3,191.1,644.7L191.1,644.7z"/>
			</g>
		</g>
		<g>
			<g>
				<g>
					<path class="st8" d="M867.5,621.6c0,0-75.6-15.6-128.9-98.8c-0.3-0.5-0.6-0.9-0.9-1.4c-27.8-44.3-22-81.2-4.4-96.3
						c9.3-7.9,21.8-9.9,34.4-3.7c8,3.9,16,11.1,23.2,22.1C831,504.8,866.9,619.8,867.5,621.6C867.4,621.6,867.4,621.6,867.5,621.6
						L867.5,621.6z"/>
					<g class="st9">
						<path class="st10" d="M867.5,621.6C867.5,621.6,867.5,621.6,867.5,621.6L867.5,621.6c-12.2-15.8-24-31.9-35.6-48.2
							c-5.8-8.1-11.5-16.3-17.3-24.4l-17-24.6c-11.3-16.5-22.3-33-33.2-49.8c-10.9-16.7-21.6-33.5-31.9-50.7
							c12.1,15.8,23.8,32,35.3,48.3c5.8,8.1,11.4,16.3,17.2,24.5l17,24.6l16.8,24.7c5.5,8.3,11.1,16.6,16.5,24.9
							C846.3,587.7,857.1,604.5,867.5,621.6L867.5,621.6C867.4,621.6,867.4,621.6,867.5,621.6L867.5,621.6z"/>
					</g>
				</g>
				<path class="st26" d="M867.5,621.6c0,0-75.6-15.6-128.9-98.8c-0.3-0.5-0.6-0.9-0.9-1.4c1.9,0.4,3.8,0.9,5.6,1.6
					c7.2,2.7,13.5,7.6,20.7,10.5c7.2,2.9,16.4,3.2,21.8-2.4c4.4-4.5,5-11.4,5.2-17.7c0-1.1,0.1-2.2,0.1-3.3
					c0.4-18.7-0.7-37.6-6-55.5c-3.8-12.7-9.5-23.5-17.4-33.3c8,3.9,16,11.1,23.2,22.1C831,504.8,866.9,619.8,867.5,621.6
					C867.4,621.6,867.4,621.6,867.5,621.6L867.5,621.6z"/>
			</g>
			<g>
				<path class="st25" d="M846.5,610.5c0,0-68.7,18.6-137.1-6.8c-26.9-10-53.7-26.7-76.3-54.1c0,0,34.3-22.5,85.9-15.3
					C755,539.4,799.4,558.9,846.5,610.5L846.5,610.5z"/>
				<g class="st9">
					<path class="st10" d="M633,549.7c9.4-0.2,18.7,0.3,28,1c9.3,0.7,18.6,1.8,27.9,3.1c18.5,2.7,36.9,6.6,55,11.5
						c9,2.6,18,5.3,26.9,8.4c8.8,3.2,17.6,6.4,26.2,10.2c2.2,0.9,4.3,1.9,6.4,2.9l6.4,3l6.3,3.2l3.1,1.6l3.1,1.7l6.2,3.4l6,3.6
						c4.1,2.3,7.9,5,11.9,7.5l-6.2-3.2l-3.1-1.6l-3.1-1.6l-6.3-3.1l-6.3-3l-3.2-1.5l-3.2-1.4l-6.4-2.8c-4.3-1.7-8.6-3.7-12.9-5.3
						c-17.3-6.8-35-12.6-52.9-17.6c-9-2.5-18-4.7-27.1-6.8c-9.1-2.1-18.2-3.9-27.4-5.6c-9.2-1.6-18.4-3.1-27.6-4.4
						C651.6,551.5,642.3,550.4,633,549.7L633,549.7z"/>
				</g>
				<path class="st18" d="M846.5,610.5c0,0-68.7,18.6-137.1-6.8c5.9,0.1,11.7,0.1,17.5-0.5c12.9-1.3,25.5-5.7,36.5-12.7
					c4.1-2.6,8.2-5.8,10-10.3c4.3-10.5-5.1-21.3-14.3-27.9c-13.2-9.3-26.1-13.6-40-17.9C755,539.4,799.4,558.9,846.5,610.5
					L846.5,610.5z"/>
			</g>
			<g>
				<path class="st11" d="M897.2,648.6c0,0-68.4-40.6-72.4-143.3c0-1.5-0.1-3-0.1-4.5c-0.9-42.6,15.6-64.8,34.8-69.3
					c5.5-1.3,11.1-1.1,16.7,0.4c16.1,4.4,31.2,20.1,37.5,45.7C929.7,543.5,920.8,608.5,897.2,648.6L897.2,648.6z"/>
				<g class="st27">
					<path class="st10" d="M859.4,431.4c3.3,8.6,5.9,17.5,8.5,26.3c2.5,8.9,4.9,17.8,7,26.8c1.1,4.5,2.1,9,3.1,13.5
						c1,4.5,1.9,9,2.8,13.5c0.9,4.5,1.8,9,2.6,13.6c0.8,4.5,1.7,9.1,2.4,13.6c3,18.2,5.6,36.4,7.4,54.8c1.1,9.1,1.7,18.4,2.5,27.5
						c0.6,9.2,1.1,18.4,1.4,27.6c-1.5-9.1-2.7-18.2-4.1-27.3l-2-13.6l-1-6.8l-1-6.8c-0.7-4.5-1.4-9.1-2-13.6
						c-0.7-4.5-1.4-9.1-2.1-13.6c-1.3-9.1-2.9-18.1-4.4-27.2c-1.5-9.1-3-18.1-4.7-27.1c-1.5-9.1-3.3-18.1-5-27.1l-2.7-13.5
						c-0.9-4.5-1.8-9-2.8-13.5C863.5,449.4,861.5,440.4,859.4,431.4L859.4,431.4z"/>
				</g>
				<path class="st18" d="M897.2,648.6c0,0-68.4-40.6-72.4-143.3c5.3,4.1,9.8,10.2,12,15.7c7,18.1,13.6,35.5,23.9,51.9
					c4.3,6.9,10.4,14.4,17.1,9.9c2-1.3,3.3-3.5,4.4-5.6c1.9-3.5,3.7-7.2,5.2-10.9c11-25.8,13.8-54.9,8.9-82.5
					c-2.8-15.9-8.2-31.4-16.2-45.6c-1.1-2-2.6-4.1-4.1-6.3c16.1,4.4,31.2,20.1,37.5,45.7C929.7,543.5,920.8,608.5,897.2,648.6
					L897.2,648.6z"/>
			</g>
		</g>
	</g>
</g>
</svg>
