<?xml version="1.0" encoding="utf-8"?>
<!-- Generator: Adobe Illustrator 27.0.0, SVG Export Plug-In . SVG Version: 6.00 Build 0)  -->
<svg version="1.1" id="Ebene_1" xmlns="http://www.w3.org/2000/svg" xmlns:xlink="http://www.w3.org/1999/xlink" x="0px" y="0px"
	 viewBox="0 0 750 500" style="enable-background:new 0 0 750 500;" xml:space="preserve">
<style type="text/css">
	.st0{opacity:0.4;fill:#E8F194;enable-background:new    ;}
</style>
<path class="st0" d="M248.9,254.4c27.7,5.8,68.3,0,91.7,20.1c17.1,14.7,19.7,32,47.3,33.2c42.4,1.8,95.3-0.3,133.5-20.8
	c21.8-11.7,29.9-21.1,26.9-46.4c-1.8-15.5-5.2-32.8-8.7-48.5c-4.1-1.3-8.4-2.4-12.7-3c-12.3-1.7-26.6-3.1-38.7-3.2
	c-4.9,0-9.2,10.5-13.8,9.9c-4.9-0.7-10.5,2.6-15.7,3.2c0,0.1,0,0.1-0.1,0c0,0,0,0,0.1,0c-0.3-0.4-3-2.6-3.5-2.6
	c-7.2,1.3-17.9,0.4-26,2.2c-6.2,1.4-1.9,4.6-5.6,4.9c-7.8,0.6-13-7.6-19.3-3.9c-0.2,0.3,0.6,0.3,0.6,0.4c-22.9,0-43.8,6.9-66.8,7.6
	c0,0.6,0.5,0.6,0.4,1.3c-5.8,0.3-11.6,1.5-17.4,1.1c-6.1-0.4-12.2-3.7-18.3-4.4c0.3,0.5,0.9,0.8,1.3,1.3c-5.5,3.1-13.5,0-19.4-0.4
	c-6.1-0.4-14,1.6-19.4-0.9c-0.3,0.1,0,0.7-0.6,0.9c-3.7-4.8-12.2-4.7-17.5-6.6c-2.2-0.8-5.5-2-8.6-3.4c-7.5,3.8-14,8.2-18.8,13.3
	C196.7,233.6,226.3,249.6,248.9,254.4z"/>
</svg>
