<?xml version="1.0" encoding="utf-8"?>
<!-- Generator: Adobe Illustrator 27.0.0, SVG Export Plug-In . SVG Version: 6.00 Build 0)  -->
<svg version="1.1" id="Ebene_1" xmlns="http://www.w3.org/2000/svg" xmlns:xlink="http://www.w3.org/1999/xlink" x="0px" y="0px"
	 viewBox="0 0 750 500" style="enable-background:new 0 0 750 500;" xml:space="preserve">
<style type="text/css">
	.st0{fill:#387611;}
	.st1{fill:#3F951D;}
	.st2{fill:#387B13;}
	.st3{fill:#6CC630;}
	.st4{fill:url(#SVGID_1_);}
</style>
<g>
	<path class="st0" d="M296.8,239c0,0,38.1-3.9,64.4-18.4c0,0,1.6-65.6-10.1-70.5L296.8,239z"/>
	<path class="st1" d="M229.8,214.4c15.8-27.6,26.8-43.4,39.5-46.9c13.9-3.8,21.9,0.5,21.9,0.5s22.5-8,32-14.9
		c9.5-6.9,23.7-11.5,30.2-0.6c0,0-48.6,88.5-63.2,110.2c-14.6,21.7-60.4,71.3-60.4,71.3S229.8,214.4,229.8,214.4z"/>
	<g>
		<path class="st2" d="M229.7,251.9l0.1-5.1c1.2-1.6,42-67.4,61.7-78.6l0.5,0.1C276.8,178.8,230,251.5,229.7,251.9z"/>
	</g>
	<path class="st3" d="M306.5,355.7c11.8-13,25.1-27.3,30.7-39.6c9.6-21,35-35.1,35.7-37.2c0.7-2.1,44.9-34,50.6-39.1
		c5.7-5.1,42.1-9.9,51.6-19.1c9.5-9.3,20.2,10.1,20.2,10.1s-6.5-10.9-10.7-17c-4.2-6.2-13.2-3-27.1-1.5c-13.9,1.5-49.5,1.8-49.5,1.8
		s-20.5,0-27.8,0.6c-7.3,0.6-50,5.5-67.5,12.8c-17.5,7.3-15.9,7.1-23.2,12.4c-7.4,5.3-15.9,14.1-27.8,21.1
		c-4.5,2.6-17.4,13.4-31.7,25.8v69L306.5,355.7z"/>
	<path class="st0" d="M434.7,235.3c0,0,41.1,10.7,50.3,14.2c9.2,3.5,26.1,7.5,35.2,3.6c0,0-18.2-13.4-30.1-29.7c0,0-7-8-11.4-5.9
		c-4.5,2.2-15.8,10.6-24.1,12.2C446.3,231.3,434.7,235.3,434.7,235.3z"/>
	<g>
		<path class="st2" d="M229.8,331.9v-6c0.4-0.2,90.6-53.5,100-62.9c5.2-5.2,8.4-9.4,11-12.8c2.2-2.9,3.9-5.2,5.9-6.7
			c3.7-2.8,25-17.4,30.3-19.1c1.8-0.6,5.2-2.3,8.8-4.1c6.5-3.3,12.9-5.8,17.2-6.3h1.9c-3.9,0.4-12.2,4.9-18.2,8
			c-3.8,1.9-7.1,3.6-9.1,4.2c-4.8,1.5-25.4,15.5-29.7,18.8c-1.8,1.3-3.3,3.4-5.5,6.3c-2.6,3.5-5.9,7.8-11.1,13.1
			C321.5,274,231.4,331.1,229.8,331.9z"/>
	</g>
	
		<linearGradient id="SVGID_1_" gradientUnits="userSpaceOnUse" x1="359.4963" y1="161.2782" x2="467.4963" y2="210.6122" gradientTransform="matrix(1 0 0 -1 0 502)">
		<stop  offset="0" style="stop-color:#6CC630"/>
		<stop  offset="0.9939" style="stop-color:#93E256"/>
	</linearGradient>
	<path class="st4" d="M262.3,355.7c0,0,5.6-8.6,19.4-19.6c0,0,43.1-21.2,62.2-21.3c19.1-0.1,35.1-5,45.6-9
		c10.4-4,43.5-12.6,50.5-16.3c7-3.8,37.8-26.4,42.5-41.4c0,0-10.5,37.3-26.2,60.8c-15.8,23.6-32.9,41.3-41.5,46.8L262.3,355.7
		L262.3,355.7z"/>
	<g>
		<path class="st2" d="M335.9,359.1l0.4-1.2l-0.5-1.1c0.2-0.1,1.2-0.9,2.1-1.7c4.4-3.6,13.7-11.2,22.2-14.8c2.7-1.1,5.4-2.3,8.2-3.6
			c9.1-4,18.5-8.2,28.9-10.8c1.7-0.4,3.6-0.9,5.6-1.4c13.1-3.1,31.1-7.4,38-15.8c8.2-10,38.5-53,38.5-53l-17.6,27.8
			c0,0-10.8,16.7-19,26.7c-7.4,9-25.9,13.4-39.3,16.6c-2,0.5-3.8,0.9-5.6,1.3c-10.2,2.6-19.5,6.7-28.5,10.7
			c-2.8,1.3-5.6,2.5-8.3,3.6c-8.2,3.5-17.2,10.9-21.6,14.5C336.7,359.3,336.6,359.4,335.9,359.1z"/>
	</g>
</g>
</svg>
