<?xml version="1.0" encoding="utf-8"?>
<!-- Generator: Adobe Illustrator 27.0.0, SVG Export Plug-In . SVG Version: 6.00 Build 0)  -->
<svg version="1.1" id="BACKGROUND" xmlns="http://www.w3.org/2000/svg" xmlns:xlink="http://www.w3.org/1999/xlink" x="0px" y="0px"
	 viewBox="0 0 837.3 604" style="enable-background:new 0 0 837.3 604;" xml:space="preserve">
<style type="text/css">
	.st0{fill:#FFB665;}
	.st1{opacity:0.16;fill:#8E0000;}
	.st2{opacity:0.56;}
	.st3{fill:none;stroke:#851F13;stroke-width:2.6405;stroke-miterlimit:10;}
	.st4{fill:#D82B2B;}
	.st5{opacity:0.92;}
	.st6{fill:#FFFFFF;}
	.st7{opacity:0.24;fill:#770000;}
	.st8{fill:#FFD0A6;}
	.st9{opacity:0.16;fill:#914646;}
	.st10{fill:none;stroke:#280101;stroke-width:1.3203;stroke-miterlimit:10;}
	.st11{fill:#420905;}
	.st12{fill:#851F13;}
	.st13{fill:#9E2B18;}
	.st14{fill:#CC6633;}
	.st15{opacity:0.33;}
	.st16{fill:none;stroke:#5A0700;stroke-width:1.7604;stroke-miterlimit:10;}
	.st17{opacity:0.64;}
	.st18{fill:#5A0700;}
</style>
<g>
	<g>
		<path class="st0" d="M521.6,298.6L521.6,298.6c-2.3,10.7-10.8,21.5-31.6,27.3c-2.3,0.6-4.7,1.2-7.3,1.8
			c-49.4,9.9-120.6,3.3-120.6,3.3c-10.1-1.8-38.2-10.9-38.5-36.2c0-0.8,0-1.5,0.1-2.3c0-0.3,0-0.6,0.1-0.9c0-0.2,0-0.4,0.1-0.6
			c0-0.3,0.1-0.6,0.1-0.8c0-0.2,0.1-0.5,0.1-0.7c0-0.1,0-0.2,0.1-0.3c0-0.2,0.1-0.4,0.1-0.6c0-0.2,0.1-0.3,0.1-0.5
			c0.1-0.3,0.1-0.6,0.2-0.9c0.1-0.3,0.2-0.6,0.2-1c0,0,0-0.1,0-0.1c0.1-0.3,0.2-0.6,0.3-0.9c0.1-0.2,0.1-0.4,0.2-0.6
			c0.1-0.2,0.1-0.4,0.2-0.6c0.6-1.8,1.5-3.5,2.4-5.1c0.1-0.2,0.2-0.4,0.3-0.6c0.1-0.2,0.2-0.3,0.3-0.5c0.1-0.2,0.3-0.4,0.4-0.6
			c0.1-0.1,0.2-0.3,0.3-0.4c0.1-0.2,0.3-0.4,0.4-0.6c0.5-0.8,1.1-1.5,1.7-2.2c0.2-0.2,0.3-0.4,0.5-0.6c0.2-0.2,0.4-0.4,0.6-0.6
			c0.1-0.1,0.2-0.2,0.3-0.3c0.5-0.6,1.1-1.2,1.7-1.7c0.1-0.1,0.1-0.1,0.2-0.2c0.4-0.4,0.8-0.8,1.3-1.2c0.5-0.5,1.1-1,1.7-1.4
			c0.2-0.2,0.5-0.4,0.7-0.6c0.3-0.2,0.5-0.4,0.8-0.6c0.8-0.6,1.5-1.2,2.3-1.7c0.8-0.5,1.5-1.1,2.3-1.6c0.5-0.3,1-0.7,1.6-1
			c0.3-0.2,0.5-0.3,0.8-0.5c0.5-0.3,1-0.6,1.6-0.9c0.5-0.3,1-0.6,1.6-0.9c0.3-0.1,0.5-0.3,0.8-0.4c0.5-0.3,1-0.6,1.5-0.8
			c0.3-0.1,0.5-0.3,0.7-0.4c0.5-0.3,1-0.5,1.5-0.8c0.7-0.4,1.3-0.7,2-1c0.3-0.2,0.6-0.3,1-0.5c0.3-0.2,0.6-0.3,0.9-0.5
			c0.9-0.5,1.8-1,2.6-1.4c0.2-0.1,0.5-0.3,0.7-0.4c0.5-0.3,1.1-0.6,1.5-0.9c0.2-0.1,0.3-0.2,0.5-0.3c2.4-1.6,5.6-4.2,9.3-7.4
			c0.4-0.3,0.7-0.6,1.1-0.9c1.5-1.3,3.1-2.7,4.7-4.1c6.9-5.9,15.1-12.6,23.7-17.7c0.4-0.3,0.9-0.5,1.3-0.8c0.4-0.3,0.9-0.5,1.3-0.7
			c0.4-0.2,0.9-0.5,1.3-0.7c0.4-0.2,0.9-0.5,1.3-0.7c0.4-0.2,0.9-0.4,1.3-0.6c0.4-0.2,0.9-0.4,1.3-0.6c0.4-0.2,0.9-0.4,1.3-0.6
			c0.9-0.4,1.8-0.7,2.7-1c0.9-0.3,1.8-0.6,2.7-0.9c0.4-0.1,0.9-0.3,1.3-0.4c0,0,0,0,0,0c0.2-0.1,0.4-0.1,0.6-0.2
			c0.3-0.1,0.6-0.1,0.9-0.2c0.1,0,0.1,0,0.2,0c0.3-0.1,0.6-0.1,0.9-0.2c0.1,0,0.3-0.1,0.4-0.1c0.3-0.1,0.7-0.1,1-0.2
			c0.3-0.1,0.7-0.1,1-0.2c0.8-0.1,1.7-0.2,2.5-0.3c1.6-0.1,3.1-0.1,4.6-0.1c0.5,0,1.1,0,1.6,0c0.2,0,0.3,0,0.4,0c0.5,0,1,0,1.4,0.1
			c0,0,0.1,0,0.1,0c0.4,0,0.7,0,1.1,0.1c0.2,0,0.4,0,0.6,0c0.5,0,1,0.1,1.5,0.1c0.1,0,0.2,0,0.3,0c0.4,0,0.8,0.1,1.1,0.1
			c0.3,0,0.6,0.1,0.9,0.1c0.5,0.1,1,0.1,1.6,0.2c0.5,0.1,1,0.2,1.5,0.3c0,0,0,0,0.1,0c0.2,0,0.4,0.1,0.7,0.1
			c2.2,0.4,4.4,0.9,6.5,1.6c0.5,0.1,0.9,0.3,1.4,0.4c0.7,0.2,1.4,0.5,2.1,0.7c0.4,0.2,0.9,0.3,1.3,0.5c1,0.4,2.1,0.9,3.1,1.3
			c0.4,0.2,0.9,0.4,1.3,0.6c0.1,0.1,0.3,0.1,0.4,0.2c0.4,0.2,0.9,0.4,1.3,0.7c0.3,0.2,0.6,0.3,0.9,0.5c0.3,0.1,0.5,0.3,0.8,0.4
			c0.4,0.2,0.7,0.4,1.1,0.6c0,0,0.1,0,0.1,0.1c0.4,0.2,0.8,0.5,1.2,0.7c0.1,0,0.1,0.1,0.2,0.1c0.4,0.2,0.8,0.5,1.2,0.7
			c0.2,0.1,0.3,0.2,0.5,0.3c0.4,0.2,0.7,0.5,1.1,0.7c0.3,0.2,0.6,0.4,0.9,0.6c1.1,0.8,2.2,1.6,3.2,2.5c0.4,0.3,0.7,0.6,1.1,0.9
			c0.2,0.2,0.4,0.4,0.7,0.6c0,0,0.1,0,0.1,0.1c0.2,0.2,0.5,0.4,0.7,0.6c0.3,0.3,0.7,0.6,1,1c0.3,0.3,0.7,0.6,1,0.9
			c0.5,0.5,1,0.9,1.4,1.4c0.4,0.4,0.7,0.7,1.1,1.1c0.4,0.4,0.7,0.8,1.1,1.2c0.3,0.3,0.5,0.6,0.8,0.9c0.1,0.1,0.2,0.2,0.3,0.3
			c0.3,0.3,0.5,0.6,0.8,0.9c0.4,0.5,0.9,1.1,1.3,1.7c2.5,3.2,5,5.9,7.5,8.2c0.3,0.3,0.6,0.5,0.9,0.8c0.1,0,0.1,0.1,0.2,0.1
			c0.9,0.8,1.9,1.6,2.8,2.4c0.3,0.2,0.5,0.4,0.8,0.6c0.1,0,0.1,0.1,0.2,0.1c0.5,0.4,1.1,0.8,1.6,1.2c0.1,0.1,0.2,0.1,0.2,0.2
			c0.6,0.5,1.2,0.9,1.8,1.3c0.3,0.2,0.6,0.4,0.9,0.6c2.5,1.7,5,3.3,7.3,5c0.5,0.3,0.9,0.7,1.4,1c0.3,0.2,0.5,0.4,0.8,0.6
			c0.3,0.2,0.5,0.4,0.8,0.6c0.3,0.2,0.5,0.4,0.8,0.6c0.3,0.2,0.5,0.4,0.8,0.7c0.5,0.4,1,0.9,1.4,1.4c0.1,0.1,0.2,0.2,0.3,0.3
			c0.7,0.7,1.3,1.4,1.9,2.1c0.2,0.2,0.4,0.4,0.5,0.7c0.3,0.3,0.5,0.7,0.8,1.1c0.2,0.2,0.3,0.4,0.4,0.6c0.2,0.3,0.4,0.6,0.6,0.9
			c0,0,0,0,0,0C520.2,277.5,523.8,288.1,521.6,298.6z"/>
		<path class="st1" d="M490,325.9c-2.3,0.6-4.7,1.2-7.3,1.8c-49.4,9.9-120.6,3.3-120.6,3.3c-10.1-1.8-38.2-10.9-38.5-36.2
			c0-0.8,0-1.5,0.1-2.3c0-0.3,0-0.6,0.1-0.9c0-0.2,0-0.4,0.1-0.6c0-0.3,0.1-0.6,0.1-0.8c0-0.2,0.1-0.5,0.1-0.7c0-0.1,0-0.2,0.1-0.3
			c0-0.2,0.1-0.4,0.1-0.6c0-0.2,0.1-0.3,0.1-0.5c0.1-0.3,0.1-0.6,0.2-0.9c0.1-0.3,0.2-0.6,0.2-1c0,0,0-0.1,0-0.1
			c0.1-0.3,0.2-0.6,0.3-0.9c0.1-0.2,0.1-0.4,0.2-0.6c0.1-0.2,0.1-0.4,0.2-0.6c0.6-1.8,1.5-3.5,2.4-5.1c0.1-0.2,0.2-0.4,0.3-0.6
			c0.1-0.2,0.2-0.3,0.3-0.5c0.1-0.2,0.3-0.4,0.4-0.6c0.1-0.1,0.2-0.3,0.3-0.4c0.1-0.2,0.3-0.4,0.4-0.6c0.5-0.8,1.1-1.5,1.7-2.2
			c0.2-0.2,0.3-0.4,0.5-0.6c0.2-0.2,0.4-0.4,0.6-0.6c0.1-0.1,0.2-0.2,0.3-0.3c0.5-0.6,1.1-1.2,1.7-1.7c0.1-0.1,0.1-0.1,0.2-0.2
			c0.4-0.4,0.8-0.8,1.3-1.2c0.5-0.5,1.1-1,1.7-1.4c0.2-0.2,0.5-0.4,0.7-0.6c0.3-0.2,0.5-0.4,0.8-0.6c0.8-0.6,1.5-1.2,2.3-1.7
			c0.8-0.6,1.6-1.1,2.3-1.6c0.5-0.3,1-0.7,1.6-1c0.3-0.2,0.5-0.3,0.8-0.5c0.5-0.3,1-0.6,1.6-0.9c0.5-0.3,1-0.6,1.6-0.9
			c0.3-0.1,0.5-0.3,0.8-0.4c0.5-0.3,1-0.6,1.5-0.8c0.3-0.1,0.5-0.3,0.7-0.4c0.5-0.3,1-0.5,1.5-0.8c0.7-0.4,1.3-0.7,2-1
			c0.3-0.2,0.6-0.3,1-0.5c0.3-0.2,0.6-0.3,0.9-0.5c0.9-0.5,1.8-1,2.6-1.4c0.2-0.1,0.5-0.3,0.7-0.4c0.5-0.3,1.1-0.6,1.5-0.9
			c0.2-0.1,0.3-0.2,0.5-0.3c2.4-1.6,5.6-4.2,9.3-7.4c0.4-0.3,0.7-0.6,1.1-0.9c1.5-1.3,3.1-2.7,4.7-4.1c6.9-5.9,15.1-12.6,23.7-17.7
			c0.4-0.3,0.9-0.5,1.3-0.8c0.4-0.3,0.9-0.5,1.3-0.7c0.4-0.2,0.9-0.5,1.3-0.7c0.4-0.2,0.9-0.5,1.3-0.7c0.4-0.2,0.9-0.4,1.3-0.6
			c0.4-0.2,0.9-0.4,1.3-0.6c0.4-0.2,0.9-0.4,1.3-0.6c0.9-0.4,1.8-0.7,2.7-1c0.9-0.3,1.8-0.6,2.7-0.9c0.4-0.1,0.9-0.3,1.3-0.4
			c0,0,0,0,0,0c0.2-0.1,0.4-0.1,0.6-0.2c0.3-0.1,0.6-0.1,0.9-0.2c0.1,0,0.1,0,0.2,0c0.3-0.1,0.6-0.1,0.9-0.2c0.1,0,0.3-0.1,0.4-0.1
			c0.3-0.1,0.7-0.1,1-0.2c0.3-0.1,0.7-0.1,1-0.2c0.8-0.1,1.7-0.2,2.5-0.3c1.6-0.1,3.1-0.1,4.6-0.1c0.5,0,1.1,0,1.6,0
			c0.2,0,0.3,0,0.4,0c0.5,0,1,0,1.4,0.1c0,0,0.1,0,0.1,0c0.4,0,0.7,0,1.1,0.1l0,0c-10.3,8.8-18.2,21.4-23.7,33.9
			c-3.8,8.5-7,17.5-7.3,26.9c-0.3,9.3,2.6,19.1,9.4,25.5c1.6,1.5,3.2,2.7,5,3.7c19.9,11.5,51.9-1.4,68.6,15.8
			C487.6,321.8,489,323.8,490,325.9z"/>
		<g class="st2">
			<g>
				<path class="st3" d="M345.9,307.8c0,0,5.3,16.4,24.8,23.2"/>
				<path class="st3" d="M372.7,309.7c0,0,4.8,12.2,17.7,17.7"/>
				<path class="st3" d="M400.3,307.4c0,0,1,8.6,3.3,16.6"/>
				<path class="st3" d="M421.3,303.5c0,0,2.3,9.9,0,16"/>
				<path class="st3" d="M452.2,298c0,0-2.5,13.4-7.1,19.5"/>
				<path class="st3" d="M461.3,318.8c0,0,13-9.5,15.2-17.4"/>
				<path class="st3" d="M476.5,322.5c0,0,14.8-8.3,22.7-17.5"/>
			</g>
		</g>
		<path class="st4" d="M521.6,298.6L521.6,298.6c-13.4,17.5-57.5-6.1-82.5,0.5c-7,1.8-14.2,3.6-21.6,5.2c-19,4-39.2,6.6-60.4,4.9
			c-30.4-2.4-33.3-13-33.4-16.7c0-0.3,0-0.6,0.1-0.9c0-0.2,0-0.4,0.1-0.6c0-0.3,0.1-0.6,0.1-0.8c0-0.2,0.1-0.5,0.1-0.7
			c0-0.1,0-0.2,0.1-0.3c0-0.2,0.1-0.4,0.1-0.6c0-0.2,0.1-0.3,0.1-0.5c0.1-0.3,0.1-0.6,0.2-0.9c0.1-0.3,0.2-0.6,0.2-1
			c0,0,0-0.1,0-0.1c0.1-0.3,0.2-0.6,0.3-0.9c0.1-0.2,0.1-0.4,0.2-0.6c0.1-0.2,0.1-0.4,0.2-0.6c0.6-1.8,1.5-3.5,2.4-5.1
			c0.1-0.2,0.2-0.4,0.3-0.6c0.1-0.2,0.2-0.3,0.3-0.5c0.1-0.2,0.3-0.4,0.4-0.6c0.1-0.1,0.2-0.3,0.3-0.4c0.1-0.2,0.3-0.4,0.4-0.6
			c0.5-0.8,1.1-1.5,1.7-2.2c0.2-0.2,0.3-0.4,0.5-0.6c0.2-0.2,0.4-0.4,0.6-0.6c0.1-0.1,0.2-0.2,0.3-0.3c0.5-0.6,1.1-1.2,1.7-1.7
			c0.1-0.1,0.1-0.1,0.2-0.2c0.4-0.4,0.8-0.8,1.3-1.2c0.5-0.5,1.1-1,1.7-1.4c0.2-0.2,0.5-0.4,0.7-0.6c0.3-0.2,0.5-0.4,0.8-0.6
			c0.8-0.6,1.5-1.2,2.3-1.7c0.8-0.6,1.6-1.1,2.3-1.6c0.5-0.3,1-0.7,1.6-1c0.3-0.2,0.5-0.3,0.8-0.5c0.5-0.3,1-0.6,1.6-0.9
			c0.5-0.3,1-0.6,1.6-0.9c0.3-0.1,0.5-0.3,0.8-0.4c0.5-0.3,1-0.6,1.5-0.8c0.3-0.1,0.5-0.3,0.7-0.4c0.5-0.3,1-0.5,1.5-0.8
			c0.7-0.4,1.3-0.7,2-1c0.3-0.2,0.6-0.3,1-0.5c0.3-0.2,0.6-0.3,0.9-0.5c0.9-0.5,1.8-1,2.6-1.4c0.2-0.1,0.5-0.3,0.7-0.4
			c0.5-0.3,1.1-0.6,1.5-0.9c0.2-0.1,0.3-0.2,0.5-0.3c2.4-1.6,5.6-4.2,9.3-7.4c0.4-0.3,0.7-0.6,1.1-0.9c1.5-1.3,3.1-2.7,4.7-4.1
			c6.9-5.9,15.1-12.6,23.7-17.7c0.4-0.3,0.9-0.5,1.3-0.8c0.4-0.3,0.9-0.5,1.3-0.7c0.4-0.2,0.9-0.5,1.3-0.7c0.4-0.2,0.9-0.5,1.3-0.7
			c0.4-0.2,0.9-0.4,1.3-0.6c0.4-0.2,0.9-0.4,1.3-0.6c0.4-0.2,0.9-0.4,1.3-0.6c0.9-0.4,1.8-0.7,2.7-1c0.9-0.3,1.8-0.6,2.7-0.9
			c0.4-0.1,0.9-0.3,1.3-0.4c0,0,0,0,0,0c0.2-0.1,0.4-0.1,0.6-0.2c0.3-0.1,0.6-0.1,0.9-0.2c0.1,0,0.1,0,0.2,0
			c0.3-0.1,0.6-0.1,0.9-0.2c0.1,0,0.3-0.1,0.4-0.1c0.3-0.1,0.7-0.1,1-0.2c0.3-0.1,0.7-0.1,1-0.2c0.8-0.1,1.7-0.2,2.5-0.3
			c1.6-0.1,3.1-0.1,4.6-0.1c0.5,0,1.1,0,1.6,0c0.2,0,0.3,0,0.4,0c0.5,0,1,0,1.4,0.1c0,0,0.1,0,0.1,0c0.4,0,0.7,0,1.1,0.1
			c0.2,0,0.4,0,0.6,0c0.5,0,1,0.1,1.5,0.1c0.1,0,0.2,0,0.3,0c0.4,0,0.8,0.1,1.1,0.1c0.3,0,0.6,0.1,0.9,0.1c0.5,0.1,1,0.1,1.6,0.2
			c0.5,0.1,1,0.2,1.5,0.3c0,0,0,0,0.1,0c0.2,0,0.4,0.1,0.7,0.1c2.2,0.4,4.4,0.9,6.5,1.6c0.5,0.1,0.9,0.3,1.4,0.4
			c0.7,0.2,1.4,0.5,2.1,0.7c0.4,0.2,0.9,0.3,1.3,0.5c1,0.4,2.1,0.9,3.1,1.3c0.4,0.2,0.9,0.4,1.3,0.6c0.1,0.1,0.3,0.1,0.4,0.2
			c0.4,0.2,0.9,0.4,1.3,0.7c0.3,0.2,0.6,0.3,0.9,0.5c0.3,0.1,0.5,0.3,0.8,0.4c0.4,0.2,0.7,0.4,1.1,0.6c0,0,0.1,0,0.1,0.1
			c0.4,0.2,0.8,0.5,1.2,0.7c0.1,0,0.1,0.1,0.2,0.1c0.4,0.2,0.8,0.5,1.2,0.7c0.2,0.1,0.3,0.2,0.5,0.3c0.4,0.2,0.7,0.5,1.1,0.7
			c0.3,0.2,0.6,0.4,0.9,0.6c1.1,0.8,2.2,1.6,3.2,2.5c0.4,0.3,0.7,0.6,1.1,0.9c0.2,0.2,0.4,0.4,0.7,0.6c0,0,0.1,0,0.1,0.1
			c0.2,0.2,0.5,0.4,0.7,0.6c0.3,0.3,0.7,0.6,1,1c0.3,0.3,0.7,0.6,1,0.9c0.5,0.5,1,0.9,1.4,1.4c0.4,0.4,0.7,0.7,1.1,1.1
			c0.4,0.4,0.7,0.8,1.1,1.2c0.3,0.3,0.5,0.6,0.8,0.9c0.1,0.1,0.2,0.2,0.3,0.3c0.3,0.3,0.5,0.6,0.8,0.9c0.4,0.5,0.9,1.1,1.3,1.7
			c2.5,3.2,5,5.9,7.5,8.2c0.3,0.3,0.6,0.5,0.9,0.8c0.1,0,0.1,0.1,0.2,0.1c0.9,0.8,1.9,1.6,2.8,2.4c0.3,0.2,0.5,0.4,0.8,0.6
			c0.1,0,0.1,0.1,0.2,0.1c0.5,0.4,1.1,0.8,1.6,1.2c0.1,0.1,0.2,0.1,0.2,0.2c0.6,0.4,1.2,0.9,1.8,1.3c0.3,0.2,0.6,0.4,0.9,0.6
			c2.5,1.7,5,3.3,7.3,5c0.5,0.3,0.9,0.7,1.4,1c0.3,0.2,0.5,0.4,0.8,0.6c0.3,0.2,0.5,0.4,0.8,0.6c0.3,0.2,0.5,0.4,0.8,0.6
			c0.3,0.2,0.5,0.4,0.8,0.7c0.5,0.4,1,0.9,1.4,1.4c0.1,0.1,0.2,0.2,0.3,0.3c0.7,0.7,1.3,1.4,1.9,2.1c0.2,0.2,0.4,0.4,0.5,0.7
			c0.3,0.3,0.5,0.7,0.8,1.1c0.2,0.2,0.3,0.4,0.4,0.6c0.2,0.3,0.4,0.6,0.6,0.9c0,0,0,0,0,0C520.2,277.5,523.8,288.1,521.6,298.6z"/>
		<g class="st5">
			<g>
				<path class="st6" d="M377.3,273.1c21.6,1.7,20.5,26.6-3,24.9C350.7,296.3,358.3,271.5,377.3,273.1z"/>
				<path class="st6" d="M367.1,265.5c-6.1-0.3-10.2-4.1-11.8-8.7c2.6-1.4,4.9-2.6,6.7-3.7c3.6-2.2,9-7.1,15.6-12.8
					C389.9,245.9,390.6,266.6,367.1,265.5z"/>
				<path class="st6" d="M416,277.6c-31-1.7-19.5-44,7-37.5C449.4,246.7,445.1,279.2,416,277.6z"/>
				<path class="st6" d="M427.9,225.7c-9.4,1.7-12.2-4.6-10.7-10.1c2.5-0.7,5-1.1,7.4-1.3c4-0.3,7.9-0.2,11.7,0.2
					C437.6,219.1,435.1,224.4,427.9,225.7z"/>
				<path class="st6" d="M462.6,268.2c16.2,0.3,22,20.3,0,21.3C444.9,290.3,444.1,268,462.6,268.2z"/>
				<path class="st6" d="M516.5,271.5c-3.7,9.1-14.6,14.9-26.9,5.3c-9.9-7.7-7.5-21.5,0.8-27.3C500.5,258.4,510.4,261.7,516.5,271.5
					z"/>
				<path class="st6" d="M470.2,236.9c11.6,6.5,3.3,17.3-6.1,13.4C451.2,245,460,231.2,470.2,236.9z"/>
			</g>
		</g>
		<path class="st7" d="M433.9,214.3L433.9,214.3c-10.3,8.8-18.2,21.4-23.7,33.9c-3.8,8.5-7,17.5-7.3,26.9
			c-0.3,9.3,2.6,19.1,9.4,25.5c1.6,1.5,3.2,2.7,5,3.7c-19,4-39.2,6.6-60.4,4.9c-30.4-2.4-33.3-13-33.4-16.7c0-0.3,0-0.6,0.1-0.9
			c0-0.2,0-0.4,0.1-0.6c0-0.3,0.1-0.6,0.1-0.8c0-0.2,0.1-0.5,0.1-0.7c0-0.1,0-0.2,0.1-0.3c0-0.2,0.1-0.4,0.1-0.6
			c0-0.2,0.1-0.3,0.1-0.5c0.1-0.3,0.1-0.6,0.2-0.9c0.1-0.3,0.2-0.6,0.2-1c0,0,0-0.1,0-0.1c0.1-0.3,0.2-0.6,0.3-0.9
			c0.1-0.2,0.1-0.4,0.2-0.6c0.1-0.2,0.1-0.4,0.2-0.6c0.6-1.8,1.5-3.5,2.4-5.1c0.1-0.2,0.2-0.4,0.3-0.6c0.1-0.2,0.2-0.3,0.3-0.5
			c0.1-0.2,0.3-0.4,0.4-0.6c0.1-0.1,0.2-0.3,0.3-0.4c0.1-0.2,0.3-0.4,0.4-0.6c0.5-0.8,1.1-1.5,1.7-2.2c0.2-0.2,0.3-0.4,0.5-0.6
			c0.2-0.2,0.4-0.4,0.6-0.6c0.1-0.1,0.2-0.2,0.3-0.3c0.5-0.6,1.1-1.2,1.7-1.7c0.1-0.1,0.1-0.1,0.2-0.2c0.4-0.4,0.8-0.8,1.3-1.2
			c0.5-0.5,1.1-1,1.7-1.4c0.2-0.2,0.5-0.4,0.7-0.6c0.3-0.2,0.5-0.4,0.8-0.6c0.8-0.6,1.5-1.2,2.3-1.7c0.8-0.6,1.6-1.1,2.3-1.6
			c0.5-0.3,1-0.7,1.6-1c0.3-0.2,0.5-0.3,0.8-0.5c0.5-0.3,1-0.6,1.6-0.9c0.5-0.3,1-0.6,1.6-0.9c0.3-0.1,0.5-0.3,0.8-0.4
			c0.5-0.3,1-0.6,1.5-0.8c0.3-0.1,0.5-0.3,0.7-0.4c0.5-0.3,1-0.5,1.5-0.8c0.7-0.4,1.3-0.7,2-1c0.3-0.2,0.6-0.3,1-0.5
			c0.3-0.2,0.6-0.3,0.9-0.5c0.9-0.5,1.8-1,2.6-1.4c0.2-0.1,0.5-0.3,0.7-0.4c0.5-0.3,1.1-0.6,1.5-0.9c0.2-0.1,0.3-0.2,0.5-0.3
			c2.4-1.6,5.6-4.2,9.3-7.4c0.4-0.3,0.7-0.6,1.1-0.9c1.5-1.3,3.1-2.7,4.7-4.1c6.9-5.9,15.1-12.6,23.7-17.7c0.4-0.3,0.9-0.5,1.3-0.8
			c0.4-0.3,0.9-0.5,1.3-0.7c0.4-0.2,0.9-0.5,1.3-0.7c0.4-0.2,0.9-0.5,1.3-0.7c0.4-0.2,0.9-0.4,1.3-0.6c0.4-0.2,0.9-0.4,1.3-0.6
			c0.4-0.2,0.9-0.4,1.3-0.6c0.9-0.4,1.8-0.7,2.7-1c0.9-0.3,1.8-0.6,2.7-0.9c0.4-0.1,0.9-0.3,1.3-0.4c0,0,0,0,0,0
			c0.2-0.1,0.4-0.1,0.6-0.2c0.3-0.1,0.6-0.1,0.9-0.2c0.1,0,0.1,0,0.2,0c0.3-0.1,0.6-0.1,0.9-0.2c0.1,0,0.3-0.1,0.4-0.1
			c0.3-0.1,0.7-0.1,1-0.2c0.3-0.1,0.7-0.1,1-0.2c0.8-0.1,1.7-0.2,2.5-0.3c1.6-0.1,3.1-0.1,4.6-0.1c0.5,0,1.1,0,1.6,0
			c0.2,0,0.3,0,0.4,0c0.5,0,1,0,1.4,0.1c0,0,0.1,0,0.1,0C433.2,214.3,433.6,214.3,433.9,214.3z"/>
	</g>
	<g>
		<g>
			<path class="st8" d="M467.9,422.4c-2.5,1.3-5.2,2.4-8.1,3.4c-12.6,4.3-28.6,6-43.9,6c-5.2,0-10.4-0.2-15.3-0.6
				c-13.1-0.9-24.5-2.9-31.2-5.3c-18.2-6.3-41.3-56.7-7.3-94.9c0,0,10.4,1.8,31.1-4.1c19.5-5.5,46.8-14.7,80.5-5.6
				c3.9,1.1,7.2,3.6,9.3,7c0.3,0.4,0.5,0.8,0.7,1.3c2,4.2,4.7,10.6,7.5,19.5C497.7,369.5,494.7,408.5,467.9,422.4z"/>
			<path class="st9" d="M483,328.5c-18.6-7.4-39.3-8.6-58.3-1.5c-5,1.9-9.9,4.4-13.4,8.4c-4.2,4.9-5.8,11.4-7.2,17.7
				c-3.7,16.3-7,32.7-7.2,49.4c-0.1,9.7,1,19.5,3.7,28.8c-13.1-0.9-24.5-2.9-31.2-5.3c-18.2-6.3-41.3-56.7-7.3-94.9
				c0,0,10.4,1.8,31.1-4.1c19.5-5.5,46.8-14.7,80.5-5.6C477.6,322.5,480.9,325,483,328.5z"/>
		</g>
		<g>
			<path class="st10" d="M378.2,381.6c0.4-5.7,0.9-14,1.4-20.7c0.4-4.8-3.3-9-8.1-9.3c-2.8-0.2-6.3-0.1-10.1,0.4
				c-3.5,0.4-6.4,2.9-7.3,6.3c-1.4,5.2-3,13.8-2.4,23.3c0.3,4.2,3.5,7.6,7.7,8c2.9,0.3,6.7,0.4,11.1-0.1
				C374.6,389.2,377.9,385.8,378.2,381.6z"/>
			<path class="st11" d="M366.4,351.6c11.9,0.1,12.9,3.9,13.2,11.8c0.3,7.9-0.8,20.6-3.6,23.9c-2.8,3.3-12.8,3.2-19.1,1.9
				c-6.3-1.4-5.7-14.5-5.4-18.8C351.9,366.2,351.2,351.5,366.4,351.6z"/>
			<g>
				<path class="st12" d="M364.6,391.8c-1.8,0-3.6-0.1-5.4-0.2c-5.2-0.5-9.1-4.6-9.4-9.8c-0.6-9.7,1-18.3,2.5-23.9
					c1.1-4.1,4.6-7.2,8.9-7.7c3.5-0.5,7.1-0.6,10.5-0.4c2.9,0.2,5.5,1.4,7.4,3.6c1.9,2.1,2.8,4.9,2.6,7.7
					c-0.5,6.7-1.1,14.9-1.4,20.7l0,0c-0.3,5.2-4.3,9.3-9.4,9.8C368.6,391.7,366.6,391.8,364.6,391.8z M368.5,353.5
					c-2.3,0-4.6,0.1-6.9,0.4c-2.7,0.4-5,2.3-5.7,4.9c-1.4,5.3-2.9,13.5-2.4,22.7c0.2,3.3,2.8,6,6,6.3c3.5,0.3,7.1,0.3,10.7-0.1
					c3.3-0.3,5.8-3,6-6.3c0.4-5.7,0.9-14,1.4-20.7c0.1-1.8-0.4-3.6-1.6-4.9c-1.2-1.4-2.9-2.2-4.7-2.3
					C370.4,353.5,369.5,353.5,368.5,353.5z"/>
			</g>
			<g>
				<g>
					<path class="st12" d="M362.4,391.3c0-1.2-0.3-30.5,2.8-40.9l2.8,0.8c-3,9.9-2.6,39.7-2.6,40L362.4,391.3z"/>
				</g>
				<g>
					<path class="st12" d="M350.6,372.5l-0.3-2.9c0.2,0,16.9-1.7,30.4-1.2l-0.1,2.9C367.3,370.8,350.8,372.5,350.6,372.5z"/>
				</g>
			</g>
		</g>
		<g>
			<g>
				<g>
					<path class="st12" d="M415.9,431.8c0,0-10.7,0.8-13-0.4c-2.3-1.2-4.8-7.6-2.7-8.8c2.1-1.1,8.9-1.1,11.4-0.8
						C414.1,422.2,415.9,431.8,415.9,431.8z"/>
					<path class="st12" d="M408.6,410.3c0,0-10.7,1.5-13.1,0c-2.4-1.5-5.3-10.8-3.6-12.7c1.7-1.9,14.6,0,14.6,0
						S406.5,406.8,408.6,410.3z"/>
					<path class="st12" d="M407.7,384.5c0,0-11-3.1-13.3-5.2c-2.3-2.1,4.2-13.7,7.2-13.9c3-0.2,11.4,7.2,11.4,7.2
						S409.2,378.9,407.7,384.5z"/>
					<path class="st12" d="M421.1,362.4c0,0-8.4-8-6.3-11.6c2.1-3.6,12.5-7.4,15.8-4.4c3.2,3,3.8,11.2,3.8,11.2
						S425.3,358.1,421.1,362.4z"/>
					<path class="st12" d="M447.9,359.9c0,0,1.9-10.8,4-11.2c2.1-0.4,10.8,3.8,12.9,6.8c2.1,3-5.5,11.3-5.5,11.3
						S452,361.1,447.9,359.9z"/>
					<path class="st12" d="M465.1,379.9c0,0,4.7-3.5,6.1-4.9c1.4-1.4,2.8,1.7,2.8,5.9c0,4.2,0,5.9-3,7.6c-3,1.7-7,2.7-7,2.7
						L465.1,379.9z"/>
					<path class="st12" d="M464,402.5c0,0-0.4,6.3-1.1,8c-0.8,1.7,6.8-0.2,8.4-2.5c1.5-2.3,2.8-8.6,0.8-9
						C470.1,398.5,464,402.5,464,402.5z"/>
					<g>
						<path class="st13" d="M411.6,421.8c0,0-8.4,0.6-11.4,0.8c-3,0.2-6.1-9.5-4.2-11.2c1.9-1.7,11.2-1.5,12.5-1.1
							C409.9,410.6,413.5,419.9,411.6,421.8z"/>
						<path class="st13" d="M406.5,397.5c0,0-13.8-0.4-15.1-1.9c-1.4-1.5-0.8-11.2,2.6-14c3.4-2.8,14.6,3.4,14.6,3.4
							S406.3,393.7,406.5,397.5z"/>
						<path class="st13" d="M413,372.7c0,0-10.4-6.3-10.8-10.3c-0.4-4,7.6-11.2,10.8-8.9c3.2,2.3,8.2,8.9,8.2,8.9
							S414.9,367.9,413,372.7z"/>
						<path class="st13" d="M434.4,357.7c0,0-4.6-12.3,0-13.1c4.6-0.8,12.9,0.6,15.2,3.6c2.3,3-1.7,11.8-1.7,11.8
							S438.8,357.1,434.4,357.7z"/>
						<path class="st13" d="M458.3,366.9c0,0,4.7-6.9,6.8-8.6c2.1-1.7,5.3,2.4,7,8.6c1.7,6.2,0.9,9.8-7,13
							C465.1,379.9,460.2,368.1,458.3,366.9z"/>
						<path class="st13" d="M464.6,390.9c0,0-0.6,9.3-1.1,10.6c-0.6,1.3,7.9-0.8,9.5-3.6c1.5-2.8,1.8-10.6,0.2-11.3
							C471.6,386,464.6,390.9,464.6,390.9z"/>
						<path class="st13" d="M462.8,410.9c0,0-0.9,5.2-1.5,7.5c-0.6,2.3,5.9,0.6,7.7-1.7c1.8-2.3,2.1-7,1.3-7.9
							C469.5,408,462.8,410.9,462.8,410.9z"/>
					</g>
					<path class="st12" d="M461.3,419.5l-2.7,6.7c0,0,7-1.8,8.4-3.4c1.4-1.6,3.4-5.4,1-5.8C465.5,416.7,461.3,419.5,461.3,419.5z"/>
				</g>
			</g>
			<path class="st14" d="M466.5,404.9c-0.2,1.6-0.5,3.1-0.9,4.6c-1.6,7.4-4.1,13-5.8,16.3c-9.4,3.2-20.6,5-32.1,5.6
				c-3.9,0.2-7.9,0.3-11.8,0.3c-2-2.8-5.9-8.9-8.5-17.2c-0.5-1.5-0.9-3.1-1.3-4.8c-1.5-6.6-2-14.3-0.3-22.7c0.3-1.7,0.7-3.4,1.2-5.1
				c0.3-1.1,0.7-2.2,1.1-3.3c8.3-23.3,31.4-26.4,45.8-16.5c5.1,3.5,9.1,8.7,10.9,15.3c0.1,0.2,0.1,0.4,0.1,0.5
				c0.4,1.6,0.8,3.2,1.1,4.8C467.6,390.9,467.5,398.4,466.5,404.9z"/>
			<g class="st15">
				<g>
					<path class="st16" d="M424.5,359.5c0,0,0.1,46.5,3.3,72.3"/>
					<path class="st16" d="M447.6,358.8c0,0,3.9,39.9,1.7,69.9"/>
				</g>
			</g>
			<g class="st17">
				<path class="st12" d="M466.1,382.7c-15.1,1-47.2,3.2-60.2,4.3c0.3-1.7,0.7-3.4,1.2-5.1c10-0.7,40.9-2.8,57.9-4
					C465.4,379.5,465.8,381.1,466.1,382.7z"/>
				<path class="st12" d="M466.5,404.9c-0.2,1.6-0.5,3.1-0.9,4.6c-7.2,0.2-36.9,1.4-58.2,5c-0.5-1.5-0.9-3.1-1.3-4.8
					C414.8,408.5,445.6,404.4,466.5,404.9z"/>
			</g>
			<circle class="st18" cx="459.6" cy="397.3" r="2.4"/>
			<path class="st1" d="M453.9,362.1c-1.9-0.5-3.9-0.9-5.9-1.2c-6.9-0.8-14.4-0.7-20.2,3c-7.5,4.8-10.4,14.4-11.6,23.3
				c-1.6,11.4-1.5,23.7,4.1,33.8c2,3.7,4.8,7.1,7.5,10.4c-3.9,0.2-7.9,0.3-11.8,0.3c-2-2.8-5.9-8.9-8.5-17.2
				c-0.5-1.5-0.9-3.1-1.3-4.8c-1.5-6.6-2-14.3-0.3-22.7c0.3-1.7,0.7-3.4,1.2-5.1c0.3-1.1,0.7-2.2,1.1-3.3
				C416.4,355.3,439.6,352.2,453.9,362.1z"/>
		</g>
	</g>
</g>
</svg>
