<?xml version="1.0" encoding="utf-8"?>
<!-- Generator: Adobe Illustrator 27.0.0, SVG Export Plug-In . SVG Version: 6.00 Build 0)  -->
<svg version="1.1" id="BACKGROUND" xmlns="http://www.w3.org/2000/svg" xmlns:xlink="http://www.w3.org/1999/xlink" x="0px" y="0px"
	 viewBox="0 0 837.3 604" style="enable-background:new 0 0 837.3 604;" xml:space="preserve">
<style type="text/css">
	.st0{fill:#D82B2B;}
	.st1{fill:#FFB665;}
	.st2{opacity:0.18;fill:#770000;}
	.st3{opacity:0.54;}
	.st4{fill:#851F13;}
	.st5{opacity:0.92;}
	.st6{fill:#FFFFFF;}
	.st7{fill:#420905;}
	.st8{fill:#FFC388;}
	.st9{opacity:0.16;fill:#914646;}
	.st10{fill:#CC6633;}
	.st11{opacity:0.52;}
	.st12{fill:none;stroke:#5A0700;stroke-width:1.6667;stroke-linecap:round;stroke-linejoin:round;stroke-miterlimit:10;}
	.st13{fill:#5A0700;}
	.st14{opacity:0.16;fill:#8E0000;}
</style>
<g>
	<g>
		<path class="st0" d="M469.8,313.7c-0.2,0.2-0.5,0.4-0.7,0.6c-0.2,0.1-0.4,0.3-0.6,0.4c-2.2,1.5-4.8,2.7-8.1,3.7
			c-0.2,0.1-0.5,0.1-0.7,0.2c-27,7.8-72.5-2.7-78.6-4.9c-3.1-1.1-6-2.4-8.6-4.1c-3.8-2.4-7-5.3-9-8.5c-3.5-5.7-3.5-12.4,2.9-19.4
			c0.7-0.7,1.3-1.4,1.9-2.1c2.8-3.1,5.5-6.3,8.1-9.4c7.8-9.3,14.6-18.7,21.2-29c0.3-0.5,0.7-1,1-1.5c3.3-5.3,6.3-9.8,9.3-13.4
			c5.4-6.2,11.1-9.5,20.4-8.8c0.5,0,1.1,0.1,1.7,0.2c10.6,1.3,20.3,10.6,28,23.6c3.3,5.6,6.3,12,8.7,18.6h0c0.2,0.7,0.5,1.4,0.7,2
			c0.7,1.9,1.4,3.9,2.1,5.8c2.7,7.4,5.3,14.8,6.7,21.8C478,299.2,477.2,308,469.8,313.7z"/>
		<path class="st1" d="M469.9,313.7c-0.3,0.2-0.5,0.4-0.8,0.6c-0.2,0.1-0.4,0.3-0.6,0.4c-0.7,0.4-1.5,0.9-2.4,1.3
			c-1.7,0.8-3.9,1.7-6.4,2.5c-27,7.8-72.5-2.7-78.6-4.9c-7.5-2.6-14.3-7.1-17.7-12.6c-1.8-3.9-1.6-7.5,2.3-10.2
			c0.5-0.4,1.2-0.7,1.8-1.1c2.8-1.3,6.9-2.4,12.5-2.9c0.7-0.1,1.4-0.1,2.1-0.2c3.7-0.3,7.9-0.4,12.8-0.2c0.7,0,1.4,0,2.1,0.1
			c3.9,0.1,8.3,0.4,13.1,0.8c0.7,0.1,1.4,0.1,2.1,0.2c2,0.2,4.1,0.4,6.2,0.6c2.5,0.3,4.9,0.5,7.2,0.8c0.7,0.1,1.4,0.2,2.1,0.3
			c6.2,0.8,11.6,1.7,16.4,2.7c0.7,0.1,1.4,0.3,2.1,0.4c7.5,1.7,13.4,3.5,17.7,5.5c0.7,0.3,1.3,0.6,1.8,0.9
			C474.9,303.7,475.6,309,469.9,313.7z"/>
		<path class="st2" d="M469.8,313.7c-0.2,0.2-0.5,0.4-0.7,0.6c-0.2,0.1-0.4,0.3-0.6,0.4c-2.2,1.5-4.8,2.7-8.1,3.7
			c-0.2,0.1-0.5,0.1-0.7,0.2c-27,7.8-72.5-2.7-78.6-4.9c-3.1-1.1-6-2.4-8.6-4.1c0-0.1,0.1-0.1,0.1-0.2c3.1-4.3,6.6-8.4,11.2-11
			c13.8-7.8,30.8,0.3,46.7,0.1c1.9,0,3.8-0.2,5.4-1.1c2.5-1.5,3.7-4.4,4.5-7.2c5.5-18.3,4.1-38.5-3.3-56.1
			c-2.2-5.1-5.1-11.5-8.8-16.7c0.5,0,1.1,0.1,1.7,0.2c10.6,1.3,20.3,10.6,28,23.6c3.3,5.6,6.3,12,8.7,18.6h0c0.2,0.7,0.5,1.4,0.7,2
			c0.7,1.9,1.4,3.9,2.1,5.8c2.7,7.4,5.3,14.8,6.7,21.8C478,299.2,477.2,308,469.8,313.7z"/>
		<g class="st3">
			<g>
				<path class="st4" d="M387.3,305.8c-0.1,0.5-0.5,0.9-1,0.9c0,0-0.1,0-0.1,0c-14.9-1.9-19.7-13.8-20.4-15.8
					c0.5-0.4,1.2-0.7,1.8-1.1c0,0.1,0.1,0.1,0.1,0.2c0.1,0.3,1.1,3.4,3.9,6.8c2.8,3.3,7.5,6.8,14.9,7.8
					C387,304.7,387.4,305.2,387.3,305.8z"/>
			</g>
			<g>
				<path class="st4" d="M390.2,302.4c-0.2,0.3-0.5,0.4-0.8,0.4c-0.2,0-0.4-0.1-0.6-0.2c-6.8-5.3-8.3-13.8-8.6-15.6
					c0.7-0.1,1.4-0.1,2.1-0.2c0.3,1.8,1.7,9.5,7.7,14.1C390.4,301.3,390.5,302,390.2,302.4z"/>
			</g>
			<g>
				<path class="st4" d="M398.7,300.9c-0.1,0.1-0.3,0.1-0.5,0.1c-0.4,0-0.8-0.2-0.9-0.6c-3-6-2.3-12.8-2.2-13.8c0.7,0,1.4,0,2.1,0.1
					c0,0,0,0.1,0,0.1c0,0.1-0.8,7,2,12.7C399.4,300,399.2,300.6,398.7,300.9z"/>
			</g>
			<g>
				<path class="st4" d="M411.6,300.4c-0.1,0-0.2,0.1-0.3,0.1c-0.4,0-0.9-0.3-1-0.7c-1.6-4.8-0.3-11.2-0.1-12.3
					c0.7,0.1,1.4,0.1,2.1,0.2c0,0,0,0.1,0,0.2c0,0.1-1.6,6.7,0,11.3C412.5,299.6,412.2,300.2,411.6,300.4z"/>
			</g>
			<g>
				<path class="st4" d="M427.8,289.3c-0.1,0.8-0.7,7.6-2.7,12.3c-0.2,0.4-0.6,0.6-1,0.6c-0.1,0-0.3,0-0.4-0.1
					c-0.5-0.2-0.8-0.9-0.5-1.4c2-4.6,2.5-11.6,2.5-11.7c0,0,0,0,0,0C426.4,289.2,427.1,289.3,427.8,289.3z"/>
			</g>
			<g>
				<path class="st4" d="M446.3,292.5c0,0,0,0.1,0,0.1c-0.2,0.4-4,10.4-7.5,13.3c-0.2,0.2-0.4,0.2-0.7,0.2c-0.3,0-0.6-0.1-0.8-0.4
					c-0.4-0.5-0.3-1.1,0.2-1.5c2.5-2,5.7-9.4,6.8-12.3C444.9,292.2,445.6,292.4,446.3,292.5z"/>
			</g>
			<g>
				<path class="st4" d="M465.9,299c0,0.2-0.1,0.4-0.3,0.5c-6.4,6.4-18.4,10.4-18.9,10.6c-0.1,0-0.2,0.1-0.3,0.1
					c-0.4,0-0.8-0.3-1-0.7c-0.2-0.5,0.1-1.1,0.7-1.3c0.1,0,11.9-4,18-10C464.7,298.4,465.3,298.7,465.9,299z"/>
			</g>
			<g>
				<path class="st4" d="M469.9,313.7c-0.3,0.2-0.5,0.4-0.8,0.6c-0.2,0.1-0.4,0.3-0.6,0.4c-0.7,0.4-1.5,0.9-2.4,1.3
					c-1.8,0.3-3.6,0.4-5.4,0.4c-6.9,0-12.8-1.9-13.1-2c-0.6-0.2-0.9-0.8-0.7-1.3c0.2-0.6,0.8-0.9,1.3-0.7c0.1,0,11.2,3.6,20.6,0.8
					C469.2,313.2,469.7,313.3,469.9,313.7z"/>
			</g>
		</g>
		<g class="st5">
			<path class="st6" d="M466.7,259.8c-15.2,7.3-22.2-13.2-8.7-18.6C461.3,246.8,464.2,253.1,466.7,259.8z"/>
			<path class="st6" d="M398.2,241.5c-0.2-0.1-0.4-0.2-0.5-0.3c0.3-0.5,0.7-1,1-1.5c3.3-5.3,6.3-9.8,9.3-13.4
				C419.4,230.4,410.1,248.1,398.2,241.5z"/>
			<path class="st6" d="M368.7,279.8c-0.1-0.1-0.3-0.2-0.4-0.3c2.8-3.1,5.5-6.3,8.1-9.4C383.5,275,376.5,284.8,368.7,279.8z"/>
			<path class="st6" d="M442.6,267.7c6.4,0.5,6.5,11.7-1,10.8C434.9,277.6,436.1,267.2,442.6,267.7z"/>
			<path class="st6" d="M476.2,289.4c-16.3,4.5-23-18.3-6.7-21.8C472.2,275,474.8,282.5,476.2,289.4z"/>
		</g>
		<g>
			<path class="st4" d="M391.1,273.6c-0.2,0.4-0.3,0.9-0.5,1.4c-0.3,1.2,0.5,2.3,1.7,2.5c5.5,0.9,23.9,4,33.1,5.2
				c0.9,0.1,1.8-0.4,2.2-1.2c0.3-0.6,0.5-1.5,0.6-2.6c0.1-1-0.6-2-1.7-2.2c-5.5-1.2-23.7-4.8-33.6-4.4
				C392.1,272.3,391.4,272.8,391.1,273.6z"/>
			<path class="st7" d="M414.2,251.3c14,1.5,15.4,15.5,10.7,27.2l-28.9-4.4C396,274.1,394.2,249.1,414.2,251.3z"/>
			<g>
				<path class="st4" d="M426.4,279l-31.8-4l-0.1-1.2c0-0.6-0.5-14,6.9-20.8c3.4-3.1,7.9-4.4,13.3-3.7c5.3,0.7,9.1,2.9,11.5,6.7
					c5.2,8.4,0.8,21.4,0.6,21.9L426.4,279z M397.4,272.5l27.1,3.4c0.9-3.1,3.1-12.5-0.6-18.5c-1.9-3-5-4.8-9.4-5.4
					c-4.5-0.6-8.2,0.4-11,3C398.1,259.9,397.4,269.2,397.4,272.5z"/>
			</g>
			<g>
				<g>
					<path class="st4" d="M411.9,275.1l-2.8-0.2c0.9-11.1,3.6-25.1,3.6-25.2l2.8,0.5C415.5,250.3,412.8,264.1,411.9,275.1z"/>
				</g>
				<g>
					<path class="st4" d="M427,267.6c-10.6-3.2-29.5-3.8-29.7-3.8l0.1-2.8c0.8,0,19.5,0.6,30.4,3.9L427,267.6z"/>
				</g>
			</g>
		</g>
	</g>
	<g>
		<path class="st8" d="M447.1,382.5c-6.4,3.9-16.8,5.8-30,5.5c-2.7,0-5.5-0.2-8.4-0.4c-2.2-0.2-4.5-0.4-6.9-0.6
			c-4.6-0.5-9.4-1.2-14.4-2.1c-5.9-1.1-10.8-2.3-14.5-3.9c-1.8-0.7-3.3-1.6-4.6-2.5c-7.5-5.2-7.9-13.5-2.3-28.5
			c7.1-19.3,17.8-39.6,21.3-46.1c0.7-1.4,2-2.4,3.6-2.7c10-2.3,19.7-2.1,28.2-0.9c11.9,1.7,21.3,5.5,25.6,7.5
			c1.7,0.8,2.8,2.3,3.1,4.1C449.9,326.2,457,376.3,447.1,382.5z"/>
		<g>
			<path class="st7" d="M421.4,355c0,0-0.7-17.2,7.4-16.7c8.1,0.5,6.1,17.1,6.1,17.1L421.4,355z"/>
			<g>
				<path class="st4" d="M436.1,356.8l-16.1-0.5l-0.1-1.3c0-0.5-0.4-11.9,4.1-16.3c1.3-1.3,3-1.9,4.8-1.8c1.9,0.1,3.4,0.9,4.7,2.4
					c4.1,4.9,2.8,15.8,2.8,16.3L436.1,356.8z M422.7,353.6l10.8,0.4c0.2-3.5,0.1-10-2.3-12.9c-0.7-0.9-1.6-1.3-2.7-1.4
					c-1-0.1-1.9,0.2-2.6,1C423.3,343.2,422.8,350,422.7,353.6z"/>
			</g>
			<path class="st4" d="M418.8,354.8c0,0.3-0.1,0.7,0,1c0.1,0.6,0.6,1,1.1,1c2.7,0.1,11,0.5,15.9,0.4c0.6,0,1.1-0.5,1.2-1.1
				c0-0.3,0-0.7-0.1-1.2c-0.1-0.5-0.6-0.8-1.1-0.9c-2.5-0.2-10.6-0.9-16-0.4C419.3,353.8,418.9,354.2,418.8,354.8z"/>
		</g>
		<path class="st9" d="M447.1,382.5c-6.4,3.9-16.8,5.8-30,5.5c4.2-16.1,6.5-32.7,6.7-49.3c0.2-13.4-2.4-25.9-4.7-38.4
			c11.9,1.7,21.3,5.5,25.6,7.5c1.7,0.8,2.8,2.3,3.1,4.1C449.9,326.2,457,376.3,447.1,382.5z"/>
		<g>
			<path class="st4" d="M408.7,387.6c-2.2-0.2-4.5-0.4-6.9-0.6c-4.6-0.5-9.4-1.2-14.4-2.1c-5.9-1.1-10.8-2.3-14.5-3.9
				c-1.8-0.7-3.3-1.6-4.6-2.5c2.3-18,9-49.4,27.9-47.5C413.3,332.7,411.1,368.6,408.7,387.6z"/>
			<path class="st10" d="M403.5,371.9c-0.1,1.7-0.3,3.4-0.4,5c-0.4,4.2-0.9,7.8-1.3,10.1c-1.4-0.2-2.8-0.3-4.3-0.5
				c-3.3-0.4-6.6-1-10.1-1.6c-5.9-1.1-10.8-2.3-14.5-3.9c0.1-2.1,0.4-5.5,1-9.6c0.1-1.1,0.3-2.2,0.5-3.3c0.6-3.9,1.5-8.2,2.8-12.2
				c0.5-1.6,1-3.2,1.6-4.7c2.5-6.3,6.1-11.4,11-12.7c1.2-0.3,2.4-0.4,3.8-0.3c6.1,0.6,8.8,7.5,9.7,16.1c0.2,1.8,0.3,3.7,0.4,5.6
				C403.9,363.9,403.8,368,403.5,371.9z"/>
			<g class="st11">
				<path class="st12" d="M388.8,338.9c0,0-5.9,19.5-8.5,44.5"/>
				<path class="st12" d="M397.3,339.6c0,0-1.2,25.8-5.2,46"/>
			</g>
			<g>
				<path class="st4" d="M403.8,359.9l-26.6-4c0.5-1.6,1-3.2,1.6-4.7l24.6,3.1C403.6,356.1,403.7,358,403.8,359.9z"/>
				<path class="st4" d="M403.5,371.9c-0.1,1.7-0.3,3.4-0.4,5l-29.2-5.4c0.1-1.1,0.3-2.2,0.5-3.3L403.5,371.9z"/>
			</g>
			<path class="st13" d="M381.5,362.7c0,0.9-0.7,1.6-1.6,1.6s-1.6-0.7-1.6-1.6c0-0.9,0.7-1.6,1.6-1.6S381.5,361.8,381.5,362.7z"/>
			<path class="st14" d="M403.5,371.9c-0.1,1.7-0.3,3.4-0.4,5c-0.4,4.2-0.9,7.8-1.3,10.1c-1.4-0.2-2.8-0.3-4.3-0.5
				c1-6.2,1.9-12.4,2.1-18.6c0.1-7.5-1.1-15.5-4.5-22.3c-0.3-0.6-2.6-3.9-5.3-7c1.2-0.3,2.4-0.4,3.8-0.3c6.1,0.6,8.8,7.5,9.7,16.1
				c0.2,1.8,0.3,3.7,0.4,5.6C403.9,363.9,403.8,368,403.5,371.9z"/>
		</g>
	</g>
</g>
</svg>
