<?xml version="1.0" encoding="utf-8"?>
<!-- Generator: Adobe Illustrator 27.0.0, SVG Export Plug-In . SVG Version: 6.00 Build 0)  -->
<svg version="1.1" id="Ñëîé_1" xmlns="http://www.w3.org/2000/svg" xmlns:xlink="http://www.w3.org/1999/xlink" x="0px" y="0px"
	 viewBox="0 0 1141.5 450" style="enable-background:new 0 0 1141.5 450;" xml:space="preserve">
<style type="text/css">
	.st0{opacity:0.86;fill:#88AB02;enable-background:new    ;}
	.st1{fill:url(#SVGID_1_);}
	.st2{opacity:0.11;fill:#60003E;enable-background:new    ;}
	.st3{fill:url(#SVGID_00000180359237517503071730000005379153913517325496_);}
	.st4{opacity:0.44;fill:#6D0074;enable-background:new    ;}
	.st5{opacity:0.25;fill:#B5B5FF;enable-background:new    ;}
	.st6{opacity:0.14;fill:#7F7F7F;enable-background:new    ;}
	.st7{opacity:0.24;fill:#6D0074;enable-background:new    ;}
	.st8{opacity:0.12;fill:#7F7F7F;enable-background:new    ;}
	.st9{opacity:0.44;fill:#900040;enable-background:new    ;}
	.st10{opacity:0.54;fill:url(#SVGID_00000183210731284944606030000007656239868119580072_);enable-background:new    ;}
	.st11{opacity:0.54;fill:url(#SVGID_00000085938349855256002560000013123434478701728701_);enable-background:new    ;}
	.st12{fill:url(#SVGID_00000129173279573665767000000002719697205570404543_);}
	.st13{fill:#A6C505;}
</style>
<g>
	<path class="st0" d="M445.2,307.9c-2.1,3.4-18.7,7-7.4,8c11.3,1.1,20.1,9.2,13.1,10.6c-7,1.4-6.1,2.8,13.7,3.7
		c19.9,0.9,56.4-1,59,4.6s22.5,6.6,37.7,7s-2.3-5.3,27.3-4.8c29.6,0.5,111.1-2.4,131.6-2.3c20.5,0.1-1.5-5.6-33.5-6.8
		s-130.1-17.2-172.3-17.9C472.2,309.3,445.2,307.9,445.2,307.9z"/>
	
		<linearGradient id="SVGID_1_" gradientUnits="userSpaceOnUse" x1="508.3" y1="128.4626" x2="508.3" y2="249.6296" gradientTransform="matrix(1 0 0 -1 0 452)">
		<stop  offset="0" style="stop-color:#4C4E03"/>
		<stop  offset="6.180000e-02" style="stop-color:#49431C"/>
		<stop  offset="0.1362" style="stop-color:#463A32"/>
		<stop  offset="0.2232" style="stop-color:#443244"/>
		<stop  offset="0.3292" style="stop-color:#432D50"/>
		<stop  offset="0.4743" style="stop-color:#422A57"/>
		<stop  offset="0.8394" style="stop-color:#422959"/>
	</linearGradient>
	<path class="st1" d="M470.2,323.5c21.3-8.4,76.2,0,76.2,0L519,202.4h-15.1L470.2,323.5z"/>
	<path class="st2" d="M522.7,316.9c-43.6,0.6-32.5-51.3-28.3-69.1s10.9-38.5,10.9-38.5l5.4-3.5l9.2,26.7L522.7,316.9z"/>
	
		<linearGradient id="SVGID_00000054223739344834759650000006819622562071614344_" gradientUnits="userSpaceOnUse" x1="485.4921" y1="244.1966" x2="661.2786" y2="68.4102" gradientTransform="matrix(1 0 0 -1 0 452)">
		<stop  offset="0" style="stop-color:#054EE5"/>
		<stop  offset="9.980000e-02" style="stop-color:#0F55E9"/>
		<stop  offset="0.4717" style="stop-color:#2F6EF5"/>
		<stop  offset="0.7851" style="stop-color:#427DFC"/>
		<stop  offset="1" style="stop-color:#4982FF"/>
	</linearGradient>
	<path style="fill:url(#SVGID_00000054223739344834759650000006819622562071614344_);" d="M715.6,329.2c0.3,0.8-7.2,3.5-13.4,4.5
		c-6.2,1-134,1.8-136.1,1.8c-2.1,0-7.1,3.3-12.6,3.9c-5.5,0.6-24.8-1.4-26.8-4.7c-1.9-3.3-10.5-53.6-12.8-70.4
		c-2.3-16.8-6.7-55.6-6.7-55.6s-9.8,72.2-19.7,92.2c-9.9,20-21.4,26.4-27.2,28.4c-5.7,1.9-13.4-8.7-13-10.3c0.4-1.6,4.4-3.4,4.4-3.4
		s-11.7-11.5-10.3-14c1.3-2.5,11.1-9.1,30.4-41.2c14.8-24.5,25.8-53.1,30.2-65.2c0,0,0,0,0-0.1c1.3-3.7,2-5.8,2-5.8
		c0.1-0.4,0.5-0.5,2-0.3c0.1,0,0.2,0,0.3,0.1c4.2,0.7,16,3.6,48.8,9.4c46.7,8.2,83.9,10.1,87.6,15c3.7,4.9,36.6,69.4,45.4,82.4
		C696.9,308.9,715.2,328.4,715.6,329.2z"/>
	<path class="st4" d="M715.6,329.2c0.3,0.8-7.2,3.5-13.4,4.5c-6.2,1-134,1.8-136.1,1.8c-2.1,0-7.1,3.3-12.6,3.9
		c-5.5,0.6-24.8-1.4-26.8-4.7c-1.9-3.3-10.5-53.6-12.8-70.4c-2.3-16.8-6.7-55.6-6.7-55.6s-9.8,72.2-19.7,92.2
		c-9.9,20-21.4,26.4-27.2,28.4c-5.7,1.9-13.4-8.7-13-10.3c0.4-1.6,4.4-3.4,4.4-3.4s-11.7-11.5-10.3-14
		c25.4-16.3,53.3-79.8,60.6-106.4c0,0,0,0,0-0.1c0,0,4-6,4-6c0.1,0,0.2,0,0.3,0.1c4.9,1.4,13.3,25.6,27.5,58.7
		c14.5,34,49.5,80.4,54.9,84.7c5.5,4.2,94.1-2.2,105.6-3.6C705.8,327.5,715.6,329.2,715.6,329.2z"/>
	<path class="st5" d="M447.3,318.9c-0.4,1.6,7.3,12.2,13,10.3c5.7-1.9,17.2-8.4,27.2-28.4c5.8-11.6,11.5-40.7,15.2-63.1
		c-1.5,6.6-3.3,13.5-5.1,18c-4.4,11.5-26.4,49.9-45.9,59.8c-1,0.5-1.8,1-2.7,1.5C448.2,317.6,447.5,318.3,447.3,318.9z"/>
	<path class="st5" d="M554.6,336.9c1.1-2.3-1.3-4.1-15.9-32.3s-31.1-107.8-31.1-107.8l-0.4,12.1c0-0.2,0.1-0.4,0.1-0.4
		s4.4,38.7,6.7,55.6c2.3,16.8,10.9,67.1,12.8,70.4c1.1,1.9,8.1,3.4,14.8,4.2c0.4,0,0.7,0.1,1,0.1c3.1,0.3,6.1,0.5,8.3,0.5
		C553,339.1,554,338.2,554.6,336.9z"/>
	<path class="st6" d="M591.7,330.1c-14-4.7-43.9-54.6-43.4-63.5c0.4-8.9,105-5.9,114.1-3c9.1,2.9,24.6,32.8,28.6,39.7
		s5.1,21.1-1.6,23.9S609.1,336,591.7,330.1z"/>
	<path class="st5" d="M519.9,289.9c0.1-14.5,27.2,29.7,30.4,39.5s-9.2,10-16.6,6.9C526.2,333.2,519.7,307.5,519.9,289.9z"/>
	<path class="st5" d="M491.3,289.1c1.6-5.7-25.4,20.6-34.7,25.2c-9.3,4.6-8.9,8-0.8,13C463.8,332.4,484.4,314.2,491.3,289.1z"/>
	<path class="st7" d="M514.6,228.1c-2.5-10.5,13.5,46.7,22.2,64.2c8.7,17.6,28.6,43.1,27.5,43.5c-1,0.4-5.5,1.9-6.9,1.7
		s-17.1-28.5-24.2-45.2C526.1,275.7,514.6,228.1,514.6,228.1z"/>
	<path class="st7" d="M452.9,314.9c-1.6,0.9,27.9-29,41.5-53.7C494.4,261.3,475.3,302,452.9,314.9z"/>
	<path class="st7" d="M643.4,334.7c-9.2,0.1,55.9-6.6,61.1-6.4c5.1,0.2,9.6,3,1.3,4.3C697.5,333.9,657.9,334.6,643.4,334.7z"/>
	<path class="st8" d="M511.6,195.8c-0.9-4,21.3,37.1,23.8,49c2.5,11.9,9.7,25.4,9.7,25.4s-16.2-31.2-20-43.4s-13.5-30-13.5-30
		L511.6,195.8z"/>
	<path class="st8" d="M521.2,192.2c-7-1.5,71,20.8,88,22.6s29.5-1.3,28.6-2.4C634.2,208.4,583.6,205.8,521.2,192.2z"/>
	<path class="st6" d="M567.9,221.8c0.3,1.3,12.8,26.2,15.7,26.4s48.6,2.2,49.2,0c0.7-2.2-6.9-23-9.4-23.3
		C621,224.6,567.4,219.8,567.9,221.8z"/>
	<path class="st7" d="M583.6,248.2c-2.9-0.2-15.3-25.2-15.7-26.4c0,0-0.8,0.1-1.1,1.8s10.4,24.1,13.8,25.7c3,1.4,49.1,1.6,50.1,1.4
		s2.3-1.2,2.1-2.4C632.2,250.4,586.5,248.4,583.6,248.2z"/>
	<path class="st9" d="M583.8,249.7c-4.4-0.2,39.8-0.7,43.7-0.5C631.5,249.5,619.7,251.4,583.8,249.7z"/>
	<path class="st6" d="M552.3,270.8c0.1-6.5,101.4,20.4,112.8,37.4s-47.7,27.1-66.8,19.3C579.1,319.7,551.9,286.1,552.3,270.8z"/>
	<path class="st6" d="M592.9,225c-8.5,0.9,20.2,18.7,28.4,14.8C629.4,236,633.9,220.8,592.9,225z"/>
	<path class="st7" d="M554.9,334c-10.5-19.4-12.6-51.6-9.9-56.5c2.8-4.9,22.2,33.1,30.6,41.6c8.5,8.5,11,14.3,9.5,14.9
		c-1.5,0.6-19.7,0.3-20.8,1.2C563.4,336.1,557.8,339.4,554.9,334z"/>
	
		<linearGradient id="SVGID_00000107587461866990314830000006166596505521676431_" gradientUnits="userSpaceOnUse" x1="518.9296" y1="252.4147" x2="571.202" y2="252.4147" gradientTransform="matrix(1 0 0 -1 0 452)">
		<stop  offset="0" style="stop-color:#6A00C4"/>
		<stop  offset="0.1347" style="stop-color:#7A1CCA"/>
		<stop  offset="0.4261" style="stop-color:#A464DB"/>
		<stop  offset="0.8487" style="stop-color:#E6D5F5"/>
		<stop  offset="1" style="stop-color:#FFFFFF"/>
	</linearGradient>
	<path style="opacity:0.54;fill:url(#SVGID_00000107587461866990314830000006166596505521676431_);enable-background:new    ;" d="
		M518.9,192.1c0,0,46.4,12.6,51,13.8c4.6,1.2-3.6,2.6-18.6-2.2S518.9,192.1,518.9,192.1z"/>
	
		<linearGradient id="SVGID_00000115495469128388407950000008258865913557209229_" gradientUnits="userSpaceOnUse" x1="517.4446" y1="248.9761" x2="557.7745" y2="248.9761" gradientTransform="matrix(1 0 0 -1 0 452)">
		<stop  offset="0" style="stop-color:#6A00C4"/>
		<stop  offset="0.1347" style="stop-color:#7A1CCA"/>
		<stop  offset="0.4261" style="stop-color:#A464DB"/>
		<stop  offset="0.8487" style="stop-color:#E6D5F5"/>
		<stop  offset="1" style="stop-color:#FFFFFF"/>
	</linearGradient>
	<path style="opacity:0.54;fill:url(#SVGID_00000115495469128388407950000008258865913557209229_);enable-background:new    ;" d="
		M517.4,192.1c0,0,26.5,18.9,37,20.6c10.5,1.6-6,2.3-16.4-2.5C527.5,205.4,517.4,192.1,517.4,192.1z"/>
	<path class="st8" d="M526.3,198.2c-1.5-1,33.8,11.5,39.4,14c5.6,2.5-8.9,1.9-13.9-0.1S531,201.3,526.3,198.2z"/>
	<g>
		
			<linearGradient id="SVGID_00000101810431674482945350000000572701094627572918_" gradientUnits="userSpaceOnUse" x1="680.1414" y1="114.7161" x2="680.1414" y2="150.9424" gradientTransform="matrix(1 0 0 -1 0 452)">
			<stop  offset="4.090000e-02" style="stop-color:#259740"/>
			<stop  offset="0.158" style="stop-color:#2E9B40"/>
			<stop  offset="0.3506" style="stop-color:#47A640"/>
			<stop  offset="0.5949" style="stop-color:#6FB740"/>
			<stop  offset="0.8785" style="stop-color:#A7CF41"/>
			<stop  offset="1" style="stop-color:#C1DA41"/>
		</linearGradient>
		<path style="fill:url(#SVGID_00000101810431674482945350000000572701094627572918_);" d="M690.7,333.6c-0.2,1.5-0.7,2.7-1.2,3
			c-1.8,1.1-18.3,0.4-18.3,0.4c-1.3-0.6-1.8-2.1-1.9-4c0-1.4,0.2-3,0.6-4.6c0-0.1,0-0.1,0-0.2c0.3-1.4,0.8-2.7,1.2-4c0,0,0,0,0,0
			c1-2.7,2.1-4.7,2.6-4.9c1.5-0.5,2.1,8.1,2.1,8.1s1-7.4,3-13.7c2-6.3,3.8,2.3,3.8,7.7c0,1.1-0.2,2.3-0.5,3.4c0,0.1,0,0.1,0,0.1
			c-0.6,2.4-1.7,4.6-2.5,6c0.4-0.6,1-1.4,1.6-2.2c2.1-2.8,5-6.4,6.9-8.2c3.1-2.9-0.4,6.7-2.1,10.2c0.8-1.3,2.2-3.3,3.3-3.9
			C691,326.1,691.3,330.4,690.7,333.6z"/>
		<path class="st13" d="M669.3,333.1c0-1.4,0.2-3,0.6-4.6C669.6,329.8,669.4,331.3,669.3,333.1z"/>
		<path class="st13" d="M679.2,315.3c-1.6,2.1-3.5,14.9-3.5,14.9s-1-7.8-1.5-8.5c-0.3-0.4-1.8-0.2-3.1,2.6c1-2.7,2.1-4.7,2.6-4.9
			c1.5-0.5,2.1,8.1,2.1,8.1s1-7.4,3-13.7c2-6.3,3.8,2.3,3.8,7.7c0,1.1-0.2,2.3-0.5,3.4C683.8,318.2,680.8,313.2,679.2,315.3z"/>
		<path class="st13" d="M688.1,322.7c-1.1,0.1-3.5,2.1-5.4,4.4c-1.2,1.6-1.7,3.1-1.4,1.8c2.1-2.8,5-6.4,6.9-8.2
			c3.1-2.9-0.4,6.7-2.1,10.2C686.4,330,689.1,322.5,688.1,322.7z"/>
		<path class="st13" d="M690.7,333.6c0-0.3-0.1-5.8-1-5.7c-0.9,0-3.3,2.6-3.6,2.9c0.8-1.4,2.2-3.3,3.3-4
			C691,326.1,691.3,330.4,690.7,333.6z"/>
	</g>
</g>
</svg>
