<?xml version="1.0" encoding="utf-8"?>
<!-- Generator: Adobe Illustrator 27.0.0, SVG Export Plug-In . SVG Version: 6.00 Build 0)  -->
<svg version="1.1" id="Ñëîé_1" xmlns="http://www.w3.org/2000/svg" xmlns:xlink="http://www.w3.org/1999/xlink" x="0px" y="0px"
	 viewBox="0 0 1141.5 450" style="enable-background:new 0 0 1141.5 450;" xml:space="preserve">
<style type="text/css">
	.st0{fill:#CFBEFF;}
	.st1{fill:#57BEFF;}
	.st2{opacity:0.85;}
	.st3{opacity:0.86;fill:#88AB02;enable-background:new    ;}
	.st4{fill:url(#SVGID_1_);}
	.st5{opacity:0.11;fill:#60003E;enable-background:new    ;}
	.st6{fill:#B10422;}
	.st7{opacity:0.43;fill:#A6008D;enable-background:new    ;}
	.st8{opacity:0.28;fill:#FFFFFF;enable-background:new    ;}
	.st9{opacity:0.28;fill:#7F7F7F;enable-background:new    ;}
	.st10{opacity:0.25;fill:#A6008D;enable-background:new    ;}
	.st11{opacity:0.38;fill:#7F7F7F;enable-background:new    ;}
	.st12{opacity:0.39;fill:url(#SVGID_00000073694009506809757680000001209987122348364943_);enable-background:new    ;}
	.st13{opacity:0.21;fill:url(#SVGID_00000085218544429537363220000013623610174128098727_);enable-background:new    ;}
	.st14{opacity:0.21;fill:url(#SVGID_00000065794187084056581340000014383416960550711957_);enable-background:new    ;}
	.st15{opacity:0.39;fill:url(#SVGID_00000103224471427537075060000004857254380988539521_);enable-background:new    ;}
	.st16{fill:url(#SVGID_00000127741988393895336890000000139003480474239624_);}
	.st17{fill:#259740;}
	.st18{fill:#A6C505;}
</style>
<g>
	<path class="st0" d="M472.4,158.2c0,0,25.8-33,50.3-18.5C547.2,154.2,472.4,158.2,472.4,158.2z"/>
	<g>
		<path class="st1" d="M532.3,146.7C532.3,146.7,532.3,146.6,532.3,146.7c-1.6-1.8-3-3.2-4.1-4c-7.3-5.4-14.3-6.3-18.7-5.9
			c-4,0.4-7.8,1.3-11.3,2.6c-16.3,6.1-27.7,20.4-32.5,26.5c-5.8,7.4-8.4,16.8-8.7,18.5c-0.3,1.6,0.2,3.3,1.2,3.9
			c0.5,0.2,8.4,0.4,17.1,0.5c0.2,0,0.5,0,0.7,0c0.2,0.5,0.4,0.9,0.5,0.9c0.5,0,6.8,0.3,9.5,0.2c0.9,0,1.5-0.4,1.6-1
			c6.5,0.1,11.6,0.1,12,0.1c0.8,0,2.3,0.7,3.9,1s21.8,1.2,24.7-2.7c0.3-0.4,0.5-0.9,0.6-1.6c5.1-0.8,16.7-2.2,22.2,1.1
			c1.1,0.9,2.1,1.5,2.8,1.9c2.1,1.2,3.5,1.4,4.4,1.2c1.4-0.3,1.1-1.1,0.9-1.7c0-0.1-0.1-0.2-0.1-0.3c0,0,0-0.1,0-0.1
			c0-0.1,0-0.2,0-0.3c0.1-0.5,1.4-0.3,1.2-1.3C560.1,185.4,542.5,158,532.3,146.7z"/>
		<path class="st1" d="M573.9,186.8C573.9,186.9,574,186.9,573.9,186.8c0,0,0-0.1,0-0.1c0,0,0-0.1,0-0.1c0-0.1,0-0.2,0-0.3
			c0,0,0-0.1,0-0.1c0-0.1,0-0.2-0.1-0.3c0,0,0,0,0-0.1c0-0.1-0.1-0.2-0.1-0.3c0,0,0-0.1,0-0.1c0-0.1-0.1-0.2-0.1-0.3
			c0-0.1-0.1-0.2-0.1-0.3c0,0,0,0,0-0.1c-0.1-0.1-0.1-0.2-0.2-0.3c-0.1-0.1-0.1-0.1-0.2-0.2c0,0,0,0-0.1,0c-0.1-0.1-0.1-0.1-0.2-0.1
			c-0.1,0-0.2,0-0.2,0c0,0,0,0-0.1,0c-0.1,0-0.2,0-0.3,0.1c-0.9,0.3-1.2,0.9-1.3,1.3c-0.3-1.7-1.4-6.4-2.1-5.4
			c0,0.1-0.1,0.1-0.1,0.2c0,0,0,0.1,0,0.1c0,0.1,0,0.1-0.1,0.2c0,0,0,0.1,0,0.1c0,0.1,0,0.1,0,0.2c0,0,0,0.1,0,0.1
			c0,0.1,0,0.1,0,0.2c0,0,0,0.1,0,0.1c0,0.1,0,0.1,0,0.2c0,0,0,0.1,0,0.1c0,0.1,0,0.2,0,0.3c0,0,0,0.1,0,0.1c0,0.1,0,0.2,0,0.3
			c0,0,0,0.1,0,0.1c0,0.1,0,0.3,0.1,0.4c0,0,0,0.1,0,0.1c0,0.1,0,0.2,0,0.3c0,0.1,0,0.1,0,0.2c0,0.1,0,0.2,0,0.3c0,0.1,0,0.1,0,0.2
			c0,0.1,0,0.2,0,0.2c0,0.1,0,0.1,0,0.2c0,0.1,0,0.1,0,0.2c0,0.1,0,0.1,0,0.2c0,0.1,0,0.1,0,0.2c0,0.1,0,0.1,0,0.2
			c0,0.1,0,0.1,0,0.2c0,0,0,0.1,0,0.1c0.1,0.2,0.1,0.4,0.1,0.6c0-0.1-0.1-0.1-0.1-0.2c0-0.1-0.1-0.1-0.1-0.2c0,0,0-0.1-0.1-0.1
			c0-0.1-0.1-0.1-0.1-0.2c0-0.1-0.1-0.1-0.1-0.2c0-0.1-0.1-0.1-0.1-0.2c0-0.1-0.1-0.1-0.1-0.2c0-0.1-0.1-0.1-0.1-0.2
			c0-0.1-0.1-0.1-0.1-0.2c0-0.1-0.1-0.1-0.1-0.2c0-0.1-0.1-0.2-0.1-0.2c0-0.1-0.1-0.1-0.1-0.2c-0.1-0.1-0.1-0.2-0.2-0.2
			c0-0.1-0.1-0.1-0.1-0.2c-0.1-0.1-0.1-0.2-0.2-0.3c-0.1-0.1-0.1-0.1-0.2-0.2c-0.1-0.1-0.1-0.2-0.2-0.3c-0.1-0.1-0.1-0.2-0.2-0.2
			c-0.1-0.1-0.1-0.2-0.2-0.3c-0.1-0.1-0.1-0.1-0.2-0.2c-0.1-0.1-0.1-0.2-0.2-0.3c-0.1-0.1-0.1-0.1-0.2-0.2c-0.1-0.1-0.2-0.2-0.2-0.3
			c-0.1-0.1-0.1-0.1-0.2-0.2c-0.1-0.1-0.2-0.2-0.2-0.3c-0.1-0.1-0.1-0.1-0.2-0.2c-0.1-0.1-0.2-0.2-0.3-0.3c-0.1-0.1-0.1-0.1-0.2-0.2
			c-0.1-0.1-0.2-0.2-0.3-0.3c0,0-0.1-0.1-0.1-0.1c-0.2-0.1-0.3-0.3-0.5-0.4c-0.1-0.1-0.2-0.2-0.4-0.3c0,0-0.1-0.1-0.1-0.1
			c-0.1-0.1-0.2-0.2-0.3-0.2c0,0,0,0-0.1-0.1c-0.1-0.1-0.2-0.2-0.3-0.3c0,0,0,0-0.1-0.1c-0.1-0.1-0.2-0.1-0.3-0.2c0,0,0,0-0.1,0
			c-0.1-0.1-0.2-0.1-0.3-0.2c0,0,0,0,0,0c-0.1,0-0.1-0.1-0.2-0.1c0,0,0,0-0.1,0c-0.1,0-0.2-0.1-0.2-0.1c-0.1,0-0.1-0.1-0.2-0.1
			c-0.1,0-0.1,0-0.2,0c-0.1,0-0.1,0-0.1,0.1c0,0-0.1,0.1-0.1,0.1c0,0.1,0,0.1,0,0.2c0,0.1,0,0.2,0,0.3c0,0,0,0,0,0.1
			c0,0.1,0,0.2,0.1,0.3c0,0,0,0,0,0.1c0,0.1,0.1,0.2,0.1,0.4c0,0,0,0.1,0,0.1c0.1,0.2,0.1,0.3,0.2,0.5c0.6,1.4,1.6,3.4,3.3,6.5
			c0,0-0.3-0.5-0.7-1c0-0.1-0.1-0.1-0.1-0.1c-0.1-0.1-0.1-0.1-0.2-0.2c0,0-0.1-0.1-0.1-0.1c-0.1-0.1-0.1-0.1-0.1-0.1
			c-0.1,0-0.1-0.1-0.1-0.1c-0.1,0-0.1,0-0.1,0c-0.1,0-0.1,0-0.1,0c0,0-0.1,0-0.1,0c0,0-0.1,0.1-0.1,0.1c0,0.1,0,0.1,0,0.2
			c0,0.1,0,0.1,0,0.2c0,0,0,0,0,0.1c0,0.1,0,0.2,0,0.3c0,0,0,0,0,0.1c0,0.1,0,0.2,0,0.3c0,0,0,0.1,0,0.1c0,0.1,0,0.3,0.1,0.4
			c0,0.2,0.1,0.4,0.1,0.5c-1.1-1.1-2.8-2.5-3-1.9c0,0.1,0,0.1,0,0.2c0,0.1,0,0.2,0,0.2c0,1.2,0.9,3.5,1.6,3.7c0.8,0.2,12,0.4,12.2,0
			C574,188.2,574,187.6,573.9,186.8z"/>
	</g>
	<g class="st2">
		<path class="st3" d="M560.1,186.9c-1.9,1,2.4,3.1,3.8,3.8c1.4,0.8-4.3-0.2-12.4-0.9c-8.1-0.7-13.4,2.2-23,2.2
			c-7.7,0-14.1-1.1-25.4-1.1c-11.3,0-6.4-2.2-15.5-1.7c-9.1,0.5-29.1-0.8-34.4-0.7c-5.2,0.1,3.7-3.4,10.7-3.3
			c7,0.1,74.2-6.8,77.2-6.4S560.1,186.9,560.1,186.9z"/>
		
			<linearGradient id="SVGID_1_" gradientUnits="userSpaceOnUse" x1="439.1849" y1="255.6936" x2="439.1849" y2="293.3688" gradientTransform="matrix(1.0061 3.620000e-02 -0.2345 -1.0167 157.1095 430.6583)">
			<stop  offset="0" style="stop-color:#744E03"/>
			<stop  offset="0.8394" style="stop-color:#214A2C"/>
		</linearGradient>
		<path class="st4" d="M551.6,187c-7-4.8-25.2-0.9-25.2-0.9l-3.8-38.1l6.5,1.4L551.6,187z"/>
		<path class="st5" d="M523.3,178.3c5.7,7.4,28.5,7.9,18.1-9.8c-10.4-17.7-8.3-30-17.5-22.3s-9.9,5.9-9.9,5.9L523.3,178.3z"/>
		<path class="st6" d="M559.1,187.5c-0.1,0.5,1.3,2-0.7,2.4c-2,0.4-6.2-0.9-16.1-11.7c-9.6-10.5-16.2-25.6-16.6-25.4c0,0,0,0,0,0
			c-0.1,1.1,5.7,30.4,2.7,34.4c-3,4-23.2,3.1-24.7,2.7c-1.6-0.3-3.1-1.1-3.9-1c-1.1,0-40.4-0.2-41.5-0.7c-1.1-0.5-1.5-2.2-1.2-3.9
			c0.3-1.7,2.9-11.1,8.7-18.5c4.8-6.1,16.2-20.4,32.5-26.5c3.5-1.3,7.3-2.3,11.3-2.6c4.3-0.4,11.4,0.4,18.7,5.9
			c8.4,6.2,31.8,42.5,32,43.5C560.5,187.3,559.2,187.1,559.1,187.5z"/>
		<path class="st7" d="M508.1,144.6c-10.2,10.6-11.1,44.3-8.3,44.4c-1.1,0-40.4-0.2-41.5-0.7c-1.1-0.5-1.5-2.2-1.2-3.9
			c0.3-1.7,2.9-11.1,8.7-18.5c4.8-6.1,16.2-20.4,32.5-26.5C506.3,137,516.1,136.3,508.1,144.6z"/>
		<path class="st7" d="M558.4,189.9c-2,0.4-6.2-0.9-16.1-11.7c-9.6-10.5-16.2-25.6-16.6-25.4c0-0.2-0.1-0.3-0.1-0.4
			c-1.4-4.6-3.3-8.8-3.5-9.3c0.1,0.1,0.2,0.5,0.6,1.3c1.9,4,26.9,35.7,36.4,43.3C559,188,560.4,189.5,558.4,189.9z"/>
		<path class="st7" d="M503.7,190c-3.2-0.9-3-0.9-3.2-2.1c-0.3-1.2,2.5-22.2,9.5-32.8c7-10.6-1.6,3.4-3.6,15.9
			C504.4,183.6,503.7,190,503.7,190z"/>
		<path class="st8" d="M521.3,139.5c-1.9-1.4-10.8,14-15,31.6c-4.1,17.6-1.9,18.6,1.1,19s18.4,1.3,20.6-4.6s-2.7-37.2-5.9-42.3
			c0,0,15.8,22.7,25.7,33s-9.6-11.7-14.8-20.6c-5.2-8.9-6.4-11-4.6-8.4c1.8,2.6,29.1,37.4,31.1,39.1c2,1.7-19-30.4-27.2-39.6
			C526.7,140.4,521.3,139.5,521.3,139.5z"/>
		<path class="st9" d="M502.3,175.6c-0.6,4-3.5-12.1,1.1-23.2s14.6-13.4,14-11.8C516.9,142.2,504.6,160.3,502.3,175.6z"/>
		<path class="st10" d="M499.8,189c-0.3-0.3-0.5-0.6-0.7-1c-1.2-2.1-1.5-5.7-1.6-7.6c-0.2-2.3-5.1,6.3-19.6,4.7
			c-14.6-1.6-15.8-11.2-17.5-9c-2.5,3.4-3.3,10.1-2,12.2L499.8,189z"/>
		<path class="st7" d="M529.4,159.3c-1-1.9,14.9,14.1,19.8,18.8s9.9,9,10.1,10c0.2,1-1.3,2.2-5.2,0.4
			C550.1,186.9,537.8,175,529.4,159.3z"/>
		<path class="st11" d="M522.1,143c-0.7-1.2,6.2,6.7,11.6,14c5.4,7.4,16.1,20.5,13.7,18.3C545.1,173.1,526.4,150.5,522.1,143z"/>
		<path class="st8" d="M525.3,158.2c-3-4.1-16.4,7.4-18.4,14.7s-5,14.6,4.2,16.1c9.2,1.4,17.7-1.8,17.6-9.2
			C528.6,172.4,527.3,160.8,525.3,158.2z"/>
		
			<linearGradient id="SVGID_00000142152591695392598590000012222873876755352982_" gradientUnits="userSpaceOnUse" x1="440.8881" y1="295.1236" x2="454.3859" y2="295.1236" gradientTransform="matrix(1 0 -0.2345 -1.0167 163.0586 465.1609)">
			<stop  offset="0" style="stop-color:#66187C"/>
			<stop  offset="0.1417" style="stop-color:#78328B"/>
			<stop  offset="0.4459" style="stop-color:#A476B1"/>
			<stop  offset="0.8856" style="stop-color:#ECE2EE"/>
			<stop  offset="1" style="stop-color:#FFFFFF"/>
		</linearGradient>
		<path style="opacity:0.39;fill:url(#SVGID_00000142152591695392598590000012222873876755352982_);enable-background:new    ;" d="
			M531.9,152.7c-0.8-1.7,12,14.8,16.4,20.1s2.8,6.2-0.3,2.6C545,171.8,535.2,159.4,531.9,152.7z"/>
		
			<linearGradient id="SVGID_00000183945035273658170880000005350738004108616377_" gradientUnits="userSpaceOnUse" x1="399.7016" y1="272.0401" x2="399.7016" y2="293.032" gradientTransform="matrix(1 0 -0.2345 -1.0167 163.0586 465.1609)">
			<stop  offset="0" style="stop-color:#66187C"/>
			<stop  offset="0.1417" style="stop-color:#78328B"/>
			<stop  offset="0.4459" style="stop-color:#A476B1"/>
			<stop  offset="0.8856" style="stop-color:#ECE2EE"/>
			<stop  offset="1" style="stop-color:#FFFFFF"/>
		</linearGradient>
		<path style="opacity:0.21;fill:url(#SVGID_00000183945035273658170880000005350738004108616377_);enable-background:new    ;" d="
			M499.3,188.6c0,0-3.3-11.4-2.6-18.9c0.7-7.4-2.6,3.7-2.8,7.5S499.3,188.6,499.3,188.6z"/>
		
			<linearGradient id="SVGID_00000036959042892727909690000003808838445262681522_" gradientUnits="userSpaceOnUse" x1="395.9703" y1="271.6487" x2="395.9703" y2="284.2683" gradientTransform="matrix(1 0 -0.2345 -1.0167 163.0586 465.1609)">
			<stop  offset="0" style="stop-color:#66187C"/>
			<stop  offset="0.1417" style="stop-color:#78328B"/>
			<stop  offset="0.4459" style="stop-color:#A476B1"/>
			<stop  offset="0.8856" style="stop-color:#ECE2EE"/>
			<stop  offset="1" style="stop-color:#FFFFFF"/>
		</linearGradient>
		<path style="opacity:0.21;fill:url(#SVGID_00000036959042892727909690000003808838445262681522_);enable-background:new    ;" d="
			M499.1,189c0,0-8.3-9.1-9.9-12.1c-1.6-3,0.5,4,3,7C494.7,186.8,499.1,189,499.1,189z"/>
		<path class="st9" d="M466.3,167.5c-1.7,3.5,29,1.8,30.8-1.9s7.1-23.6,4.5-25S475.5,148.4,466.3,167.5z"/>
		
			<linearGradient id="SVGID_00000053544499518008717580000005797479683999399057_" gradientUnits="userSpaceOnUse" x1="405.1959" y1="288.4738" x2="418.0285" y2="288.4738" gradientTransform="matrix(1 0 -0.2345 -1.0167 163.0586 465.1609)">
			<stop  offset="0" style="stop-color:#66187C"/>
			<stop  offset="0.1417" style="stop-color:#78328B"/>
			<stop  offset="0.4459" style="stop-color:#A476B1"/>
			<stop  offset="0.8856" style="stop-color:#ECE2EE"/>
			<stop  offset="1" style="stop-color:#FFFFFF"/>
		</linearGradient>
		<path style="opacity:0.39;fill:url(#SVGID_00000053544499518008717580000005797479683999399057_);enable-background:new    ;" d="
			M504.1,186.6c-0.1,1.6-1.4-10.9,0.5-17.9s6.9-14.7,5-10.5C507.7,162.3,504.8,175,504.1,186.6z"/>
		<path class="st10" d="M541.3,176.2c-1.6-2.8,17.4,10,17.8,11.3c0.4,1.3-1.4,2.5-3.2,1.8C554,188.7,544.5,182.1,541.3,176.2z"/>
		<path class="st9" d="M482.4,158.5c0,0.4-0.6,7.6-1.1,7.6c-0.5,0.1-8.9,0.6-9.1,0s-0.3-6.7,0.2-6.7
			C472.8,159.4,482.4,158,482.4,158.5z"/>
		<path class="st7" d="M481.3,166.2c0.5-0.1,1.2-7.3,1.1-7.6c0,0,0.2,0,0.3,0.5c0.2,0.5-0.3,7-0.8,7.4c-0.5,0.4-9,0.5-9.2,0.4
			c-0.2-0.1-0.5-0.4-0.5-0.7C472.5,166.8,480.8,166.2,481.3,166.2z"/>
		<path class="st7" d="M481.4,166.6c0.8-0.1-7.4-0.2-8.1-0.1C472.5,166.5,474.8,167.1,481.4,166.6z"/>
		<path class="st9" d="M480.9,159c1.6,0.3-5.4,5.9-7.2,4.8C472,162.7,473.1,157.8,480.9,159z"/>
		<path class="st9" d="M495.2,158.3c0,0.4-0.6,7.6-1.1,7.6c-0.5,0.1-8.9,0.6-9.1,0s-0.6-7.5-0.2-7.6
			C485.2,158.3,495.2,157.8,495.2,158.3z"/>
		<path class="st7" d="M494.1,166c0.5-0.1,1.2-7.3,1.1-7.6c0,0,0.2,0,0.3,0.5c0.2,0.5-0.3,7-0.8,7.4c-0.5,0.4-9,0.5-9.2,0.4
			c-0.2-0.1-0.5-0.4-0.6-0.7C485.2,166.6,493.6,166,494.1,166z"/>
		<path class="st7" d="M494.2,166.4c0.8-0.1-7.4-0.2-8.1-0.1C485.3,166.3,487.6,166.9,494.2,166.4z"/>
		<path class="st9" d="M494.3,158.6c0.9,0.1-5.9,5.9-7.8,5C484.9,162.7,482.9,157,494.3,158.6z"/>
		<path class="st9" d="M506.7,159.2c-1.4,1-4.8-6-0.5-11.8s9.9-5.3,9.7-4.5C515.7,143.8,506.7,159.2,506.7,159.2z"/>
		<path class="st7" d="M458.2,187.1c0.2-1.5,39.6,1.2,39.6,1.2s-7.3,1-22.5,0.5C460.2,188.3,458.1,188.6,458.2,187.1z"/>
		<g>
			
				<linearGradient id="SVGID_00000048500256466357513970000003841388070555500427_" gradientUnits="userSpaceOnUse" x1="468.4143" y1="272.0344" x2="468.4143" y2="287.0663" gradientTransform="matrix(1 0 -0.2345 -1.0167 163.0586 465.1609)">
				<stop  offset="4.090000e-02" style="stop-color:#259740"/>
				<stop  offset="0.158" style="stop-color:#2E9B40"/>
				<stop  offset="0.3506" style="stop-color:#47A640"/>
				<stop  offset="0.5949" style="stop-color:#6FB740"/>
				<stop  offset="0.8785" style="stop-color:#A7CF41"/>
				<stop  offset="1" style="stop-color:#C1DA41"/>
			</linearGradient>
			<path style="fill:url(#SVGID_00000048500256466357513970000003841388070555500427_);" d="M572.2,184.1c-0.9,0.3-1.2,0.9-1.3,1.3
				c-0.3-1.7-1.4-6.4-2.1-5.4c-0.7,0.9,0.1,4.6,0.5,5.9c-0.5-1.2-2.6-4.8-5.2-7.1c-3-2.6-5.1-4,0.8,6.8c0,0-2.4-3.7-1.7,0
				c0,0.2,0.1,0.4,0.1,0.5c-1.1-1.1-2.8-2.5-3-1.9c-0.3,0.9,0.8,3.9,1.6,4.1c0.8,0.2,12,0.4,12.2,0
				C574.1,188,573.9,183.4,572.2,184.1z"/>
			<path class="st17" d="M484.9,185.9c-0.6-0.1-1-0.1-1.3-0.1c-0.7-1.8-2.7-4.5-3-3.5c-0.2,0.5-0.2,1.8-0.1,2.9
				c-0.5-2.1-1.6-4.6-2.2-1.3c-0.3,1.6-0.3,2.6-0.2,3.3c-0.8-0.9-2.1-1.9-2.4-1.5c-0.5,0.6,0.5,3.9,0.9,4c0.5,0,6.8,0.3,9.5,0.2
				C488.9,189.8,488.2,186.6,484.9,185.9z"/>
			<path class="st18" d="M569.2,186.1c0,0,0-0.2-0.1-0.4c-0.7-1.4-2.7-4.7-5.1-6.9c-2.2-1.9-3.9-3.1-2.5,0.3
				C560.8,176.3,567.7,182.9,569.2,186.1z"/>
			<path class="st18" d="M572.2,184.1c-0.9,0.3-1.2,0.9-1.3,1.3c-0.3-1.7-1.4-6.4-2.1-5.4c-0.6,0.8,0,3.8,0.3,5.4
				c-0.2-1.2-0.5-3.5-0.5-4.4c0-1.2,2.3,5,2.3,5s0.1-1.4,1.1-1.4c1-0.1,1.9,1.6,1.9,2.5C573.8,185.5,573.4,183.6,572.2,184.1z"/>
			<path class="st18" d="M563.5,186.9c0,0-0.5-1.8-0.3-2.4s1.9,1.6,1.9,1.6s-0.4-0.5-0.9-1.3c-0.7-0.8-1.7-1.9-1.2,0.7
				c0,0.2,0.1,0.4,0.1,0.5c-1.1-1.1-2.8-2.5-3-1.9c0,0.1,0,0.3,0,0.5C560.1,183.9,563.5,186.9,563.5,186.9z"/>
			<path class="st18" d="M484.9,185.9c-0.6-0.1-1-0.1-1.3-0.1c-0.7-1.8-2.7-4.5-3-3.5c-0.2,0.5-0.2,1.8-0.1,2.9
				c-0.5-2.1-1.6-4.6-2.2-1.3c-0.3,1.6-0.3,2.6-0.2,3.3c-0.8-0.9-2.1-1.9-2.4-1.5c-0.3,0.4,0,1.9,0.3,2.9c-0.8-3.6,2.4-0.7,2.4-0.7
				s-0.7-1.7,0.1-3.8s2,1.4,2,1.4s0.2-2.7,0.4-3c0.2-0.4,2.6,3.3,2.8,3.8c0.2,0.5,1.4-0.7,1.8,0.3c0.2,0.5,0.8,0.4,1.5,0.3
				C486.5,186.5,485.8,186.1,484.9,185.9z"/>
		</g>
	</g>
</g>
</svg>
