<?xml version="1.0" encoding="utf-8"?>
<!-- Generator: Adobe Illustrator 27.0.0, SVG Export Plug-In . SVG Version: 6.00 Build 0)  -->
<svg version="1.1" id="Ñëîé_1" xmlns="http://www.w3.org/2000/svg" xmlns:xlink="http://www.w3.org/1999/xlink" x="0px" y="0px"
	 viewBox="0 0 1141.5 450" style="enable-background:new 0 0 1141.5 450;" xml:space="preserve">
<style type="text/css">
	.st0{opacity:0.86;fill:#88AB02;enable-background:new    ;}
	.st1{fill:url(#SVGID_1_);}
	.st2{opacity:0.11;fill:#60003E;enable-background:new    ;}
	.st3{fill:url(#SVGID_00000000218310017057163370000002532001264508438953_);}
	.st4{opacity:0.43;fill:#A6008D;enable-background:new    ;}
	.st5{opacity:0.28;fill:#7F7F7F;enable-background:new    ;}
	.st6{opacity:0.25;fill:#A6008D;enable-background:new    ;}
	.st7{opacity:0.38;fill:#7F7F7F;enable-background:new    ;}
	.st8{opacity:0.39;fill:url(#SVGID_00000028310112027124813920000003897625738947557816_);enable-background:new    ;}
	.st9{opacity:0.21;fill:url(#SVGID_00000056401891278472051990000005939255282317779107_);enable-background:new    ;}
	.st10{opacity:0.21;fill:url(#SVGID_00000130645660848585078080000006446902069747980969_);enable-background:new    ;}
	.st11{opacity:0.39;fill:url(#SVGID_00000180340967203387991690000015968685368816254125_);enable-background:new    ;}
	.st12{fill:url(#SVGID_00000119077840076322059820000010740900813996300679_);}
	.st13{fill:url(#SVGID_00000055689398648506092240000006654910993672814742_);}
	.st14{fill:#A6C505;}
</style>
<g>
	<path class="st0" d="M410.6,340.5c-5.6,2.7,5.1,8.1,8.6,10.1c3.5,2-11.6-0.5-33.2-2.3c-21.7-1.8-37.3,5.8-63.5,5.8
		c-20.8,0-37.8-2.9-68.6-2.8s-16.3-5.8-41.3-4.5s-78.9-2.1-93.1-1.8s11.6-8.9,30.5-8.7s204.7-17.9,212.6-16.9
		C370.2,320.6,410.6,340.5,410.6,340.5z"/>
	
		<linearGradient id="SVGID_1_" gradientUnits="userSpaceOnUse" x1="311.6851" y1="78.7913" x2="311.6851" y2="182.0301" gradientTransform="matrix(1.0004 3.490000e-02 -7.440000e-02 -0.9813 47.5394 406.018)">
		<stop  offset="0" style="stop-color:#744E03"/>
		<stop  offset="0.8394" style="stop-color:#214A2C"/>
	</linearGradient>
	<path class="st1" d="M387.5,340.8c-17.1-12.6-68.1-2.4-68.1-2.4l6.1-100.8l17.2,3.6L387.5,340.8z"/>
	<path class="st2" d="M314.4,317.7c12.3,19.5,74.1,20.9,53.3-25.8s-9.6-79.3-37.9-58.9c-28.3,20.3-29.4,15.5-29.4,15.5L314.4,317.7z
		"/>
	
		<linearGradient id="SVGID_00000093139237077483769970000013859408824600397208_" gradientUnits="userSpaceOnUse" x1="326.0584" y1="181.2185" x2="222.1936" y2="77.3536" gradientTransform="matrix(1.0004 3.490000e-02 -7.440000e-02 -0.9813 47.5394 406.018)">
		<stop  offset="0" style="stop-color:#FF8700"/>
		<stop  offset="0.3457" style="stop-color:#FB7A00"/>
		<stop  offset="0.9831" style="stop-color:#F15801"/>
		<stop  offset="1" style="stop-color:#F15701"/>
	</linearGradient>
	<path style="fill:url(#SVGID_00000093139237077483769970000013859408824600397208_);" d="M407.6,342.1c-0.5,1.3,2.8,5.2-2.8,6.3
		c-5.6,1-16.5-2.4-38.7-30.9c-21.6-27.7-32.9-67.8-34.1-67.3c0,0-0.1,0-0.1,0.1c-0.7,2.9,2.3,80.5-7.5,91.1
		c-9.8,10.6-64.3,8.1-68.4,7.3c-4.2-0.9-8-2.8-10.1-2.7c-3.1,0.1-109.8-0.5-112.5-1.9c-2.7-1.4-3.2-5.8-1.7-10.2
		c1.5-4.4,12.6-29.2,31.7-48.9c15.7-16.1,52.8-54,99.7-70c10.2-3.5,20.9-6,31.9-6.9c12-1,30.7,1.1,48.2,15.5
		c20,16.5,68,112.4,68.2,115.2C411.6,341.4,408.1,340.8,407.6,342.1z"/>
	<path class="st4" d="M287.6,228.6c-32.3,28.1-49.3,117.1-41.8,117.4c-3.1,0.1-109.8-0.5-112.4-1.9c-2.7-1.4-3.2-5.8-1.7-10.2
		c1.5-4.4,12.6-29.2,31.7-48.9c15.7-16.1,52.8-54,99.7-70C286.1,208.4,313,206.5,287.6,228.6z"/>
	<path class="st4" d="M404.8,348.3c-5.6,1-16.5-2.4-38.7-30.9c-21.6-27.7-32.9-67.8-34.1-67.3c-0.1-0.4-0.1-0.8-0.2-1.2
		c-1.8-12.1-5-23.3-5.5-24.7c0.1,0.4,0.4,1.4,1.1,3.3c3.4,10.5,57.8,94.3,80.2,114.4C407.1,343.3,410.3,347.3,404.8,348.3z"/>
	<path class="st4" d="M256,348.6c-8.2-2.4-7.6-2.3-7.9-5.6c-0.2-3.2,16.3-58.7,40-86.7c23.7-28-5.9,9-16.7,42.1
		C260.6,331.6,256,348.6,256,348.6z"/>
	<path class="st5" d="M325.6,215c-4.6-3.8-35.5,37.1-54.3,83.5s-13.2,49.3-5.2,50.2c8,0.9,49.3,3.5,58.1-12.3
		c8.7-15.7,8.7-98.4,2.1-112c0,0,33.1,60,55.6,87.3c22.5,27.3-21.1-30.9-31.4-54.5c-10.3-23.6-12.7-29.1-8.8-22.2
		c3.8,6.8,62.9,99,67.6,103.5c4.7,4.4-38.4-80.4-56.9-104.6C339.9,217.4,325.6,215,325.6,215z"/>
	<path class="st5" d="M258.5,310.5c-3.4,10.7-4.2-32.1,13.1-61.5c17.3-29.3,45.4-35.5,43.2-31.2C312.5,222.2,271.3,270,258.5,310.5z
		"/>
	<path class="st6" d="M245.8,345.9c-0.6-0.8-1.1-1.7-1.5-2.7c-2.2-5.7-1.5-15-1.1-20.2c0.6-6.2-16.5,16.8-55.4,12.5
		s-38.2-29.7-43.6-23.8c-8.3,8.9-13.3,26.7-10.8,32.3L245.8,345.9z"/>
	<path class="st4" d="M339,267.5c-1.9-4.9,34.4,37.4,45.8,49.8c11.3,12.4,23,23.8,23,26.5c0,2.7-4.6,5.9-14.4,1.2
		C383.5,340.4,355.3,308.9,339,267.5z"/>
	<path class="st7" d="M326.4,224.4c-1.4-3.3,14.1,17.6,25.5,37.1c11.4,19.5,34.8,54.3,29.5,48.4S334.8,244,326.4,224.4z"/>
	<path class="st5" d="M328.4,264.4c-6.4-10.7-47.7,19.6-56.5,39c-8.8,19.4-20,38.7,4.4,42.5s48.7-4.7,51.8-24.3
		C331.2,302.1,332.6,271.5,328.4,264.4z"/>
	
		<linearGradient id="SVGID_00000175302337030875489110000001777243721081378475_" gradientUnits="userSpaceOnUse" x1="315.0373" y1="159.8514" x2="351.5952" y2="159.8514" gradientTransform="matrix(1 0 -7.440000e-02 -0.9813 48.0624 439.63)">
		<stop  offset="0" style="stop-color:#66187C"/>
		<stop  offset="0.1417" style="stop-color:#78328B"/>
		<stop  offset="0.4459" style="stop-color:#A476B1"/>
		<stop  offset="0.8856" style="stop-color:#ECE2EE"/>
		<stop  offset="1" style="stop-color:#FFFFFF"/>
	</linearGradient>
	<path style="opacity:0.39;fill:url(#SVGID_00000175302337030875489110000001777243721081378475_);enable-background:new    ;" d="
		M348.8,250.1c-1.6-4.6,26.2,39.3,35.9,53.1c9.7,13.9,4.8,16.5-1.8,6.9S354.8,267.6,348.8,250.1z"/>
	
		<linearGradient id="SVGID_00000154397946494424815040000015367446549048529316_" gradientUnits="userSpaceOnUse" x1="203.0096" y1="96.6006" x2="203.0096" y2="154.1205" gradientTransform="matrix(1 0 -7.440000e-02 -0.9813 48.0624 439.63)">
		<stop  offset="0" style="stop-color:#66187C"/>
		<stop  offset="0.1417" style="stop-color:#78328B"/>
		<stop  offset="0.4459" style="stop-color:#A476B1"/>
		<stop  offset="0.8856" style="stop-color:#ECE2EE"/>
		<stop  offset="1" style="stop-color:#FFFFFF"/>
	</linearGradient>
	<path style="opacity:0.21;fill:url(#SVGID_00000154397946494424815040000015367446549048529316_);enable-background:new    ;" d="
		M244.7,344.8c0,0-4-30.2,1.1-49.9s-8.6,9.8-10.8,19.8C232.7,324.9,244.7,344.8,244.7,344.8z"/>
	
		<linearGradient id="SVGID_00000042722763998013431710000004111651158342805419_" gradientUnits="userSpaceOnUse" x1="192.8193" y1="95.5255" x2="192.8193" y2="130.1045" gradientTransform="matrix(1 0 -7.440000e-02 -0.9813 48.0624 439.63)">
		<stop  offset="0" style="stop-color:#66187C"/>
		<stop  offset="0.1417" style="stop-color:#78328B"/>
		<stop  offset="0.4459" style="stop-color:#A476B1"/>
		<stop  offset="0.8856" style="stop-color:#ECE2EE"/>
		<stop  offset="1" style="stop-color:#FFFFFF"/>
	</linearGradient>
	<path style="opacity:0.21;fill:url(#SVGID_00000042722763998013431710000004111651158342805419_);enable-background:new    ;" d="
		M244,345.9c0,0-18.7-24-21.6-32c-2.9-8-0.4,10.6,5.1,18.4C232.9,340.1,244,345.9,244,345.9z"/>
	<path class="st5" d="M164.1,289.2c-6,9.1,77.9,4.8,84.5-5.1s29.5-62.3,23-66C265.2,214.3,197.3,238.5,164.1,289.2z"/>
	
		<linearGradient id="SVGID_00000057849332821012897220000005340357252302977680_" gradientUnits="userSpaceOnUse" x1="217.869" y1="141.6297" x2="252.8914" y2="141.6297" gradientTransform="matrix(1 0 -7.440000e-02 -0.9813 48.0624 439.63)">
		<stop  offset="0" style="stop-color:#66187C"/>
		<stop  offset="0.1417" style="stop-color:#78328B"/>
		<stop  offset="0.4459" style="stop-color:#A476B1"/>
		<stop  offset="0.8856" style="stop-color:#ECE2EE"/>
		<stop  offset="1" style="stop-color:#FFFFFF"/>
	</linearGradient>
	<path style="opacity:0.39;fill:url(#SVGID_00000057849332821012897220000005340357252302977680_);enable-background:new    ;" d="
		M258.6,339.6c-1,4.3,0.9-28.8,9-47.3c8.1-18.5,25.1-38.8,18.2-27.8C278.9,275.4,265.4,308.9,258.6,339.6z"/>
	<path class="st6" d="M364.2,312.2c-3.1-7.5,42.9,26.4,43.4,29.9c0.5,3.5-5,6.5-9.6,4.7C393.4,345.1,370.5,327.6,364.2,312.2z"/>
	<path class="st5" d="M211.9,265.4c-0.1,1-4.9,20-6.4,20.2c-1.5,0.2-24.4,1.7-24.8,0s2.2-17.6,3.4-17.8
		C185.3,267.6,212,263.9,211.9,265.4z"/>
	<path class="st4" d="M205.5,285.6c1.5-0.2,6.3-19.2,6.4-20.2c0,0,0.4,0,0.6,1.4s-3.8,18.4-5.5,19.6c-1.4,1.1-24.7,1.2-25.2,1
		c-0.5-0.2-1.3-0.9-1.2-1.8C181.1,287.2,204,285.8,205.5,285.6z"/>
	<path class="st4" d="M205.5,286.7c2.2-0.2-20.1-0.6-22.1-0.4C181.4,286.5,187.5,288,205.5,286.7z"/>
	<path class="st5" d="M207.6,266.6c4.3,0.7-17.2,15.5-21.6,12.6C181.7,276.3,186.7,263.4,207.6,266.6z"/>
	<path class="st5" d="M246.7,264.9c-0.1,1-4.9,20-6.4,20.2s-24.4,1.7-24.8,0c-0.5-1.7,1.5-20,2.7-20.2
		C219.5,264.6,246.9,263.3,246.7,264.9z"/>
	<path class="st4" d="M240.3,285c1.5-0.2,6.3-19.2,6.4-20.2c0,0,0.4,0,0.6,1.4s-3.8,18.4-5.5,19.6c-1.4,1.1-24.7,1.2-25.2,1
		c-0.5-0.2-1.3-0.9-1.2-1.8C216,286.7,238.9,285.2,240.3,285z"/>
	<path class="st4" d="M240.3,286.2c2.2-0.2-20.1-0.5-22.1-0.4C216.3,286,222.3,287.5,240.3,286.2z"/>
	<path class="st5" d="M244.1,265.5c2.4,0.3-18.6,15.5-23.2,13.1C216.6,276.4,213.7,261.3,244.1,265.5z"/>
	<path class="st5" d="M277.5,267.1c-4.2,2.6-10.4-15.9,3.8-31.3c14.2-15.3,29.1-14.1,28.2-11.8C308.5,226.3,277.5,267.1,277.5,267.1
		z"/>
	<path class="st4" d="M133.8,340.9c1.1-3.9,107.1,3.2,107.1,3.2s-20.3,2.6-61.3,1.3C138.7,344.1,132.7,344.9,133.8,340.9z"/>
	<g>
		
			<linearGradient id="SVGID_00000158000855991296944730000018018806200750274178_" gradientUnits="userSpaceOnUse" x1="389.6748" y1="96.5857" x2="389.6748" y2="137.7745" gradientTransform="matrix(1 0 -7.440000e-02 -0.9813 48.0624 439.63)">
			<stop  offset="4.090000e-02" style="stop-color:#259740"/>
			<stop  offset="0.158" style="stop-color:#2E9B40"/>
			<stop  offset="0.3506" style="stop-color:#47A640"/>
			<stop  offset="0.5949" style="stop-color:#6FB740"/>
			<stop  offset="0.8785" style="stop-color:#A7CF41"/>
			<stop  offset="1" style="stop-color:#C1DA41"/>
		</linearGradient>
		<path style="fill:url(#SVGID_00000158000855991296944730000018018806200750274178_);" d="M444.7,332.9c-2.5,0.9-3.7,2.4-4.2,3.5
			c0-4.6-1-16.8-3.5-14.3c-2.3,2.3-1.6,12.3-1.2,15.6c-0.9-3.3-5-12.7-11.2-18.7c-7.1-6.9-12.3-10.5-0.8,17.9c0,0-5-9.7-4.6,0.1
			c0,0.5,0,0.9,0.1,1.4c-2.6-2.8-6.6-6.6-7.4-4.9c-1.1,2.4,0.3,10.4,2.6,10.9s32.4,1,33.1,0C448.3,343.2,449.8,331.2,444.7,332.9z"
			/>
		
			<linearGradient id="SVGID_00000086650558723500890900000011641036630660108173_" gradientUnits="userSpaceOnUse" x1="197.3253" y1="103.6398" x2="197.3253" y2="130.7607" gradientTransform="matrix(1 0 0 -1 0 452)">
			<stop  offset="4.090000e-02" style="stop-color:#259740"/>
			<stop  offset="0.158" style="stop-color:#2E9B40"/>
			<stop  offset="0.3506" style="stop-color:#47A640"/>
			<stop  offset="0.5949" style="stop-color:#6FB740"/>
			<stop  offset="0.8785" style="stop-color:#A7CF41"/>
			<stop  offset="1" style="stop-color:#C1DA41"/>
		</linearGradient>
		<path style="fill:url(#SVGID_00000086650558723500890900000011641036630660108173_);" d="M206.7,337.7c-1.6-0.4-2.7-0.4-3.4-0.2
			c-1.2-4.8-5.4-11.9-6.6-9.3c-0.6,1.4-1.2,4.7-1.6,7.7c-0.5-5.6-2.3-12.2-5.3-3.3c-1.4,4.1-1.9,6.9-2,8.8c-1.9-2.3-4.9-5-5.9-4
			c-1.5,1.6-0.4,10.4,0.8,10.5c1.4,0.1,18.3,0.7,25.8,0.4C215.9,348,215.4,339.7,206.7,337.7z"/>
		<path class="st14" d="M435.6,338.3c0,0,0-0.4,0-1.2c-1.2-3.7-5.2-12.5-11-18.1c-5.1-4.9-9.2-8.2-6.8,0.9
			C417.2,312.5,432.9,329.7,435.6,338.3z"/>
		<path class="st14" d="M444.7,332.9c-2.5,0.9-3.7,2.4-4.2,3.5c0-4.6-1-16.8-3.5-14.3c-2.1,2.1-1.8,10-1.4,14.1
			c0.1-3.2,0.3-9.4,0.7-11.6c0.5-3.1,4.2,13.1,4.2,13.1s0.9-3.6,3.6-3.8c2.7-0.1,4.4,4.4,4.2,6.6
			C448.6,336.7,448.1,331.7,444.7,332.9z"/>
		<path class="st14" d="M419.9,340.5c0,0-0.6-4.8,0.2-6.3c0.8-1.4,4.5,4.3,4.5,4.3s-0.8-1.4-1.8-3.5c-1.4-2.2-3.8-5.1-3.6,1.8
			c0,0.5,0,0.9,0.1,1.4c-2.6-2.8-6.6-6.6-7.4-4.9c-0.1,0.3-0.2,0.7-0.3,1.2C411.9,332.5,419.9,340.5,419.9,340.5z"/>
		<path class="st14" d="M206.7,337.7c-1.6-0.4-2.7-0.4-3.4-0.2c-1.2-4.8-5.4-11.9-6.6-9.3c-0.6,1.4-1.2,4.7-1.6,7.7
			c-0.5-5.6-2.3-12.2-5.3-3.3c-1.4,4.1-1.9,6.9-2,8.8c-1.9-2.3-4.9-5-5.9-4c-1,1-0.9,4.9-0.4,7.7c-0.6-9.5,6.7-1.9,6.7-1.9
			s-1.1-4.5,2-10c3.1-5.5,4.8,3.7,4.8,3.7s1.7-7.1,2.4-8c0.7-1,5.7,8.8,6,10.1c0.2,1.3,4.2-1.8,4.9,0.7c0.3,1.2,2.1,1.2,3.8,0.7
			C210.8,339.3,209.1,338.3,206.7,337.7z"/>
	</g>
</g>
</svg>
