<?xml version="1.0" encoding="utf-8"?>
<!-- Generator: Adobe Illustrator 27.0.0, SVG Export Plug-In . SVG Version: 6.00 Build 0)  -->
<svg version="1.1" id="_x3C_Layer_x3E_" xmlns="http://www.w3.org/2000/svg" xmlns:xlink="http://www.w3.org/1999/xlink" x="0px"
	 y="0px" viewBox="0 0 1856 812" style="enable-background:new 0 0 1856 812;" xml:space="preserve">
<style type="text/css">
	.st0{fill:#443732;}
	.st1{fill:#D88A55;}
	.st2{fill:#93807A;}
	.st3{opacity:0.3;fill:#363A3A;enable-background:new    ;}
	.st4{fill:#4D423E;}
</style>
<g>
	<g>
		<g>
			<rect x="694.1" y="428" class="st0" width="346.5" height="230"/>
			<path class="st1" d="M1040.6,423.2H694.1c-2.7,0-4.9,2.2-4.9,4.9v230c0,2.7,2.2,4.9,4.9,4.9h346.5c1.5,0,2.7-0.6,3.5-1.4
				c0.9-0.8,1.4-1.9,1.4-3.5V428C1045.5,425.4,1043.3,423.2,1040.6,423.2z M699,653.1V432.9h336.8v220.2H699z"/>
		</g>
		<g>
			<g>
				<path class="st2" d="M777,449.9h0.8c5.6,0,9.3,2,11,6v1.3c-1.4,3.1-3,4.7-4.9,4.7c0,0.5,1.8,1.3,5.3,2.5
					c2.2,1.9,3.3,3.8,3.3,5.6c0,2.6-3.4,4.1-10.2,4.7l-1.6-0.4c0,1.1-0.3,1.7-0.8,1.7c-0.3-1.3-1.4-2.3-3.3-3
					c-1.1-1.4-1.6-2.5-1.6-3.4h1.2c0,1.1,0.5,2,1.6,2.6h0.4l-7.7-15.4v-3C771.9,451.2,774.1,449.9,777,449.9z M771.7,454.1v0.8
					c0,2.3,1.6,5.6,4.8,10.1c-0.8-3-1.2-5.5-1.2-7.6v-1.7l0.8-0.8h0.4v2.5c0.1,3.4,0.3,5.1,0.8,5.1c6.7-1.6,10.1-3.4,10.1-5.5v-0.8
					c-1.6-3.4-4.7-5.1-9.3-5.1h-1.2C774.6,451.2,772.9,452.1,771.7,454.1z M777.5,463.1v0.4c1.6,6.4,3,9.7,4,9.7h1.6
					c4.8,0,7.5-1.4,8-4.2c0-2.3-3.4-4.3-10.1-5.9l-3.2,0.4L777.5,463.1z"/>
				<path class="st2" d="M808.4,449.9l0.4,0.4v0.4c-8.1,1.2-12.2,2.4-12.2,3.7l-1.6,8.1h1.6l8.2-1.2l0.4,0.4v0.4
					c-3.7,1.1-6.7,1.6-9,1.6h-1.2l-0.8,6.9c0,1.9,1,2.9,2.9,2.9h1.2c1.2,0,4.5-1.1,9.8-3.3l0.4,0.4v0.4c-4.4,2.4-8.1,3.7-11,3.7H797
					c-2.7-0.4-4.1-1.7-4.1-4.1l2.4-16.7c-0.8,0-1.2-0.3-1.2-0.8C796,451.8,800.8,450.7,808.4,449.9z"/>
				<path class="st2" d="M824.2,449.9l0.4,0.4v0.4c-8.1,1.2-12.2,2.4-12.2,3.7l-1.6,8.1h1.6l8.2-1.2l0.4,0.4v0.4
					c-3.7,1.1-6.7,1.6-9,1.6h-1.2l-0.8,6.9c0,1.9,1,2.9,2.9,2.9h1.2c1.2,0,4.5-1.1,9.8-3.3l0.4,0.4v0.4c-4.4,2.4-8.1,3.7-11,3.7
					h-0.4c-2.7-0.4-4.1-1.7-4.1-4.1l2.4-16.7c-0.8,0-1.2-0.3-1.2-0.8C811.9,451.8,816.7,450.7,824.2,449.9z"/>
				<path class="st2" d="M829.7,449.9h1.3c6,0,11,3.2,15.1,9.7v1.7c0,2.4-2,4.1-5.9,5.1l9.2,5.4l2.1,3v0.4h-0.8
					c-5-4.8-10.1-7.6-15.6-8.4h-2.1v0.4l1.7,6.3l-0.4,0.4h-0.4c-1.3-5.3-2.7-8-4.2-8c-0.8,0-1.3-0.3-1.3-0.8l2.5-0.8l-0.8-5.5v-0.9
					c0-1.5,0.7-2.6,2.1-3.4l0.4,0.4v0.4l-1.3,1.7v1.7c0,4.2,0.8,6.3,2.5,6.3l3,0.8c3.3,0,6-1.3,8-3.8v-1.7c0-2.1-2.7-4.7-8-8
					l-5.1-1.2h-2.1c-2.1,0-3.4,0.6-3.8,1.7v0.4c0.8,0,1.5,0.6,2.1,1.7h-0.4c-1.5,0-2.5-0.6-2.9-1.7V452
					C825.8,450.6,827.5,449.9,829.7,449.9z"/>
				<path class="st2" d="M868.4,449.9h0.8c5.6,0,9.3,2,11,6v1.3c-1.4,3.1-3,4.7-4.9,4.7c0,0.5,1.8,1.3,5.3,2.5
					c2.2,1.9,3.3,3.8,3.3,5.6c0,2.6-3.4,4.1-10.2,4.7l-1.6-0.4c0,1.1-0.3,1.7-0.8,1.7c-0.3-1.3-1.4-2.3-3.3-3
					c-1.1-1.4-1.6-2.5-1.6-3.4h1.2c0,1.1,0.5,2,1.6,2.6h0.4l-7.7-15.4v-3C863.3,451.2,865.5,449.9,868.4,449.9z M863.1,454.1v0.8
					c0,2.3,1.6,5.6,4.8,10.1c-0.8-3-1.2-5.5-1.2-7.6v-1.7l0.8-0.8h0.4v2.5c0.1,3.4,0.3,5.1,0.8,5.1c6.7-1.6,10.1-3.4,10.1-5.5v-0.8
					c-1.6-3.4-4.7-5.1-9.3-5.1h-1.2C866,451.2,864.3,452.1,863.1,454.1z M869,463.1v0.4c1.6,6.4,3,9.7,4,9.7h1.6
					c4.8,0,7.5-1.4,8-4.2c0-2.3-3.4-4.3-10.1-5.9l-3.2,0.4L869,463.1z"/>
				<path class="st2" d="M897.7,449.8c2.8,0,4.2,3.2,4.2,9.6c0.6,0,0.8,4.9,0.8,14.7v0.4l-0.8,0.8l-0.4-0.4v-4.6
					c-0.3-12.8-1.2-19.3-2.9-19.3h-1.2c-4.4,0-8.4,7.8-12.2,23.4h-0.4l-0.4-0.4v-0.4C887.6,457.8,892.1,449.8,897.7,449.8z
					 M898.6,467v1.3l-10.1,1.2h-0.4l-0.8-0.8l0.4-0.4h0.4C891.2,468.3,894.7,467.9,898.6,467z"/>
				<path class="st2" d="M908.6,449.9h1.3c6,0,11,3.2,15.1,9.7v1.7c0,2.4-2,4.1-5.9,5.1l9.2,5.4l2.1,3v0.4h-0.8
					c-5-4.8-10.1-7.6-15.6-8.4h-2.1v0.4l1.7,6.3l-0.4,0.4h-0.4c-1.3-5.3-2.7-8-4.2-8c-0.8,0-1.3-0.3-1.3-0.8l2.5-0.8l-0.8-5.5v-0.9
					c0-1.5,0.7-2.6,2.1-3.4l0.4,0.4v0.4l-1.3,1.7v1.7c0,4.2,0.8,6.3,2.5,6.3l3,0.8c3.3,0,6-1.3,8-3.8v-1.7c0-2.1-2.7-4.7-8-8
					l-5.1-1.2h-2.1c-2.1,0-3.4,0.6-3.8,1.7v0.4c0.8,0,1.5,0.6,2.1,1.7h-0.4c-1.5,0-2.5-0.6-2.9-1.7V452
					C904.7,450.6,906.4,449.9,908.6,449.9z"/>
				<path class="st2" d="M727.1,491.5h0.2c0.8,0.1,1.2,0.3,1.2,0.6l-0.2,0.2v0.2l-1.2-0.4h-0.2c-2.5,0.7-3.8,2-3.8,3.8v0.6
					c0,1.4,0.9,2.2,2.8,2.4l2.8-0.6l0.2,0.2v0.2c-0.7,0.4-1.5,0.6-2.6,0.6h-1.2c-1.7-0.4-2.6-1.3-2.6-2.6v-0.8
					C722.5,493.7,724.1,492.2,727.1,491.5z"/>
				<path class="st2" d="M732.7,491.5h0.2c1.9,0,3.2,1.1,3.9,3.3v1.3c0,1.7-1.3,2.8-3.9,3.3h-0.4c-2.3-0.3-3.5-1.5-3.5-3.5V495
					C729,493.1,730.2,492,732.7,491.5z M729.7,495.4v0.7c0.4,1.7,1.2,2.6,2.6,2.6h0.7c2.2-0.2,3.3-1.2,3.3-3.1
					c-0.2-1.5-0.5-2.2-0.9-2.2l-0.7,0.4l-0.2-0.2v-0.2l0.2-0.9l-1.5-0.4h-0.7C730.9,492.1,730,493.2,729.7,495.4z"/>
				<path class="st2" d="M743.4,490.4l0.2-0.2h0.2c0.6,2.1,0.9,4.2,1.1,6.1c-0.3,2.1-1,3.1-2.4,3.1h-0.4c-1.5,0-2.7-1.6-3.7-4.7
					h-0.2c-0.5,3.1-0.9,4.7-1.1,4.7l-0.2-0.2v-0.7l1.1-6.3c0.4,0,0.9,1.4,1.5,4.1c0.9,1.5,1.6,2.3,2.1,2.5h0.7
					c1.3,0,1.9-0.9,1.9-2.7L743.4,490.4z"/>
				<path class="st2" d="M749.1,491.3h0.6l0.6,0.6v0.2l-0.4,0.4h-0.2v-0.6h-0.8c-0.8,0-1.5,0.4-2.1,1.2v0.6c0.3,0.5,1.7,1.5,4.3,2.9
					l0.6,1c0,1.1-0.9,1.6-2.7,1.6c-2,0-3.4-0.6-4.1-1.9l0.4-0.4c0.6,1.1,1.9,1.6,3.9,1.6c0.9,0,1.5-0.3,1.8-0.8
					c0-0.5-1.4-1.5-4.1-2.9c-0.5-0.6-0.8-1.1-0.8-1.6C746.2,492.3,747.2,491.6,749.1,491.3z"/>
				<path class="st2" d="M756.1,491.3h0.9c1.7,0.2,2.5,0.6,2.5,1.1v0.4c-1.4,1.5-3,2.3-4.8,2.3h-0.9v-0.4c1.7,0,3.4-0.7,5-2.1v-0.2
					l-1.6-0.5h-1.1c-2.4,0.4-3.7,1.3-3.7,2.7v0.4c0,1.8,1.9,3,5.7,3.4h0.5v0.7h-0.2c-3.7,0-5.9-1.3-6.6-3.9v-0.9
					C751.8,492.9,753.2,491.9,756.1,491.3z"/>
				<path class="st2" d="M764.1,491.5h0.2c0.8,0.1,1.2,0.3,1.2,0.6l-0.2,0.2v0.2l-1.2-0.4h-0.2c-2.5,0.7-3.8,2-3.8,3.8v0.6
					c0,1.4,0.9,2.2,2.8,2.4l2.8-0.6l0.2,0.2v0.2c-0.7,0.4-1.5,0.6-2.6,0.6h-1.2c-1.7-0.4-2.6-1.3-2.6-2.6v-0.8
					C759.5,493.7,761,492.2,764.1,491.5z"/>
				<path class="st2" d="M978.7,482.3v2.3c0,5.6,1.2,8.4,3.7,8.4h0.2l1.6-0.5v0.5c-0.2,0.5-0.6,0.7-1.4,0.7h-0.7
					c-0.6,0-1.3-0.3-2.1-0.9l1.4,6.3l-0.2,0.2h-0.2c-1.9-3.2-2.8-5.9-2.8-7.9c0-0.3,0.2-0.5,0.7-0.5c-0.6-2.5-0.9-4.8-0.9-6.8v-1.9
					L978.7,482.3L978.7,482.3z M978.9,492.1v0.2l0.9,3.3h0.2v-0.2C979.6,493.2,979.2,492.1,978.9,492.1z"/>
				<path class="st2" d="M987.3,491.3h0.9c1.7,0.2,2.5,0.6,2.5,1.1v0.4c-1.4,1.5-3,2.3-4.8,2.3H985v-0.4c1.7,0,3.4-0.7,5-2.1v-0.2
					l-1.6-0.5h-1.1c-2.4,0.4-3.7,1.3-3.7,2.7v0.4c0,1.8,1.9,3,5.7,3.4h0.5v0.7h-0.2c-3.7,0-5.9-1.3-6.6-3.9v-0.9
					C982.9,492.9,984.4,491.9,987.3,491.3z"/>
				<path class="st2" d="M991.3,482.3v2.3c0,5.6,1.2,8.4,3.7,8.4h0.2l1.6-0.5v0.5c-0.2,0.5-0.6,0.7-1.4,0.7h-0.7
					c-0.6,0-1.3-0.3-2.1-0.9l1.4,6.3l-0.2,0.2h-0.2c-1.9-3.2-2.8-5.9-2.8-7.9c0-0.3,0.2-0.5,0.7-0.5c-0.6-2.5-0.9-4.8-0.9-6.8v-1.9
					L991.3,482.3L991.3,482.3z M991.6,492.1v0.2l0.9,3.3h0.2v-0.2C992.2,493.2,991.8,492.1,991.6,492.1z"/>
				<path class="st2" d="M997.5,491.2l0.2,0.7c-1,1.8-1.5,3.4-1.5,4.8v0.4c0,1,0.5,1.5,1.5,1.5c2.5,0,3.7-2.2,3.7-6.6h0.7v1.5
					l-0.2,2.4l0.9,2.9l-0.2,0.2h-0.2l-0.9-2.2h-0.2c0,1-1,1.8-3.1,2.4h-0.7c-1.3-0.2-2-0.9-2-2v-0.7
					C995.5,494.7,996.2,492.9,997.5,491.2z"/>
				<path class="st2" d="M1008.2,490.3l0.2,0.2v0.2c-1.8,1.5-2.8,3.1-2.8,4.8l0.7,3.7h-0.5c-0.5,0-1.6-2.5-3.2-7.4l0.2-0.2h0.2
					c0.3,0.3,1,1.9,1.8,4.8h0.2C1005.2,493.1,1006.2,491.1,1008.2,490.3z"/>
				<path class="st2" d="M726.8,512.5h0.9c1.7,0.2,2.5,0.6,2.5,1.1v0.4c-1.4,1.5-3,2.3-4.8,2.3h-0.9v-0.4c1.7,0,3.4-0.7,5-2.1v-0.2
					l-1.6-0.5h-1.1c-2.4,0.4-3.7,1.3-3.7,2.7v0.4c0,1.8,1.9,3,5.7,3.4h0.5v0.7h-0.2c-3.7,0-5.9-1.3-6.6-3.9v-0.9
					C722.5,514.1,724,513.1,726.8,512.5z"/>
				<path class="st2" d="M730.7,507.6l0.5,0l0.4,4.8l1,8l-0.5,0l-0.3-0.5l-1.1-9.2l-0.2-2.2L730.7,507.6z"/>
				<path class="st2" d="M734,510.1h0.2v0.8l-0.4,0.4l-0.2-0.2v-0.6L734,510.1z M734,512.6l0.2,0.2v7.3l-0.4,0.4l-0.2-0.2V513
					L734,512.6z"/>
				<path class="st2" d="M735.9,503.5v2.3c0,5.6,1.2,8.4,3.7,8.4h0.2l1.6-0.5v0.5c-0.2,0.5-0.6,0.7-1.4,0.7h-0.7
					c-0.6,0-1.3-0.3-2.1-0.9l1.4,6.3l-0.2,0.2h-0.2c-1.9-3.2-2.8-5.9-2.8-7.9c0-0.3,0.2-0.5,0.7-0.5c-0.6-2.5-0.9-4.8-0.9-6.8v-1.9
					L735.9,503.5L735.9,503.5z M736.2,513.3v0.2l0.9,3.3h0.2v-0.2C736.8,514.4,736.4,513.3,736.2,513.3z"/>
				<path class="st2" d="M742.7,519.2v0.2c0,0.7-0.5,1.5-1.5,2.4l-0.2-0.2v-0.2C741.5,520.4,742,519.6,742.7,519.2z"/>
				<path class="st2" d="M984.2,512.5h0.6l0.6,0.6v0.2l-0.4,0.4h-0.2v-0.6H984c-0.8,0-1.5,0.4-2.1,1.2v0.6c0.3,0.5,1.7,1.5,4.3,2.9
					l0.6,1c0,1.1-0.9,1.6-2.7,1.6c-2,0-3.4-0.6-4.1-1.9l0.4-0.4c0.6,1.1,1.9,1.6,3.9,1.6c0.9,0,1.5-0.3,1.8-0.8
					c0-0.5-1.4-1.5-4.1-2.9c-0.5-0.6-0.8-1.1-0.8-1.6C981.3,513.5,982.3,512.8,984.2,512.5z"/>
				<path class="st2" d="M991.2,512.5h0.9c1.7,0.2,2.5,0.6,2.5,1.1v0.4c-1.4,1.5-3,2.3-4.8,2.3h-0.9v-0.4c1.7,0,3.4-0.7,5-2.1v-0.2
					l-1.6-0.5h-1.1c-2.4,0.4-3.7,1.3-3.7,2.7v0.4c0,1.8,1.9,3,5.7,3.4h0.5v0.7h-0.2c-3.7,0-5.9-1.3-6.6-3.9v-0.9
					C986.9,514.1,988.3,513.1,991.2,512.5z"/>
				<path class="st2" d="M1001.5,504.7c0.3,0.4,0.6,2.4,0.8,5.9l-0.6,5.2c0,1.1,0.4,2.6,1,4.4l-0.2,0.2h-0.2c-0.7-1-1-2.1-1-3.3
					h-0.2c-0.8,2.4-2,3.6-3.3,3.6h-0.2c-1.4,0-2.4-1.3-2.9-4v-1c0.6-1.9,1.5-2.9,2.9-2.9h0.6c1.8,0.2,2.7,0.9,2.7,2.1l-0.2,0.2h-0.2
					c-0.3-1.1-1-1.7-2.1-1.7h-0.4c-1.8,0.1-2.7,1.1-2.7,2.7v0.6c0,1.8,0.8,2.9,2.5,3.3c1.3,0,2.4-1.5,3.3-4.6l-0.2-9.2
					C1001,505.2,1001.2,504.7,1001.5,504.7z M1001.5,509.1v2.3h0.2v-2.3H1001.5z"/>
				<path class="st2" d="M729.4,525.9c0.3,0.4,0.6,2.4,0.8,5.9l-0.6,5.2c0,1.1,0.4,2.6,1,4.4l-0.2,0.2h-0.2c-0.7-1-1-2.1-1-3.3H729
					c-0.8,2.4-2,3.6-3.3,3.6h-0.2c-1.4,0-2.4-1.3-2.9-4v-1c0.6-1.9,1.5-2.9,2.9-2.9h0.6c1.8,0.2,2.7,0.9,2.7,2.1l-0.2,0.2h-0.2
					c-0.3-1.1-1-1.7-2.1-1.7h-0.4c-1.8,0.1-2.7,1.1-2.7,2.7v0.6c0,1.8,0.8,2.9,2.5,3.3c1.3,0,2.4-1.5,3.3-4.6l-0.2-9.2
					C728.9,526.4,729.1,525.9,729.4,525.9z M729.4,530.3v2.3h0.2v-2.3H729.4z"/>
				<path class="st2" d="M734.2,533.8h0.2c1.9,0,3.2,1.1,3.9,3.3v1.3c0,1.7-1.3,2.8-3.9,3.3H734c-2.3-0.3-3.5-1.5-3.5-3.5v-0.9
					C730.5,535.5,731.8,534.3,734.2,533.8z M731.2,537.8v0.7c0.4,1.7,1.2,2.6,2.6,2.6h0.7c2.2-0.2,3.3-1.2,3.3-3.1
					c-0.2-1.5-0.5-2.2-0.9-2.2l-0.7,0.4L736,536v-0.2l0.2-0.9l-1.5-0.4H734C732.5,534.5,731.5,535.6,731.2,537.8z"/>
				<path class="st2" d="M960.9,533.7h0.9c1.7,0.2,2.5,0.6,2.5,1.1v0.4c-1.4,1.5-3,2.3-4.8,2.3h-0.9v-0.4c1.7,0,3.4-0.7,5-2.1v-0.2
					l-1.6-0.5h-1.1c-2.4,0.4-3.7,1.3-3.7,2.7v0.4c0,1.8,1.9,3,5.7,3.4h0.5v0.7h-0.2c-3.7,0-5.9-1.3-6.6-3.9v-0.9
					C956.5,535.3,958,534.2,960.9,533.7z"/>
				<path class="st2" d="M965.6,531.3h0.2v0.8l-0.4,0.4l-0.2-0.2v-0.6L965.6,531.3z M965.6,533.8l0.2,0.2v7.3l-0.4,0.4l-0.2-0.2
					v-7.3L965.6,533.8z"/>
				<path class="st2" d="M968.8,533.6l0.2,0.7c-1,1.8-1.5,3.4-1.5,4.8v0.4c0,1,0.5,1.5,1.5,1.5c2.5,0,3.7-2.2,3.7-6.6h0.7v1.5
					l-0.2,2.4l0.9,2.9l-0.2,0.2h-0.2l-0.9-2.2h-0.2c0,1-1,1.8-3.1,2.4h-0.7c-1.3-0.2-2-0.9-2-2v-0.7
					C966.8,537.1,967.5,535.3,968.8,533.6z"/>
				<path class="st2" d="M978.1,533.7h0.6l0.6,0.6v0.2l-0.4,0.4h-0.2v-0.6h-0.8c-0.8,0-1.5,0.4-2.1,1.2v0.6c0.3,0.5,1.7,1.5,4.3,2.9
					l0.6,1c0,1.1-0.9,1.6-2.7,1.6c-2,0-3.4-0.6-4.1-1.9l0.4-0.4c0.6,1.1,1.9,1.6,3.9,1.6c0.9,0,1.5-0.3,1.8-0.8
					c0-0.5-1.4-1.5-4.1-2.9c-0.5-0.6-0.8-1.1-0.8-1.6C975.2,534.6,976.2,534,978.1,533.7z"/>
				<path class="st2" d="M987.8,532.8l0.2,0.2v3.3c0,1.5,0.2,3.1,0.7,4.8H988l-0.7-4.4c-1.1,1.2-2.2,1.7-3.1,1.7
					c-0.7,0-1.4-0.6-2-1.7h-0.4v0.4c0,3.1-0.3,4.6-0.9,4.6l-0.2-0.2c0.5-5.3,1-7.9,1.3-7.9c0.4,2.8,1.2,4.2,2.6,4.2
					c1.9-0.8,2.8-2.4,2.8-5L987.8,532.8L987.8,532.8z"/>
				<path class="st2" d="M992.2,533.8h0.2c1.9,0,3.2,1.1,3.9,3.3v1.3c0,1.7-1.3,2.8-3.9,3.3H992c-2.3-0.3-3.5-1.5-3.5-3.5v-0.9
					C988.5,535.5,989.7,534.3,992.2,533.8z M989.1,537.8v0.7c0.4,1.7,1.2,2.6,2.6,2.6h0.7c2.2-0.2,3.3-1.2,3.3-3.1
					c-0.2-1.5-0.5-2.2-0.9-2.2l-0.7,0.4L994,536v-0.2l0.2-0.9l-1.5-0.4H992C990.4,534.5,989.5,535.6,989.1,537.8z"/>
				<path class="st2" d="M1003.3,525.9c0.3,0.4,0.6,2.4,0.8,5.9l-0.6,5.2c0,1.1,0.4,2.6,1,4.4l-0.2,0.2h-0.2c-0.7-1-1-2.1-1-3.3
					h-0.2c-0.8,2.4-2,3.6-3.3,3.6h-0.2c-1.4,0-2.4-1.3-2.9-4v-1c0.6-1.9,1.5-2.9,2.9-2.9h0.6c1.8,0.2,2.7,0.9,2.7,2.1l-0.2,0.2h-0.2
					c-0.3-1.1-1-1.7-2.1-1.7h-0.4c-1.8,0.1-2.7,1.1-2.7,2.7v0.6c0,1.8,0.8,2.9,2.5,3.3c1.3,0,2.4-1.5,3.3-4.6l-0.2-9.2
					C1002.8,526.4,1003,525.9,1003.3,525.9z M1003.3,530.3v2.3h0.2v-2.3H1003.3z"/>
				<path class="st2" d="M723.2,545.9v2.3c0,5.6,1.2,8.4,3.7,8.4h0.2l1.6-0.5v0.5c-0.2,0.5-0.6,0.7-1.4,0.7h-0.7
					c-0.6,0-1.3-0.3-2.1-0.9l1.4,6.3l-0.2,0.2h-0.2c-1.9-3.2-2.8-5.9-2.8-7.9c0-0.3,0.2-0.5,0.7-0.5c-0.6-2.5-0.9-4.8-0.9-6.8v-1.9
					L723.2,545.9L723.2,545.9z M723.4,555.7v0.2l0.9,3.3h0.2V559C724.1,556.8,723.7,555.7,723.4,555.7z"/>
				<path class="st2" d="M731.8,554.9h0.9c1.7,0.2,2.5,0.6,2.5,1.1v0.4c-1.4,1.5-3,2.3-4.8,2.3h-0.9v-0.4c1.7,0,3.4-0.7,5-2.1V556
					l-1.6-0.5h-1.1c-2.4,0.4-3.7,1.3-3.7,2.7v0.4c0,1.8,1.9,3,5.7,3.4h0.5v0.7H734c-3.7,0-5.9-1.3-6.6-3.9v-0.9
					C727.4,556.5,728.9,555.4,731.8,554.9z"/>
				<path class="st2" d="M742.1,554l0.2,0.2v3.3c0,1.5,0.2,3.1,0.7,4.8h-0.7l-0.7-4.4c-1.1,1.2-2.2,1.7-3.1,1.7
					c-0.7,0-1.4-0.6-2-1.7h-0.4v0.4c0,3.1-0.3,4.6-0.9,4.6l-0.2-0.2c0.5-5.3,1-7.9,1.3-7.9c0.4,2.8,1.2,4.2,2.6,4.2
					c1.9-0.8,2.8-2.4,2.8-5L742.1,554L742.1,554z"/>
				<path class="st2" d="M745,555.1h0.4c1.7,0,3.2,1.4,4.3,4.3v0.4c0,1.6-1.3,2.8-3.9,3.4l-0.4-0.6l0.2-0.2h0.2l0.2,0.2h0.2
					c1.9-0.8,2.8-1.8,2.8-3c0-1.9-1.4-3.1-4.1-3.9h-0.4c-0.7,0.3-1.1,1-1.1,2.1v0.9l0.2,2.6h0.2v-3.4l0.4-0.4l0.2,0.2h0.2l-0.2,1.1
					v4.1l0.9,4.3v0.6l-0.4,0.4c-1.4-4.6-2.1-7.8-2.1-9.4v-1.3C743.2,555.9,743.9,555.1,745,555.1z"/>
				<path class="st2" d="M753.5,555h0.2c1.9,0,3.2,1.1,3.9,3.3v1.3c0,1.7-1.3,2.8-3.9,3.3h-0.4c-2.3-0.3-3.5-1.5-3.5-3.5v-0.9
					C749.7,556.7,751,555.5,753.5,555z M750.4,559v0.7c0.4,1.7,1.2,2.6,2.6,2.6h0.7c2.2-0.2,3.3-1.2,3.3-3.1
					c-0.2-1.5-0.5-2.2-0.9-2.2l-0.7,0.4l-0.2-0.2V557l0.2-0.9l-1.5-0.4h-0.7C751.7,555.7,750.7,556.8,750.4,559z"/>
				<path class="st2" d="M763.2,553.8l0.2,0.2v0.2c-1.8,1.5-2.8,3.1-2.8,4.8l0.7,3.7h-0.5c-0.5,0-1.6-2.5-3.2-7.4l0.2-0.2h0.2
					c0.3,0.3,1,1.9,1.8,4.8h0.2C760.2,556.7,761.2,554.6,763.2,553.8z"/>
				<path class="st2" d="M957,553.9l0.2-0.2h0.2c0.6,2.1,0.9,4.2,1.1,6.1c-0.3,2.1-1,3.1-2.4,3.1h-0.4c-1.5,0-2.7-1.6-3.7-4.7h-0.2
					c-0.5,3.1-0.9,4.7-1.1,4.7l-0.2-0.2V562l1.1-6.3c0.4,0,0.9,1.4,1.5,4.1c0.9,1.5,1.6,2.3,2.1,2.5h0.7c1.3,0,1.9-0.9,1.9-2.7
					L957,553.9z"/>
				<path class="st2" d="M963.2,555h0.2c0.8,0.1,1.2,0.3,1.2,0.6l-0.2,0.2v0.2l-1.2-0.4H963c-2.5,0.7-3.8,2-3.8,3.8v0.6
					c0,1.4,0.9,2.2,2.8,2.4l2.8-0.6l0.2,0.2v0.2c-0.7,0.4-1.5,0.6-2.6,0.6h-1.2c-1.7-0.4-2.6-1.3-2.6-2.6v-0.8
					C958.6,557.2,960.1,555.8,963.2,555z"/>
				<path class="st2" d="M966.4,552.5h0.2v0.8l-0.4,0.4l-0.2-0.2v-0.6L966.4,552.5z M966.4,555l0.2,0.2v7.3l-0.4,0.4l-0.2-0.2v-7.3
					L966.4,555z"/>
				<path class="st2" d="M974.6,547.1c0.3,0.4,0.6,2.4,0.8,5.9l-0.6,5.2c0,1.1,0.4,2.6,1,4.4l-0.2,0.2h-0.2c-0.7-1-1-2.1-1-3.3h-0.2
					c-0.8,2.4-2,3.6-3.3,3.6h-0.2c-1.4,0-2.4-1.3-2.9-4v-1c0.6-1.9,1.5-2.9,2.9-2.9h0.6c1.8,0.2,2.7,0.9,2.7,2.1l-0.2,0.2h-0.2
					c-0.3-1.1-1-1.7-2.1-1.7H971c-1.8,0.1-2.7,1.1-2.7,2.7v0.6c0,1.8,0.8,2.9,2.5,3.3c1.3,0,2.4-1.5,3.3-4.6l-0.2-9.2
					C974,547.6,974.2,547.1,974.6,547.1z M974.6,551.5v2.3h0.2v-2.3H974.6z"/>
				<path class="st2" d="M977,552.5h0.2v0.8l-0.4,0.4l-0.2-0.2v-0.6L977,552.5z M977,555l0.2,0.2v7.3l-0.4,0.4l-0.2-0.2v-7.3
					L977,555z"/>
				<path class="st2" d="M985.2,547.1c0.3,0.4,0.6,2.4,0.8,5.9l-0.6,5.2c0,1.1,0.4,2.6,1,4.4l-0.2,0.2H986c-0.7-1-1-2.1-1-3.3h-0.2
					c-0.8,2.4-2,3.6-3.3,3.6h-0.2c-1.4,0-2.4-1.3-2.9-4v-1c0.6-1.9,1.5-2.9,2.9-2.9h0.6c1.8,0.2,2.7,0.9,2.7,2.1l-0.2,0.2h-0.2
					c-0.3-1.1-1-1.7-2.1-1.7h-0.4c-1.8,0.1-2.7,1.1-2.7,2.7v0.6c0,1.8,0.8,2.9,2.5,3.3c1.3,0,2.4-1.5,3.3-4.6l-0.2-9.2
					C984.6,547.6,984.8,547.1,985.2,547.1z M985.2,551.5v2.3h0.2v-2.3H985.2z"/>
				<path class="st2" d="M988.2,554.8l0.2,0.7c-1,1.8-1.5,3.4-1.5,4.8v0.4c0,1,0.5,1.5,1.5,1.5c2.5,0,3.7-2.2,3.7-6.6h0.7v1.5
					l-0.2,2.4l0.9,2.9l-0.2,0.2h-0.2l-0.9-2.2H992c0,1-1,1.8-3.1,2.4h-0.7c-1.3-0.2-2-0.9-2-2v-0.7
					C986.3,558.3,986.9,556.4,988.2,554.8z"/>
				<path class="st2" d="M999.9,553.9l0.2-0.2h0.2c0.6,2.1,0.9,4.2,1.1,6.1c-0.3,2.1-1,3.1-2.4,3.1h-0.4c-1.5,0-2.7-1.6-3.7-4.7
					h-0.2c-0.5,3.1-0.9,4.7-1.1,4.7l-0.2-0.2V562l1.1-6.3c0.4,0,0.9,1.4,1.5,4.1c0.9,1.5,1.6,2.3,2.1,2.5h0.7c1.3,0,1.9-0.9,1.9-2.7
					L999.9,553.9z"/>
				<path class="st2" d="M1002.2,545.9v2.3c0,5.6,1.2,8.4,3.7,8.4h0.2l1.6-0.5v0.5c-0.2,0.5-0.6,0.7-1.4,0.7h-0.7
					c-0.6,0-1.3-0.3-2.1-0.9l1.4,6.3l-0.2,0.2h-0.2c-1.9-3.2-2.8-5.9-2.8-7.9c0-0.3,0.2-0.5,0.7-0.5c-0.6-2.5-0.9-4.8-0.9-6.8v-1.9
					L1002.2,545.9L1002.2,545.9z M1002.4,555.7v0.2l0.9,3.3h0.2V559C1003.1,556.8,1002.7,555.7,1002.4,555.7z"/>
				<path class="st2" d="M730.9,597.7h0.9c1.4,0.3,2.1,0.7,2.1,1.2v1.2c-0.5,1-1,1.5-1.6,1.6l-0.2-0.2v-0.2l1.4-1.6
					c0-0.8-0.7-1.2-2.1-1.2h-0.5c-5.1,0.9-7.7,2.4-7.7,4.4v0.2c0,0.8,2.1,1.5,6.3,2.1c3.2,0,5.1,1,5.6,3v0.2
					c-1.1,2.3-3.1,3.5-6.1,3.5h-0.7c-2.5-0.2-3.7-1.4-3.7-3.5v-1.6l0.5-0.5l0.2,0.2v0.5l-0.2,0.9c0.4,2.2,1.5,3.3,3.3,3.3h0.7
					c3.6-0.4,5.4-1.5,5.4-3.3c0-1.2-3.3-2.2-10-3c-1.2-0.7-1.9-1.5-1.9-2.3C722.5,600.4,725.3,598.8,730.9,597.7z"/>
				<path class="st2" d="M740,602.9h1c1.9,0.3,2.9,0.7,2.9,1.3v0.5c-1.6,1.7-3.4,2.6-5.5,2.6h-1v-0.5c2,0,3.9-0.8,5.7-2.3v-0.3
					l-1.8-0.5H740c-2.8,0.4-4.2,1.4-4.2,3.1v0.5c0,2.1,2.2,3.4,6.5,3.9h0.5v0.8h-0.3c-4.2,0-6.7-1.5-7.5-4.4v-1
					C735.1,604.7,736.8,603.5,740,602.9z"/>
				<path class="st2" d="M751.8,593.9c0.3,0.5,0.6,2.7,1,6.7l-0.7,6c0,1.3,0.4,3,1.2,5l-0.2,0.2h-0.2c-0.8-1.2-1.2-2.4-1.2-3.8h-0.2
					c-1,2.7-2.2,4-3.8,4h-0.2c-1.6,0-2.7-1.5-3.3-4.5v-1.2c0.6-2.2,1.8-3.3,3.3-3.3h0.7c2.1,0.2,3.1,1,3.1,2.4l-0.2,0.2h-0.2
					c-0.4-1.3-1.2-1.9-2.4-1.9h-0.5c-2.1,0.2-3.1,1.2-3.1,3.1v0.7c0,2,1,3.3,2.9,3.8c1.5,0,2.8-1.7,3.8-5.2l-0.2-10.5
					C751.2,594.5,751.4,593.9,751.8,593.9z M751.8,598.9v2.6h0.2v-2.6H751.8z"/>
				<path class="st2" d="M762.2,602.7l0.3,0.7c-1.2,2-1.8,3.9-1.8,5.5v0.5c0,1.2,0.6,1.7,1.8,1.7c2.8,0,4.3-2.5,4.3-7.5h0.8v1.8
					l-0.3,2.8l1,3.3l-0.2,0.2h-0.3l-1-2.5h-0.2c0,1.1-1.2,2-3.5,2.8h-0.8c-1.5-0.2-2.3-1-2.3-2.3V609
					C759.9,606.7,760.7,604.6,762.2,602.7z"/>
				<path class="st2" d="M768.9,592.6v2.7c0,6.4,1.4,9.6,4.3,9.6h0.3l1.9-0.5v0.5c-0.2,0.5-0.7,0.8-1.6,0.8h-0.8
					c-0.6,0-1.5-0.4-2.4-1.1l1.6,7.2l-0.3,0.3h-0.3c-2.1-3.7-3.2-6.7-3.2-9c0-0.4,0.3-0.5,0.8-0.5c-0.7-2.9-1.1-5.5-1.1-7.7v-2.1
					L768.9,592.6L768.9,592.6z M769.1,603.8v0.3l1.1,3.7h0.3v-0.3C769.9,605,769.4,603.8,769.1,603.8z"/>
				<path class="st2" d="M935,603.1h0.5c2,0,3.6,1.6,4.9,4.9v0.5c0,1.9-1.5,3.2-4.4,3.9l-0.5-0.7l0.2-0.2h0.2l0.2,0.2h0.2
					c2.1-0.9,3.2-2,3.2-3.4c0-2.1-1.6-3.6-4.7-4.4h-0.5c-0.8,0.4-1.2,1.2-1.2,2.4v1l0.2,2.9h0.2v-3.9l0.5-0.5l0.2,0.2h0.2l-0.2,1.2
					v4.7l1,4.9v0.7l-0.5,0.5c-1.6-5.2-2.4-8.8-2.4-10.8v-1.5C932.9,604,933.7,603.1,935,603.1z"/>
				<path class="st2" d="M945.3,602.9h1c1.9,0.3,2.9,0.7,2.9,1.3v0.5c-1.6,1.7-3.4,2.6-5.5,2.6h-1v-0.5c2,0,3.9-0.8,5.7-2.3v-0.3
					l-1.8-0.5h-1.3c-2.8,0.4-4.2,1.4-4.2,3.1v0.5c0,2.1,2.2,3.4,6.5,3.9h0.5v0.8h-0.3c-4.2,0-6.7-1.5-7.5-4.4v-1
					C940.4,604.7,942,603.5,945.3,602.9z"/>
				<path class="st2" d="M955.4,601.7l0.3,0.3v0.3c-2.1,1.7-3.1,3.5-3.1,5.5l0.8,4.2h-0.5c-0.6,0-1.8-2.8-3.7-8.4l0.3-0.3h0.3
					c0.4,0.4,1.1,2.2,2.1,5.5h0.3C952,604.9,953.2,602.5,955.4,601.7z"/>
				<path class="st2" d="M959.6,602.8h0.7l0.7,0.7v0.2l-0.5,0.5h-0.2v-0.7h-0.9c-0.9,0-1.7,0.5-2.3,1.4v0.7c0.3,0.6,2,1.7,4.9,3.3
					l0.7,1.2c0,1.3-1,1.9-3.1,1.9c-2.3,0-3.9-0.7-4.7-2.1l0.5-0.5c0.7,1.2,2.2,1.9,4.5,1.9c1,0,1.7-0.3,2.1-0.9
					c0-0.6-1.6-1.7-4.7-3.3c-0.6-0.7-0.9-1.3-0.9-1.9C956.3,603.9,957.4,603.1,959.6,602.8z"/>
				<path class="st2" d="M965.1,603.1h0.5c2,0,3.6,1.6,4.9,4.9v0.5c0,1.9-1.5,3.2-4.4,3.9l-0.5-0.7l0.2-0.2h0.2l0.2,0.2h0.2
					c2.1-0.9,3.2-2,3.2-3.4c0-2.1-1.6-3.6-4.7-4.4h-0.5c-0.8,0.4-1.2,1.2-1.2,2.4v1l0.2,2.9h0.2v-3.9l0.5-0.5l0.2,0.2h0.2l-0.2,1.2
					v4.7l1,4.9v0.7l-0.5,0.5c-1.6-5.2-2.4-8.8-2.4-10.8v-1.5C963,604,963.8,603.1,965.1,603.1z"/>
				<path class="st2" d="M972,600.1h0.2v0.9l-0.4,0.4l-0.2-0.2v-0.7L972,600.1z M972,603l0.2,0.2v8.3l-0.4,0.5l-0.2-0.2v-8.3
					L972,603z"/>
				<path class="st2" d="M978.7,603h0.2c0.9,0.1,1.4,0.3,1.4,0.7l-0.2,0.2v0.2l-1.4-0.5h-0.2c-2.9,0.9-4.4,2.3-4.4,4.3v0.7
					c0,1.6,1.1,2.5,3.2,2.8l3.2-0.7l0.2,0.2v0.2c-0.7,0.5-1.7,0.7-3,0.7h-1.4c-2-0.5-3-1.5-3-3v-0.9
					C973.4,605.5,975.2,603.8,978.7,603z"/>
				<path class="st2" d="M982.4,600.1h0.2v0.9l-0.4,0.4l-0.2-0.2v-0.7L982.4,600.1z M982.4,603l0.2,0.2v8.3l-0.4,0.5l-0.2-0.2v-8.3
					L982.4,603z"/>
				<path class="st2" d="M991.2,602.2l0.2,0.2v4.1c0,1.1,0.5,2.3,1.6,3.4v0.5h-0.2c-1.1-0.8-1.6-1.5-1.6-2.1
					c-1.2,2.3-2.5,3.4-3.7,3.4h-0.7c-1.4,0-2.4-1.1-3-3.4V608c0-3,1.3-4.8,3.9-5.3c1.4,0.2,2.1,0.6,2.1,1.4l-0.7,0.9l-0.2-0.2v-0.2
					l0.2-0.7l-1.6-0.5c-2,0.8-3,2.2-3,4.1v0.5c0.2,2.1,1.1,3.2,2.5,3.2h0.2c1.6,0,2.8-1.5,3.5-4.6l-0.2-1.4
					C990.5,603.2,990.7,602.2,991.2,602.2z"/>
				<path class="st2" d="M992.8,592.6v2.7c0,6.4,1.4,9.6,4.3,9.6h0.3l1.9-0.5v0.5c-0.2,0.5-0.7,0.8-1.6,0.8h-0.8
					c-0.6,0-1.4-0.4-2.4-1.1l1.6,7.2l-0.3,0.3h-0.3c-2.1-3.7-3.2-6.7-3.2-9c0-0.4,0.3-0.5,0.8-0.5c-0.7-2.9-1.1-5.5-1.1-7.7v-2.1
					L992.8,592.6L992.8,592.6z M993,603.8v0.3l1.1,3.7h0.3v-0.3C993.8,605,993.3,603.8,993,603.8z"/>
				<path class="st2" d="M999.1,600.1h0.2v0.9l-0.4,0.4l-0.2-0.2v-0.7L999.1,600.1z M999.1,603l0.2,0.2v8.3l-0.4,0.5l-0.2-0.2v-8.3
					L999.1,603z"/>
				<path class="st2" d="M1005.2,602.8h0.7l0.7,0.7v0.2l-0.5,0.5h-0.2v-0.7h-0.9c-0.9,0-1.7,0.5-2.3,1.4v0.7c0.3,0.6,2,1.7,4.9,3.3
					l0.7,1.2c0,1.3-1,1.9-3.1,1.9c-2.3,0-3.9-0.7-4.7-2.1l0.5-0.5c0.7,1.2,2.2,1.9,4.5,1.9c1,0,1.7-0.3,2.1-0.9
					c0-0.6-1.6-1.7-4.7-3.3c-0.6-0.7-0.9-1.3-0.9-1.9C1001.9,603.9,1003,603.1,1005.2,602.8z"/>
				<path class="st2" d="M729.9,625.9l0.2-0.3h0.2c0.7,2.4,1.1,4.8,1.2,6.9c-0.3,2.4-1.2,3.6-2.7,3.6h-0.5c-1.7,0-3.1-1.8-4.2-5.4
					H724c-0.6,3.6-1,5.4-1.2,5.4l-0.2-0.3v-0.8l1.2-7.2c0.4,0,1,1.5,1.7,4.6c1,1.7,1.9,2.7,2.5,2.8h0.7c1.5,0,2.2-1,2.2-3.1
					L729.9,625.9z"/>
				<path class="st2" d="M739.1,626.4l0.2,0.2v4.1c0,1.1,0.5,2.3,1.6,3.4v0.5h-0.2c-1.1-0.8-1.6-1.5-1.6-2.1
					c-1.2,2.3-2.5,3.4-3.7,3.4h-0.7c-1.4,0-2.4-1.1-3-3.4v-0.5c0-3,1.3-4.8,3.9-5.3c1.4,0.2,2.1,0.6,2.1,1.4l-0.7,0.9l-0.2-0.2v-0.2
					l0.2-0.7l-1.6-0.5c-2,0.8-3,2.2-3,4.1v0.5c0.2,2.1,1.1,3.2,2.5,3.2h0.2c1.6,0,2.8-1.5,3.5-4.6l-0.2-1.4
					C738.4,627.4,738.7,626.4,739.1,626.4z"/>
				<path class="st2" d="M740.7,616.7v2.7c0,6.4,1.4,9.6,4.3,9.6h0.3l1.9-0.5v0.5c-0.2,0.5-0.7,0.8-1.6,0.8h-0.8
					c-0.6,0-1.5-0.4-2.4-1.1l1.6,7.2l-0.3,0.3h-0.3c-2.1-3.7-3.2-6.7-3.2-9c0-0.4,0.3-0.5,0.8-0.5c-0.7-2.9-1.1-5.5-1.1-7.7v-2.1
					L740.7,616.7L740.7,616.7z M741,627.9v0.3l1.1,3.7h0.3v-0.3C741.7,629.2,741.3,627.9,741,627.9z"/>
				<path class="st2" d="M747.8,626.9l0.3,0.7c-1.2,2-1.8,3.9-1.8,5.5v0.5c0,1.2,0.6,1.7,1.8,1.7c2.8,0,4.3-2.5,4.3-7.5h0.8v1.8
					l-0.3,2.8l1,3.3l-0.2,0.2h-0.3l-1-2.5h-0.2c0,1.1-1.2,2-3.5,2.8h-0.8c-1.5-0.2-2.3-1-2.3-2.3v-0.7
					C745.5,630.9,746.3,628.8,747.8,626.9z"/>
				<path class="st2" d="M758.4,627h0.7l0.7,0.7v0.2l-0.5,0.5h-0.2v-0.7h-0.9c-0.9,0-1.7,0.5-2.3,1.4v0.7c0.3,0.6,2,1.7,4.9,3.3
					l0.7,1.2c0,1.3-1,1.9-3.1,1.9c-2.3,0-3.9-0.7-4.7-2.1l0.5-0.5c0.7,1.2,2.2,1.9,4.5,1.9c1,0,1.7-0.3,2.1-0.9
					c0-0.6-1.6-1.7-4.7-3.3c-0.6-0.7-0.9-1.3-0.9-1.9C755.1,628.1,756.2,627.3,758.4,627z"/>
				<path class="st2" d="M773.3,627h1c1.9,0.3,2.9,0.7,2.9,1.3v0.5c-1.6,1.7-3.4,2.6-5.5,2.6h-1v-0.5c2,0,3.9-0.8,5.7-2.3v-0.3
					l-1.8-0.5h-1.3c-2.8,0.4-4.2,1.4-4.2,3.1v0.5c0,2.1,2.2,3.4,6.5,3.9h0.5v0.8h-0.3c-4.2,0-6.7-1.5-7.5-4.4v-1
					C768.3,628.8,770,627.6,773.3,627z"/>
				<path class="st2" d="M783.4,625.8l0.3,0.3v0.3c-2.1,1.7-3.1,3.5-3.1,5.5l0.8,4.2h-0.5c-0.6,0-1.8-2.8-3.7-8.4l0.3-0.3h0.3
					c0.4,0.4,1.1,2.2,2.1,5.5h0.3C780,629,781.1,626.7,783.4,625.8z"/>
				<path class="st2" d="M789.2,625.8l0.3,0.3v0.3c-2.1,1.7-3.1,3.5-3.1,5.5l0.8,4.2h-0.5c-0.6,0-1.8-2.8-3.7-8.4l0.3-0.3h0.3
					c0.4,0.4,1.1,2.2,2.1,5.5h0.3C785.8,629,786.9,626.7,789.2,625.8z"/>
				<path class="st2" d="M792.9,627.1h0.2c2.2,0,3.7,1.2,4.5,3.7v1.5c0,1.9-1.5,3.2-4.5,3.7h-0.5c-2.7-0.3-4-1.7-4-4v-1
					C788.6,629,790,627.7,792.9,627.1z M789.4,631.6v0.8c0.4,2,1.4,3,3,3h0.7c2.5-0.3,3.7-1.4,3.7-3.5c-0.2-1.7-0.5-2.5-1-2.5
					l-0.7,0.5l-0.2-0.3v-0.2l0.2-1l-1.8-0.5h-0.7C790.9,627.9,789.8,629.2,789.4,631.6z"/>
				<path class="st2" d="M803.9,625.8l0.3,0.3v0.3c-2.1,1.7-3.1,3.5-3.1,5.5l0.8,4.2h-0.5c-0.6,0-1.8-2.8-3.7-8.4l0.3-0.3h0.3
					c0.4,0.4,1.1,2.2,2.1,5.5h0.3C800.5,629,801.7,626.7,803.9,625.8z"/>
				<path class="st2" d="M815,627h0.7l0.7,0.7v0.2l-0.5,0.5h-0.2v-0.7h-0.9c-0.9,0-1.7,0.5-2.3,1.4v0.7c0.3,0.6,2,1.7,4.9,3.3
					l0.7,1.2c0,1.3-1,1.9-3.1,1.9c-2.3,0-3.9-0.7-4.7-2.1l0.5-0.5c0.7,1.2,2.2,1.9,4.5,1.9c1,0,1.7-0.3,2.1-0.9
					c0-0.6-1.6-1.7-4.7-3.3c-0.6-0.7-0.9-1.3-0.9-1.9C811.7,628.1,812.8,627.3,815,627z"/>
				<path class="st2" d="M819.6,624.2h0.2v0.9l-0.4,0.4l-0.2-0.2v-0.7L819.6,624.2z M819.6,627.1l0.2,0.2v8.3l-0.4,0.5l-0.2-0.2
					v-8.3L819.6,627.1z"/>
				<path class="st2" d="M821.8,616.7v2.7c0,6.4,1.4,9.6,4.3,9.6h0.3l1.9-0.5v0.5c-0.2,0.5-0.7,0.8-1.6,0.8h-0.8
					c-0.6,0-1.4-0.4-2.4-1.1l1.6,7.2l-0.3,0.3h-0.3c-2.1-3.7-3.2-6.7-3.2-9c0-0.4,0.3-0.5,0.8-0.5c-0.7-2.9-1.1-5.5-1.1-7.7v-2.1
					L821.8,616.7L821.8,616.7z M822,627.9v0.3l1.1,3.7h0.3v-0.3C822.8,629.2,822.3,627.9,822,627.9z"/>
				<path class="st2" d="M937.6,626.4l0.2,0.2v4.1c0,1.1,0.5,2.3,1.6,3.4v0.5h-0.2c-1.1-0.8-1.6-1.5-1.6-2.1
					c-1.2,2.3-2.5,3.4-3.7,3.4h-0.7c-1.4,0-2.4-1.1-3-3.4v-0.5c0-3,1.3-4.8,3.9-5.3c1.4,0.2,2.1,0.6,2.1,1.4l-0.7,0.9l-0.2-0.2v-0.2
					l0.2-0.7l-1.6-0.5c-2,0.8-3,2.2-3,4.1v0.5c0.2,2.1,1.1,3.2,2.5,3.2h0.2c1.6,0,2.8-1.5,3.5-4.6l-0.2-1.4
					C936.9,627.4,937.1,626.4,937.6,626.4z"/>
				<path class="st2" d="M943.7,627.2h0.2c0.9,0.1,1.4,0.3,1.4,0.7l-0.2,0.2v0.2l-1.4-0.5h-0.2c-2.9,0.9-4.4,2.3-4.4,4.3v0.7
					c0,1.6,1.1,2.5,3.2,2.8l3.2-0.7l0.2,0.2v0.2c-0.7,0.5-1.7,0.7-3,0.7h-1.4c-2-0.5-3-1.5-3-3v-0.9
					C938.4,629.7,940.2,628,943.7,627.2z"/>
				<path class="st2" d="M951.1,627.2h0.2c0.9,0.1,1.4,0.3,1.4,0.7l-0.2,0.2v0.2l-1.4-0.5h-0.2c-2.9,0.9-4.4,2.3-4.4,4.3v0.7
					c0,1.6,1.1,2.5,3.2,2.8l3.2-0.7l0.2,0.2v0.2c-0.7,0.5-1.7,0.7-3,0.7h-1.4c-2-0.5-3-1.5-3-3v-0.9
					C945.8,629.7,947.6,628,951.1,627.2z"/>
				<path class="st2" d="M955.5,626.9l0.3,0.7c-1.2,2-1.8,3.9-1.8,5.5v0.5c0,1.2,0.6,1.7,1.8,1.7c2.8,0,4.3-2.5,4.3-7.5h0.8v1.8
					l-0.3,2.8l1,3.3l-0.2,0.2H961l-1-2.5h-0.2c0,1.1-1.2,2-3.5,2.8h-0.8c-1.5-0.2-2.3-1-2.3-2.3v-0.7
					C953.2,630.9,954,628.8,955.5,626.9z"/>
				<path class="st2" d="M966,627h0.7l0.7,0.7v0.2l-0.5,0.5h-0.2v-0.7h-0.9c-0.9,0-1.7,0.5-2.3,1.4v0.7c0.3,0.6,2,1.7,4.9,3.3
					l0.7,1.2c0,1.3-1,1.9-3.1,1.9c-2.3,0-3.9-0.7-4.7-2.1l0.5-0.5c0.7,1.2,2.2,1.9,4.5,1.9c1,0,1.7-0.3,2.1-0.9
					c0-0.6-1.6-1.7-4.7-3.3c-0.6-0.7-0.9-1.3-0.9-1.9C962.8,628.1,963.9,627.3,966,627z"/>
				<path class="st2" d="M976.5,626.4l0.2,0.2v4.1c0,1.1,0.5,2.3,1.6,3.4v0.5h-0.2c-1.1-0.8-1.6-1.5-1.6-2.1
					c-1.2,2.3-2.5,3.4-3.7,3.4h-0.7c-1.4,0-2.4-1.1-3-3.4v-0.5c0-3,1.3-4.8,3.9-5.3c1.4,0.2,2.1,0.6,2.1,1.4l-0.7,0.9l-0.2-0.2v-0.2
					l0.2-0.7l-1.6-0.5c-2,0.8-3,2.2-3,4.1v0.5c0.2,2.1,1.1,3.2,2.5,3.2h0.2c1.6,0,2.8-1.5,3.5-4.6l-0.2-1.4
					C975.8,627.4,976,626.4,976.5,626.4z"/>
				<path class="st2" d="M984.7,625.9l0.2-0.3h0.2c0.7,2.4,1.1,4.8,1.2,6.9c-0.3,2.4-1.2,3.6-2.7,3.6h-0.5c-1.7,0-3.1-1.8-4.2-5.4
					h-0.2c-0.6,3.6-1,5.4-1.2,5.4l-0.2-0.3v-0.8l1.2-7.2c0.4,0,1,1.5,1.7,4.6c1.1,1.7,1.9,2.7,2.4,2.8h0.7c1.5,0,2.2-1,2.2-3.1
					L984.7,625.9z"/>
				<path class="st2" d="M987.3,616.7v2.7c0,6.4,1.4,9.6,4.3,9.6h0.3l1.9-0.5v0.5c-0.2,0.5-0.7,0.8-1.6,0.8h-0.8
					c-0.7,0-1.4-0.4-2.4-1.1l1.6,7.2l-0.3,0.3H990c-2.1-3.7-3.2-6.7-3.2-9c0-0.4,0.3-0.5,0.8-0.5c-0.7-2.9-1.1-5.5-1.1-7.7v-2.1
					L987.3,616.7L987.3,616.7z M987.6,627.9v0.3l1.1,3.7h0.3v-0.3C988.3,629.2,987.9,627.9,987.6,627.9z"/>
				<path class="st2" d="M993.7,624.2h0.2v0.9l-0.4,0.4l-0.2-0.2v-0.7L993.7,624.2z M993.7,627.1l0.2,0.2v8.3l-0.4,0.5l-0.2-0.2
					v-8.3L993.7,627.1z"/>
				<path class="st2" d="M997.3,626.9l0.3,0.7c-1.2,2-1.8,3.9-1.8,5.5v0.5c0,1.2,0.6,1.7,1.8,1.7c2.8,0,4.3-2.5,4.3-7.5h0.8v1.8
					l-0.3,2.8l1,3.3l-0.2,0.2h-0.3l-1-2.5h-0.2c0,1.1-1.2,2-3.5,2.8h-0.8c-1.5-0.2-2.3-1-2.3-2.3v-0.7
					C995.1,630.9,995.8,628.8,997.3,626.9z"/>
				<path class="st2" d="M1011.2,626l0.3,0.2v3.7c0,1.7,0.2,3.5,0.7,5.5h-0.7l-0.7-5c-1.3,1.3-2.5,2-3.5,2c-0.9,0-1.6-0.7-2.2-2
					h-0.5v0.5c0,3.5-0.3,5.2-1,5.2l-0.2-0.3c0.6-6,1.1-9,1.5-9c0.4,3.2,1.4,4.7,3,4.7c2.2-0.9,3.2-2.8,3.2-5.7H1011.2L1011.2,626z"
					/>
			</g>
		</g>
		<path class="st3" d="M922.3,423.2l-14.5,4.9l-14.5,4.9l-84.7,28.6l-54.7,145.7l73.5,45.9l7.8,4.9l7.8,4.9H694.1
			c-2.7,0-4.9-2.2-4.9-4.9V428c0-2.7,2.2-4.9,4.9-4.9H922.3z"/>
	</g>
	<g>
		<g>
			<path class="st4" d="M698.8,430c0,1.9-1.5,3.5-3.5,3.5l0,0c-1.9,0-3.5-1.5-3.5-3.5l0,0c0-1.9,1.5-3.5,3.5-3.5l0,0
				C697.2,426.6,698.8,428.1,698.8,430L698.8,430z"/>
			<path class="st4" d="M1044.1,430c0,1.9-1.5,3.5-3.5,3.5l0,0c-1.9,0-3.5-1.5-3.5-3.5l0,0c0-1.9,1.5-3.5,3.5-3.5l0,0
				C1042.5,426.6,1044.1,428.1,1044.1,430L1044.1,430z"/>
		</g>
		<g>
			<path class="st4" d="M698.8,655c0,1.9-1.5,3.5-3.5,3.5l0,0c-1.9,0-3.5-1.5-3.5-3.5l0,0c0-1.9,1.5-3.5,3.5-3.5l0,0
				C697.2,651.5,698.8,653,698.8,655L698.8,655z"/>
			<path class="st4" d="M1043,658c0,1.9-1.5,3.5-3.5,3.5l0,0c-1.9,0-3.5-1.5-3.5-3.5l0,0c0-1.9,1.5-3.5,3.5-3.5l0,0
				C1041.5,654.6,1043,656.1,1043,658L1043,658z"/>
		</g>
	</g>
</g>
</svg>
