<?xml version="1.0" encoding="utf-8"?>
<!-- Generator: Adobe Illustrator 27.0.0, SVG Export Plug-In . SVG Version: 6.00 Build 0)  -->
<svg version="1.1" id="_x3C_Layer_x3E_" xmlns="http://www.w3.org/2000/svg" xmlns:xlink="http://www.w3.org/1999/xlink" x="0px"
	 y="0px" viewBox="0 0 1856 812" style="enable-background:new 0 0 1856 812;" xml:space="preserve">
<style type="text/css">
	.st0{fill:#DDDDDD;}
	.st1{fill:#FFAE3D;}
	.st2{fill:none;}
	.st3{fill:#FFFCF2;}
	.st4{fill:#FFFFFF;}
</style>
<g>
	<g>
		<path class="st0" d="M792.3,393.5c-0.6-3.9-1-7.2-1.4-9.6h-26.7c-0.3,2.4-0.8,5.7-1.4,9.6c-1.4,9.2,5.5,20.2,6.9,25.7
			c1.1,4.2-1.6,14-2.8,18.2c-0.3,1,0.5,2,1.5,2h18.4c1.1,0,1.8-1,1.5-2c-1.2-4.2-3.9-14-2.8-18.2
			C786.8,413.7,793.7,402.7,792.3,393.5z"/>
		<path class="st1" d="M784.4,419.2c1.2-5.5,8.3-16.4,7-25.7c-0.3-2.5-0.6-4.7-0.9-6.5h-25.9c-0.3,1.8-0.6,4-0.9,6.5
			c-1.2,9.2,5.8,20.2,7,25.7c0.9,4.2-0.5,10-1.6,14.2c-0.3,1,0.4,2,1.3,2h14.3c0.9,0,1.6-1,1.3-2
			C785.1,429.2,783.4,423.4,784.4,419.2z"/>
		<path class="st1" d="M787.4,385.4c0,0,2,4.8,1.8,11.4c-0.1,7.1-7.2,17.9-7.1,24.7c0.1,5,2.5,14.2,2.5,14.2l-4,0.2
			c0,0-1.1-11.4-1-15.5c0.1-3.2,4.1-19.9,4.3-24.7c0.2-4.3-1.6-9.9-1.6-9.9L787.4,385.4z"/>
		<path class="st2" d="M764.6,386.9c-0.3,1.8-0.6,4-0.9,6.5c-1.2,9.2,5.8,20.2,7,25.7c0.9,4.2-0.5,10-1.6,14.2c-0.3,1,0.4,2,1.3,2
			h14.3c0.9,0,1.6-1,1.3-2c-1.1-4.2-2.8-10-1.8-14.2c1.2-5.5,8.3-16.4,7-25.7c-0.3-2.5-0.6-4.7-0.9-6.5H764.6z"/>
		<path class="st3" d="M765.1,383.9c-0.1,0.9-0.3,1.9-0.5,3.1h25.9c-0.2-1.2-0.3-2.2-0.5-3.1H765.1z"/>
		<path class="st4" d="M789.2,383c-0.4-1.3-1.5-2.2-2.9-2.2c-0.5,0-1,0.1-1.4,0.4c-0.6-1.6-2.1-2.7-3.9-2.7c-0.5,0-1,0.1-1.4,0.2
			c-0.4-0.2-0.9-0.2-1.3-0.2c-1.2,0-2.4,0.6-3.1,1.5c-0.2,0-0.5-0.1-0.7-0.1c-1.2,0-2.3,0.5-3,1.3c-0.3,0.1-0.6,0.3-0.9,0.5
			c-0.5-0.5-1.1-0.9-1.9-0.9c-0.7,0-1.4,0.3-1.8,0.8c-1.5,0.2-2.7,1.5-2.7,3.1c0,1.8,1.4,3.2,3.2,3.2c0.5,0,1.1-0.1,1.5-0.4
			c0.6,0.6,1.4,1,2.3,1c0.6,0,1.1-0.2,1.6-0.5c0.4,0.3,0.9,0.5,1.4,0.5c0.2,0,0.4,0,0.6-0.1c0.5,0.6,1.1,0.9,1.9,0.9
			c0.8,0,1.5-0.4,1.9-0.9c0.2,0,0.4,0.1,0.6,0.1c0.9,0,1.7-0.5,2.1-1.3c0.4,0.8,1.2,1.3,2.1,1.3c0.2,0,0.5,0,0.7-0.1
			c0.5,0.6,1.2,0.9,2.1,0.9c0.8,0,1.6-0.4,2.1-0.9c0.2,0.1,0.5,0.1,0.8,0.1c1.5,0,2.8-1.2,2.8-2.8
			C791.7,384.3,790.6,383.1,789.2,383z"/>
	</g>
	<g>
		<path class="st0" d="M848.3,393.5c-0.6-3.9-1-7.2-1.4-9.6h-26.7c-0.3,2.4-0.8,5.7-1.4,9.6c-1.4,9.2,5.5,20.2,6.9,25.7
			c1.1,4.2-1.6,14-2.8,18.2c-0.3,1,0.5,2,1.5,2h18.4c1.1,0,1.8-1,1.5-2c-1.2-4.2-3.9-14-2.8-18.2
			C842.8,413.7,849.7,402.7,848.3,393.5z"/>
		<path class="st1" d="M840.4,419.2c1.2-5.5,8.3-16.4,7-25.7c-0.3-2.5-0.6-4.7-0.9-6.5h-25.9c-0.3,1.8-0.6,4-0.9,6.5
			c-1.2,9.2,5.8,20.2,7,25.7c0.9,4.2-0.5,10-1.6,14.2c-0.3,1,0.4,2,1.3,2h14.3c0.9,0,1.6-1,1.3-2
			C841.1,429.2,839.4,423.4,840.4,419.2z"/>
		<path class="st1" d="M843.4,385.4c0,0,2,4.8,1.8,11.4c-0.1,7.1-7.2,17.9-7.1,24.7c0.1,5,2.5,14.2,2.5,14.2l-4,0.2
			c0,0-1.1-11.4-1-15.5c0.1-3.2,4.1-19.9,4.3-24.7c0.2-4.3-1.6-9.9-1.6-9.9L843.4,385.4z"/>
		<path class="st2" d="M820.6,386.9c-0.3,1.8-0.6,4-0.9,6.5c-1.2,9.2,5.8,20.2,7,25.7c0.9,4.2-0.5,10-1.6,14.2c-0.3,1,0.4,2,1.3,2
			h14.3c0.9,0,1.6-1,1.3-2c-1.1-4.2-2.8-10-1.8-14.2c1.2-5.5,8.3-16.4,7-25.7c-0.3-2.5-0.6-4.7-0.9-6.5H820.6z"/>
		<path class="st3" d="M821.1,383.9c-0.1,0.9-0.3,1.9-0.5,3.1h25.9c-0.2-1.2-0.3-2.2-0.5-3.1H821.1z"/>
		<path class="st4" d="M845.2,383c-0.4-1.3-1.5-2.2-2.9-2.2c-0.5,0-1,0.1-1.4,0.4c-0.6-1.6-2.1-2.7-3.9-2.7c-0.5,0-1,0.1-1.4,0.2
			c-0.4-0.2-0.9-0.2-1.3-0.2c-1.2,0-2.4,0.6-3.1,1.5c-0.2,0-0.5-0.1-0.7-0.1c-1.2,0-2.3,0.5-3,1.3c-0.3,0.1-0.6,0.3-0.9,0.5
			c-0.5-0.5-1.1-0.9-1.9-0.9c-0.7,0-1.4,0.3-1.8,0.8c-1.5,0.2-2.7,1.5-2.7,3.1c0,1.8,1.4,3.2,3.2,3.2c0.5,0,1.1-0.1,1.5-0.4
			c0.6,0.6,1.4,1,2.3,1c0.6,0,1.1-0.2,1.6-0.5c0.4,0.3,0.9,0.5,1.4,0.5c0.2,0,0.4,0,0.6-0.1c0.5,0.6,1.1,0.9,1.9,0.9
			c0.8,0,1.5-0.4,1.9-0.9c0.2,0,0.4,0.1,0.6,0.1c0.9,0,1.7-0.5,2.1-1.3c0.4,0.8,1.2,1.3,2.1,1.3c0.2,0,0.5,0,0.7-0.1
			c0.5,0.6,1.2,0.9,2.1,0.9c0.8,0,1.6-0.4,2.1-0.9c0.2,0.1,0.5,0.1,0.8,0.1c1.5,0,2.8-1.2,2.8-2.8
			C847.7,384.3,846.6,383.1,845.2,383z"/>
	</g>
</g>
</svg>
