<?xml version="1.0" encoding="UTF-8"?>
<svg id="BACKGROUND" xmlns="http://www.w3.org/2000/svg" xmlns:xlink="http://www.w3.org/1999/xlink" viewBox="0 0 837.32 604">
  <defs>
    <style>
      .cls-1, .cls-2, .cls-3, .cls-4, .cls-5 {
        fill: none;
      }

      .cls-6 {
        opacity: .1;
      }

      .cls-6, .cls-7 {
        fill: #ff682f;
      }

      .cls-8 {
        clip-path: url(#clippath);
      }

      .cls-9 {
        fill: #6b130c;
      }

      .cls-10 {
        fill: #ffdf9f;
      }

      .cls-11 {
        fill: #fff;
      }

      .cls-12 {
        fill: #ffc388;
      }

      .cls-13 {
        fill: #ffd0a6;
      }

      .cls-14 {
        fill: #ffb665;
      }

      .cls-15 {
        fill: #ff920e;
      }

      .cls-16 {
        fill: #ff810c;
      }

      .cls-17 {
        fill: #6b1900;
      }

      .cls-18 {
        fill: #b72c11;
      }

      .cls-19 {
        fill: #9e2b18;
      }

      .cls-20 {
        fill: #bf3d23;
      }

      .cls-21 {
        fill: #c12b0e;
      }

      .cls-22 {
        fill: #c63;
      }

      .cls-23 {
        fill: #d82b2b;
      }

      .cls-24 {
        fill: #420905;
      }

      .cls-25 {
        fill: #96401a;
      }

      .cls-26 {
        fill: #5a0700;
      }

      .cls-27 {
        fill: #851f13;
      }

      .cls-28 {
        fill: #470805;
      }

      .cls-29 {
        fill: #470f02;
      }

      .cls-2 {
        stroke: #851f13;
        stroke-width: 2.64px;
      }

      .cls-2, .cls-4, .cls-5 {
        stroke-miterlimit: 10;
      }

      .cls-30 {
        opacity: .21;
      }

      .cls-30, .cls-31, .cls-32, .cls-33, .cls-34 {
        fill: #700;
      }

      .cls-31 {
        opacity: .18;
      }

      .cls-32, .cls-35, .cls-36 {
        opacity: .16;
      }

      .cls-35 {
        fill: #914646;
      }

      .cls-36 {
        fill: #8e0000;
      }

      .cls-33 {
        opacity: .17;
      }

      .cls-3 {
        stroke-linecap: round;
        stroke-linejoin: round;
        stroke-width: 1.67px;
      }

      .cls-3, .cls-4 {
        stroke: #5a0700;
      }

      .cls-37 {
        opacity: .33;
      }

      .cls-38 {
        opacity: .64;
      }

      .cls-39 {
        opacity: .68;
      }

      .cls-40 {
        opacity: .57;
      }

      .cls-41 {
        opacity: .61;
      }

      .cls-42 {
        opacity: .62;
      }

      .cls-43 {
        opacity: .52;
      }

      .cls-44 {
        opacity: .54;
      }

      .cls-45 {
        opacity: .56;
      }

      .cls-46 {
        opacity: .49;
      }

      .cls-47 {
        opacity: .92;
      }

      .cls-4 {
        stroke-width: 1.76px;
      }

      .cls-5 {
        stroke: #280101;
        stroke-width: 1.32px;
      }

      .cls-34 {
        opacity: .24;
      }

      .cls-48 {
        fill: #f9f4bb;
        opacity: .23;
      }
    </style>
    <clipPath id="clippath">
      <rect class="cls-1" x="23.12" width="750" height="500"/>
    </clipPath>
  </defs>
  <g class="cls-8">
    <rect class="cls-10" x="23.12" width="750" height="500"/>
    <g>
      <path class="cls-11" d="M253.69,80.52s-29.25,8.96-35.25,0,11.75-11.96,17.62-9.96c0,0-6.62-2-4.62-7.75s8.25-4,8.25-4c0,0-7.75-4.62-2.75-11.06s13.25-.94,13.25-.94c0,0-10.25-18.5,7-24.5s26,12.5,26.25,21.5c0,0,4.75-6.5,10.75-2s1,13.75,1,13.75c0,0,6.5-2.36,10.25,1.57s1.75,8.93,1.75,8.93c0,0,12.75-8.75,21.25-2.25s2,23-21,15c0,0-11,9.25-19.25-1.75,0,0-15.03,13.83-34.5,3.46Z"/>
      <path class="cls-11" d="M55.11,104.27s-18.91-3.28-19.91,8.86c-1,12.14,25.25,8.64,32.75,5.39,0,0,12,7.5,25.75-1.25,0,0,31,7,45-1s2.5-15.75-6.75-13.25c0,0,1.5-6-4.5-7-6-1-9,4.25-9,4.25,0,0,4.53-9.5-1.86-13.5-6.39-4-12.14,1-12.14,1,0,0,7.06-22.19-10.97-23.22-18.03-1.03-20.28,17.97-18.28,22.97,0,0-4.75-4.75-9.5-.75s-1.67,8.25-1.67,8.25c0,0-5.08-2-8.08,2s-.84,7.25-.84,7.25Z"/>
      <path class="cls-11" d="M444.08,164.24s-16.48-2.86-17.36,7.72c-.87,10.58,22.01,7.53,28.55,4.7,0,0,10.46,6.54,22.45-1.09,0,0,27.02,6.1,39.23-.87,12.2-6.97,2.18-13.73-5.88-11.55,0,0,1.31-5.23-3.92-6.1-5.23-.87-7.85,3.7-7.85,3.7,0,0,3.95-8.28-1.62-11.77-5.57-3.49-10.58,.87-10.58,.87,0,0,6.16-19.34-9.56-20.24-15.72-.9-17.68,15.66-15.94,20.02,0,0-4.14-4.14-8.28-.65-4.14,3.49-1.45,7.19-1.45,7.19,0,0-4.43-1.74-7.05,1.74-2.61,3.49-.73,6.32-.73,6.32Z"/>
      <path class="cls-11" d="M536.75,54.85s-16.04-2.79-16.88,7.51,21.41,7.33,27.77,4.57c0,0,10.18,6.36,21.84-1.06,0,0,26.29,5.94,38.16-.85,11.87-6.78,2.12-13.36-5.72-11.24,0,0,1.27-5.09-3.82-5.94-5.09-.85-7.63,3.6-7.63,3.6,0,0,3.84-8.06-1.58-11.45s-10.29,.85-10.29,.85c0,0,5.99-18.81-9.3-19.69-15.29-.88-17.2,15.24-15.5,19.48,0,0-4.03-4.03-8.06-.64s-1.41,7-1.41,7c0,0-4.31-1.7-6.85,1.7-2.54,3.39-.71,6.15-.71,6.15Z"/>
      <path class="cls-11" d="M721.76,135.99s-24.25-4.21-25.53,11.36c-1.28,15.57,32.38,11.08,41.99,6.91,0,0,15.39,9.62,33.02-1.6,0,0,39.75,8.98,57.7-1.28,17.95-10.26,3.21-20.2-8.66-16.99,0,0,1.92-7.69-5.77-8.98-7.69-1.28-11.54,5.45-11.54,5.45,0,0,5.81-12.18-2.38-17.31-8.19-5.13-15.57,1.28-15.57,1.28,0,0,9.05-28.45-14.07-29.77-23.12-1.32-26.01,23.04-23.44,29.45,0,0-6.09-6.09-12.18-.96s-2.14,10.58-2.14,10.58c0,0-6.52-2.56-10.36,2.56s-1.08,9.3-1.08,9.3Z"/>
    </g>
    <g>
      <path class="cls-29" d="M484.12,163.1c96.98-2.11,124.35,103.79,289,106.2v167.89H24.99v-155.37s253.72,24.12,319.11-34.29c65.39-58.41,94.04-83.43,140.02-84.43Z"/>
      <path class="cls-17" d="M23.12,243.26S84.7,112.8,186.41,116.1c89.71,2.9,95.22,79.62,179.11,144.89,83.89,65.26,407.6,53.75,407.6,53.75v122.24H24.99l-1.86-193.71Z"/>
    </g>
    <g>
      <path class="cls-9" d="M773.12,288.33s-186.97-29.58-344.15,32.21C271.79,382.33,23.39,402.33,23.39,402.33v97.81H773.15l-.03-211.81Z"/>
      <g>
        <path class="cls-28" d="M542.09,306.89c4.56,1.46,24.44,7.95,41.32,15.2,2.13,.91,2.47,3.77,.64,5.2-2.65,2.07-6.67,4.74-11.85,6.83-.66,.27-1.39,.28-2.06,.06-5.2-1.71-28.86-9.54-44.85-15.9-2.53-1.01-2.55-4.58-.04-5.62,3.99-1.66,9.36-3.8,14.92-5.74,.62-.22,1.3-.23,1.92-.02Z"/>
        <path class="cls-28" d="M515.11,321.03c5.07,2.06,25.33,10.43,42.17,19.65,1.75,.96,2.13,3.31,.75,4.75-2.53,2.67-6.91,6.65-12.83,9.71-.78,.4-1.7,.42-2.51,.09-5.85-2.42-30.52-12.74-46.26-20.78-2.18-1.12-2.21-4.23-.05-5.38,4.03-2.15,10.07-5.24,16.36-8.01,.75-.33,1.61-.34,2.37-.03Z"/>
      </g>
      <g class="cls-39">
        <g>
          <path class="cls-28" d="M733.12,301.56c30.19,2.35,20.67,16.13-2,16.8-22.67,.67-25.33-18.93,2-16.8Z"/>
          <path class="cls-28" d="M718.45,330.78c14.82,.7,16,12.17,0,11.54-16-.63-19.33-12.45,0-11.54Z"/>
        </g>
        <path class="cls-28" d="M649.79,333.8c28.84,.59,27.33,11.9,0,11.23-27.33-.67-27.33-11.79,0-11.23Z"/>
      </g>
    </g>
    <g>
      <g>
        <path class="cls-16" d="M629.6,311.72s19.67-39.71,41.89-37.56c23.99,2.32-.84,39.24-41.89,37.56Z"/>
        <g class="cls-40">
          <path class="cls-26" d="M630.23,311.74c3.46-3.64,7.19-7.02,11.02-10.26,3.82-3.26,7.83-6.3,11.95-9.2,2.06-1.44,4.18-2.81,6.31-4.15,1.07-.67,2.18-1.27,3.27-1.91l1.64-.94,1.69-.85c2.23-1.19,4.58-2.15,6.92-3.07l3.62-1.14c1.24-.25,2.49-.48,3.72-.7-4.83,1.41-9.21,3.81-13.51,6.28-4.28,2.52-8.46,5.23-12.52,8.11-4.09,2.84-8.12,5.78-12.12,8.78l-11.99,9.05Z"/>
        </g>
      </g>
      <g>
        <path class="cls-21" d="M633.98,302.24s13.72-35.09,29.3-52.37c15.58-17.28,26.52-14.55,28.2-5.5s-20.71,34.49-57.5,57.87Z"/>
        <g class="cls-40">
          <path class="cls-26" d="M633.98,302.24c3.45-6.09,7.25-11.98,11.3-17.69,4.03-5.73,8.34-11.26,12.89-16.6,2.3-2.64,4.65-5.26,7.09-7.78,2.47-2.5,4.98-4.96,7.64-7.26,5.31-4.57,11.09-8.83,17.65-11.34-3.11,1.61-6.01,3.54-8.73,5.7-2.74,2.12-5.34,4.43-7.88,6.8-5.02,4.8-9.74,9.9-14.26,15.19-4.54,5.27-8.89,10.71-13.16,16.22-4.24,5.53-8.45,11.09-12.55,16.76Z"/>
        </g>
      </g>
    </g>
    <g>
      <g>
        <path class="cls-23" d="M668.58,241.97c-.22,.19-.46,.38-.72,.56-.2,.15-.41,.29-.64,.44-2.18,1.46-4.85,2.69-8.08,3.68-.22,.07-.46,.14-.69,.2-26.99,7.8-72.49-2.74-78.59-4.88-3.06-1.07-6-2.45-8.63-4.08-3.83-2.36-7.02-5.26-9.04-8.52-3.51-5.67-3.47-12.44,2.93-19.43,.65-.71,1.29-1.42,1.93-2.13,2.83-3.14,5.54-6.26,8.14-9.38,7.78-9.34,14.63-18.72,21.22-29.05,.33-.51,.66-1.02,.98-1.54,3.35-5.3,6.27-9.82,9.32-13.36,5.37-6.24,11.14-9.47,20.36-8.78,.54,.04,1.09,.09,1.66,.16,10.58,1.26,20.3,10.62,27.95,23.55,3.34,5.65,6.29,11.98,8.73,18.61h0c.25,.67,.49,1.35,.73,2.03,.67,1.92,1.38,3.87,2.08,5.83,2.65,7.35,5.34,14.84,6.67,21.79,1.87,9.79,1.05,18.52-6.34,24.3Z"/>
        <path class="cls-14" d="M668.69,241.89c-.26,.22-.53,.43-.82,.65-.2,.15-.41,.29-.64,.44-.67,.43-1.47,.88-2.39,1.33-1.73,.84-3.87,1.7-6.38,2.55-26.99,7.8-72.49-2.74-78.59-4.88-7.51-2.62-14.26-7.09-17.67-12.61-1.84-3.91-1.63-7.53,2.27-10.18,.54-.37,1.15-.72,1.85-1.05,2.81-1.35,6.9-2.36,12.54-2.9,.68-.06,1.38-.13,2.1-.18,3.66-.27,7.91-.35,12.82-.22,.69,.01,1.4,.04,2.11,.06,3.94,.13,8.29,.39,13.06,.79,.69,.06,1.39,.12,2.1,.18,2,.18,4.08,.39,6.22,.61,2.48,.26,4.88,.54,7.17,.83,.7,.08,1.4,.18,2.08,.27,6.15,.82,11.62,1.74,16.45,2.74,.7,.15,1.4,.29,2.07,.44,7.55,1.67,13.41,3.54,17.72,5.53,.65,.3,1.26,.6,1.85,.91,9.04,4.74,9.72,10.03,4.07,14.69Z"/>
        <path class="cls-31" d="M668.58,241.97c-.22,.19-.46,.38-.72,.56-.2,.15-.41,.29-.64,.44-2.18,1.46-4.85,2.69-8.08,3.68-.22,.07-.46,.14-.69,.2-26.99,7.8-72.49-2.74-78.59-4.88-3.06-1.07-6-2.45-8.63-4.08,.04-.06,.09-.13,.13-.19,3.1-4.27,6.64-8.38,11.24-10.99,13.78-7.8,30.84,.33,46.68,.12,1.85-.03,3.77-.19,5.38-1.12,2.53-1.46,3.7-4.43,4.55-7.23,5.52-18.33,4.12-38.54-3.3-56.13-2.16-5.14-5.09-11.46-8.83-16.66,.54,.04,1.09,.09,1.66,.16,10.58,1.26,20.3,10.62,27.95,23.55,3.34,5.65,6.29,11.98,8.73,18.61h0c.25,.67,.49,1.35,.73,2.03,.67,1.92,1.38,3.87,2.08,5.83,2.65,7.35,5.34,14.84,6.67,21.79,1.87,9.79,1.05,18.52-6.34,24.3Z"/>
        <g class="cls-44">
          <path class="cls-27" d="M586.07,234.04c-.06,.53-.52,.92-1.05,.92-.04,0-.08,0-.13,0-14.92-1.89-19.74-13.84-20.42-15.78,.54-.37,1.15-.72,1.85-1.05,.03,.06,.06,.12,.08,.18,.08,.26,1.08,3.44,3.91,6.78,2.82,3.34,7.47,6.85,14.85,7.78,.58,.07,.98,.6,.91,1.18Z"/>
          <path class="cls-27" d="M588.9,230.65c-.21,.27-.52,.41-.83,.41-.22,0-.45-.07-.65-.22-6.81-5.3-8.3-13.77-8.55-15.61,.68-.06,1.38-.13,2.1-.18,.27,1.8,1.75,9.46,7.74,14.13,.46,.36,.55,1.02,.19,1.47Z"/>
          <path class="cls-27" d="M597.43,229.09c-.15,.07-.31,.11-.46,.11-.39,0-.76-.21-.95-.58-2.95-5.98-2.34-12.82-2.24-13.79,.69,.01,1.4,.04,2.11,.06,0,.03,0,.06,0,.09,0,.07-.81,6.96,2.02,12.7,.26,.52,.04,1.15-.48,1.41Z"/>
          <path class="cls-27" d="M610.35,228.64c-.11,.04-.22,.06-.33,.06-.44,0-.86-.28-1-.72-1.61-4.83-.3-11.2-.06-12.29,.69,.06,1.39,.12,2.1,.18,0,.05,0,.11-.02,.15-.02,.06-1.57,6.68-.03,11.29,.18,.55-.11,1.15-.67,1.33Z"/>
          <path class="cls-27" d="M626.54,217.58c-.06,.78-.65,7.58-2.7,12.29-.17,.39-.55,.63-.96,.63-.14,0-.29-.03-.42-.08-.53-.23-.78-.86-.55-1.39,1.99-4.57,2.53-11.6,2.54-11.67,0-.01,0-.04,0-.05,.7,.08,1.4,.18,2.08,.27Z"/>
          <path class="cls-27" d="M645.06,220.76s-.02,.1-.04,.15c-.16,.42-3.96,10.44-7.54,13.31-.19,.15-.43,.23-.66,.23-.3,0-.61-.13-.82-.39-.36-.46-.29-1.12,.17-1.48,2.55-2.05,5.73-9.39,6.83-12.26,.7,.15,1.4,.29,2.07,.44Z"/>
          <path class="cls-27" d="M664.62,227.2c-.04,.19-.13,.37-.28,.52-6.42,6.38-18.42,10.42-18.94,10.59-.11,.04-.22,.06-.33,.06-.44,0-.85-.28-1-.72-.18-.55,.11-1.14,.67-1.33,.12-.04,11.95-4.02,18.03-10.02,.65,.3,1.26,.6,1.85,.91Z"/>
          <path class="cls-27" d="M668.69,241.89c-.26,.22-.53,.43-.82,.65-.2,.15-.41,.29-.64,.44-.67,.43-1.47,.88-2.39,1.33-1.82,.29-3.63,.41-5.37,.41-6.93,0-12.78-1.86-13.11-1.96-.55-.18-.86-.77-.68-1.33,.18-.55,.78-.86,1.33-.68,.11,.04,11.25,3.56,20.56,.79,.42-.13,.87,.04,1.12,.36Z"/>
        </g>
        <g class="cls-47">
          <path class="cls-11" d="M665.43,188.01c-15.22,7.32-22.18-13.17-8.73-18.61,3.34,5.65,6.29,11.98,8.73,18.61Z"/>
          <path class="cls-11" d="M596.97,169.7c-.19-.11-.36-.21-.54-.33,.33-.51,.66-1.02,.98-1.54,3.35-5.3,6.27-9.82,9.32-13.36,11.43,4.18,2.11,21.85-9.76,15.23Z"/>
          <path class="cls-11" d="M567.48,208.07c-.14-.09-.27-.18-.41-.27,2.83-3.14,5.54-6.26,8.14-9.38,7.01,4.83,.03,14.66-7.73,9.65Z"/>
          <path class="cls-11" d="M641.38,195.89c6.41,.46,6.54,11.69-.95,10.76-6.78-.85-5.6-11.23,.95-10.76Z"/>
          <path class="cls-11" d="M674.92,217.67c-16.28,4.48-22.99-18.33-6.67-21.79,2.65,7.35,5.34,14.84,6.67,21.79Z"/>
        </g>
        <g>
          <path class="cls-27" d="M589.81,201.8c-.17,.42-.35,.91-.46,1.41-.28,1.17,.5,2.34,1.69,2.54,5.47,.93,23.86,4.03,33.15,5.19,.91,.11,1.8-.38,2.16-1.22,.27-.64,.53-1.51,.59-2.62,.06-1.04-.64-1.97-1.66-2.19-5.48-1.15-23.73-4.8-33.63-4.41-.82,.03-1.53,.55-1.84,1.31Z"/>
          <path class="cls-24" d="M612.91,179.49c14.01,1.5,15.44,15.47,10.7,27.22l-28.88-4.38s-1.81-24.98,18.18-22.84Z"/>
          <path class="cls-27" d="M625.14,207.24l-31.77-4.01-.05-1.18c-.02-.57-.51-13.97,6.92-20.81,3.39-3.12,7.85-4.36,13.25-3.68,5.27,.66,9.12,2.91,11.45,6.68,5.22,8.43,.76,21.39,.57,21.94l-.37,1.07Zm-29.02-6.49l27.08,3.41c.9-3.14,3.08-12.45-.65-18.46-1.86-3.01-5.03-4.81-9.41-5.36-4.54-.57-8.24,.42-10.99,2.96-5.3,4.88-5.96,14.18-6.02,17.46Z"/>
          <g>
            <path class="cls-27" d="M610.68,203.28l-2.8-.22c.88-11.14,3.56-25.07,3.59-25.21l2.76,.53c-.03,.14-2.68,13.91-3.54,24.9Z"/>
            <path class="cls-27" d="M625.77,195.83c-10.57-3.21-29.5-3.78-29.69-3.78l.08-2.81c.79,.02,19.49,.58,30.42,3.9l-.82,2.69Z"/>
          </g>
        </g>
      </g>
      <g>
        <path class="cls-12" d="M645.87,310.69c-6.38,3.94-16.8,5.77-30.05,5.54-2.69-.05-5.5-.18-8.42-.4-2.22-.16-4.51-.38-6.85-.65-4.57-.52-9.37-1.23-14.36-2.12-5.93-1.06-10.76-2.28-14.54-3.85-1.77-.74-3.32-1.55-4.64-2.46-7.54-5.17-7.91-13.47-2.33-28.55,7.14-19.31,17.8-39.58,21.29-46.06,.74-1.38,2.05-2.37,3.57-2.72,10-2.31,19.74-2.13,28.23-.88,11.87,1.74,21.31,5.55,25.59,7.51,1.67,.76,2.83,2.32,3.11,4.13,2.14,14.26,9.32,64.38-.6,70.5Z"/>
        <g>
          <path class="cls-24" d="M620.1,283.18s-.7-17.19,7.37-16.66c8.07,.53,6.14,17.12,6.14,17.12l-13.51-.45Z"/>
          <path class="cls-27" d="M634.85,285.08l-16.1-.54-.05-1.3c-.02-.49-.43-11.95,4.07-16.34,1.33-1.3,2.95-1.9,4.79-1.78,1.86,.12,3.43,.93,4.65,2.4,4.06,4.87,2.84,15.82,2.79,16.28l-.15,1.28Zm-13.37-3.26l10.84,.36c.23-3.48,.12-10.01-2.27-12.88-.72-.87-1.6-1.32-2.68-1.39-1.05-.07-1.89,.25-2.65,.99-2.63,2.57-3.22,9.31-3.25,12.92Z"/>
          <path class="cls-27" d="M617.55,283c-.04,.3-.06,.66,0,1.04,.08,.56,.57,.97,1.13,1,2.68,.13,10.97,.52,15.94,.44,.6,0,1.13-.45,1.19-1.06,.03-.31,0-.71-.14-1.18-.14-.48-.56-.82-1.05-.87-2.46-.23-10.56-.9-15.95-.43-.58,.05-1.04,.49-1.12,1.06Z"/>
        </g>
        <path class="cls-35" d="M645.87,310.69c-6.38,3.94-16.8,5.77-30.05,5.54,4.23-16.07,6.47-32.67,6.68-49.29,.17-13.37-2.39-25.85-4.74-38.4,11.87,1.74,21.31,5.55,25.59,7.51,1.67,.76,2.83,2.32,3.11,4.13,2.14,14.26,9.32,64.38-.6,70.5Z"/>
        <g>
          <path class="cls-27" d="M607.4,315.83c-2.22-.16-4.51-.38-6.85-.65-4.57-.52-9.37-1.23-14.36-2.12-5.93-1.06-10.76-2.28-14.54-3.85-1.77-.74-3.32-1.55-4.64-2.46,2.28-18.02,8.97-49.43,27.9-47.53,17.14,1.71,14.92,37.56,12.51,56.6Z"/>
          <path class="cls-22" d="M602.25,300.08c-.12,1.73-.26,3.4-.42,4.98-.41,4.22-.93,7.82-1.28,10.12-1.4-.16-2.81-.34-4.25-.53-3.27-.43-6.64-.97-10.11-1.59-5.93-1.06-10.76-2.28-14.54-3.85,.15-2.11,.45-5.54,1.01-9.56,.15-1.06,.32-2.17,.51-3.3,.65-3.91,1.54-8.15,2.77-12.18,.48-1.6,1.02-3.17,1.63-4.67,2.51-6.31,6.06-11.4,11.04-12.73,1.18-.32,2.43-.42,3.78-.28,6.08,.64,8.78,7.53,9.74,16.07,.21,1.8,.33,3.67,.4,5.57,.13,3.98,0,8.09-.27,11.93Z"/>
          <g class="cls-43">
            <path class="cls-3" d="M587.57,267.12s-5.87,19.53-8.51,44.45"/>
            <path class="cls-3" d="M596.06,267.88s-1.21,25.78-5.25,45.97"/>
          </g>
          <g>
            <path class="cls-27" d="M602.52,288.15l-26.59-3.97c.48-1.6,1.02-3.17,1.63-4.67l24.56,3.07c.21,1.8,.33,3.67,.4,5.57Z"/>
            <path class="cls-27" d="M602.25,300.08c-.12,1.73-.26,3.4-.42,4.98l-29.18-5.4c.15-1.06,.32-2.17,.51-3.3l29.1,3.73Z"/>
          </g>
          <path class="cls-26" d="M580.21,290.94c0,.89-.72,1.61-1.61,1.61s-1.61-.72-1.61-1.61,.72-1.61,1.61-1.61,1.61,.72,1.61,1.61Z"/>
          <path class="cls-36" d="M602.25,300.08c-.12,1.73-.26,3.4-.42,4.98-.41,4.22-.93,7.82-1.28,10.12-1.4-.16-2.81-.34-4.25-.53,1.02-6.18,1.94-12.37,2.06-18.63,.14-7.55-1.1-15.46-4.5-22.26-.32-.63-2.57-3.86-5.25-6.98,1.18-.32,2.43-.42,3.78-.28,6.08,.64,8.78,7.53,9.74,16.07,.21,1.8,.33,3.67,.4,5.57,.13,3.98,0,8.09-.27,11.93Z"/>
        </g>
      </g>
    </g>
    <g>
      <path class="cls-27" d="M773.12,423.6v76.26H23.15l-.03-219.57s49.49-43.16,162.15-43.75c17.45-.09,36.41,.83,56.94,3.11,5.5,.6,11.11,1.3,16.83,2.11,98.48,13.86,194.79,70.42,296.81,117.06,14.08,6.44,28.27,12.69,42.59,18.61,55.85,23.1,113.66,41.23,174.68,46.17Z"/>
      <path class="cls-6" d="M598.44,377.43c-48.2,4.72-97.52-2.02-142.62-19.69-13.14-5.15-25.91-11.2-39-16.48-38.03-15.33-78.37-24.01-118.69-31.51-19.61-3.65-39.9-7.28-56.55-18.27-10.56-6.96-19.85-18.74-17.52-31.16,1.77-9.4,9.48-16.03,18.15-20.67,5.5,.6,11.11,1.3,16.83,2.11,98.48,13.86,194.79,70.42,296.81,117.06,14.08,6.44,28.27,12.69,42.59,18.61Z"/>
      <g>
        <path class="cls-9" d="M350.45,275.89c14.02,3.71,18,13.75-2,9.43-20-4.32-17.33-14.55,2-9.43Z"/>
        <path class="cls-9" d="M369.79,300.33c15.28,5.44,10.67,8,0,6.67-10.67-1.33-9.7-10.12,0-6.67Z"/>
      </g>
    </g>
    <g>
      <g>
        <path class="cls-15" d="M137.88,201.58c1.38,6.72,1.04,15.7-7.54,21.94-15.38,11.2-25.24,.06-25.24,.06-50.82,18.3-67.28-14.06-66.7-39.48,.57-25.42,15.83-21.16,15.83-21.16,0,0,2.82-23.51,24.07-28.61,3.56-.86,6.7-1.08,9.45-.87,13.7,1.04,17.96,12.98,17.96,12.98,0,0,16.42-9.34,30.46,9.18,14.03,18.52-1.54,36.73-1.54,36.73,0,0,2.18,3.91,3.26,9.24Z"/>
        <path class="cls-31" d="M130.34,223.52c-15.38,11.2-25.24,.06-25.24,.06-50.82,18.3-67.28-14.06-66.7-39.48,.57-25.42,15.83-21.16,15.83-21.16,0,0,2.82-23.51,24.07-28.61,3.56-.86,6.7-1.08,9.45-.87-.99,.18-2.01,.44-3.07,.79-8.11,2.76-15.02,9.97-16.21,18.62-1.81,13.19,9.98,26.55,23.3,26.4-9.26,3.41-18.28,12.08-16.2,21.73,1.55,7.18,9.01,11.92,16.33,12.42,7.33,.49,14.45-2.43,20.9-5.93,1.46,4.81,6.75,7.91,11.75,7.47,5-.44,9.43-4.01,11.57-8.56,.73-1.54,1.22-3.18,1.76-4.81,1.38,6.72,1.04,15.7-7.54,21.94Z"/>
        <path class="cls-25" d="M118.79,264.94s-9.12,3.62-16.13,1.31c0,0,8.28-26.06-1.92-43.05-6.94-11.55-24.49-39.53-23.74-59.14,.04-.95,.61-1.75,1.37-1.92l.84-.18c.85-.18,1.64,.5,1.78,1.54,.83,6.16,4.59,26.29,19.64,42.26,0,0-8.54-12.27-5.8-30.03,.13-.83,.69-1.47,1.37-1.6h.06c.97-.19,1.8,.72,1.76,1.92-.19,6.06,.35,22.87,10.96,34.8,0,0,3.87-2.11,5.08-12.68,.1-.84,.63-1.53,1.3-1.7h0c.94-.24,1.8,.58,1.85,1.75,.13,3.68-.1,11.18-3.7,15.68,0,0,7.37,26.48,5.26,51.04Z"/>
        <path class="cls-48" d="M118.36,150.26c-1.99-.12-4.16,.02-5.68,1.31-1.98,1.68-2.15,4.68-1.8,7.25,1.11,8.34,6.06,16.08,13.15,20.6,2.53,1.61,5.66,2.85,8.48,1.84,3.15-1.12,4.79-4.65,5.18-7.97,1.37-11.71-7.73-22.33-19.33-23.04Z"/>
      </g>
      <g>
        <path class="cls-15" d="M545.13,265.58c.59,2.89,.44,6.74-3.24,9.42-6.6,4.8-10.83,.03-10.83,.03-21.81,7.85-28.87-6.03-28.63-16.95,.25-10.91,6.79-9.08,6.79-9.08,0,0,1.21-10.09,10.33-12.28,1.53-.37,2.87-.47,4.05-.37,5.88,.45,7.71,5.57,7.71,5.57,0,0,7.05-4.01,13.07,3.94,6.02,7.95-.66,15.77-.66,15.77,0,0,.93,1.68,1.4,3.96Z"/>
        <path class="cls-34" d="M541.89,275c-6.6,4.8-10.83,.03-10.83,.03-21.81,7.85-28.87-6.03-28.63-16.95,.25-10.91,6.79-9.08,6.79-9.08,0,0,1.21-10.09,10.33-12.28,1.53-.37,2.87-.47,4.05-.37-.43,.08-.86,.19-1.32,.34-3.48,1.18-6.45,4.28-6.96,7.99-.78,5.66,4.28,11.39,10,11.33-3.98,1.46-7.85,5.18-6.95,9.33,.66,3.08,3.87,5.12,7.01,5.33,3.15,.21,6.2-1.04,8.97-2.54,.62,2.06,2.9,3.4,5.04,3.2,2.15-.19,4.05-1.72,4.96-3.67,.31-.66,.52-1.36,.75-2.06,.59,2.89,.44,6.74-3.24,9.42Z"/>
        <path class="cls-25" d="M536.93,292.78s-3.91,1.55-6.92,.56c0,0,3.55-11.18-.82-18.48-2.98-4.96-10.51-16.97-10.19-25.38,.02-.41,.26-.75,.59-.82l.36-.08c.37-.08,.7,.21,.76,.66,.36,2.64,1.97,11.28,8.43,18.14,0,0-3.67-5.27-2.49-12.89,.06-.36,.3-.63,.59-.69h.03c.42-.08,.77,.31,.76,.83-.08,2.6,.15,9.81,4.71,14.93,0,0,1.66-.91,2.18-5.44,.04-.36,.27-.66,.56-.73h0c.4-.1,.77,.25,.79,.75,.06,1.58-.04,4.8-1.59,6.73,0,0,3.16,11.36,2.26,21.9Z"/>
        <path class="cls-48" d="M536.75,243.56c-.85-.05-1.79,.01-2.44,.56-.85,.72-.92,2.01-.77,3.11,.48,3.58,2.6,6.9,5.64,8.84,1.08,.69,2.43,1.22,3.64,.79,1.35-.48,2.06-2,2.22-3.42,.59-5.03-3.32-9.59-8.29-9.89Z"/>
      </g>
      <g>
        <path class="cls-15" d="M374.01,255.97c-1.35,5.55-1.02,12.97,7.41,18.13,15.11,9.25,24.79,.05,24.79,.05,49.92,15.12,66.09-11.62,65.52-32.62-.56-21.01-15.55-17.48-15.55-17.48,0,0-2.77-19.42-23.65-23.64-3.5-.71-6.58-.9-9.28-.72-13.45,.86-17.64,10.72-17.64,10.72,0,0-16.13-7.71-29.92,7.59-13.78,15.3,1.52,30.35,1.52,30.35,0,0-2.14,3.23-3.2,7.63Z"/>
        <path class="cls-33" d="M381.42,274.09c15.11,9.25,24.79,.05,24.79,.05,49.92,15.12,66.09-11.62,65.52-32.62-.56-21.01-15.55-17.48-15.55-17.48,0,0-2.77-19.42-23.65-23.64-3.5-.71-6.58-.9-9.28-.72,.98,.15,1.98,.36,3.01,.65,7.97,2.28,14.76,8.23,15.92,15.39,1.78,10.9-9.81,21.94-22.88,21.81,9.1,2.81,17.96,9.98,15.92,17.95-1.52,5.93-8.85,9.85-16.04,10.26-7.2,.4-14.19-2.01-20.53-4.9-1.43,3.97-6.63,6.54-11.55,6.17-4.91-.37-9.26-3.32-11.36-7.07-.72-1.27-1.2-2.63-1.72-3.97-1.35,5.55-1.02,12.97,7.41,18.13Z"/>
        <path class="cls-25" d="M392.77,308.32s8.96,2.99,15.85,1.09c0,0-8.14-21.53,1.89-35.57,6.82-9.54,24.05-32.66,23.32-48.86-.04-.78-.6-1.45-1.35-1.58l-.82-.15c-.84-.15-1.61,.41-1.75,1.27-.81,5.09-4.51,21.72-19.29,34.91,0,0,8.39-10.14,5.7-24.81-.13-.69-.68-1.22-1.35-1.32h-.06c-.95-.16-1.77,.6-1.73,1.59,.19,5-.34,18.89-10.77,28.75,0,0-3.8-1.75-4.99-10.47-.09-.7-.61-1.27-1.28-1.41h0c-.92-.19-1.77,.48-1.81,1.45-.13,3.04,.1,9.24,3.63,12.95,0,0-7.24,21.88-5.17,42.17Z"/>
        <path class="cls-48" d="M393.19,213.57c1.95-.1,4.09,.02,5.58,1.09,1.95,1.39,2.11,3.86,1.77,5.99-1.09,6.89-5.95,13.29-12.92,17.02-2.48,1.33-5.56,2.35-8.33,1.52-3.09-.93-4.7-3.84-5.08-6.59-1.35-9.68,7.6-18.45,18.98-19.03Z"/>
      </g>
      <g>
        <path class="cls-15" d="M703.5,249.51c-1.12,4.6-.84,10.75,6.14,15.02,12.52,7.66,20.54,.04,20.54,.04,41.37,12.53,54.76-9.62,54.29-27.03-.47-17.41-12.88-14.49-12.88-14.49,0,0-2.29-16.09-19.59-19.59-2.9-.59-5.45-.74-7.69-.6-11.15,.71-14.62,8.88-14.62,8.88,0,0-13.37-6.39-24.79,6.29-11.42,12.68,1.26,25.15,1.26,25.15,0,0-1.77,2.67-2.65,6.32Z"/>
        <path class="cls-32" d="M709.64,264.53c12.52,7.66,20.54,.04,20.54,.04,41.37,12.53,54.76-9.62,54.29-27.03-.47-17.41-12.88-14.49-12.88-14.49,0,0-2.29-16.09-19.59-19.59-2.9-.59-5.45-.74-7.69-.6,.81,.12,1.64,.3,2.5,.54,6.6,1.89,12.23,6.82,13.19,12.75,1.47,9.03-8.12,18.18-18.96,18.07,7.54,2.33,14.88,8.27,13.19,14.87-1.26,4.91-7.33,8.16-13.29,8.5-5.96,.33-11.76-1.67-17.01-4.06-1.19,3.29-5.49,5.42-9.57,5.11-4.07-.3-7.68-2.75-9.41-5.86-.59-1.05-.99-2.18-1.43-3.29-1.12,4.6-.84,10.75,6.14,15.02Z"/>
        <path class="cls-25" d="M719.05,292.89s7.42,2.48,13.13,.9c0,0-6.74-17.84,1.56-29.47,5.65-7.91,19.93-27.06,19.32-40.49-.03-.65-.5-1.2-1.12-1.31l-.68-.12c-.69-.12-1.33,.34-1.45,1.05-.67,4.22-3.74,18-15.98,28.93,0,0,6.95-8.4,4.72-20.56-.1-.57-.56-1.01-1.12-1.1h-.05c-.79-.13-1.47,.5-1.44,1.32,.15,4.15-.28,15.65-8.92,23.82,0,0-3.15-1.45-4.14-8.68-.08-.58-.51-1.05-1.06-1.17h0c-.76-.16-1.47,.4-1.5,1.2-.11,2.52,.08,7.66,3.01,10.73,0,0-6,18.13-4.28,34.94Z"/>
        <path class="cls-48" d="M719.39,214.38c1.62-.08,3.39,.02,4.62,.9,1.61,1.15,1.75,3.2,1.47,4.97-.91,5.71-4.93,11.01-10.7,14.1-2.06,1.1-4.6,1.95-6.9,1.26-2.56-.77-3.9-3.19-4.21-5.46-1.11-8.02,6.29-15.29,15.73-15.77Z"/>
      </g>
    </g>
    <g>
      <path class="cls-20" d="M23.44,382.67s46.32-36.22,202.32-35.61c156,.61,404.7,93.18,547.38,111.13l.02,41.67-750,.29,.29-117.48Z"/>
      <g class="cls-46">
        <g>
          <path class="cls-26" d="M203.59,453.43c4.2,4.19,10.7,9.21,18.78,10.78,1.08,.21,2.2,.12,3.23-.27,6.09-2.3,29.65-11.43,43.37-20.06,3.56-2.24,3.63-7.38,.18-9.77-2.98-2.07-6.58-4.31-9.86-5.67-1.09-.45-2.28-.54-3.43-.29-6.28,1.37-29,6.65-50.39,15.75-3.81,1.62-4.81,6.6-1.88,9.52Z"/>
          <path class="cls-26" d="M235.84,475.46c5.07,4.89,13.04,11.18,21.83,12.92,1.03,.2,2.1,.14,3.09-.2,6.03-2.06,30.11-10.53,43.9-18.99,3.45-2.12,3.74-7.01,.59-9.56-5.13-4.14-12.53-9.81-17.62-12.4-1.47-.75-3.18-.83-4.72-.25-6.35,2.4-25.51,9.77-45.44,18.91-3.77,1.73-4.61,6.69-1.63,9.57Z"/>
          <path class="cls-26" d="M271.48,499.24c5.01,4.83,12.85,11.04,21.52,12.86,1.24,.26,2.53,.1,3.67-.43,5.97-2.79,26.54-12.61,39.46-21.34,3.56-2.41,3.44-7.68-.24-9.9-4.92-2.96-11.32-6.62-15.86-8.55-1.4-.6-2.97-.63-4.4-.09-5.83,2.22-23.11,8.95-42.54,17.89-3.75,1.73-4.58,6.69-1.61,9.56Z"/>
        </g>
      </g>
      <g class="cls-42">
        <g>
          <path class="cls-27" d="M422.45,387.57c31.53,3.19,21.33,12.92,0,11.51-21.33-1.41-27.33-14.27,0-11.51Z"/>
          <path class="cls-27" d="M425.79,411.05c47.03,3.18,36,21.8-4,19.21-40-2.59-34.67-21.83,4-19.21Z"/>
          <path class="cls-27" d="M477.79,403.93c19.33,1.37,13.33,9.07,0,9.07s-13.81-10.05,0-9.07Z"/>
        </g>
      </g>
    </g>
    <g>
      <g>
        <path class="cls-21" d="M256.86,393.67s27.61-13.92,44-37.22c16.39-23.3,11.65-45.34,11.65-45.34,0,0-64.28,9.77-55.65,82.56Z"/>
        <g class="cls-40">
          <path class="cls-26" d="M256.86,393.67c2.3-8.13,5.4-16.01,8.88-23.71,3.49-7.7,7.49-15.18,11.96-22.38,2.28-3.57,4.62-7.11,7.17-10.51,2.58-3.37,5.19-6.72,8.1-9.83,2.88-3.12,5.9-6.12,9.16-8.84,3.28-2.7,6.71-5.2,10.39-7.29-3.3,2.63-6.44,5.41-9.39,8.37-2.97,2.94-5.71,6.1-8.38,9.29-2.64,3.23-5.16,6.55-7.57,9.96-2.43,3.39-4.72,6.89-6.92,10.43-2.25,3.52-4.35,7.14-6.41,10.78-2.09,3.63-4.04,7.33-6,11.04-3.85,7.45-7.52,15-10.98,22.69Z"/>
        </g>
      </g>
      <g>
        <path class="cls-16" d="M250.26,415.12c-.75,8.02,21.19-23.51,52.72-20.82,31.53,2.7,41.41-16.28,25.93-25.69-22.86-13.89-74.47,2.07-78.65,46.5Z"/>
        <g class="cls-40">
          <path class="cls-26" d="M250.26,415.12c3.68-7.63,8.88-14.52,14.9-20.56,6.05-6.03,13.12-11.15,21-14.69,3.95-1.73,8.06-3.1,12.27-4.04,4.23-.82,8.53-1.31,12.83-1.28,8.59,.11,17.07,2.01,24.85,5.29-8.19-2.1-16.53-3.27-24.81-2.95-4.13,.24-8.23,.77-12.25,1.71-4,.98-7.91,2.31-11.67,4-3.79,1.63-7.37,3.71-10.81,6.01-3.46,2.28-6.7,4.88-9.81,7.64-6.17,5.58-11.76,11.89-16.51,18.87Z"/>
        </g>
      </g>
      <g>
        <path class="cls-16" d="M115.66,397s-44.79-12.94-43.93-23.73c.86-10.79,12.51-3.95,12.94-9.52,.43-5.58-18.12-12.9-16.82-23.47,1.29-10.57,10.79-4.1,11.65-8.85,.86-4.75-14.24-24.03-1.29-29.98,12.94-5.95,16.82,22.22,21.57,21.79,4.75-.43,4.13-8.2,11.77-5.18,7.64,3.02-5.15,34.51,.45,35.65,5.61,1.14,3.18-8.32,12.09-5.38,8.9,2.95-2.03,42.63-8.42,48.67Z"/>
        <g class="cls-40">
          <path class="cls-26" d="M78.2,301.45c4.04,7.57,7.62,15.36,11.06,23.2,1.74,3.91,3.37,7.87,5.02,11.82,1.62,3.96,3.2,7.94,4.77,11.92,3.08,7.99,6.06,16.02,8.84,24.11,2.79,8.09,5.43,16.24,7.76,24.49-3.51-7.83-6.75-15.74-9.96-23.67-1.64-3.95-3.15-7.95-4.76-11.91l-4.68-11.94-4.61-11.96c-1.5-4-3.07-7.98-4.55-11.99-3.03-8-6-16.01-8.9-24.08Z"/>
        </g>
      </g>
      <g>
        <path class="cls-18" d="M138.17,412.53s-33.65,7.97-68.16-2.49c-34.51-10.45-28.47-36.34-3.45-38.93,25.02-2.59,55.65,21.14,71.61,41.41Z"/>
        <g class="cls-40">
          <path class="cls-26" d="M47.13,382.68c4.01-.27,8.04-.16,12.05,.07,2.01,.12,4.01,.34,6.02,.51,2,.24,3.99,.51,5.99,.78,7.98,1.17,15.84,3.11,23.53,5.57,3.86,1.2,7.6,2.73,11.36,4.21,1.85,.81,3.67,1.7,5.5,2.54l2.74,1.29,2.65,1.48c1.76,.99,3.54,1.94,5.27,2.97l5.04,3.34c.83,.57,1.67,1.11,2.49,1.71l2.37,1.88c1.57,1.25,3.13,2.52,4.67,3.8-1.73-1.03-3.44-2.07-5.14-3.12l-2.53-1.59c-.86-.5-1.75-.95-2.63-1.43l-5.23-2.88-5.37-2.6-2.68-1.29-2.74-1.16c-1.83-.77-3.64-1.58-5.48-2.3l-5.57-2.09c-1.84-.74-3.76-1.26-5.64-1.9l-2.82-.94c-.94-.31-1.9-.55-2.86-.84-1.91-.53-3.81-1.12-5.73-1.6l-5.78-1.46c-1.94-.41-3.88-.85-5.82-1.29-7.79-1.61-15.67-2.86-23.65-3.65Z"/>
        </g>
      </g>
    </g>
    <g>
      <g>
        <path class="cls-14" d="M293.69,301.32h0c-2.31,10.74-10.77,21.46-31.58,27.32-2.29,.65-4.73,1.24-7.34,1.75-49.45,9.92-120.58,3.34-120.58,3.34-10.12-1.78-38.22-10.89-38.48-36.2,0-.77,0-1.53,.06-2.28,.02-.3,.04-.62,.07-.91,.02-.21,.04-.41,.06-.61,.03-.28,.06-.55,.1-.83,.03-.23,.06-.46,.1-.68,.02-.11,.03-.21,.05-.31,.03-.19,.06-.38,.1-.57,.03-.16,.06-.33,.1-.49,.06-.3,.12-.59,.2-.89,.08-.32,.15-.65,.24-.96,0-.04,.02-.07,.03-.11,.08-.3,.17-.61,.27-.9,.06-.21,.13-.43,.2-.63,.06-.2,.13-.39,.2-.58,.65-1.81,1.46-3.52,2.4-5.13,.11-.19,.22-.38,.34-.57,.09-.16,.19-.31,.28-.46,.13-.21,.26-.4,.39-.6,.09-.14,.18-.28,.28-.42,.14-.22,.3-.43,.45-.65,.55-.76,1.12-1.49,1.71-2.2,.17-.2,.33-.39,.51-.59,.18-.21,.37-.43,.56-.64,.08-.09,.17-.18,.25-.27,.55-.58,1.1-1.15,1.67-1.71,.05-.06,.11-.11,.17-.17,.42-.4,.84-.79,1.26-1.18,.54-.49,1.09-.96,1.66-1.42,.23-.19,.47-.39,.71-.58,.25-.2,.5-.4,.75-.59,.75-.58,1.52-1.15,2.3-1.7,.77-.55,1.55-1.08,2.34-1.59,.52-.35,1.05-.68,1.56-1,.27-.17,.52-.33,.79-.49,.52-.33,1.05-.65,1.56-.94,.52-.3,1.04-.61,1.56-.9,.26-.14,.51-.29,.77-.43,.52-.29,1.02-.57,1.53-.84,.25-.14,.5-.28,.74-.41,.5-.27,.99-.53,1.47-.79,.68-.36,1.33-.71,1.97-1.05,.33-.17,.65-.34,.96-.51,.31-.16,.62-.33,.93-.49,.92-.49,1.78-.96,2.59-1.41,.24-.13,.46-.25,.68-.38,.55-.32,1.06-.62,1.55-.92,.17-.11,.33-.21,.51-.33,2.4-1.58,5.55-4.24,9.27-7.44,.36-.3,.73-.62,1.1-.95,1.49-1.28,3.06-2.65,4.71-4.06,6.91-5.91,15.09-12.59,23.71-17.7,.43-.25,.87-.51,1.3-.75,.43-.25,.88-.5,1.32-.74,.43-.24,.86-.46,1.28-.68,.44-.24,.87-.46,1.31-.68,.44-.22,.87-.43,1.31-.65,.44-.21,.88-.41,1.32-.61,.44-.2,.88-.39,1.32-.58,.89-.38,1.77-.73,2.65-1.04,.89-.33,1.77-.62,2.66-.89,.43-.13,.86-.25,1.28-.36,.02,0,.03,0,.05-.02,.19-.05,.38-.1,.57-.15,.29-.08,.57-.14,.86-.21,.07-.02,.14-.03,.21-.05,.3-.07,.59-.14,.89-.19,.12-.03,.25-.05,.37-.08,.34-.07,.68-.13,1.02-.18,.33-.06,.67-.11,1-.15,.84-.11,1.67-.2,2.5-.25,1.56-.1,3.09-.14,4.61-.14,.55,0,1.09,0,1.63,.02,.15,0,.3,0,.44,0,.48,.02,.96,.03,1.44,.06,.05,0,.09,0,.14,0,.36,.02,.72,.04,1.08,.06,.21,.02,.42,.03,.62,.05,.49,.04,.99,.08,1.48,.13,.09,0,.17,.02,.27,.02,.38,.04,.76,.08,1.13,.13,.3,.03,.58,.07,.87,.11,.52,.07,1.05,.14,1.56,.23,.49,.08,.99,.16,1.47,.25,.02,0,.04,0,.05,0,.23,.04,.45,.08,.67,.13,2.21,.42,4.37,.95,6.46,1.59,.46,.13,.91,.27,1.36,.42,.69,.23,1.38,.47,2.07,.71,.43,.16,.85,.32,1.28,.49,1.05,.41,2.09,.85,3.11,1.31,.43,.19,.86,.39,1.28,.59,.13,.06,.25,.12,.37,.18,.45,.22,.9,.44,1.34,.68,.31,.16,.62,.33,.93,.49,.27,.14,.55,.3,.82,.45,.37,.2,.74,.42,1.1,.63,.04,.02,.08,.05,.12,.08,.39,.23,.79,.46,1.18,.71,.05,.03,.11,.07,.17,.11,.39,.24,.77,.49,1.16,.74,.17,.11,.34,.22,.51,.34,.36,.24,.73,.49,1.09,.74,.31,.21,.62,.43,.91,.65,1.11,.8,2.19,1.63,3.24,2.48,.36,.29,.71,.58,1.06,.89,.23,.19,.45,.38,.66,.57,.03,.02,.06,.05,.08,.08,.23,.2,.46,.39,.68,.59,.34,.32,.69,.64,1.03,.96,.33,.31,.65,.62,.98,.94,.49,.47,.96,.95,1.44,1.44,.36,.37,.71,.74,1.06,1.13,.37,.4,.74,.8,1.11,1.22,.27,.31,.55,.62,.82,.94,.08,.11,.17,.21,.27,.31,.26,.3,.51,.6,.75,.91,.45,.55,.89,1.09,1.32,1.66,2.48,3.21,5,5.87,7.5,8.16,.3,.27,.6,.54,.9,.8,.05,.05,.11,.1,.17,.14,.95,.84,1.9,1.62,2.85,2.36,.26,.2,.51,.4,.77,.6,.05,.04,.11,.08,.17,.13,.55,.43,1.09,.83,1.63,1.22,.08,.05,.16,.11,.24,.17,.62,.46,1.24,.89,1.85,1.31,.29,.21,.58,.4,.86,.6,2.53,1.75,4.97,3.34,7.27,5,.47,.35,.94,.69,1.4,1.04,.27,.2,.54,.4,.8,.62,.27,.2,.52,.42,.78,.63,.26,.21,.52,.42,.77,.64,.25,.22,.5,.43,.75,.66,.49,.43,.96,.88,1.44,1.35,.08,.08,.17,.17,.26,.26,.67,.68,1.31,1.38,1.93,2.13,.17,.21,.36,.44,.53,.67,.27,.35,.54,.71,.8,1.08,.15,.2,.29,.41,.43,.62,.2,.3,.39,.59,.58,.9,0,0,0,.02,.02,.02,3.69,5.95,7.36,16.52,5.09,27.08Z"/>
        <path class="cls-36" d="M262.1,328.64c-2.29,.65-4.73,1.24-7.34,1.75-49.45,9.92-120.58,3.34-120.58,3.34-10.12-1.78-38.22-10.89-38.48-36.2,0-.77,0-1.53,.06-2.28,.02-.3,.04-.62,.07-.91,.02-.21,.04-.41,.06-.61,.03-.28,.06-.55,.1-.83,.03-.23,.06-.46,.1-.68,.02-.11,.03-.21,.05-.31,.03-.19,.06-.38,.1-.57,.03-.16,.06-.33,.1-.49,.06-.3,.12-.59,.2-.89,.08-.32,.15-.65,.24-.96,0-.04,.02-.07,.03-.11,.08-.3,.17-.61,.27-.9,.06-.21,.13-.43,.2-.63,.06-.2,.13-.39,.2-.58,.65-1.81,1.46-3.52,2.4-5.13,.11-.19,.22-.38,.34-.57,.09-.16,.19-.31,.28-.46,.13-.21,.26-.4,.39-.6,.09-.14,.18-.28,.28-.42,.14-.22,.3-.43,.45-.65,.55-.76,1.12-1.49,1.71-2.2,.17-.2,.33-.39,.51-.59,.18-.21,.37-.43,.56-.64,.08-.09,.17-.18,.25-.27,.55-.58,1.1-1.15,1.67-1.71,.05-.06,.11-.11,.17-.17,.41-.4,.84-.79,1.26-1.18,.54-.49,1.09-.96,1.66-1.42,.23-.19,.47-.39,.71-.58,.25-.2,.5-.4,.75-.59,.76-.59,1.53-1.16,2.3-1.7,.77-.56,1.56-1.09,2.34-1.59,.52-.35,1.05-.68,1.56-1,.27-.17,.52-.33,.79-.49,.52-.33,1.05-.65,1.56-.94,.52-.3,1.04-.61,1.56-.9,.26-.14,.51-.29,.77-.43,.52-.3,1.03-.58,1.53-.84,.25-.14,.5-.28,.74-.41,.49-.27,.99-.53,1.47-.79,.68-.36,1.33-.71,1.97-1.05,.33-.17,.65-.34,.96-.51,.31-.16,.62-.33,.93-.49,.92-.49,1.78-.96,2.59-1.41,.24-.13,.46-.26,.68-.38,.55-.32,1.06-.62,1.55-.92,.17-.11,.33-.21,.51-.33,2.4-1.58,5.55-4.24,9.27-7.44,.36-.31,.73-.62,1.1-.95,1.49-1.28,3.06-2.65,4.71-4.06,6.91-5.91,15.09-12.59,23.71-17.7,.43-.25,.87-.51,1.3-.75,.43-.25,.88-.5,1.32-.74,.43-.24,.86-.46,1.28-.68,.44-.24,.87-.46,1.31-.68,.44-.22,.87-.43,1.31-.65,.44-.21,.88-.41,1.32-.61,.44-.2,.88-.39,1.32-.58,.89-.38,1.77-.73,2.65-1.04,.89-.33,1.77-.62,2.66-.89,.43-.13,.86-.25,1.28-.36,.02,0,.03,0,.05-.02,.19-.05,.38-.1,.57-.15,.29-.08,.57-.14,.86-.21,.07-.02,.14-.03,.21-.05,.3-.07,.59-.14,.89-.19,.12-.03,.25-.05,.37-.08,.34-.07,.68-.13,1.02-.18,.33-.06,.67-.11,1-.15,.84-.11,1.67-.2,2.5-.25,1.56-.1,3.09-.14,4.61-.14,.55,0,1.09,0,1.63,.02,.15,0,.3,0,.44,0,.48,.02,.96,.03,1.44,.06,.05,0,.09,0,.14,0,.36,.02,.72,.04,1.08,.06h0c-10.29,8.78-18.17,21.36-23.71,33.91-3.77,8.54-6.96,17.54-7.27,26.88-.31,9.33,2.58,19.12,9.41,25.49,1.56,1.46,3.24,2.68,5.03,3.71,19.88,11.51,51.88-1.39,68.56,15.75,1.66,1.71,3.08,3.69,4.05,5.86Z"/>
        <g class="cls-45">
          <g>
            <path class="cls-2" d="M117.97,310.54s5.33,16.36,24.83,23.19"/>
            <path class="cls-2" d="M144.82,312.45s4.8,12.16,17.72,17.74"/>
            <path class="cls-2" d="M172.44,310.12s1.03,8.6,3.29,16.61"/>
            <path class="cls-2" d="M193.43,306.17s2.29,9.93,0,15.96"/>
            <path class="cls-2" d="M224.31,300.7s-2.54,13.4-7.09,19.55"/>
            <path class="cls-2" d="M233.43,321.5s12.99-9.5,15.22-17.36"/>
            <path class="cls-2" d="M248.65,325.21s14.84-8.3,22.71-17.48"/>
          </g>
        </g>
        <path class="cls-23" d="M293.69,301.32h0c-13.4,17.48-57.48-6.07-82.54,.52-7.02,1.85-14.24,3.62-21.64,5.19-19.02,4.02-39.23,6.58-60.37,4.94-30.38-2.35-33.28-12.99-33.35-16.71,.02-.3,.04-.62,.07-.91,.02-.21,.04-.41,.06-.61,.03-.28,.06-.55,.1-.83,.03-.23,.06-.46,.1-.68,.02-.11,.03-.21,.05-.31,.03-.19,.06-.38,.1-.57,.03-.16,.06-.33,.1-.49,.06-.3,.12-.59,.2-.89,.08-.32,.15-.65,.24-.96,0-.04,.02-.07,.03-.11,.08-.3,.17-.61,.27-.9,.06-.21,.13-.43,.2-.63,.06-.2,.13-.39,.2-.58,.65-1.81,1.46-3.52,2.4-5.13,.11-.19,.22-.38,.34-.57,.09-.16,.19-.31,.28-.46,.13-.21,.26-.4,.39-.6,.09-.14,.18-.28,.28-.42,.14-.22,.3-.43,.45-.65,.55-.76,1.12-1.49,1.71-2.2,.17-.2,.33-.39,.51-.59,.18-.21,.37-.43,.56-.64,.08-.09,.17-.18,.25-.27,.55-.58,1.1-1.15,1.67-1.71,.05-.06,.11-.11,.17-.17,.41-.4,.84-.79,1.26-1.18,.54-.49,1.09-.96,1.66-1.42,.23-.19,.47-.39,.71-.58,.25-.2,.5-.4,.75-.59,.76-.59,1.53-1.16,2.3-1.7,.77-.56,1.56-1.09,2.34-1.59,.52-.35,1.05-.68,1.56-1,.27-.17,.52-.33,.79-.49,.52-.33,1.05-.65,1.56-.94,.52-.3,1.04-.61,1.56-.9,.26-.14,.51-.29,.77-.43,.52-.3,1.03-.58,1.53-.84,.25-.14,.5-.28,.74-.41,.49-.27,.99-.53,1.47-.79,.68-.36,1.33-.71,1.97-1.05,.33-.17,.65-.34,.96-.51,.31-.16,.62-.33,.93-.49,.92-.49,1.78-.96,2.59-1.41,.24-.13,.46-.26,.68-.38,.55-.32,1.06-.62,1.55-.92,.17-.11,.33-.21,.51-.33,2.4-1.58,5.55-4.24,9.27-7.44,.36-.31,.73-.62,1.1-.95,1.49-1.28,3.06-2.65,4.71-4.06,6.91-5.91,15.09-12.59,23.71-17.7,.43-.25,.87-.51,1.3-.75,.43-.25,.88-.5,1.32-.74,.43-.24,.86-.46,1.28-.68,.44-.24,.87-.46,1.31-.68,.44-.22,.87-.43,1.31-.65,.44-.21,.88-.41,1.32-.61,.44-.2,.88-.39,1.32-.58,.88-.37,1.77-.72,2.65-1.04,.89-.33,1.77-.62,2.66-.89,.43-.13,.86-.25,1.28-.36,.02,0,.03,0,.05-.02,.19-.05,.38-.1,.57-.15,.29-.08,.57-.14,.86-.21,.07-.02,.14-.03,.21-.05,.3-.07,.59-.14,.89-.19,.12-.03,.25-.05,.37-.08,.34-.07,.68-.13,1.02-.18,.33-.06,.67-.11,1-.15,.84-.11,1.67-.2,2.5-.25,1.56-.1,3.09-.14,4.61-.14,.55,0,1.09,0,1.63,.02,.15,0,.3,0,.44,0,.48,.02,.96,.03,1.44,.06,.05,0,.09,0,.14,0,.36,.02,.71,.04,1.07,.07,.21,0,.42,.02,.63,.04,.49,.04,.99,.08,1.48,.13,.09,0,.17,.02,.27,.02,.38,.04,.76,.08,1.13,.13,.3,.03,.58,.07,.87,.11,.52,.07,1.05,.14,1.56,.23,.49,.08,.99,.16,1.47,.25,.02,0,.04,0,.05,0,.23,.04,.45,.08,.67,.13,2.21,.42,4.37,.95,6.46,1.59,.46,.13,.91,.27,1.36,.42,.69,.23,1.38,.47,2.07,.71,.43,.16,.85,.32,1.28,.49,1.05,.41,2.09,.85,3.11,1.31,.43,.19,.86,.39,1.28,.59,.13,.06,.25,.12,.37,.18,.45,.22,.9,.44,1.34,.68,.31,.16,.62,.33,.93,.49,.27,.14,.55,.3,.82,.45,.37,.2,.74,.42,1.1,.63,.04,.02,.08,.05,.12,.08,.39,.23,.79,.46,1.18,.71,.05,.03,.11,.07,.17,.11,.39,.24,.77,.49,1.16,.74,.17,.11,.34,.22,.51,.34,.36,.24,.73,.49,1.09,.74,.31,.21,.62,.43,.91,.65,1.11,.8,2.19,1.63,3.24,2.48,.36,.29,.71,.58,1.06,.89,.23,.19,.45,.38,.66,.57,.03,.02,.06,.05,.08,.08,.23,.2,.46,.39,.68,.59,.34,.32,.69,.64,1.03,.96,.33,.31,.65,.62,.98,.94,.49,.47,.96,.95,1.44,1.44,.36,.37,.71,.74,1.06,1.13,.37,.4,.74,.8,1.11,1.22,.27,.31,.55,.62,.82,.94,.08,.11,.17,.21,.27,.31,.26,.3,.51,.6,.75,.91,.45,.55,.89,1.09,1.32,1.66,2.48,3.21,5,5.87,7.5,8.16,.3,.27,.6,.54,.9,.8,.05,.05,.11,.1,.17,.14,.95,.84,1.9,1.62,2.85,2.36,.25,.2,.51,.4,.77,.6,.05,.04,.11,.08,.17,.13,.54,.42,1.09,.82,1.63,1.22,.08,.05,.16,.11,.24,.17,.62,.45,1.23,.89,1.85,1.31,.29,.2,.57,.4,.86,.6,2.53,1.75,4.97,3.34,7.27,5,.47,.35,.94,.69,1.4,1.04,.27,.2,.54,.4,.8,.62,.27,.2,.52,.42,.78,.63,.26,.21,.52,.42,.77,.64,.25,.22,.5,.43,.75,.66,.49,.43,.96,.88,1.44,1.35,.08,.08,.17,.17,.26,.26,.67,.68,1.31,1.38,1.93,2.13,.17,.21,.36,.44,.53,.67,.27,.35,.54,.71,.8,1.08,.15,.2,.29,.41,.43,.62,.2,.3,.39,.59,.58,.9,0,0,0,.02,.02,.02,3.69,5.95,7.36,16.52,5.09,27.08Z"/>
        <g class="cls-47">
          <g>
            <path class="cls-11" d="M149.37,275.76c21.63,1.73,20.5,26.58-3.04,24.93-23.54-1.65-15.95-26.45,3.04-24.93Z"/>
            <path class="cls-11" d="M139.25,268.17c-6.12-.29-10.22-4.07-11.77-8.7,2.59-1.37,4.9-2.58,6.71-3.7,3.58-2.22,9.01-7.15,15.59-12.77,12.2,5.64,12.91,26.28-10.53,25.17Z"/>
            <path class="cls-11" d="M188.1,280.32c-31.05-1.69-19.47-44.05,6.97-37.46,26.44,6.58,22.17,39.05-6.97,37.46Z"/>
            <path class="cls-11" d="M200,228.43c-9.38,1.66-12.18-4.56-10.71-10.13,2.48-.68,4.96-1.11,7.41-1.26,4.04-.25,7.94-.17,11.7,.21,1.31,4.54-1.15,9.9-8.41,11.18Z"/>
            <path class="cls-11" d="M234.68,270.95c16.2,.25,22.01,20.32,0,21.26-17.72,.76-18.48-21.55,0-21.26Z"/>
            <path class="cls-11" d="M288.58,274.22c-3.71,9.1-14.59,14.92-26.87,5.32-9.88-7.72-7.51-21.5,.77-27.32,10.15,8.89,19.97,12.14,26.09,22Z"/>
            <path class="cls-11" d="M242.28,239.56c11.64,6.51,3.35,17.3-6.08,13.42-12.91-5.32-4.1-19.11,6.08-13.42Z"/>
          </g>
        </g>
        <path class="cls-34" d="M206.04,217.05h0c-10.29,8.78-18.17,21.36-23.71,33.91-3.77,8.54-6.96,17.54-7.27,26.88-.31,9.33,2.58,19.12,9.41,25.49,1.56,1.46,3.24,2.68,5.03,3.71-19.02,4.02-39.23,6.58-60.37,4.94-30.38-2.35-33.28-12.99-33.35-16.71,.02-.3,.04-.62,.07-.91,.02-.21,.04-.41,.06-.61,.03-.28,.06-.55,.1-.83,.03-.23,.06-.46,.1-.68,.02-.11,.03-.21,.05-.31,.03-.19,.06-.38,.1-.57,.03-.16,.06-.33,.1-.49,.06-.3,.12-.59,.2-.89,.08-.32,.15-.65,.24-.96,0-.04,.02-.07,.03-.11,.08-.3,.17-.61,.27-.9,.06-.21,.13-.43,.2-.63,.06-.2,.13-.39,.2-.58,.65-1.81,1.46-3.52,2.4-5.13,.11-.19,.22-.38,.34-.57,.09-.16,.19-.31,.28-.46,.13-.21,.26-.4,.39-.6,.09-.14,.18-.28,.28-.42,.14-.22,.3-.43,.45-.65,.55-.76,1.12-1.49,1.71-2.2,.17-.2,.33-.39,.51-.59,.18-.21,.37-.43,.56-.64,.08-.09,.17-.18,.25-.27,.55-.58,1.1-1.15,1.67-1.71,.05-.06,.11-.11,.17-.17,.41-.4,.84-.79,1.26-1.18,.54-.49,1.09-.96,1.66-1.42,.23-.19,.47-.39,.71-.58,.25-.2,.5-.4,.75-.59,.76-.59,1.53-1.16,2.3-1.7,.77-.56,1.56-1.09,2.34-1.59,.52-.35,1.05-.68,1.56-1,.27-.17,.52-.33,.79-.49,.52-.33,1.05-.65,1.56-.94,.52-.3,1.04-.61,1.56-.9,.26-.14,.51-.29,.77-.43,.52-.3,1.03-.58,1.53-.84,.25-.14,.5-.28,.74-.41,.49-.27,.99-.53,1.47-.79,.68-.36,1.33-.71,1.97-1.05,.33-.17,.65-.34,.96-.51,.31-.16,.62-.33,.93-.49,.92-.49,1.78-.96,2.59-1.41,.24-.13,.46-.26,.68-.38,.55-.32,1.06-.62,1.55-.92,.17-.11,.33-.21,.51-.33,2.4-1.58,5.55-4.24,9.27-7.44,.36-.31,.73-.62,1.1-.95,1.49-1.28,3.06-2.65,4.71-4.06,6.91-5.91,15.09-12.59,23.71-17.7,.43-.25,.87-.51,1.3-.75,.43-.25,.88-.5,1.32-.74,.43-.24,.86-.46,1.28-.68,.44-.24,.87-.46,1.31-.68,.44-.22,.87-.43,1.31-.65,.44-.21,.88-.41,1.32-.61,.44-.2,.88-.39,1.32-.58,.89-.38,1.77-.73,2.65-1.04,.89-.33,1.77-.62,2.66-.89,.43-.13,.86-.25,1.28-.36,.02,0,.03,0,.05-.02,.19-.05,.38-.1,.57-.15,.29-.08,.57-.14,.86-.21,.07-.02,.14-.03,.21-.05,.3-.07,.59-.14,.89-.19,.12-.03,.25-.05,.37-.08,.34-.07,.68-.13,1.02-.18,.33-.06,.67-.11,1-.15,.84-.11,1.67-.2,2.5-.25,1.56-.1,3.09-.14,4.61-.14,.55,0,1.09,0,1.63,.02,.15,0,.3,0,.44,0,.48,.02,.96,.03,1.44,.06,.05,0,.09,0,.14,0,.36,.02,.72,.04,1.08,.06Z"/>
      </g>
      <g>
        <g>
          <path class="cls-13" d="M239.99,425.12c-2.48,1.28-5.18,2.41-8.07,3.41-12.59,4.33-28.58,5.98-43.92,5.95-5.24,0-10.4-.2-15.33-.55-13.08-.93-24.48-2.95-31.16-5.26-18.23-6.33-41.27-56.71-7.34-94.93,0,0,10.38,1.77,31.14-4.06,19.5-5.47,46.83-14.74,80.51-5.55,3.9,1.07,7.22,3.61,9.26,7.05,.26,.42,.49,.84,.69,1.28,1.98,4.18,4.66,10.56,7.51,19.5,6.49,20.29,3.55,59.24-23.29,73.16Z"/>
          <path class="cls-35" d="M255.08,331.18c-18.64-7.41-39.32-8.63-58.3-1.51-4.99,1.87-9.93,4.36-13.4,8.4-4.2,4.87-5.81,11.38-7.24,17.66-3.7,16.25-7.05,32.72-7.15,49.39-.06,9.7,1.04,19.52,3.71,28.82-13.08-.93-24.48-2.95-31.16-5.26-18.23-6.33-41.27-56.71-7.34-94.93,0,0,10.38,1.77,31.14-4.06,19.5-5.47,46.83-14.74,80.51-5.55,3.9,1.07,7.22,3.61,9.26,7.05Z"/>
        </g>
        <g>
          <path class="cls-5" d="M150.3,384.34c.36-5.72,.9-13.98,1.42-20.7,.38-4.83-3.3-8.99-8.13-9.26-2.84-.16-6.26-.11-10.13,.38-3.48,.45-6.36,2.94-7.26,6.33-1.37,5.22-3.02,13.76-2.44,23.27,.26,4.21,3.53,7.65,7.73,8.04,2.94,.28,6.7,.38,11.07-.05,4.19-.42,7.47-3.82,7.73-8.02Z"/>
          <path class="cls-24" d="M138.52,354.33c11.9,.08,12.93,3.95,13.22,11.8,.3,7.86-.82,20.58-3.64,23.91-2.82,3.33-12.81,3.21-19.07,1.86-6.25-1.35-5.75-14.54-5.4-18.79,.35-4.25-.35-18.88,14.88-18.78Z"/>
          <path class="cls-27" d="M136.68,394.56c-1.81,0-3.61-.08-5.36-.25-5.16-.49-9.13-4.62-9.45-9.82-.58-9.66,1.04-18.31,2.5-23.87,1.09-4.15,4.57-7.18,8.85-7.73,3.53-.45,7.05-.59,10.47-.39,2.86,.16,5.48,1.43,7.36,3.58,1.87,2.14,2.78,4.88,2.56,7.72-.52,6.69-1.06,14.93-1.42,20.67h0c-.32,5.16-4.3,9.28-9.44,9.79-2.04,.2-4.07,.3-6.07,.3Zm3.96-38.35c-2.29,0-4.61,.15-6.94,.45-2.74,.35-4.97,2.29-5.66,4.93-1.39,5.29-2.94,13.52-2.38,22.68,.2,3.27,2.78,5.96,6.02,6.27,3.45,.33,7.06,.31,10.7-.05,3.29-.33,5.82-2.96,6.03-6.25,.36-5.75,.9-14.01,1.42-20.72,.14-1.81-.44-3.56-1.63-4.92-1.2-1.38-2.88-2.19-4.71-2.29-.94-.05-1.89-.08-2.84-.08Z"/>
          <g>
            <path class="cls-27" d="M134.55,393.99c-.01-1.24-.33-30.52,2.76-40.86l2.76,.82c-2.96,9.92-2.64,39.71-2.64,40.01l-2.88,.03Z"/>
            <path class="cls-27" d="M122.74,375.18l-.29-2.86c.17-.02,16.89-1.72,30.4-1.18l-.11,2.87c-13.31-.53-29.83,1.15-30,1.16Z"/>
          </g>
        </g>
        <g>
          <g>
            <path class="cls-27" d="M188.01,434.48s-10.71,.77-13-.4c-2.29-1.18-4.76-7.63-2.67-8.77,2.09-1.14,8.92-1.14,11.39-.76,2.47,.38,4.28,9.93,4.28,9.93Z"/>
            <path class="cls-27" d="M180.7,412.97s-10.67,1.52-13.12,0c-2.45-1.52-5.3-10.82-3.59-12.72,1.71-1.9,14.62,0,14.62,0,0,0,0,9.3,2.09,12.72Z"/>
            <path class="cls-27" d="M179.78,387.23s-11.05-3.12-13.32-5.21c-2.28-2.09,4.18-13.67,7.21-13.86,3.04-.19,11.39,7.21,11.39,7.21,0,0-3.73,6.24-5.28,11.85Z"/>
            <path class="cls-27" d="M193.23,365.12s-8.35-7.97-6.27-11.58c2.09-3.61,12.53-7.4,15.76-4.37,3.23,3.04,3.8,11.2,3.8,11.2,0,0-9.08,.46-13.29,4.75Z"/>
            <path class="cls-27" d="M220,362.65s1.9-10.82,3.99-11.2c2.09-.38,10.82,3.8,12.91,6.83s-5.54,11.28-5.54,11.28c0,0-7.28-5.78-11.36-6.91Z"/>
            <path class="cls-27" d="M237.26,382.59s4.7-3.49,6.09-4.9c1.39-1.4,2.85,1.7,2.85,5.86s0,5.87-3.04,7.58c-3.04,1.71-7.02,2.66-7.02,2.66l1.12-11.2Z"/>
            <path class="cls-27" d="M236.14,405.18s-.38,6.27-1.14,7.97c-.76,1.71,6.83-.19,8.35-2.47,1.52-2.28,2.81-8.6,.84-9.05-1.97-.45-8.05,3.54-8.05,3.54Z"/>
            <g>
              <path class="cls-19" d="M183.74,424.55s-8.35,.57-11.39,.76c-3.04,.19-6.08-9.49-4.18-11.2,1.9-1.71,11.2-1.52,12.53-1.14s4.94,9.68,3.04,11.58Z"/>
              <path class="cls-19" d="M178.61,400.25s-13.76-.38-15.14-1.9c-1.38-1.52-.81-11.2,2.61-14.05,3.42-2.85,14.62,3.42,14.62,3.42,0,0-2.25,8.72-2.09,12.53Z"/>
              <path class="cls-19" d="M185.07,375.37s-10.44-6.27-10.82-10.25c-.38-3.99,7.59-11.2,10.82-8.92,3.23,2.28,8.16,8.92,8.16,8.92,0,0-6.27,5.51-8.16,10.25Z"/>
              <path class="cls-19" d="M206.52,360.38s-4.56-12.34,0-13.1c4.56-.76,12.91,.57,15.19,3.61,2.28,3.04-1.71,11.77-1.71,11.77,0,0-9.08-2.9-13.48-2.28Z"/>
              <path class="cls-19" d="M230.44,369.57s4.71-6.91,6.82-8.62,5.33,2.43,7.04,8.62c1.71,6.19,.91,9.8-7.04,13.02,0,0-4.92-11.81-6.82-13.02Z"/>
              <path class="cls-19" d="M236.72,393.64s-.58,9.26-1.15,10.59,7.95-.76,9.48-3.61c1.53-2.85,1.81-10.63,.25-11.3-1.56-.66-8.58,4.31-8.58,4.31Z"/>
              <path class="cls-19" d="M234.94,413.64s-.9,5.21-1.47,7.49,5.89,.57,7.69-1.71c1.8-2.28,2.14-7,1.31-7.87s-7.53,2.09-7.53,2.09Z"/>
            </g>
            <path class="cls-27" d="M233.44,422.21l-2.68,6.71s6.97-1.77,8.36-3.36c1.39-1.58,3.37-5.38,.95-5.76-2.41-.38-6.62,2.4-6.62,2.4Z"/>
          </g>
          <path class="cls-22" d="M238.6,407.65c-.24,1.59-.52,3.12-.85,4.59-1.62,7.35-4.12,13.02-5.82,16.29-9.37,3.22-20.62,4.96-32.08,5.63-3.94,.23-7.91,.33-11.84,.33-2.02-2.83-5.87-8.89-8.45-17.21-.49-1.53-.92-3.14-1.29-4.83-1.46-6.6-1.95-14.3-.31-22.71,.32-1.67,.73-3.36,1.24-5.09,.31-1.09,.67-2.2,1.06-3.32,8.28-23.3,31.41-26.42,45.76-16.53,5.13,3.54,9.14,8.73,10.94,15.27,.05,.18,.1,.36,.14,.54,.43,1.63,.8,3.23,1.09,4.81,1.56,8.19,1.39,15.74,.4,22.24Z"/>
          <g class="cls-37">
            <g>
              <path class="cls-4" d="M196.57,362.22s.07,46.5,3.3,72.26"/>
              <path class="cls-4" d="M219.7,361.48s3.93,39.91,1.74,69.91"/>
            </g>
          </g>
          <g class="cls-38">
            <path class="cls-27" d="M238.19,385.41c-15.11,1-47.16,3.17-60.24,4.32,.32-1.67,.73-3.36,1.24-5.09,10.05-.69,40.86-2.83,57.91-4.04,.43,1.63,.8,3.23,1.09,4.81Z"/>
            <path class="cls-27" d="M238.6,407.65c-.24,1.59-.52,3.12-.85,4.59-7.17,.22-36.92,1.35-58.19,5.03-.49-1.53-.92-3.14-1.29-4.83,8.67-1.22,39.49-5.32,60.33-4.79Z"/>
          </g>
          <circle class="cls-26" cx="231.67" cy="399.96" r="2.37"/>
          <path class="cls-36" d="M226.01,364.79c-1.9-.54-3.86-.95-5.9-1.17-6.92-.75-14.38-.71-20.23,3.05-7.54,4.84-10.37,14.41-11.65,23.28-1.65,11.44-1.53,23.72,4.07,33.85,2.04,3.71,4.78,7.06,7.55,10.36-3.94,.23-7.91,.33-11.84,.33-2.02-2.83-5.87-8.89-8.45-17.21-.49-1.53-.92-3.14-1.29-4.83-1.46-6.6-1.95-14.3-.31-22.71,.32-1.67,.73-3.36,1.24-5.09,.31-1.09,.67-2.2,1.06-3.32,8.28-23.3,31.41-26.42,45.76-16.53Z"/>
        </g>
      </g>
    </g>
    <g>
      <g>
        <path class="cls-7" d="M30.87,565.6C3.84,532.97-8.36,481.38,6.21,430.18c7.65-26.84,33.31-38.89,56.24-34.12h0c2.55,.54,5.06,1.27,7.51,2.22,13.07,5.06,24.38,16.11,29.59,33.56,1.8,5.99,2.88,12.73,3.06,20.25,2.04,83.46-71.74,113.5-71.74,113.5Z"/>
        <g class="cls-40">
          <path class="cls-26" d="M30.87,565.6c0-14.45,.82-28.88,2.2-43.26,.64-7.2,1.55-14.37,2.48-21.53,.46-3.58,1.04-7.15,1.6-10.72,.54-3.57,1.15-7.14,1.76-10.7,1.3-7.11,2.68-14.21,4.24-21.27,1.6-7.05,3.26-14.09,5.2-21.06,1.88-6.98,3.99-13.9,6.27-20.76,2.35-6.84,4.79-13.65,7.81-20.23h0s0,0,0,0h0s.05-.1,.05-.1l-.03,.1h0s0,0,0,0h0c-1.98,6.95-3.79,13.91-5.47,20.91-1.73,6.98-3.31,13.99-4.86,21.01-1.48,7.03-3.05,14.04-4.36,21.1l-2.06,10.57c-.63,3.53-1.31,7.06-1.9,10.6-1.3,7.06-2.47,14.15-3.61,21.24-1.19,7.09-2.2,14.2-3.29,21.31-2.1,14.23-3.99,28.5-6.04,42.8Z"/>
        </g>
        <path class="cls-34" d="M30.87,565.6C3.84,532.97-8.36,481.38,6.21,430.18c7.65-26.84,33.31-38.89,56.24-34.12h0c2.55,.54,5.06,1.27,7.51,2.22-3.15,.82-6.25,1.68-9.26,2.7-12.61,4.2-23.61,10.85-29.6,26.18-8.37,19.35-5.69,41.9,1.43,61.74,.7,1.94,1.5,3.95,3.11,5.24,.99,.79,2.03,1.2,3.11,1.3,4.6,.43,9.68-4.74,12.6-9.31,10.14-15.87,22.09-30.57,35.55-43.74,3.88-3.79,8.1-7.54,12.66-10.55,1.8,5.99,2.88,12.73,3.06,20.25,2.04,83.46-71.74,113.5-71.74,113.5Z"/>
      </g>
      <g>
        <g>
          <path class="cls-15" d="M160.94,481.5c-15.05,21.81-37.72,46.03-59.37,67.14-31.86,31.04-61.53,55.35-61.53,55.35,0,0-12.39-67.4,38.23-139.07,21.3-30.18,45.91-41.55,64.49-40.6,5.27,.27,10.05,1.53,14.14,3.64,15.75,8.11,21.15,28.76,4.05,53.53Z"/>
          <g class="cls-40">
            <path class="cls-26" d="M157.57,426.94c-8.97,15.31-18.33,30.35-27.83,45.3-4.71,7.5-9.57,14.9-14.36,22.35l-14.58,22.2-14.79,22.06c-5.01,7.3-9.94,14.66-15.02,21.91-10.09,14.56-20.32,29.03-30.95,43.23,8.96-15.3,18.32-30.35,27.82-45.3,4.71-7.5,9.57-14.9,14.36-22.36l14.59-22.2,14.8-22.06c5.01-7.31,9.94-14.66,15.03-21.91,10.09-14.56,20.32-29.03,30.94-43.23Z"/>
          </g>
        </g>
        <path class="cls-30" d="M79.49,497.78c-2.48,9.68-4.23,19.91-1.93,29.64,.97,4.13,2.83,8.16,5.39,11.57,3.48,4.63,8.26,8.13,13.91,9.22,1.54,.3,3.11,.41,4.7,.43-31.86,31.04-61.53,55.35-61.53,55.35,0,0-12.39-67.4,38.23-139.07,21.3-30.18,45.91-41.55,64.49-40.6-15.03,3.61-27.92,10.48-41.52,26.04-10.69,13.87-17.39,30.46-21.74,47.42Z"/>
      </g>
      <g>
        <path class="cls-7" d="M237.67,450.22c-3.8,35.22-16.26,62.77-32.12,84.15-39.66,53.49-100.56,68.48-100.56,68.48,14.48-94.23,55.87-130.59,88.61-144.46,24.44-10.36,44.07-8.17,44.07-8.17Z"/>
        <g class="cls-40">
          <path class="cls-26" d="M237.67,450.21c-6.89,5.04-13.54,10.35-20.07,15.81-6.54,5.43-12.9,11.09-19.15,16.84-6.21,5.8-12.36,11.65-18.26,17.75-5.93,6.07-11.73,12.26-17.33,18.64-11.22,12.72-21.72,26.07-31.41,40.01-9.71,13.93-18.44,28.53-26.47,43.59,3.27-7.88,6.82-15.67,10.85-23.21,1.94-3.81,4.12-7.49,6.22-11.23,1.06-1.86,2.21-3.66,3.32-5.49,1.12-1.82,2.22-3.66,3.41-5.44l3.5-5.39c1.19-1.78,2.44-3.52,3.66-5.28l1.84-2.63,1.9-2.59,3.81-5.17c5.21-6.8,10.66-13.41,16.28-19.88,5.71-6.38,11.58-12.63,17.66-18.66,6.11-6,12.37-11.84,18.88-17.4,6.48-5.59,13.16-10.94,20.03-16.03,6.9-5.05,13.92-9.95,21.31-14.23Z"/>
        </g>
        <path class="cls-34" d="M205.55,534.37c-39.66,53.49-100.56,68.48-100.56,68.48,14.48-94.23,55.87-130.59,88.61-144.46-17.1,14.32-31.5,31.87-42.14,51.48-3,5.52-5.77,11.57-5.17,17.82,1.08,11.34,13.27,18.95,24.66,19.01,11.39,.06,21.97-5.43,31.97-10.9,.88-.48,1.76-.96,2.64-1.43Z"/>
      </g>
    </g>
    <g>
      <g>
        <g>
          <path class="cls-16" d="M766.76,515.23s-62.69-12.96-106.94-81.96c-.24-.38-.48-.75-.71-1.13-23.1-36.78-18.25-67.38-3.64-79.91,7.69-6.59,18.08-8.18,28.52-3.03,6.61,3.27,13.25,9.23,19.23,18.34,33.32,50.73,63.07,146.18,63.53,147.67,0,0,0,0,0,.02Z"/>
          <g class="cls-40">
            <path class="cls-26" d="M766.76,515.23s0,0-.01-.02h0c-10.12-13.12-19.87-26.48-29.5-39.94-4.85-6.71-9.56-13.5-14.34-20.26l-14.13-20.4c-9.35-13.65-18.5-27.42-27.52-41.3-9.02-13.87-17.91-27.83-26.44-42.04,10.07,13.15,19.76,26.56,29.33,40.06,4.82,6.72,9.5,13.54,14.25,20.31l14.08,20.43,13.92,20.53c4.57,6.89,9.21,13.74,13.72,20.67,9.08,13.83,18.03,27.75,26.62,41.92h0s0,.01,0,.02Z"/>
          </g>
        </g>
        <path class="cls-30" d="M766.76,515.23s-62.69-12.96-106.94-81.96c-.24-.38-.48-.75-.71-1.13,1.57,.31,3.13,.76,4.66,1.34,6.01,2.26,11.21,6.31,17.18,8.68,5.97,2.37,13.57,2.64,18.07-1.95,3.66-3.73,4.16-9.44,4.32-14.66,.03-.91,.05-1.81,.07-2.72,.36-15.51-.61-31.18-5.02-46.04-3.13-10.55-7.9-19.52-14.41-27.59,6.61,3.27,13.25,9.23,19.23,18.34,33.32,50.73,63.07,146.18,63.53,147.67,0,0,0,0,0,.02Z"/>
      </g>
      <g>
        <path class="cls-7" d="M749.38,505.99s-57,15.47-113.79-5.61c-22.3-8.26-44.56-22.17-63.34-44.86,0,0,28.48-18.66,71.3-12.7,29.89,4.15,66.77,20.31,105.84,63.18Z"/>
        <g class="cls-40">
          <path class="cls-26" d="M572.25,455.51c7.76-.17,15.53,.25,23.27,.82,7.74,.61,15.47,1.47,23.17,2.59,15.39,2.21,30.64,5.44,45.67,9.52,7.49,2.12,14.94,4.37,22.29,6.94,7.32,2.63,14.63,5.33,21.74,8.5,1.79,.76,3.57,1.54,5.33,2.37l5.29,2.46,5.21,2.62,2.6,1.31,2.57,1.38,5.11,2.8,5.02,2.95c3.37,1.93,6.58,4.14,9.84,6.22l-5.16-2.69-2.56-1.36-2.6-1.29-5.19-2.59-5.26-2.45-2.62-1.24-2.65-1.17-5.3-2.34c-3.59-1.44-7.1-3.03-10.72-4.38-14.36-5.65-29.03-10.49-43.92-14.57-7.43-2.09-14.93-3.9-22.46-5.61-7.52-1.73-15.1-3.22-22.7-4.61-7.61-1.35-15.24-2.58-22.91-3.61-7.66-1.05-15.36-1.94-23.09-2.56Z"/>
        </g>
        <path class="cls-34" d="M749.38,505.99s-57,15.47-113.79-5.61c4.86,.06,9.72,.05,14.49-.44,10.72-1.11,21.17-4.75,30.26-10.55,3.4-2.17,6.77-4.83,8.3-8.57,3.54-8.7-4.24-17.71-11.9-23.13-10.94-7.74-21.65-11.3-33.19-14.87,29.89,4.15,66.77,20.31,105.84,63.18Z"/>
      </g>
      <g>
        <path class="cls-21" d="M791.42,537.6s-56.74-33.69-60.06-118.91c-.04-1.22-.08-2.45-.11-3.7-.72-35.33,12.93-53.74,28.86-57.47,4.53-1.06,9.23-.93,13.84,.32,13.33,3.61,25.91,16.66,31.11,37.93,13.36,54.59,5.99,108.52-13.64,141.84Z"/>
        <g class="cls-41">
          <path class="cls-26" d="M760.08,357.41c2.7,7.16,4.93,14.48,7.07,21.83,2.11,7.35,4.03,14.76,5.81,22.2,.94,3.71,1.74,7.45,2.56,11.18,.84,3.73,1.59,7.48,2.36,11.23,.78,3.74,1.48,7.5,2.15,11.27,.67,3.76,1.38,7.52,2.02,11.29,2.45,15.1,4.61,30.24,6.15,45.46,.88,7.59,1.39,15.23,2.04,22.84,.5,7.63,.91,15.26,1.17,22.9-1.26-7.55-2.25-15.12-3.37-22.66l-1.67-11.32-.8-5.66-.86-5.65c-.59-3.77-1.16-7.53-1.69-11.31-.54-3.77-1.19-7.53-1.78-11.29-1.12-7.54-2.39-15.05-3.64-22.56-1.26-7.51-2.51-15.02-3.91-22.51-1.28-7.51-2.77-14.98-4.17-22.47l-2.22-11.21c-.74-3.74-1.5-7.47-2.3-11.2-1.54-7.47-3.19-14.91-4.94-22.36Z"/>
        </g>
        <path class="cls-34" d="M791.42,537.6s-56.74-33.69-60.06-118.91c4.41,3.37,8.17,8.43,9.95,13.02,5.82,15,11.28,29.44,19.86,43.05,3.58,5.7,8.62,11.96,14.22,8.22,1.65-1.1,2.7-2.9,3.66-4.65,1.59-2.94,3.04-5.95,4.33-9.01,9.14-21.41,11.48-45.55,7.42-68.43-2.35-13.22-6.84-26.09-13.41-37.82-.94-1.68-2.14-3.42-3.43-5.23,13.33,3.61,25.91,16.66,31.11,37.93,13.36,54.59,5.99,108.52-13.64,141.84Z"/>
      </g>
    </g>
  </g>
</svg>