<?xml version="1.0" encoding="utf-8"?>
<!-- Generator: Adobe Illustrator 27.0.0, SVG Export Plug-In . SVG Version: 6.00 Build 0)  -->
<svg version="1.1" id="Ebene_1" xmlns="http://www.w3.org/2000/svg" xmlns:xlink="http://www.w3.org/1999/xlink" x="0px" y="0px"
	 viewBox="0 0 500 500" style="enable-background:new 0 0 500 500;" xml:space="preserve">
<style type="text/css">
	.st0{fill:#FFFFFF;}
	.st1{fill:#804A3B;}
	.st2{fill:#FBB03B;}
	.st3{fill:#F7931E;}
	.st4{fill:#AA624F;}
	.st5{fill:#FFB278;}
	.st6{fill:#1A737D;}
	.st7{fill:#239BA9;}
	.st8{fill:#FF8080;}
	.st9{fill:#42210B;}
	.st10{fill:#FFE8D6;}
	.st11{fill:#FCDFC0;}
</style>
<g id="background">
	<rect class="st0" width="500" height="500"/>
</g>
<g id="objects">
	<g>
		<g>
			<g>
				<path class="st1" d="M230.7,257.7c0,0-4.8,41.8,11.6,36.8c0,0,9.1,4.1,5.5-35.2"/>
				<path class="st2" d="M246.4,295.2c1.2-2.2,2.2-4.6,2.8-7c0.4-1.5,1.3-3.5-0.4-4.3c-3.2-1.5-7.1,1.7-10.2,2.4
					c-2.6,0.6-6.2,0.6-8.2-1.4c-1.2,2,0.6,4.5,1.1,6.4c0,0,1.7,6.4,1.7,6.4S244.7,300.5,246.4,295.2z"/>
				<path class="st3" d="M243.1,292.6c7.7,1.4,4.5,9.9,4.5,9.9l0-1.1c0,0,0,1.1,0,1.1c-7,3-13.6,0.4-13.6,0.4
					C227,292.6,243.1,292.6,243.1,292.6z"/>
			</g>
			<g>
				<path class="st1" d="M269.8,257.7c0,0,4.8,41.8-11.6,36.8c0,0-9.1,4.1-5.5-35.2"/>
				<path class="st2" d="M254,295.2c-1.2-2.2-2.2-4.6-2.8-7c-0.4-1.5-1.3-3.5,0.4-4.3c3.2-1.5,7.1,1.7,10.2,2.4
					c2.6,0.6,6.2,0.6,8.2-1.4c1.2,2-0.6,4.5-1.1,6.4c0,0-1.7,6.4-1.7,6.4S255.8,300.5,254,295.2z"/>
				<path class="st3" d="M257.4,292.6c-7.7,1.4-4.5,9.9-4.5,9.9l0-1.1c0,0,0,1.1,0,1.1c7,3,13.6,0.4,13.6,0.4
					C273.5,292.6,257.4,292.6,257.4,292.6z"/>
			</g>
			<path class="st1" d="M237.7,256.4c6.8-11.1,6.5-31.5-5.1-35c-8.1-2.4-14.9,26.5-14.8,33.5c0,6.2,5.2,9.4,10.7,8.6
				C232.3,262.9,235.4,260.2,237.7,256.4z"/>
			<path class="st1" d="M260.1,256.4c-6.8-11.1-6.5-31.5,5.1-35c8.1-2.4,14.9,26.5,14.8,33.5c0,6.2-5.2,9.4-10.7,8.6
				C265.6,262.9,262.5,260.2,260.1,256.4z"/>
			<path class="st4" d="M228,226.7c0,0-12.3,41.8,17.1,45.8c29.4,4,35.3-23.5,21.4-57.8"/>
			<path class="st5" d="M235.6,224.4c-1.7,6-2.7,12.3-2.5,18.5c0.1,4.5,0.8,9.3,3.1,13.3c5,8.6,17.6,9,25,3.4
				c10.7-8.2,4.6-23.8-0.4-33.5"/>
			<path class="st6" d="M254.5,235.9c-0.5,2.6-0.7,5.3-0.6,8c0,2.6,0.3,5.2,0.9,7.7c0.2,1,0.5,3.8,1.3,4.5
				c2.8,2.4,12.3-1.2,13.2-4.3c1.5-5.2-3.9-13.6-7.3-17"/>
			<g>
				<path class="st3" d="M269.5,250.1c0-0.6,0-1.3-0.1-2c-3.2,1.8-10.4,3.5-14.5,4.3c0.2,0.9,0.4,2.1,0.7,2.9
					C261.1,254.5,266.4,251.9,269.5,250.1z"/>
				<path class="st3" d="M269,246.2c-0.2-0.7-0.5-1.5-0.8-2.3c-3.4,1.3-11.5,1-14.2,0.8c0.1,1.3,0.2,2.6,0.3,3.9
					C259.4,249.8,265.9,247.5,269,246.2z"/>
			</g>
			<path class="st7" d="M218.7,222.9c-1.3,3.6,1.2,10.1,2.1,12.6c1.2,3.4,8.5,3.7,11.6,4.3c4.7,1,9.4,1.7,14.2,2.1
				c9,0.8,18.5,0.5,27.1-2.7c1.4-0.5,3.9-1.4,4.6-2.8c0.7-1.5,0.6-3.7,0.9-5.3c0.5-2.1,1.9-4.9,0.3-6.9c-1.9-2.3-5.2-0.7-7.6-0.6
				c-3.6,0.1-7.4-0.7-11-0.8c-7.7-0.1-15.4,0.4-23.1,0.6c-3.2,0.1-6-0.2-9-1.2c-2-0.6-4.6-2.1-6.8-1.9
				C220.1,220.6,219.1,221.6,218.7,222.9z"/>
			<g>
				<path class="st3" d="M229.2,222.4c-0.1,0-0.3-0.1-0.4-0.1c-1.8-0.6-4-1.8-6-1.9l2.7,5.3c0,0-1.2,8.4,0.8,13.1
					c1.6,0.4,2.6,0.4,3.9,0.7c-0.5-3.4-2.4-9.6-1.7-14.7C228.6,223.6,228.9,222.9,229.2,222.4z"/>
				<path class="st3" d="M262.5,228c-0.7-2.2,0.2-4,1.5-4.9c-1-0.1-2.1-0.2-3.1-0.2c-6.9-0.1-13.9,0.3-20.8,0.5
					c1.6,1.3,3.5,4.4,3.5,6.3c0,1.8,0.6,8.1,1.4,12c0.5,0.1,1,0.1,1.6,0.2c0.4,0,0.9,0.1,1.3,0.1c0.4-3.3-0.6-7.8-0.1-12.1
					c0.7-5.6,4-3.2,4.5-1.2c0.3,1.4,0,9.2,0.4,13.5c0.9,0,1.8,0,2.7,0c1.2-3.4,1.9-9.3,0.4-14.1c-2-6.5,3-2.2,3.5-1.5
					c0.4,0.6,0,10.8,1.1,15.3c1-0.1,2-0.2,3-0.3C264.2,238.2,263.7,231.7,262.5,228z"/>
				<path class="st3" d="M267.6,223.4c0.2,0.4,0.4,0.9,0.4,1.6c0.2,3.6,0,12,0.8,15.7c1-0.2,2-0.5,2.9-0.8
					c1.6-3.9,2.5-10.9,1.3-14.6c-0.2-0.5-0.4-1.1-0.7-1.7c-0.2,0-0.3,0-0.5,0C270.5,223.7,269,223.6,267.6,223.4z"/>
				<path class="st3" d="M237.8,223.4c-1.7,0-3.3,0-5-0.2c1.4,1.5,2.7,3.5,2.7,3.5s-0.9,9.1,0.5,13.8c1.2,0.2,2.3,0.4,3.5,0.6
					C239.8,236.4,236.9,225.5,237.8,223.4z"/>
			</g>
			<g>
				<g>
					<g>
						<path class="st1" d="M232.5,155c0,8.7-15.6,15.2-24.4,15.2c-8.7,0-13.6-10-13.6-18.7c0-8.7,7.1-15.8,15.8-15.8
							C219.1,135.7,232.5,146.3,232.5,155z"/>
						<path class="st5" d="M222.2,153.4c0,5.3-7,10.4-12.4,10.4c-5.3,0-8.6-5.1-8.6-10.4c0-5.3,4.4-10.3,9.7-10.3
							C216.2,143,222.2,148,222.2,153.4z"/>
					</g>
					<g>
						<path class="st1" d="M269.6,159c0,8.7,15.6,15.2,24.4,15.2c8.7,0,13.6-10,13.6-18.7c0-8.7-7.1-15.8-15.8-15.8
							C283,139.7,269.6,150.3,269.6,159z"/>
						<path class="st5" d="M279.9,157.3c0,5.3,7,10.4,12.4,10.4c5.3,0,8.6-5.1,8.6-10.4c0-5.3-4.4-10.3-9.7-10.3
							S279.9,152,279.9,157.3z"/>
					</g>
					<path class="st4" d="M302.4,186.5c0,29.4-23.9,44.8-53.3,44.8c-29.4,0-53.3-15.5-53.3-44.8c0-29.4,23.9-40.9,53.3-40.9
						C278.5,145.6,302.4,157.1,302.4,186.5z"/>
					<path class="st5" d="M274.4,204.1c0,11.2-11.6,20.4-25.9,20.4c-14.3,0-25.9-9.1-25.9-20.4c0-11.2,9.8-15.6,24.1-15.6
						C260.9,188.4,274.4,192.8,274.4,204.1z"/>
					<path class="st8" d="M243.5,210.6c0,0,1.2,5.5,7.7,4c4.4-1,4.3-5.2,4.3-5.2l-5.7-2.7l-6.3,3.3"/>
					<path class="st9" d="M246.4,205.6c-1.4-1.2-4-4.2-3.3-6.4c0.8-2.4,4.7-1.9,5.5,0.2c0.6-2.7,5.1-2.8,5.6,0.2
						C254.6,202.2,250,208.7,246.4,205.6z"/>
					<g>
						<path class="st9" d="M247,204.6c0.5,2.3-0.9,3.9-3,4.5c-2.7,0.7-5-1.1-6-3.5c-0.7-1.7-3.5-1-2.8,0.8c1.5,3.9,4.9,6.2,9.1,5.6
							c4-0.6,6.2-4.4,5.4-8.1C249.4,202,246.6,202.8,247,204.6L247,204.6z"/>
					</g>
					<g>
						<path class="st9" d="M251.4,204.6c-0.5,2.3,0.9,3.9,3,4.5c2.7,0.7,5-1.1,6-3.5c0.7-1.7,3.5-1,2.8,0.8
							c-1.5,3.9-4.9,6.2-9.1,5.6c-4-0.6-6.2-4.4-5.4-8.1C249,202,251.8,202.8,251.4,204.6L251.4,204.6z"/>
					</g>
				</g>
				<path class="st9" d="M278.6,183.6c0,2.1-1.7,3.9-3.9,3.9c-2.1,0-3.9-1.7-3.9-3.9c0-2.1,1.7-3.9,3.9-3.9
					C276.9,179.7,278.6,181.4,278.6,183.6z"/>
				<path class="st9" d="M224.2,183.6c0,2.1-1.7,3.9-3.9,3.9s-3.9-1.7-3.9-3.9c0-2.1,1.7-3.9,3.9-3.9S224.2,181.4,224.2,183.6z"/>
			</g>
		</g>
		<path class="st10" d="M247.6,199.5c0.2,0.8-0.5,0.7-1.4,0.8c-0.9,0.2-1.5,0.6-1.7-0.2c-0.2-0.8,0.3-1.3,1.2-1.5
			C246.5,198.5,247.4,198.8,247.6,199.5z"/>
		<path class="st10" d="M252.6,201.2c0.5,0.4,0.3,1.3-0.3,2.1c-0.7,0.7-1.6,1-2,0.6c-0.5-0.4,0.5-0.6,1.2-1.3
			C252.1,201.8,252.1,200.8,252.6,201.2z"/>
		<path class="st10" d="M222.6,182.3c0,1-1,0-2.2,0c-1.2,0-2.2,1-2.2,0c0-1,1-1.5,2.2-1.5C221.6,180.8,222.6,181.3,222.6,182.3z"/>
		<path class="st10" d="M272.2,182.3c0,1,1,0,2.2,0c1.2,0,2.2,1,2.2,0c0-1-1-1.5-2.2-1.5C273.2,180.8,272.2,181.3,272.2,182.3z"/>
	</g>
	<path class="st11" d="M120.6,376.9c0,0.5-0.9,0-1.6,0c-0.8,0-1.2,0.4-1.2-0.1c0-0.5,0.7-0.9,1.5-0.8
		C120,375.9,120.6,376.4,120.6,376.9z"/>
</g>
</svg>
