<?xml version="1.0" encoding="utf-8"?>
<!-- Generator: Adobe Illustrator 27.0.0, SVG Export Plug-In . SVG Version: 6.00 Build 0)  -->
<svg version="1.1" id="Ñëîé_1" xmlns="http://www.w3.org/2000/svg" xmlns:xlink="http://www.w3.org/1999/xlink" x="0px" y="0px"
	 viewBox="0 0 3989 3000" style="enable-background:new 0 0 3989 3000;" xml:space="preserve">
<style type="text/css">
	.st0{fill:#683310;}
	.st1{opacity:0.33;fill:#385146;enable-background:new    ;}
	.st2{fill:#C19068;}
	.st3{fill:#F1F2F2;}
	.st4{fill:#934918;}
	.st5{fill:#773F15;}
	.st6{fill:#66300C;}
	.st7{fill:#231F20;}
	.st8{fill:#1E2629;}
	.st9{fill:#354044;}
	.st10{fill:#91150F;}
	.st11{fill:#77140A;}
	.st12{fill:#FA961E;}
	.st13{fill:#EF7D00;}
	.st14{fill:#DB6D00;}
	.st15{fill:#4E0A00;}
</style>
<g>
	<path class="st0" d="M1827.1,1972.1c-109.4,172-299.2,281-496.8,331.2s-404.5,47.3-608.1,36.9c-5.6-0.3-11.6-0.7-15.9-4.3
		c-4.8-4-6.1-10.7-6.5-16.9c-2-35.7,19.2-69.7,47.8-91.2c28.6-21.5,63.7-32.3,98.5-40.3c67.2-15.6,136.5-22.4,205.4-20.4
		c51.5,1.5,103.1,8,154.5,3.3c66.7-6.2,131.4-31.7,184.3-72.7c48.2-37.3,85.8-86.3,127.4-130.9c41.6-44.6,89.6-86.5,148.3-103
		s129.9-1.4,163.9,49.3L1827.1,1972.1z"/>
	<ellipse class="st1" cx="2021.8" cy="2385.5" rx="1352.7" ry="174"/>
	<path class="st2" d="M1352.7,2327.5c17-88.9,39.5-180.8,97.6-250.2c59.7-71.3,149.1-109.6,234.9-145.4
		c131.9-55,263.8-109.9,395.6-164.9c120.3-50.1,247.8-101.3,376.9-83.8c103.8,14.1,196.9,71.6,277.8,138.3
		c43.6,36,86.8,78.7,98.1,134c15,73.4-30.6,145.5-82.4,199.6c-144.2,150.7-356.4,233.6-564.6,220.7c-32.4-2-64.7-6.2-97.2-6.5
		c-39.5-0.3-78.7,5.1-118,8.7c-200.6,18.2-402.1-13.1-601.1-44.3L1352.7,2327.5z"/>
	<path class="st3" d="M1086.7,1463.7c76.1-116.5,217.5-168.3,348.3-216.1c133.5-48.8,267.9-102.2,379.6-190.1
		s199.3-216.1,207.1-358.1C2029.4,561,1955,421,1836,349.9c-56.5-33.8-120.8-52.4-185.4-65.1c-113.6-22.4-231.9-27.2-345-2.1
		c-102.6,22.8-199.6,70.4-280.4,137.5C972,464.6,925.2,518,895.8,580.7c-31,66.2-41.5,140.1-46.2,213c-6,94.7-2.3,192.3,32.8,280.4
		c52.1,130.8,170,233.7,194,372.4L1086.7,1463.7z"/>
	<path class="st4" d="M3159.7,2194.9c7.9-17.6,14.6-35.8,20.2-54.2c4-12.9,7.4-26,10.4-39.2c0.5-2.3,1-4.6,1.5-6.9
		c1.2-5.7,2.3-11.4,3.4-17.2c11.1-61.5,11.7-124.8,2.2-186.5c-0.5-3.5-1.1-6.9-1.7-10.4c-0.5-2.8-1-5.6-1.5-8.4
		c-1-5.3-2.1-10.7-3.3-16c-0.2-0.9-0.4-1.8-0.6-2.7c-8.2-36.3-19.9-71.9-35.2-105.8c-10.2-22.6-22-44.6-35.2-65.6
		c-0.4-0.6-0.7-1.1-1.1-1.7c-3.7-5.8-7.5-11.6-11.4-17.3c-3.8-5.5-7.7-10.9-11.6-16.3c-2.3-3.1-4.5-6.1-6.9-9.1
		c-5-6.5-10.2-12.9-15.5-19.2c-16.9-20.1-35.2-39-54.8-56.5c-0.4-0.3-0.7-0.6-1.1-1c-42-37.5-89.6-68.8-140.9-92.1l0,0l0,0
		c15.6-2.3,31.2-4.6,46.8-6.9c-107.5-76.7-237.5-121.4-369.3-127.6c-0.4,0-0.8,0-1.2-0.1c-6.2-0.3-12.5-0.5-18.7-0.6
		c-0.1,0-0.2,0-0.3,0c13.5-7.8,25.4-18.6,34.5-31.3c0.3-0.5,0.7-0.9,1-1.4c-18.4-2.3-36.8-4-55.3-5c-7-0.4-14.1-0.6-21.1-0.8
		c-7.5-0.2-14.9-0.3-22.4-0.2c-84.4,0.4-168.8,14.7-248.5,42.4l0,0l0,0c12.1-13,24.3-26.1,36.4-39.1
		c-106.4,27-203.6,77.5-294.3,139.7c-22,15.1-43.6,30.8-64.9,47.1c-5.3,4.1-10.6,8.2-15.9,12.3c-7.9,6.2-15.8,12.5-23.6,18.8
		c-47,38-92.4,78.1-136.7,118.4c-35.2,32-71.9,65.2-110.6,94.7c-8.8,6.7-17.7,13.2-26.7,19.5c-7.2,5-14.4,9.9-21.8,14.6
		c-60.5,38.8-125.6,65.3-197,63.8l-9.2,4.5l-32.8,16.1c0,0,0,0-0.1,0c-1.6,1-3.1,2-4.6,3c-0.5,0.3-1,0.7-1.5,1
		c-1,0.7-2.1,1.5-3.1,2.2c-0.6,0.4-1.1,0.8-1.6,1.2c-0.9,0.7-1.9,1.4-2.8,2.2c-0.5,0.4-1.1,0.8-1.6,1.3c-1,0.8-1.9,1.6-2.9,2.4
		c-0.4,0.4-0.9,0.7-1.3,1.1c-2.7,2.4-5.4,4.9-7.9,7.5c-0.4,0.4-0.8,0.8-1.1,1.2c-0.9,0.9-1.8,1.8-2.6,2.8c-0.4,0.5-0.8,0.9-1.3,1.4
		c-0.8,0.9-1.6,1.8-2.4,2.7c-0.4,0.5-0.8,0.9-1.2,1.4c-0.9,1-1.7,2-2.5,3.1c-0.3,0.4-0.6,0.7-0.9,1.1c-2.3,2.9-4.4,5.8-6.5,8.8
		c-0.2,0.3-0.5,0.7-0.7,1.1c-0.8,1.2-1.6,2.3-2.3,3.5c-0.3,0.4-0.6,0.9-0.8,1.3c-0.7,1.1-1.4,2.3-2.1,3.4c-0.3,0.4-0.5,0.9-0.8,1.3
		c-0.7,1.3-1.5,2.6-2.2,3.9c-0.2,0.3-0.3,0.6-0.5,0.8c-1.8,3.3-3.5,6.7-5,10.1c-0.1,0.2-0.2,0.5-0.3,0.7c-0.7,1.5-1.3,2.9-2,4.4
		c-0.2,0.4-0.3,0.7-0.4,1.1c-0.6,1.4-1.2,2.8-1.7,4.3c-0.1,0.3-0.3,0.6-0.4,1c-0.6,1.6-1.2,3.3-1.8,4.9c0,0.1-0.1,0.2-0.1,0.3
		c-1.3,3.7-2.5,7.4-3.6,11.2c0,0,0,0.1,0,0.1c-0.5,1.8-1,3.6-1.5,5.4c-0.1,0.2-0.1,0.4-0.2,0.6c-0.4,1.7-0.9,3.4-1.3,5.1
		c0,0.2-0.1,0.3-0.1,0.5c-1.8,7.7-3.1,15.5-4.1,23.4c0,0.1,0,0.1,0,0.2c-0.2,1.9-0.4,3.9-0.6,5.8c0,0,0,0.1,0,0.1
		c-0.8,8-1.1,16.2-1.1,24.3c8.7,2.2,17.6,4.1,26.5,5.7c73.4,13.5,148.8,9.6,223.2,5c123.3-7.5,295.8,183.2,407,129.4
		c118.1-57.1,189.8-354.4,315.7-391.1c77.1-22.4,137.2-24.3,215.3-5.6c128.2,30.7,254,105.2,308.2,225.3
		c50.4,111.7,29.9,246.7-32.5,352.2c-22.7,38.4-50.3,73.3-81.4,105c0,0,0,0,0,0c3.3,0,6.6-0.1,9.9-0.2c0.1,0,0.3,0,0.4,0
		c6.5-0.1,13-0.3,19.5-0.4c0.3,0,0.6,0,0.9,0c3.2-0.1,6.3-0.2,9.5-0.3c0.3,0,0.5,0,0.8,0c3.2-0.1,6.4-0.2,9.6-0.3c0,0,0,0,0.1,0
		c3.1-0.1,6.2-0.3,9.4-0.4c0.5,0,0.9,0,1.4-0.1c3.1-0.1,6.1-0.3,9.2-0.5c0.3,0,0.6,0,0.9-0.1c3-0.2,5.9-0.3,8.9-0.5
		c0.3,0,0.6,0,0.9-0.1c3-0.2,6-0.4,9-0.6c0.5,0,1.1-0.1,1.6-0.1c3-0.2,6-0.5,9-0.7c0.3,0,0.6,0,0.9-0.1c2.9-0.2,5.7-0.5,8.6-0.7
		c0.4,0,0.9-0.1,1.3-0.1c2.9-0.3,5.9-0.6,8.8-0.9c0.6-0.1,1.2-0.1,1.8-0.2c3-0.3,6-0.6,9-1c0.2,0,0.4,0,0.6-0.1
		c2.9-0.3,5.7-0.7,8.6-1.1c0.5-0.1,1.1-0.1,1.6-0.2c2.9-0.4,5.8-0.8,8.7-1.2c0.6-0.1,1.2-0.2,1.7-0.2c3-0.4,6-0.9,9-1.4
		c41.2-6.5,81.8-16.6,121.2-30.2c1.9-0.6,3.7-1.3,5.6-1.9c1.8-0.7,3.7-1.3,5.5-2c21.3-7.8,42.3-16.6,62.8-26.3
		c5.3-2.5,10.6-5.1,15.8-7.8c0.1,0,0.1-0.1,0.2-0.1c2.5-1.3,5-2.6,7.5-3.9c0.2-0.1,0.3-0.2,0.5-0.3c2.9-1.6,5.8-3.1,8.7-4.8
		c25.4-14.2,49.5-30.6,70.8-50.3c4.3-4,8.5-8.1,12.6-12.4c22.8-24,40.8-51.9,55.1-81.7c0-0.1,0.1-0.2,0.1-0.3
		C3157,2200.9,3158.4,2197.9,3159.7,2194.9z"/>
	<path class="st5" d="M1580.9,1752.4c-5.5,3.8-11.1,7.5-16.7,11.1c-60.5,38.8-125.6,65.3-197,63.8l-9.2,4.5l-32.8,16.1
		c0,0,0,0-0.1,0c-1.6,1-3.1,2-4.6,3c-0.5,0.3-1,0.7-1.5,1c-1,0.7-2.1,1.5-3.1,2.2c-0.6,0.4-1.1,0.8-1.6,1.2
		c-0.9,0.7-1.9,1.4-2.8,2.2c-0.5,0.4-1.1,0.8-1.6,1.3c-1,0.8-1.9,1.6-2.9,2.4c-0.4,0.4-0.9,0.7-1.3,1.1c-2.7,2.4-5.4,4.9-7.9,7.5
		c-0.4,0.4-0.8,0.8-1.1,1.2c-0.9,0.9-1.8,1.8-2.6,2.8c-0.4,0.5-0.8,0.9-1.3,1.4c-0.8,0.9-1.6,1.8-2.4,2.7c-0.4,0.5-0.8,0.9-1.2,1.4
		c-0.9,1-1.7,2-2.5,3.1c-0.3,0.4-0.6,0.7-0.9,1.1c-2.3,2.9-4.4,5.8-6.5,8.8c-0.2,0.3-0.5,0.7-0.7,1.1c-0.8,1.2-1.6,2.3-2.3,3.5
		c-0.3,0.4-0.6,0.9-0.8,1.3c-0.7,1.1-1.4,2.3-2.1,3.4c-0.3,0.4-0.5,0.9-0.8,1.3c-0.7,1.3-1.5,2.6-2.2,3.9c-0.2,0.3-0.3,0.6-0.5,0.8
		c-1.8,3.3-3.5,6.7-5,10.1c-0.1,0.2-0.2,0.5-0.3,0.7c-0.7,1.5-1.3,2.9-2,4.4c-0.2,0.4-0.3,0.7-0.4,1.1c-0.6,1.4-1.2,2.8-1.7,4.3
		c-0.1,0.3-0.3,0.6-0.4,1c-0.6,1.6-1.2,3.3-1.8,4.9c0,0.1-0.1,0.2-0.1,0.3c-1.3,3.7-2.5,7.4-3.6,11.2c0,0,0,0.1,0,0.1
		c-0.5,1.8-1,3.6-1.5,5.4c-0.1,0.2-0.1,0.4-0.2,0.6c-0.4,1.7-0.9,3.4-1.3,5.1c0,0.2-0.1,0.3-0.1,0.5c-1.8,7.7-3.1,15.5-4.1,23.4
		c0,0.1,0,0.1,0,0.2c-0.2,1.9-0.4,3.9-0.6,5.8c0,0,0,0.1,0,0.1c-0.8,8-1.1,16.2-1.1,24.3c8.7,2.2,17.6,4.1,26.5,5.7
		c73.4,13.5,148.8,9.5,223.2,5c46.9-2.8,100.8,22.9,155.8,53c0.5-4,1-8.1,1.4-12.1C1664.2,1955,1642.1,1841,1580.9,1752.4z"/>
	<path class="st4" d="M1270.3,1906.9c0.7-1.3,1.4-2.6,2.2-3.9C1271.8,1904.3,1271.1,1905.6,1270.3,1906.9z"/>
	<path class="st4" d="M1247.3,1980.7c1-7.9,2.3-15.7,4.1-23.4C1249.7,1965,1248.3,1972.8,1247.3,1980.7z"/>
	<path class="st4" d="M1251.5,1956.8c0.4-1.7,0.8-3.4,1.3-5.1C1252.4,1953.4,1251.9,1955.1,1251.5,1956.8z"/>
	<path class="st4" d="M1273.3,1901.7c0.7-1.2,1.4-2.3,2.1-3.4C1274.7,1899.4,1274,1900.5,1273.3,1901.7z"/>
	<path class="st4" d="M1264.8,1917.8c1.6-3.4,3.3-6.8,5-10.1C1268.1,1911,1266.4,1914.4,1264.8,1917.8z"/>
	<path class="st4" d="M1260.4,1928.2c0.6-1.4,1.1-2.8,1.7-4.3C1261.5,1925.3,1261,1926.8,1260.4,1928.2z"/>
	<path class="st4" d="M1254.5,1945.5c1.1-3.8,2.3-7.5,3.6-11.2C1256.8,1938,1255.6,1941.8,1254.5,1945.5z"/>
	<path class="st4" d="M1253,1951c0.5-1.8,1-3.6,1.5-5.4C1253.9,1947.4,1253.4,1949.2,1253,1951z"/>
	<path class="st4" d="M1258.2,1934.1c0.6-1.6,1.2-3.3,1.8-4.9C1259.4,1930.8,1258.8,1932.4,1258.2,1934.1z"/>
	<path class="st4" d="M1262.6,1922.9c0.6-1.5,1.3-2.9,2-4.4C1263.9,1919.9,1263.2,1921.4,1262.6,1922.9z"/>
	<path class="st4" d="M1311.5,1857.6c0.9-0.7,1.9-1.5,2.8-2.2C1313.3,1856.1,1312.4,1856.8,1311.5,1857.6z"/>
	<path class="st4" d="M1276.2,1896.9c0.8-1.2,1.5-2.4,2.3-3.5C1277.8,1894.6,1277,1895.7,1276.2,1896.9z"/>
	<path class="st4" d="M1297.8,1869.8c2.5-2.6,5.2-5.1,7.9-7.5C1303,1864.8,1300.3,1867.3,1297.8,1869.8z"/>
	<path class="st4" d="M1315.9,1854.1c1-0.7,2-1.5,3.1-2.2C1318,1852.7,1316.9,1853.4,1315.9,1854.1z"/>
	<path class="st4" d="M1307,1861.2c1-0.8,1.9-1.6,2.9-2.4C1308.9,1859.6,1308,1860.4,1307,1861.2z"/>
	<path class="st4" d="M1286.6,1882.4c0.8-1,1.7-2.1,2.5-3.1C1288.3,1880.3,1287.4,1881.4,1286.6,1882.4z"/>
	<path class="st4" d="M1279.2,1892.3c2.1-3,4.2-6,6.5-8.8C1283.5,1886.4,1281.3,1889.3,1279.2,1892.3z"/>
	<path class="st4" d="M1294,1873.8c0.9-0.9,1.8-1.9,2.6-2.8C1295.8,1871.9,1294.9,1872.9,1294,1873.8z"/>
	<path class="st4" d="M1290.3,1877.9c0.8-0.9,1.6-1.8,2.4-2.7C1291.9,1876.1,1291.1,1877,1290.3,1877.9z"/>
	<path class="st4" d="M3000.2,2357.5c-0.1,0-0.1,0.1-0.2,0.1C3000.1,2357.6,3000.2,2357.5,3000.2,2357.5z"/>
	<path class="st4" d="M2768.1,2428.9c-2.9,0.4-5.7,0.7-8.6,1.1C2762.4,2429.6,2765.3,2429.3,2768.1,2428.9z"/>
	<path class="st4" d="M2778.5,2427.5c-2.9,0.4-5.8,0.8-8.7,1.2C2772.7,2428.3,2775.6,2427.9,2778.5,2427.5z"/>
	<path class="st4" d="M2759,2430c-3,0.3-6,0.7-9,1C2753,2430.7,2756,2430.4,2759,2430z"/>
	<path class="st4" d="M2738.1,2432.2c-2.9,0.3-5.7,0.5-8.6,0.7C2732.4,2432.7,2735.2,2432.5,2738.1,2432.2z"/>
	<path class="st4" d="M1246.7,1986.8c0.2-2,0.4-3.9,0.6-5.8C1247.1,1982.9,1246.9,1984.8,1246.7,1986.8z"/>
	<path class="st4" d="M3087.7,2298.3c-21.2,19.7-45.4,36.1-70.8,50.3C3042.4,2334.3,3066.5,2317.9,3087.7,2298.3z"/>
	<path class="st4" d="M3008.3,2353.3c-0.2,0.1-0.3,0.2-0.5,0.3C3007.9,2353.5,3008.1,2353.4,3008.3,2353.3z"/>
	<path class="st4" d="M2921.5,2391.8c-1.8,0.7-3.7,1.3-5.5,2C2917.8,2393.1,2919.6,2392.4,2921.5,2391.8z"/>
	<path class="st4" d="M1320.5,1850.9c1.5-1,3-2,4.6-3C1323.5,1848.9,1322,1849.9,1320.5,1850.9z"/>
	<path class="st4" d="M2748.2,2431.2c-2.9,0.3-5.9,0.6-8.8,0.9C2742.4,2431.8,2745.3,2431.5,2748.2,2431.2z"/>
	<path class="st4" d="M2667.9,2436.4c-3.2,0.1-6.3,0.2-9.5,0.3C2661.6,2436.6,2664.8,2436.5,2667.9,2436.4z"/>
	<path class="st4" d="M2657.6,2436.7c-6.5,0.2-13,0.3-19.5,0.4C2644.6,2437,2651.1,2436.9,2657.6,2436.7z"/>
	<path class="st4" d="M2637.6,2437.1c-3.3,0.1-6.6,0.1-9.9,0.2C2631,2437.2,2634.3,2437.2,2637.6,2437.1z"/>
	<path class="st4" d="M2678.3,2436c-3.2,0.1-6.4,0.2-9.6,0.3C2671.9,2436.2,2675.1,2436.1,2678.3,2436z"/>
	<path class="st4" d="M2718,2433.8c-3,0.2-6,0.4-9,0.6C2712,2434.3,2715,2434,2718,2433.8z"/>
	<path class="st4" d="M2708.1,2434.5c-3,0.2-5.9,0.4-8.9,0.5C2702.2,2434.9,2705.1,2434.7,2708.1,2434.5z"/>
	<path class="st4" d="M2728.7,2433c-3,0.2-6,0.5-9,0.7C2722.6,2433.5,2725.7,2433.3,2728.7,2433z"/>
	<path class="st4" d="M2698.3,2435.1c-3.1,0.2-6.1,0.3-9.2,0.5C2692.2,2435.4,2695.2,2435.2,2698.3,2435.1z"/>
	<path class="st4" d="M2687.7,2435.6c-3.1,0.1-6.2,0.3-9.4,0.4C2681.5,2435.9,2684.6,2435.7,2687.7,2435.6z"/>
	<path class="st4" d="M3089,1637.5c2.3,3,4.6,6,6.9,9.1C3093.6,1643.6,3091.3,1640.5,3089,1637.5z"/>
	<path class="st4" d="M2222.2,1337.4L2222.2,1337.4c12.1-13,24.3-26.1,36.4-39.1c-106.4,27-203.6,77.5-294.3,139.7
		c90.7-62.2,187.9-112.6,294.3-139.7C2246.5,1311.3,2234.3,1324.4,2222.2,1337.4z"/>
	<path class="st4" d="M2568.5,1302.4c0.3-0.5,0.7-0.9,1-1.4c-18.4-2.3-36.8-4-55.3-5c18.5,1,37,2.6,55.3,5
		C2569.2,1301.5,2568.8,1301.9,2568.5,1302.4z"/>
	<path class="st4" d="M3107.5,1662.9c3.9,5.7,7.7,11.4,11.4,17.3C3115.2,1674.4,3111.4,1668.6,3107.5,1662.9z"/>
	<path class="st4" d="M2923.5,1461.9c-107.5-76.7-237.5-121.4-369.3-127.6C2686.1,1340.5,2816,1385.3,2923.5,1461.9L2923.5,1461.9z"
		/>
	<path class="st4" d="M1564.2,1763.4c-60.5,38.8-125.6,65.3-197,63.8l-9.2,4.5l9.2-4.5C1438.6,1828.7,1503.7,1802.2,1564.2,1763.4z"
		/>
	<path class="st4" d="M3191,1856c1.2,5.3,2.2,10.6,3.3,16C3193.3,1866.7,3192.2,1861.4,3191,1856z"/>
	<path class="st4" d="M3159.7,2194.9c7.9-17.6,14.6-35.8,20.2-54.2c4-12.9,7.4-26,10.4-39.2c-3,13.2-6.5,26.3-10.4,39.2
		C3174.3,2159,3167.7,2177.3,3159.7,2194.9z"/>
	<path class="st4" d="M3190.4,1853.3c-8.2-36.3-19.9-71.9-35.2-105.8c-10.2-22.6-22-44.6-35.2-65.6c13.2,21,25,42.9,35.2,65.6
		C3170.5,1781.5,3182.3,1817,3190.4,1853.3z"/>
	<path class="st4" d="M3195.3,2077.4c-1,5.7-2.2,11.5-3.4,17.2C3193.1,2088.8,3194.3,2083.1,3195.3,2077.4z"/>
	<path class="st4" d="M3017.7,1560.8c-42-37.5-89.6-68.8-140.9-92.1l0,0C2928.1,1492,2975.7,1523.3,3017.7,1560.8z"/>
	<path class="st4" d="M3073.5,1618.3c-16.9-20.1-35.2-39-54.8-56.5C3038.3,1579.4,3056.6,1598.3,3073.5,1618.3z"/>
	<path class="st4" d="M3195.8,1880.4c0.6,3.5,1.2,6.9,1.7,10.4C3197,1887.4,3196.4,1883.9,3195.8,1880.4z"/>
	<path class="st4" d="M1564.2,1763.4c7.3-4.7,14.6-9.6,21.8-14.6C1578.8,1753.9,1571.5,1758.7,1564.2,1763.4z"/>
	<path class="st4" d="M1899.4,1485.1c21.3-16.3,42.9-32.1,64.9-47.1C1942.3,1453,1920.7,1468.8,1899.4,1485.1z"/>
	<path class="st4" d="M2470.7,1295c7.5,0,14.9,0,22.4,0.2C2485.6,1295,2478.1,1294.9,2470.7,1295z"/>
	<path class="st4" d="M2534.3,1333.7c6.2,0.1,12.5,0.3,18.7,0.6C2546.8,1334,2540.6,1333.8,2534.3,1333.7z"/>
	<path class="st4" d="M2780.2,2427.3c3-0.4,6-0.9,9-1.4c41.2-6.5,81.8-16.6,121.2-30.2c-39.4,13.6-80,23.8-121.2,30.2
		C2786.2,2426.4,2783.2,2426.8,2780.2,2427.3z"/>
	<path class="st4" d="M3155.4,2204.2c0-0.1,0.1-0.2,0.1-0.3C3155.5,2204,3155.5,2204.1,3155.4,2204.2z"/>
	<path class="st4" d="M3195.3,2077.4c11.1-61.5,11.7-124.8,2.2-186.5C3207,1952.6,3206.4,2015.9,3195.3,2077.4z"/>
	<path class="st4" d="M2876.8,1468.8c15.6-2.3,31.2-4.6,46.8-6.9l0,0C2908,1464.2,2892.4,1466.5,2876.8,1468.8L2876.8,1468.8z"/>
	<path class="st4" d="M3087.7,2298.3c4.3-4,8.5-8.1,12.6-12.4c22.8-24,40.8-51.9,55.1-81.7c-14.3,29.9-32.4,57.8-55.1,81.7
		C3096.2,2290.1,3092,2294.3,3087.7,2298.3z"/>
	<path class="st4" d="M2689.1,2435.5c-0.5,0-0.9,0-1.4,0.1C2688.2,2435.6,2688.7,2435.6,2689.1,2435.5z"/>
	<path class="st4" d="M2534,1333.7c0.1,0,0.2,0,0.3,0C2534.2,1333.7,2534.1,1333.7,2534,1333.7c13.5-7.8,25.4-18.6,34.5-31.3
		C2559.4,1315.1,2547.6,1325.9,2534,1333.7z"/>
	<path class="st4" d="M2769.8,2428.7c-0.5,0.1-1.1,0.1-1.6,0.2C2768.7,2428.8,2769.2,2428.8,2769.8,2428.7z"/>
	<path class="st4" d="M3007.7,2353.6c-2.5,1.3-5,2.6-7.5,3.9C3002.8,2356.2,3005.3,2354.9,3007.7,2353.6z"/>
	<path class="st4" d="M2678.4,2436C2678.4,2436,2678.3,2436,2678.4,2436C2678.3,2436,2678.4,2436,2678.4,2436z"/>
	<path class="st4" d="M2658.5,2436.7c-0.3,0-0.6,0-0.9,0C2657.9,2436.7,2658.2,2436.7,2658.5,2436.7z"/>
	<path class="st4" d="M3017,2348.5c-2.9,1.6-5.8,3.2-8.7,4.8C3011.2,2351.7,3014.1,2350.1,3017,2348.5z"/>
	<path class="st4" d="M2638.1,2437.1c-0.1,0-0.3,0-0.4,0C2637.8,2437.1,2637.9,2437.1,2638.1,2437.1z"/>
	<path class="st4" d="M2668.7,2436.3c-0.3,0-0.5,0-0.8,0C2668.2,2436.4,2668.5,2436.4,2668.7,2436.3z"/>
	<path class="st4" d="M2750,2431c-0.6,0.1-1.2,0.1-1.8,0.2C2748.8,2431.1,2749.4,2431.1,2750,2431z"/>
	<path class="st4" d="M2729.5,2432.9c-0.3,0-0.6,0.1-0.9,0.1C2729,2433,2729.2,2433,2729.5,2432.9z"/>
	<path class="st4" d="M1859.9,1516.2c-47,38-92.4,78.1-136.7,118.4c-35.2,32-71.9,65.2-110.6,94.7c38.6-29.6,75.4-62.7,110.6-94.7
		C1767.5,1594.3,1812.9,1554.2,1859.9,1516.2z"/>
	<path class="st4" d="M2739.4,2432.1c-0.4,0-0.9,0.1-1.3,0.1C2738.5,2432.2,2739,2432.1,2739.4,2432.1z"/>
	<path class="st4" d="M2759.6,2430c-0.2,0-0.4,0-0.6,0.1C2759.2,2430,2759.4,2430,2759.6,2430z"/>
	<path class="st4" d="M1358,1831.7l-32.8,16.1c0,0,0,0-0.1,0c0,0,0,0,0.1,0L1358,1831.7z"/>
	<path class="st4" d="M2699.2,2435c-0.3,0-0.6,0-0.9,0.1C2698.6,2435.1,2698.9,2435,2699.2,2435z"/>
	<path class="st4" d="M2709,2434.4c-0.3,0-0.6,0-0.9,0.1C2708.4,2434.5,2708.7,2434.5,2709,2434.4z"/>
	<path class="st4" d="M2921.5,2391.8c21.3-7.8,42.3-16.6,62.8-26.3c5.3-2.5,10.6-5.1,15.8-7.8c-5.2,2.7-10.5,5.3-15.8,7.8
		C2963.8,2375.2,2942.8,2384,2921.5,2391.8z"/>
	<path class="st4" d="M2719.6,2433.7c-0.5,0-1.1,0.1-1.6,0.1C2718.5,2433.8,2719.1,2433.8,2719.6,2433.7z"/>
	<path class="st4" d="M2470.7,1295c-84.4,0.4-168.8,14.7-248.5,42.4l0,0C2301.9,1309.6,2386.3,1295.3,2470.7,1295z"/>
	<path class="st4" d="M2915.9,2393.7c-1.9,0.7-3.7,1.3-5.6,1.9C2912.2,2395.1,2914.1,2394.4,2915.9,2393.7z"/>
	<path class="st4" d="M2780.2,2427.3c-0.6,0.1-1.2,0.2-1.7,0.2C2779,2427.4,2779.6,2427.4,2780.2,2427.3z"/>
	<path class="st4" d="M3017.7,1560.8c0.4,0.3,0.7,0.6,1.1,1C3018.4,1561.5,3018,1561.2,3017.7,1560.8z"/>
	<path class="st4" d="M1292.7,1875.2c0.4-0.5,0.8-0.9,1.3-1.4C1293.6,1874.3,1293.2,1874.7,1292.7,1875.2z"/>
	<path class="st4" d="M1285.7,1883.5c0.3-0.4,0.6-0.7,0.9-1.1C1286.3,1882.8,1286,1883.1,1285.7,1883.5z"/>
	<path class="st4" d="M2553,1334.3c0.4,0,0.8,0,1.2,0.1C2553.8,1334.3,2553.4,1334.3,2553,1334.3z"/>
	<path class="st4" d="M1289.1,1879.3c0.4-0.5,0.8-0.9,1.2-1.4C1289.9,1878.4,1289.5,1878.9,1289.1,1879.3z"/>
	<path class="st4" d="M1275.4,1898.2c0.3-0.4,0.6-0.9,0.8-1.3C1276,1897.4,1275.7,1897.8,1275.4,1898.2z"/>
	<path class="st4" d="M3095.9,1646.6c4,5.4,7.8,10.8,11.6,16.3C3103.7,1657.4,3099.8,1652,3095.9,1646.6z"/>
	<path class="st4" d="M3073.5,1618.3c5.3,6.3,10.5,12.7,15.5,19.2C3084,1631,3078.8,1624.6,3073.5,1618.3z"/>
	<path class="st4" d="M1278.5,1893.4c0.2-0.4,0.5-0.7,0.7-1.1C1279,1892.7,1278.8,1893,1278.5,1893.4z"/>
	<path class="st4" d="M1859.9,1516.2c7.8-6.3,15.7-12.6,23.6-18.8C1875.6,1503.6,1867.7,1509.9,1859.9,1516.2z"/>
	<path class="st4" d="M1319,1851.9c0.5-0.3,1-0.7,1.5-1C1320,1851.2,1319.5,1851.6,1319,1851.9z"/>
	<path class="st4" d="M1314.3,1855.4c0.5-0.4,1.1-0.8,1.6-1.2C1315.4,1854.5,1314.8,1855,1314.3,1855.4z"/>
	<path class="st4" d="M1309.9,1858.8c0.5-0.4,1.1-0.8,1.6-1.3C1310.9,1858,1310.4,1858.4,1309.9,1858.8z"/>
	<path class="st4" d="M2493,1295.2c7.1,0.2,14.1,0.5,21.1,0.8C2507.1,1295.7,2500.1,1295.4,2493,1295.2z"/>
	<path class="st4" d="M1296.6,1871c0.4-0.4,0.7-0.8,1.1-1.2C1297.4,1870.2,1297,1870.6,1296.6,1871z"/>
	<path class="st4" d="M1305.7,1862.4c0.4-0.4,0.9-0.7,1.3-1.1C1306.6,1861.6,1306.1,1862,1305.7,1862.4z"/>
	<path class="st4" d="M1254.5,1945.6c0,0,0-0.1,0-0.1C1254.5,1945.6,1254.5,1945.6,1254.5,1945.6z"/>
	<path class="st4" d="M1251.4,1957.3c0-0.2,0.1-0.3,0.1-0.5C1251.5,1957,1251.5,1957.1,1251.4,1957.3z"/>
	<path class="st4" d="M1252.8,1951.7c0.1-0.2,0.1-0.4,0.2-0.6C1252.9,1951.2,1252.9,1951.5,1252.8,1951.7z"/>
	<path class="st4" d="M3191.9,2094.5c-0.5,2.3-1,4.6-1.5,6.9C3190.9,2099.1,3191.4,2096.8,3191.9,2094.5z"/>
	<path class="st4" d="M2627.7,2437.3C2627.7,2437.3,2627.7,2437.3,2627.7,2437.3C2627.7,2437.3,2627.7,2437.3,2627.7,2437.3
		L2627.7,2437.3z"/>
	<path class="st4" d="M3159.7,2194.9c-1.4,3-2.8,6-4.2,9C3157,2200.9,3158.4,2197.9,3159.7,2194.9z"/>
	<path class="st4" d="M1258.1,1934.4c0-0.1,0.1-0.2,0.1-0.3C1258.2,1934.2,1258.1,1934.3,1258.1,1934.4z"/>
	<path class="st4" d="M1246.7,1986.9c0,0,0-0.1,0-0.1C1246.7,1986.8,1246.7,1986.8,1246.7,1986.9z"/>
	<path class="st4" d="M1247.3,1980.9c0-0.1,0-0.1,0-0.2C1247.3,1980.8,1247.3,1980.8,1247.3,1980.9z"/>
	<path class="st4" d="M1272.5,1903c0.3-0.4,0.5-0.9,0.8-1.3C1273.1,1902.1,1272.8,1902.5,1272.5,1903z"/>
	<path class="st4" d="M3118.9,1680.2c0.4,0.6,0.7,1.1,1.1,1.7C3119.6,1681.3,3119.2,1680.8,3118.9,1680.2z"/>
	<path class="st4" d="M1269.9,1907.7c0.2-0.3,0.3-0.6,0.5-0.8C1270.2,1907.2,1270,1907.4,1269.9,1907.7z"/>
	<path class="st4" d="M1264.5,1918.5c0.1-0.2,0.2-0.5,0.3-0.7C1264.7,1918,1264.6,1918.2,1264.5,1918.5z"/>
	<path class="st4" d="M3190.4,1853.3c0.2,0.9,0.4,1.8,0.6,2.7C3190.8,1855.1,3190.6,1854.2,3190.4,1853.3z"/>
	<path class="st4" d="M1262.1,1923.9c0.1-0.4,0.3-0.7,0.4-1.1C1262.4,1923.2,1262.3,1923.6,1262.1,1923.9z"/>
	<path class="st4" d="M3194.3,1872c0.5,2.8,1,5.6,1.5,8.4C3195.3,1877.6,3194.8,1874.8,3194.3,1872z"/>
	<path class="st4" d="M1260,1929.2c0.1-0.3,0.3-0.6,0.4-1C1260.3,1928.5,1260.1,1928.8,1260,1929.2z"/>
	<path class="st5" d="M3157.1,1927.7c21.7-24.9,45.8-50.7,77.9-58.7c41.3-10.3,86.3,14.1,107.2,51.1c20.9,37,20.2,83.5,6.1,123.6
		c-26.8,75.8-99.6,130.6-178.5,146c-24.5,4.8-50.8,6.1-73.8-3.7c-41.9-17.9-61.8-70.4-51.4-114.7c10.3-44.3,45.1-79.8,85.1-101.6
		L3157.1,1927.7z"/>
	<g>
		<path class="st5" d="M1305.8,1731c13.2-38.4,23.3-77.9,30.4-117.9c5.3-30,7.7-64.4-12.5-87.2c-18.3-20.7-48.9-24.5-76.6-24.1
			c-30.9,0.5-61.7,4.6-91.6,12.1c-13.6,3.4-27.7,7.9-37.4,18.1c-16.3,17.1-15,43.9-11.4,67.2c4.1,26.6,9.9,52.9,17.3,78.7
			c5.7,19.7,13,40.2,28.6,53.6c24.6,21,61,17.7,93,13.2c12.5-1.7,25-3.5,37.5-5.2L1305.8,1731z"/>
		<path class="st2" d="M1258.9,1758.9c6.6-21.7,11.6-43.9,14.8-66.3c4.1-28.4,2.6-63.2-22-78.1c-12.6-7.6-28.3-7.7-43-7.6
			c-8.5,0.1-17.7,0.4-24.5,5.5c-11.4,8.5-10.8,25.3-9.2,39.4c1.2,10.5,2.5,21,3.7,31.5c2.2,18.6,4.7,38,15.5,53.2
			c10.8,15.2,32.9,24.2,48.8,14.4L1258.9,1758.9z"/>
	</g>
	<g>
		<path class="st5" d="M915.4,2103.1c-35.1,20.5-71.7,38.3-109.5,53.2c-28.3,11.1-61.6,20.3-88,5.1c-24-13.8-33.8-43.1-38.8-70.3
			c-5.6-30.3-7.8-61.3-6.4-92.2c0.6-14,2.3-28.7,10.3-40.3c13.5-19.3,40.1-23.4,63.6-24.5c26.9-1.3,53.8-0.8,80.6,1.3
			c20.5,1.6,42,4.7,58.2,17.4c25.4,19.9,29.4,56.2,31.4,88.5c0.8,12.6,1.6,25.2,2.3,37.7L915.4,2103.1z"/>
		<path class="st2" d="M933.4,2051.6c-19.9,10.8-40.7,20-62,27.7c-27,9.7-61.5,15.1-80.9-6c-10-10.9-13.2-26.2-16-40.7
			c-1.6-8.4-3.1-17.4,0.5-25.1c6-12.8,22.7-15.7,36.8-16.8c10.5-0.9,21-1.8,31.6-2.6c18.6-1.6,38.2-3,55.2,4.6s30.3,27.4,23.8,45
			L933.4,2051.6z"/>
	</g>
	<path class="st4" d="M1175.3,1741.7c-85.6,0-163.9,28.4-224.7,75.4c-47.9,55.3-76.6,125.4-76.6,201.7
		c0,178.3,156.6,322.9,349.8,322.9c85.6,0,163.9-28.4,224.7-75.4c47.9-55.3,76.6-125.4,76.6-201.7
		C1525.1,1886.2,1368.5,1741.7,1175.3,1741.7z"/>
	<g>
		<path class="st4" d="M2296.7,2225.6c42.9-20.1,86.1-40.4,124-68.7c44.2-33.1,79.8-76,118.2-115.8c42-43.5,87.6-83.4,136.3-119.3
			c65.7-48.4,138.6-90,218.7-105.9s168.6-3.2,232.6,47.6c78.6,62.3,107.7,175.2,82.6,272.3c-25,97.2-97.7,177.7-185.2,226.9
			c-39.3,22.1-81.8,38.5-125.7,48.7c-64,14.8-130.3,16.1-196,16.7c-153.8,1.3-307.5-1.3-461.2-6c-28.1-0.9-56.9-2-82.6-13.3
			c-25.7-11.4-47.7-35.5-48-63.6c-0.3-29.4,22.8-54.2,48.6-68.3c25.8-14.1,55-20.5,81.5-33.2L2296.7,2225.6z"/>
		<path class="st5" d="M2259,2303.9c40.7-39.7,95.1-61.1,146.2-85.9c91.7-44.5,176.8-102.6,251.7-171.7
			c44.3-40.9,85.2-85.8,134.2-120.9c91.1-65.2,208.7-91.1,319.2-73.5c-62.2-41-142.9-50.5-216.5-35.9
			c-80.1,15.8-153,57.4-218.7,105.9c-48.7,35.9-94.3,75.8-136.3,119.3c-38.3,39.7-74,82.7-118.2,115.8
			c-37.9,28.4-81.2,48.6-124,68.7l-56.2,18c-26.5,12.7-55.7,19.2-81.5,33.2c-25.8,14.1-48.9,38.9-48.6,68.3
			c0.3,28.1,22.3,52.2,48,63.6c13.2,5.8,27.2,8.9,41.5,10.7C2207.3,2376,2227.4,2334.8,2259,2303.9z"/>
	</g>
	<g>
		<path class="st5" d="M2424.4,2287.4c10.1-5.9,20.1-11.9,29.1-19.3c15.7-13,28.4-32.1,26.7-52.4c-1.6-20.3-22.6-39-42-32.6
			c18-20.6,18.3-54.4,0.7-75.3c-17.6-20.9-51-26.3-74.4-12c0.1-20.7-13.7-40.7-33.1-48c-19.3-7.3-42.9-1.4-56.6,14.1
			c-4.1-16.2-19.6-26.2-36.3-28.4c-10.5,9.6-18.3,22-21.3,36c-8.9,42.5,21.2,91.6-3.1,127.6c-17.2,25.4-53.9,30.4-73.6,53.9
			c-17.8,21.3-16.8,54-3.3,78.3c13.5,24.3,37.2,41.3,61.9,53.9c49.9,25.3,113,34.3,160.2,4.3c15.5-9.9,28.6-23.5,44.9-32.1
			c5.1-2.7,10.5-4.9,16-6.5c1.6-5.7,2.9-11.5,3.7-17.5C2426,2316.8,2425.4,2302.1,2424.4,2287.4z"/>
		<path class="st6" d="M2359.5,2387.4c-47.2,30-110.4,21-160.2-4.3c-24.8-12.6-48.5-29.6-61.9-53.9c-13.5-24.3-14.5-57,3.3-78.3
			c19.6-23.6,56.4-28.5,73.6-53.9c24.3-36-5.8-85.1,3.1-127.6c2.9-14,10.7-26.5,21.3-36c-8.7-1.2-17.7-0.2-25.7,3
			c-23.5,9.5-38.7,32.6-48.4,56c-6.7,16-11.4,34-8.7,50.8c-9.7,6.7-19.3,13.6-28.7,20.7c-28.3,21.3-56.9,46.3-66.6,80.4
			c-10.3,36.1,3.3,75.7,27.2,104.7s56.7,48.9,89.9,66.4c29.9,15.8,61.4,30.3,95.1,33.4c64.3,5.9,130.1-38.6,147.8-99.8
			c-5.5,1.7-10.9,3.8-16,6.5C2388.1,2363.9,2375,2377.5,2359.5,2387.4z"/>
		<path class="st2" d="M2236.2,2185.7c15.5-8.2,32.1-15.5,49.6-15.8s36.2,7.9,43.6,23.8c8.6,18.4,0.1,39.8-0.2,60
			c-0.4,29.9,17.5,58.5,13.4,88.1c-2.4,17.6-13.2,34.1-28.8,42.6c-15.6,8.5-35.7,8.6-51-0.4c-15.7-9.3-25.4-26.7-41.5-35.1
			c-16.8-8.8-37.5-6.2-55-13.4c-19.2-8-31.9-27.1-37.5-47.1c-5.9-21.2-3.1-47.6,15.1-60c9.6-6.6,21.7-8.1,32.9-11.4
			c14.5-4.2,28.1-11.7,39.5-21.7L2236.2,2185.7z"/>
		
			<ellipse transform="matrix(0.9993 -3.610174e-02 3.610174e-02 0.9993 -74.7253 81.9042)" class="st2" cx="2230.6" cy="2110.1" rx="26.8" ry="32.3"/>
		
			<ellipse transform="matrix(0.1267 -0.9919 0.9919 0.1267 -73.3897 4136.5967)" class="st2" cx="2312.6" cy="2110" rx="32.3" ry="28.3"/>
		
			<ellipse transform="matrix(0.6611 -0.7503 0.7503 0.6611 -803.0684 2520.1982)" class="st2" cx="2388.2" cy="2149.1" rx="28.3" ry="24.2"/>
		
			<ellipse transform="matrix(0.9993 -3.610174e-02 3.610174e-02 0.9993 -78.7068 88.7001)" class="st2" cx="2416.8" cy="2223.8" rx="31.4" ry="26.1"/>
	</g>
	<g>
		<path class="st7" d="M970,1557.5c-12-1-24.3,2.3-36,4.5c-11.1,2.1-22.1,4.3-33.1,6.7c-10.1,2.2-20.1,4.5-30.1,7
			c5.1-7.6,10.6-15,15.9-22.5c14.5-20.3,28.9-40.6,43.3-61c7.2-10.2,15.6-20.3,21.3-31.4c6.2-12.2,3.9-27.8-7.5-36.2
			c-18.5-13.7-45.3-4.4-64.8,1.4c-24.9,7.4-48,18.7-70,32.3c-6.6,4.1-7.5,15.1-2.7,20.8c5.7,6.8,13.6,6.9,20.8,2.7
			c14.7-8.8,35.3-17.5,53.6-23.2c1-0.3,2-0.6,3.1-0.9c-0.3,0.1,1.6-0.5,2.5-0.7c0.9-0.2,3.1-0.8,2.8-0.8c1-0.3,2.1-0.5,3.1-0.8
			c5.2-1.3,10.4-2.4,15.6-3.4c2.3-0.4,4.5-0.9,6.8-1.2c0.6-0.1,2.1-0.5,3.4-0.6c0.1,0,0.4,0.1,0.9,0.1c0.1,0,0.1,0,0.2,0
			c-0.5,0.7-1,1.4-1.6,2.1c-6.7,9.1-13.3,18.2-20,27.3c-13.1,18-26.2,36-39.2,54c-14,19.4-29.3,39-36.5,62.1c-1.9,6-1.6,12,2.4,17.2
			c3.5,4.5,10.5,8.2,16.4,6.6c21.7-5.9,43.6-11.3,65.6-16.1c10.7-2.3,21.5-4.5,32.2-6.5c12-2.3,25.1-3.1,36.3-7.8
			C989.4,1582.9,986.7,1558.9,970,1557.5z M923.9,1450.8c0.3,0.2,0.5,0.4,0.6,0.4c-0.1-0.1-0.3-0.3-0.4-0.4c0,0,0,0,0,0
			c1.9,0.5,0,0.9-0.9-0.3C923.4,1450.7,923.7,1450.8,923.9,1450.8z"/>
		<path class="st7" d="M1075.2,1329.3c-7.2-3.6-16.4-3.2-24.3-3.8c-7.4-0.6-14.7-1.2-22.1-1.8c-5.6-0.4-11.1-0.9-16.7-1.3
			c2.2-1.8,4.4-3.6,6.5-5.4c11.6-10.1,22.6-20.9,33.1-32.2c9.7-10.4,25-23.9,22.3-39.7c-2.1-12.1-12-16.9-22.8-19
			c-7.6-1.5-15.3-2.5-23-3.1c-18.2-1.3-36.6-0.7-54.5,2.3c-7.6,1.3-13.9,8.8-12.4,16.7c1.5,7.8,8.5,13.7,16.7,12.4
			c18.3-2.8,34.4-3.2,52.8-0.6c1.8,0.3,3.6,0.5,5.4,0.8c-2.1,2.4-4.3,4.8-6.5,7.2c-1.5,1.6-3,3.1-4.4,4.7c-0.3,0.3-2.8,2.9-3.1,3.2
			c-2.9,2.9-5.9,5.8-8.9,8.6c-5.9,5.5-12,10.9-18.2,16c-14.4,11.9-30.9,23.8-28.5,44.9c0.8,7.1,7.4,13.4,14.5,14.1
			c15,1.4,29.9,2.7,44.9,4.1c7.3,0.7,14.7,1.4,22,2c3.5,0.3,7,0.6,10.6,0.9c6.1,0.5,11.1,0.3,17-1.5c6-1.8,9.7-9.2,9.6-14.9
			C1085,1337.3,1081.1,1332.3,1075.2,1329.3z M1049.3,1257.3c-0.6,0.6-1.3,0.3-2-0.4C1048.4,1257.2,1049.3,1257.4,1049.3,1257.3z"/>
		<path class="st7" d="M1255.9,1122.2c-0.8-5.7-4.5-9.8-9.6-12.2c-28.9-13.8-61.3-18.6-93-15.2c-7.3,0.8-13.3,8.7-11.9,16
			c1.5,7.8,8.1,12.7,16,11.9c16.6-1.6,32.8,0,48.5,4.5c-21,13.7-40.8,29.1-59.1,46.2c-9.1,8.5-8.2,23,3.9,28.3l33.3,14.6
			c11.1,4.9,22,10.3,33.4,14.5c8.2,3,18.6-0.5,21.7-9.2c3.2-9.1-0.8-17.5-9.2-21.7c-10.8-5.4-22.3-9.7-33.4-14.4
			c-3.1-1.3-6.3-2.7-9.4-4c19.7-16.6,40.8-31.5,63-44.7C1254.7,1134,1256.7,1127.2,1255.9,1122.2z"/>
	</g>
	<g>
		<path class="st4" d="M1950.6,2057.3c-33.6-44.4-103.3-57.1-160.5-42c-57.2,15.1-103.8,52.5-144.1,92.2s-76.6,83.2-123.4,116.6
			c-51.4,36.6-114.4,59.7-179.5,65.7c-50.1,4.6-100.6-0.6-150.9-1.5c-67.4-1.2-135,5.4-200.5,19.8c-34,7.4-68.2,17.2-95.9,36.4
			c-22.8,15.8-40.7,39-45.1,64.3c21.4-25.8,47.5-49.3,81.4-57.9c-2.2,14.7-4.5,29.4-6.7,44.1c16.8-14.8,34.8-28.5,54-40.8
			c-7.1,12.1,1.9,27.8,15.1,34.5s29.2,6.8,44.4,6.7c107.1-0.5,215-1.1,319.9-20.6c157.2-29.3,300.8-99.7,441.7-169.2
			c42.2-20.8,84.8-41.9,125.3-65.5c7.9-9.9,15.5-20.1,22.7-30.5L1950.6,2057.3z"/>
		<path class="st5" d="M1366,2367.4c-107.6,21.1-213.7,26.4-323.3,25.8c-15.5-0.1-31.9-0.4-45.3-8.1s-22.5-25.6-15.2-39.2
			c-19.7,13.8-38.3,29.1-55.6,45.7c2.4-16.6,4.9-33.3,7.3-49.9c-34.8,9.5-61.7,35.9-83.8,64.9c-1,6.2-1.4,12.4-1,18.8
			c0.4,6.2,1.7,12.9,6.5,16.9c4.3,3.6,10.3,4,15.9,4.3c203.6,10.4,410.5,13.2,608.1-36.9c184.1-46.7,355.1-145,467-297.2
			c-41.7,26.3-79.2,50.2-122.6,73.4C1679.1,2263.1,1527.2,2335.8,1366,2367.4z"/>
	</g>
	<g>
		<ellipse class="st4" cx="1223.7" cy="2018.8" rx="349.8" ry="322.9"/>
		<path class="st5" d="M908.9,1986.5c0-68.6,23.2-132.2,62.7-184.5c-7.2,4.8-14.2,9.8-21,15.1c-47.9,55.3-76.6,125.4-76.6,201.7
			c0,178.3,156.6,322.9,349.8,322.9c85.6,0,163.9-28.4,224.7-75.4c4.9-5.6,9.5-11.3,13.9-17.2c-57.4,38-127.7,60.4-203.7,60.4
			C1065.5,2309.4,908.9,2164.8,908.9,1986.5z"/>
		<path class="st8" d="M1290.4,1881.6c6.1,13.9,5.4,29.9-2.1,43.2c-6.4,11.3-18.2,19.6-30.9,16.2c-4.5-1.2-8.1-4.6-13.4-4.4
			c-9.3,0.2-12.9,10.7-6.2,16.9c3.7,3.4,10.1,3.8,13.9,4c4.7,0.2,9.1-0.1,13.5-0.8c15.5-2.4,28-13,34.4-27.1
			c7.4-16.4,7.1-35.6-1.1-51.7C1296.3,1873.3,1288.3,1876.8,1290.4,1881.6z"/>
		<path class="st8" d="M1105.4,2151.6c4.3,10.8,3.3,23-3.2,32.9c-2.6,4-6.4,7.8-10.8,9.8c-2,0.9-4.9,1.8-7.1,2.3
			c-1.3,0.3-3.1,0.3-4.5,0.6c-2.7,0.6-4.4,2.1-6.2,4.1c-2.7,3-2.5,7.9,0.5,10.6c4.6,4.1,9.1,3.6,14.6,2.1c3.9-1,7.4-2.8,10.8-5
			c6.5-4.2,11.7-10,15.4-16.8c7.2-13.5,7.2-30.2,1-44.1C1113.2,2141.6,1102.7,2144.8,1105.4,2151.6z"/>
		<g>
			
				<ellipse transform="matrix(0.7204 -0.6935 0.6935 0.7204 -1095.7145 1541.6888)" class="st2" cx="1364.4" cy="2129.9" rx="190.1" ry="149.6"/>
			<g>
				<path class="st8" d="M1288.5,2130.1c1.7,12.3,7.8,22.2,14.8,30.8c8.9,10.8,19.8,19.8,31.4,27.8c24.9,17.2,53.5,31.6,85.3,39.5
					c14.6,3.6,29.9,5.8,47.2,3.3c12.5-1.9,16.9-21.4,4.4-19.5c-11.9,1.9-24.7,0.7-36.9-0.9c-15.4-2-29.9-5.7-43.9-10.3
					c-28.7-9.4-55.3-23.8-75.6-43.6c-8.6-8.4-16.7-18.1-19.3-31.2C1295.4,2122.4,1288,2126.4,1288.5,2130.1L1288.5,2130.1z"/>
			</g>
			<g>
				<path class="st8" d="M1217.8,2046.9c24.9-5.3,49.6,0.3,66.2,17.6c28.2,29.3,22.1,80.8-13.6,115.2
					c-18.6,17.9-41.6,27.6-63.3,28.6c35.7,21.2,87.8,12.5,125.4-23.7c43.5-41.9,51-104.8,16.6-140.5
					C1317.2,2011.1,1260.6,2013,1217.8,2046.9z"/>
				<path class="st9" d="M1284,2064.5c-16.6-17.2-41.4-22.9-66.2-17.6c-3.3,2.6-6.6,5.5-9.7,8.5c-43.5,41.9-51,104.8-16.6,140.5
					c4.7,4.9,10,9,15.6,12.4c21.7-1,44.7-10.7,63.3-28.6C1306.1,2145.3,1312.2,2093.8,1284,2064.5z"/>
			</g>
		</g>
	</g>
	<g>
		<g>
			<path class="st10" d="M1792.1,688.4c-10.1,10.2-24.5,18.3-42.4,24.4c-62.8,21.4-168.3,16.8-280.6-17.1
				c-109.7-33.1-198.5-85.8-240.3-137.2c-13.2-16.2-21.7-32.2-24.7-47.4c-7,7-12,15-14.6,23.9c-5.2,17.1-1.3,36.1,10,55.7
				c33.1,57.2,130.3,119.6,254.1,156.9c127.3,38.4,245.7,39.2,303.3,7.2c17.6-9.8,29.5-22.6,34.2-38.3
				C1793.8,707.5,1794.1,698.1,1792.1,688.4z"/>
			<path class="st11" d="M1542.7,452c-166.1-50.1-317.3-36.1-337.6,31.2c-2.7,8.9-2.9,18.3-1,28c3.1,15.2,11.6,31.3,24.7,47.4
				c41.8,51.4,130.6,104.1,240.3,137.2c112.3,33.9,217.7,38.5,280.6,17.1c17.8-6.1,32.2-14.2,42.4-24.4c7-7,12-15,14.6-23.9
				C1827.1,597.2,1708.8,502.1,1542.7,452z"/>
			<path class="st12" d="M1531.2,501.6c-144.9-43.7-276.6-35.9-303.4,16.2c2,2.8,4.2,5.7,6.5,8.5c41.8,51.4,130.6,104.1,240.3,137.2
				c112.3,33.9,217.7,38.5,280.6,17.1c7.2-2.4,13.8-5.2,19.8-8.3C1769,615.3,1667.5,542.6,1531.2,501.6z"/>
			<g>
				<path class="st12" d="M1745.4,682.4c2.7-0.8,5.4-1.6,7.9-2.5c7.2-2.4,13.8-5.2,19.8-8.3c-6.1-56.9-107.6-129.5-243.8-170.6
					c-144.9-43.7-276.6-35.9-303.4,16.2c2,2.8,4.2,5.7,6.5,8.5c3.9,4.8,8.2,9.5,12.8,14.3c52.8-26.1,159-23.7,273.3,10.8
					C1625.1,582.9,1710.4,634.3,1745.4,682.4z"/>
				<path class="st13" d="M1496.1,597.1c79.7,24,147.4,58.8,191.2,94.9c21.7-1.5,41.2-4.7,58.1-9.6c-35-48.1-120.3-99.5-226.9-131.7
					c-114.3-34.5-220.4-36.9-273.3-10.8c10.1,10.4,22.1,20.7,35.7,30.9C1337.7,564.2,1414.8,572.6,1496.1,597.1z"/>
				<path class="st14" d="M1280.9,570.9c47.4,35.5,114.4,68.7,191.8,92c79.1,23.8,154.7,33.2,214.5,29.1
					c-43.8-36.1-111.5-70.9-191.2-94.9C1414.8,572.6,1337.7,564.2,1280.9,570.9z"/>
			</g>
			<g>
				<g>
					<path class="st10" d="M1477.6,675.7c-80.2-22.7-152.5-55.4-203.5-91.9c-52.5-37.6-76.6-75.3-67.8-106.1
						c8.7-30.8,49-50.3,113.4-54.7c62.6-4.3,141.3,5.8,221.5,28.6c80.2,22.7,152.5,55.4,203.5,91.9c52.5,37.6,76.6,75.3,67.8,106.1
						c-8.7,30.8-49,50.3-113.4,54.7C1636.4,708.6,1557.8,698.4,1477.6,675.7z M1538.3,461.5c-79-22.4-156.3-32.4-217.7-28.2
						c-29.5,2-53.6,7.2-71.6,15.5c-17.8,8.1-28.7,18.8-32.4,31.8s0,27.8,10.9,44.1c11,16.5,28.8,33.5,52.9,50.8
						c50,35.8,121.1,67.9,200.1,90.3s156.3,32.4,217.7,28.2c29.5-2,53.6-7.2,71.6-15.5c17.8-8.1,28.7-18.8,32.4-31.8
						s0-27.8-10.9-44.1c-11-16.5-28.8-33.5-52.9-50.8C1688.4,516,1617.3,483.9,1538.3,461.5z"/>
				</g>
			</g>
			<path class="st15" d="M1756.9,754.8c-4.9,2.7-10.2,5.2-16,7.4c-2.2,17.2-5.9,34.6-11.1,52c-44.9,148.8-186.2,237.8-315.6,198.7
				c-129.5-39-198-191.3-153.2-340.1c1.5-4.8,3-9.6,4.7-14.3c-30.4-22.2-53.2-45.4-66.2-67.9c-22.1,28-39.3,60.3-50.1,96.3
				c-47.9,159,46.7,328.1,211.4,377.8c164.7,49.7,337.1-39,385-197.9C1757.1,829.5,1760.4,791.6,1756.9,754.8z"/>
			<path class="st11" d="M1414.2,1012.9c129.5,39,270.8-49.9,315.6-198.7c5.2-17.3,8.9-34.7,11.1-52c-14.7,5.7-32.1,9.9-51.6,12.5
				c-51,129.8-157,210.2-247.8,182.8c-84.1-25.4-127.9-134.9-110.8-259.2c-24.3-12.6-46.1-26-65-39.8c-1.7,4.7-3.2,9.5-4.7,14.3
				C1216.1,821.6,1284.7,973.9,1414.2,1012.9z"/>
			<path class="st10" d="M1330.7,698.3c-17.2,124.3,26.7,233.8,110.8,259.2c90.8,27.4,196.8-53,247.8-182.8
				c-62.5,8.2-147-0.3-235.7-27.1C1408.5,734,1366.9,717.1,1330.7,698.3z"/>
		</g>
		<path class="st14" d="M1656.2,685.3c20.6,8.2,27.6,38.8,12.7,55.2c-6.8,7.5-19.7,11.2-26.6,3.8c-7.7-8.3-3.3-25.3-13.7-29.7
			c-6.4-2.7-13.8,2.5-16.4,8.9c-2.6,6.4-2,13.6-2.2,20.5c-0.6,23.2-11,46-28.2,61.6c-3.5,3.2-7.7,6.2-12.4,5.7
			c-7.4-0.7-11.2-10-9.5-17.2s6.7-13.1,10.5-19.5c5.2-8.8,8.1-19.1,8.2-29.4c0-2.9-0.2-5.9-1.8-8.4c-4.8-7.3-16.4-3-22.6,3.2
			c-17,17.1-23,42.3-24.4,66.4s1.2,48.4-2,72.3c-2.3,16.9-8,34.3-21.2,45.1c-13.2,10.8-35.1,11.9-45.9-1.3
			c-8.8-10.9-7.3-27.3-0.9-39.7s16.8-22.4,25.5-33.4c20.6-26,32.1-59.2,31.9-92.5c-0.1-7.9-3.4-18.3-11.3-17.8
			c-3.9,0.3-7,3.4-9.4,6.5c-8.5,11.1-13.8,24.6-15.1,38.5c-0.4,4.6-0.5,9.5-3.2,13.1c-5.4,7.3-18.1,4.3-22.6-3.5s-3-17.7,0.1-26.2
			c6.9-19.2,20.6-35.5,27.3-54.8s2.8-45.3-16.1-53.3c59.7,20.2,122.6,30.8,185.6,31.1L1656.2,685.3z"/>
	</g>
</g>
</svg>
