<?xml version="1.0" encoding="utf-8"?>
<!-- Generator: Adobe Illustrator 27.0.0, SVG Export Plug-In . SVG Version: 6.00 Build 0)  -->
<svg version="1.1" id="Ebene_1" xmlns="http://www.w3.org/2000/svg" xmlns:xlink="http://www.w3.org/1999/xlink" x="0px" y="0px"
	 viewBox="0 0 500 500" style="enable-background:new 0 0 500 500;" xml:space="preserve">
<style type="text/css">
	.st0{fill:#FCDFC0;}
	.st1{fill:#FF9829;}
	.st2{fill:#21919E;}
	.st3{fill:#1A737D;}
	.st4{fill:#662D91;}
	.st5{fill:#E67822;}
	.st6{fill:#2C2C2B;}
	.st7{fill:#FFE8D6;}
	.st8{fill:#8C6A5F;}
</style>
<g id="objects">
	<path class="st0" d="M276.1,295c0,0.5-0.9,0-1.6,0c-0.8,0-1.2,0.4-1.2-0.1s0.7-0.9,1.5-0.8C275.5,294.1,276.1,294.5,276.1,295z"/>
	<g>
		<path class="st1" d="M272.1,143.6c0,1-1.7,10.1-1.7,10.1c0-0.2-3.9,0.4-4.1,0.4c-1,0.3-2,0.9-2.7,1.7c-0.5,0.6-1.5,2.5-0.1,2.7
			c0.8,0.1,1.1-0.8,1.5-1.4c0.5-0.7,1.2-1.4,2.2-1.6c-1.4,0.3-0.1,5.3,1.1,3.1c0.3-0.5,0-1.2,0.3-1.8c0.4-0.9,2.9-1.2,2.9-1.4
			l2.8-12.5L272.1,143.6z"/>
		<path class="st1" d="M280.7,146.1c0.2,1,0,10.2,0,10.2c0-0.2-3.7,1-4,1.1c-1,0.5-1.8,1.2-2.3,2.2c-0.4,0.7-1,2.8,0.4,2.7
			c0.8-0.1,0.9-1,1.2-1.6c0.4-0.8,1-1.6,1.8-2c-1.3,0.6,0.9,5.2,1.7,2.9c0.2-0.6-0.2-1.2-0.1-1.8c0.2-0.9,2.6-1.7,2.6-1.9l0.6-12.8
			L280.7,146.1z"/>
		<path class="st2" d="M295.4,124.6c0,0,3.8-18.8-12.7-16.7c0,0-1.9,0.3-4.6,2.6l-2.1,2.4c-0.2,2.7,0,2.9-2.7,4.1
			c0.4,0.5,0.5-0.3,0.5-0.3s-19.7,16.3-1.7,28.4c0,0,16.9,9.3,27.7,2.6L295.4,124.6z"/>
		<path class="st3" d="M291.3,113.2c0,0,5.8,32.5,6.8,35.7c10.6,33.7,12.6,21.6,12.6,21.6s4.3-0.7,0.2-6.3
			c-4.1-5.6-11.1-16.5-11.1-16.5s-1.4-27.2-3.3-31.3c-1.9-4.1,2.3-5.3-0.6-4.5"/>
		<path class="st4" d="M281,102.5c-3-1.1-5.1-1-3.6,3.1c1.7,4.5,8.1,7.5,12.1,9.5c2.4,1.2,5.4,2.4,8,3.3c3.1,1.1,5.2-1.8,2.8-3.9
			c-1.1-1-3.3-1.5-4.6-2.6c-1.9-1.5-3.8-3-5.8-4.4C288.8,106.7,284.4,103.7,281,102.5z"/>
		<path class="st4" d="M292.9,112.7c-1.9-1.4-11.4-5.2-7.9-8.1c1.4-1.1,5.4-4.3,7.1-4.2c3.4,0.2,8.4,3.6,8.8,7.6
			c0.2,1.8-2,6.8-4,7.1C295.7,115.2,293.9,113.4,292.9,112.7z"/>
		<path class="st1" d="M290.7,111.2c0.8,0.7,6.8,3.9,7.9,3.5c0.6-0.2,0.8-2.2,1-2.2c-4.8-0.4-9.9-6.7-12.2-9.7
			c-0.9,0.7-1.7,1.3-2.2,1.7c-0.1,0.1-0.2,0.2-0.3,0.3C284,105.7,289.4,110.1,290.7,111.2z"/>
		<path class="st5" d="M276,113.9l-7.3-1.9c1.1,1,2,2.2,3,3.2c0.6,0.6,1.2,1.6,1.8,2.1c1.3,1,2.7-0.1,3.5-1.2
			C276.6,115.4,276.3,114.7,276,113.9z"/>
		<path class="st6" d="M280.7,113.7l0.2,0.1c0.9,0.4,1.6,1,2.1,1.7c0.3-0.2,0.6-0.5,0.8-0.8c0.4-1,0-2.1-1-2.5s-2.1,0-2.5,1
			c-0.1,0.2-0.1,0.3-0.1,0.5C280.3,113.5,280.5,113.6,280.7,113.7z"/>
		<path class="st3" d="M281.6,127.3c0,0-10.9,6.3-0.4,15.3c0,0,4.1,4.1,8.2,3.3l-1.8-2.9l3.6,1.9c0,0-1.4-4-0.8-3.5s3.5,2.1,3.5,2.1
			S290.9,121.9,281.6,127.3z"/>
		<path class="st7" d="M282.8,113.3c-0.3,0.2-1.1-0.3-1.3-0.4c0.1,0.1,1.2-0.9,1.4,0.1C282.9,113.2,282.9,113.3,282.8,113.3z"/>
		<path class="st1" d="M275.8,117.3l-4.1-8.2l6,3.7C277.7,112.8,279.6,115.2,275.8,117.3z"/>
		<g>
			<path class="st8" d="M267.2,102.1L267.2,102.1L267.2,102.1l-5.5-0.5l0,0l0,0l-0.8,5.1c-0.2-0.1-0.5-0.2-0.9-0.2
				c-0.8,0-1.6,0.4-1.7,0.9s0.5,1,1.4,1c0.7,0,1.3-0.3,1.6-0.7l0,0l0,0c0-0.1,0.7-4.7,0.7-4.7l4.6,0.3l-0.3,3.6
				c-0.2-0.1-0.5-0.2-0.7-0.2c-0.7,0-1.3,0.4-1.4,0.8c-0.1,0.5,0.5,0.9,1.2,0.9c0.6,0,1.1-0.3,1.3-0.6l0,0l0,0
				C266.7,107.6,267.2,102.1,267.2,102.1z"/>
			<path class="st8" d="M256.3,93.8L256.3,93.8L256.3,93.8l-4.4-2.5l0,0l0,0l-2.6,4c-0.1-0.2-0.4-0.4-0.6-0.5
				c-0.7-0.3-1.5-0.3-1.7,0.1c-0.3,0.4,0.1,1,0.8,1.3c0.6,0.3,1.2,0.2,1.6,0l0,0l0,0c0.1,0,2.4-3.7,2.4-3.7l3.7,2l-1.6,2.9
				c-0.1-0.2-0.3-0.3-0.6-0.4c-0.6-0.3-1.3-0.2-1.5,0.2c-0.2,0.4,0.1,0.9,0.7,1.2c0.5,0.2,1.1,0.2,1.3-0.1l0,0l0,0
				C253.9,98.3,256.3,93.8,256.3,93.8z"/>
			<path class="st8" d="M245.8,82.9L245.8,82.9L245.8,82.9l0.4,4.7c-0.2-0.1-0.5-0.1-0.8,0c-0.7,0.2-1.3,0.7-1.3,1.2
				s0.7,0.7,1.4,0.5c0.6-0.2,1.1-0.6,1.2-1l0,0l0,0c0-0.1-0.5-5.6-0.5-5.6L245.8,82.9z"/>
		</g>
	</g>
</g>
</svg>
