<?xml version="1.0" encoding="utf-8"?>
<!-- Generator: Adobe Illustrator 27.0.0, SVG Export Plug-In . SVG Version: 6.00 Build 0)  -->
<svg version="1.1" id="Ebene_1" xmlns="http://www.w3.org/2000/svg" xmlns:xlink="http://www.w3.org/1999/xlink" x="0px" y="0px"
	 viewBox="0 0 1296 1728" style="enable-background:new 0 0 1296 1728;" xml:space="preserve">
<style type="text/css">
	.st0{fill:#E67822;}
	.st1{fill:#42210B;}
	.st2{fill:#FF9829;}
	.st3{fill:url(#SVGID_1_);}
	.st4{fill:#FFFFFF;}
	.st5{fill:url(#SVGID_00000118381240564212090180000006582518429364388234_);}
	.st6{fill:#FFE8D6;}
	.st7{fill:#FF8080;}
	.st8{fill:#006837;}
	.st9{fill:#004726;}
</style>
<g>
	<path class="st0" d="M674.6,827.9c0,0-28.1-7.5-20.3-56.7c1.3-7.9,19.6,0,24.3,2.9c12.9,7.9,21.6,22.4,28.7,35.3"/>
	<g>
		<path class="st0" d="M726.3,934c0,0-71.2,1.3-80.7-46.6c-1.5-7.5-6.4-6.5-12.1-3c-8.1,4.9-7.9,11.1-6.3,18.1
			c1.8,7.6,6.3,15,11.3,21.1c21.1,25.5,81.3,42,95.7,28.4"/>
		<path class="st1" d="M633.5,884.4c5.7-3.5,10.6-4.5,12.1,3c1.6,8.2,5.1,14.9,9.6,20.4c-1.6,7.5-7.9,13.8-15.5,17
			c-0.4-0.4-0.8-0.9-1.2-1.4c-5-6.1-9.6-13.4-11.3-21.1C625.6,895.6,625.5,889.3,633.5,884.4z"/>
	</g>
	<g>
		<path class="st0" d="M785.8,938.1c0,0,71-5.2,76.2-53.7c0.8-7.6,5.7-7.1,11.8-4.1c8.5,4.2,8.9,10.4,7.9,17.4
			c-1.1,7.8-4.9,15.5-9.4,22c-18.7,27.3-77.1,49.1-92.7,37"/>
		<path class="st1" d="M873.7,880.3c-6-3-11-3.5-11.8,4.1c-0.9,8.3-3.7,15.3-7.7,21.2c2.3,7.4,9.1,13,17,15.6c0.4-0.5,0.7-1,1-1.5
			c4.5-6.5,8.3-14.2,9.4-22C882.6,890.7,882.2,884.5,873.7,880.3z"/>
	</g>
	<g>
		<g>
			<path class="st0" d="M650,1036.7c26-12.5,47,11.1,70.2,12c26.9,1,30.3-34.5,19.5-52.9c-10.2-17.5-30.6-24.7-50.1-23.5
				c-13.3,0.8-37,16.7-48.5,7.4c-5.5-4.5-2.5-16.8-7.7-21.5c-9.7-8.8-59.9,4.8-38.9-29.4c-19.7,5.1-28.2,23.5-17.5,41.2
				c18.3,30.5,23.8,11.6,29.1,21.6C611.4,1001.7,623.3,1049.6,650,1036.7z"/>
			<g>
				<path class="st2" d="M801,1019.8c0.2-12.6,1.7-25,1.6-37.7c-0.1-23.9-3.2-47.9-9.4-71l-69.7,9c-3.3,0.1-5.1,38.6-5.3,41.6
					c-2.1,30.8-0.2,62.1-0.8,93.1c-0.4,22.2-3.7,51.8,5.5,72.7c0,0,33.1,29.8,26.3-88.2c6.3,0.5,13.2,0.8,19.9,0.5
					c-6.7,117.4,26.3,87.7,26.4,87.7c5.1-4.6,4.4-22.4,4.8-28.6c0.9-12.8,0.9-25.7,0.8-38.5c-0.1-11.5,0.2-23-0.1-34.4
					C801,1023.8,801,1021.8,801,1019.8z"/>
				<g>
					<path class="st1" d="M677.7,819.8"/>
					<g>
						<path class="st1" d="M680.6,823.3c0,0-15.1-6.1-14.9-33c0,0-0.3-4.6,4.3-3.3c5.2,1.5,9.4,2,14.1,5.5
							c5.9,4.4,17.3,16.7,11.9,24.7"/>
					</g>
					<path class="st0" d="M837.7,827.9c0,0,28.1-7.5,20.3-56.7c-1.3-7.9-19.6,0-24.3,2.9c-12.9,7.9-21.6,22.4-28.7,35.3"/>
					<g>
						<path class="st1" d="M831.7,823.3c0,0,15.1-6.1,14.9-33c0,0,0.3-4.6-4.3-3.3c-5.2,1.5-9.4,2-14.1,5.5
							c-5.9,4.4-17.3,16.7-11.9,24.7"/>
					</g>
					
						<linearGradient id="SVGID_1_" gradientUnits="userSpaceOnUse" x1="757.3083" y1="929.8254" x2="750.9886" y2="719.6992" gradientTransform="matrix(1 0 0 -1 0 1730)">
						<stop  offset="0" style="stop-color:#FFAF59"/>
						<stop  offset="0.2304" style="stop-color:#FFA340"/>
						<stop  offset="0.4764" style="stop-color:#FF9A2D"/>
						<stop  offset="0.7299" style="stop-color:#FF9522"/>
						<stop  offset="1" style="stop-color:#FF931E"/>
					</linearGradient>
					<path class="st3" d="M763.7,796.1c-91.4-1.1-90.6,31.8-90.6,31.8l50.5,92.2c77,60.4,105.9-65.7,105.9-65.7
						C873.5,795,763.7,796.1,763.7,796.1z"/>
					<path class="st4" d="M673,827.9c0,0,57.6,20.6,81.1,78.1c0,0,11.1,31.1-4.2,29.5C734.7,934,681.9,919.1,673,827.9z"/>
					<path class="st4" d="M839.8,827.9c0,0-52.2,19.2-72.6,77.5c0,0-37.5,22.3-23.2,28.3C776.2,947.3,830.9,919.1,839.8,827.9z"/>
					
						<linearGradient id="SVGID_00000044150381643729227610000001080969164742022533_" gradientUnits="userSpaceOnUse" x1="757.3083" y1="929.8254" x2="750.9886" y2="719.6992" gradientTransform="matrix(1 0 0 -1 0 1730)">
						<stop  offset="0" style="stop-color:#FFAF59"/>
						<stop  offset="0.2304" style="stop-color:#FFA340"/>
						<stop  offset="0.4764" style="stop-color:#FF9A2D"/>
						<stop  offset="0.7299" style="stop-color:#FF9522"/>
						<stop  offset="1" style="stop-color:#FF931E"/>
					</linearGradient>
					<path style="fill:url(#SVGID_00000044150381643729227610000001080969164742022533_);" d="M763.7,796.1
						c-91.4-1.1-90.6,31.8-90.6,31.8l50.5,92.2c77,60.4,105.9-65.7,105.9-65.7C873.5,795,763.7,796.1,763.7,796.1z"/>
					<path class="st6" d="M673,827.9c0,0,57.6,20.6,81.1,78.1c0,0,11.1,31.1-4.2,29.5C734.7,934,681.9,919.1,673,827.9z"/>
					<path class="st7" d="M729,890.8c0,4-5.3,7.2-11.9,7.2c-6.6,0-11.9-3.2-11.9-7.2c0-4,5.3-7.2,11.9-7.2
						C723.6,883.6,729,886.8,729,890.8z"/>
					<path class="st6" d="M840.8,827c0,0-53.3,20.1-73.7,78.5c0,0-37.5,22.3-23.2,28.3C776.2,947.3,831.9,918.2,840.8,827z"/>
					<path class="st7" d="M812.2,890.8c0,4-5.3,7.2-11.9,7.2c-6.6,0-11.9-3.2-11.9-7.2c0-4,5.3-7.2,11.9-7.2
						C806.9,883.6,812.2,886.8,812.2,890.8z"/>
					<path class="st6" d="M761.4,933.9c-9.3,0-31-29-22.8-36.8c4.4-4.2,15.7,4.7,21,4.9c7,0.3,14.7-6.3,21.4-5
						C794.4,899.7,772.9,933.9,761.4,933.9z"/>
					<path class="st7" d="M748,924.3c0,0,2.3,11,15.3,8c8.8-2,8.7-10.3,8.7-10.3l-11.3-5.3l-12.7,6.7"/>
					<path class="st1" d="M754,911.3c-3.3-2.9-9.8-10.3-8-15.5c2-5.7,11.3-4.5,13.4,0.5c1.4-6.6,11.5-6.7,12.6,0.5
						C773,903.1,762.6,918.9,754,911.3z"/>
					<path class="st1" d="M784.8,906.8c-2.3,6-5.7,10.3-12.3,11.8c-5.2,1.2-8.5-3.1-9.5-7.6c-0.1-0.3-0.2-0.6-0.3-0.8
						c0-1.1-0.1-2.1-0.4-3.2c-1-4.8-8.3-2.7-7.3,2c1.1,5.4-2,9.2-7.1,10.6c-6.3,1.7-11.9-2.6-14.1-8.2c-1.8-4.5-9.1-2.5-7.3,2
						c3.8,9.7,12,15.2,22.4,13.7c4.5-0.7,8-3,10.4-6.2c3.1,3.7,7.6,5.8,13,5.4c10.1-0.7,15.6-7.4,19-16.1
						C793.3,905.5,786.5,902.3,784.8,906.8z"/>
					<path class="st1" d="M731.5,875.1c0,3.3-2.7,5.9-5.9,5.9c-3.3,0-5.9-2.7-5.9-5.9c0-3.3,2.7-5.9,5.9-5.9
						S731.5,871.8,731.5,875.1z"/>
					<path class="st1" d="M797.8,873.4c0,3.3-2.7,5.9-5.9,5.9c-3.3,0-5.9-2.7-5.9-5.9c0-3.3,2.7-5.9,5.9-5.9
						C795.1,867.5,797.8,870.1,797.8,873.4z"/>
					<g>
						<g>
							<path class="st8" d="M717.5,892.1c-15.7,0-25.9-8.5-25.9-21.7c0-14.3,11.6-25.9,25.9-25.9c14.3,0,25.9,11.6,25.9,25.9
								C743.4,883.6,733.2,892.1,717.5,892.1z M717.5,849.6c-11.5,0-20.8,9.3-20.8,20.8c0,15.4,15.9,16.6,20.8,16.6
								c4.9,0,20.8-1.2,20.8-16.6C738.3,859,729,849.6,717.5,849.6z"/>
						</g>
						<g>
							<path class="st8" d="M799,892.1c-15.7,0-25.9-8.5-25.9-21.7c0-14.3,11.6-25.9,25.9-25.9c14.3,0,25.9,11.6,25.9,25.9
								C824.9,883.6,814.8,892.1,799,892.1z M799,849.6c-11.5,0-20.8,9.3-20.8,20.8c0,15.4,15.9,16.6,20.8,16.6
								c4.9,0,20.8-1.2,20.8-16.6C819.8,859,810.5,849.6,799,849.6z"/>
						</g>
						<g>
							<rect x="739" y="868.2" class="st8" width="36" height="8"/>
						</g>
					</g>
				</g>
				<path class="st6" d="M761,1014.4c-12.6-8.4-35.4-25.1-33.7-42.4c1.8-18.1,24.3-20.7,32.8-5.5c4.6-16.7,28-15.5,32.3,1.7
					C797.4,988,765,1017,761,1014.4z"/>
				<g>
					<path class="st9" d="M746.4,1114.9c2.5-4.4,4.8-9.2,6.1-14c0.8-3,2.8-7-0.7-8.5c-6.7-3-15,3.6-21.6,5c-5.4,1.2-13,1.3-17.2-2.6
						c-2.5,4,5.5,25.5,5.5,25.5S742.6,1125.5,746.4,1114.9z"/>
					<path class="st8" d="M739.5,1109.9c16.1,2.6,9.3,19.5,9.3,19.5l0.1-2.2c0,0-0.1,2.1-0.1,2.2c-14.8,6-28.6,1-28.6,1
						C705.7,1110.2,739.5,1109.9,739.5,1109.9z"/>
				</g>
				<g>
					<path class="st9" d="M772.1,1114.9c-2.5-4.4-4.8-9.2-6.1-14c-0.8-3-2.8-7,0.7-8.5c6.7-3,15,3.6,21.5,5c5.4,1.2,13,1.3,17.2-2.6
						c2.5,4-5.5,25.5-5.5,25.5S776,1125.5,772.1,1114.9z"/>
					<path class="st8" d="M779,1109.9c-16.1,2.6-9.3,19.5-9.3,19.5l-0.1-2.2c0,0,0.1,2.1,0.1,2.2c14.8,6,28.6,1,28.6,1
						C812.9,1110.2,779,1109.9,779,1109.9z"/>
				</g>
			</g>
		</g>
		<path class="st6" d="M594.4,928.8c-19.7,5.1-28.2,23.5-17.5,41.2c2.7,4.6,5.2,8,7.4,10.6l2.4-11.4c0,0,9.8,8.6,11,1.2
			c1.2-7.4-9.8-9.8,1.2-7.4c11,2.5,16-2.5,16-6.1c0-0.7,0.1-1.6,0.2-2.7C598.8,953.2,580.2,952,594.4,928.8z"/>
	</g>
	<path class="st6" d="M790.2,871.3c0,1.2-0.9,2.1-2.1,2.1s-2.1-0.9-2.1-2.1s0.9-2.1,2.1-2.1S790.2,870.2,790.2,871.3z"/>
	<path class="st6" d="M724.2,871.3c0,1.2-0.9,2.1-2.1,2.1s-2.1-0.9-2.1-2.1s0.9-2.1,2.1-2.1C723.2,869.2,724.2,870.2,724.2,871.3z"
		/>
</g>
</svg>
