<?xml version="1.0" encoding="utf-8"?>
<!-- Generator: Adobe Illustrator 27.0.0, SVG Export Plug-In . SVG Version: 6.00 Build 0)  -->
<svg version="1.1" id="Ebene_1" xmlns="http://www.w3.org/2000/svg" xmlns:xlink="http://www.w3.org/1999/xlink" x="0px" y="0px"
	 viewBox="0 0 500 500" style="enable-background:new 0 0 500 500;" xml:space="preserve">
<style type="text/css">
	.st0{fill:#FFFFFF;}
	.st1{fill:#FCDFC0;}
	.st2{fill:#634B43;}
	.st3{fill:#2E140D;}
	.st4{fill:#8C6A5F;}
	.st5{fill:#FFD8AD;}
	.st6{fill:#941E22;}
	.st7{fill:#C1272D;}
	.st8{fill:#FF8080;}
</style>
<g id="background">
	<rect class="st0" width="500" height="500"/>
</g>
<g id="objects">
	<path class="st1" d="M276.1,295c0,0.5-0.9,0-1.6,0c-0.8,0-1.2,0.4-1.2-0.1c0-0.5,0.7-0.9,1.5-0.8
		C275.5,294.1,276.1,294.5,276.1,295z"/>
	<g>
		<g>
			<path class="st2" d="M320,293c0,0,4,49.1-12.8,43.9c0,0-8.4-1.9-4.7-42.3"/>
		</g>
		<path class="st3" d="M317.6,329c-1.9,5.9-5.2,9.6-10.4,7.9c0,0-2.6-0.6-4.3-8C308.7,331.2,314.8,329.8,317.6,329z"/>
		<g>
			<g>
				<path class="st3" d="M307.1,290c0,0-80.1,68.5-96.2,13c0,0,11.2-21.1,43.5-6.3c35.1,16,30.4-29.5,30.4-29.5"/>
				<g>
					<path class="st2" d="M247.6,323.5c-2.2-2-7-9-7.1-31.3c-1.5-0.3-3-0.5-4.4-0.6c-0.4,3.6-7.3,18,1.5,33.1
						C240.9,324.7,244.2,324.3,247.6,323.5z"/>
					<path class="st2" d="M221.3,294c-2.5,4.8-5.1,12.1-4.2,21.1c3.3,4.4,6.6,7.1,12.6,8.5c0-0.1,0-0.2,0-0.3c0,0-7.4-4.5-1.4-31.3
						C225.8,292.4,223.2,293.1,221.3,294z"/>
					<path class="st2" d="M255.1,297.1c-0.2-0.1-0.5-0.2-0.7-0.3c-1.5-0.7-2.9-1.2-4.3-1.8c-1.2,5-3.4,14.6,3.8,26.7
						c1.9-0.6,3.7-1.3,5.6-2C257.8,317.8,255.4,312.5,255.1,297.1z"/>
					<path class="st2" d="M270.1,300c-1.5,0.2-3.3,0.2-5.1,0c-1.4,3.5-3.3,9.5,2.1,16.4c1.6-0.8,3.3-1.6,4.9-2.5
						C270.7,311.9,269.6,308,270.1,300z"/>
				</g>
			</g>
			<path class="st2" d="M293.8,258.2c-1.4-4.3-33.6,3.6-44.3,7.8c-0.7-0.9-2-1.9-4.1-2.7c-2.2-0.8-3.6,0.7-3.7,2.3
				c-0.1,1.2,0.9,2.1,1.3,3.4c-0.6,0.3-1.1,0.6-1.5,0.9c-5.2,3.5-5,12.2,1.2,12.2C249.6,282.1,297.6,270.1,293.8,258.2z"/>
			<path class="st2" d="M301.6,258.5c1.4-4.3,33.6,3.6,44.3,7.8c0.7-0.9,2-1.9,4.1-2.7c2.2-0.8,3.6,0.7,3.7,2.3
				c0.1,1.2-0.9,2.1-1.3,3.4c0.6,0.3,1.1,0.6,1.5,0.9c5.2,3.5,5,12.2-1.2,12.2C345.8,282.4,297.8,270.4,301.6,258.5z"/>
			<g>
				<path class="st2" d="M278.3,293c0,0-4,49.1,12.8,43.9c0,0,8.4-1.9,4.7-42.3"/>
			</g>
			<path class="st4" d="M275.5,261.1c0,0-12.6,42.9,17.5,47c30.1,4.1,36.2-24.1,21.9-59.3"/>
			<path class="st5" d="M298.8,304.7c-6.7-4.5-18.9-13.4-17.9-22.6c1-9.7,12.9-11,17.5-2.9c2.5-8.9,14.9-8.2,17.2,0.9
				C318.1,290.7,300.9,306.2,298.8,304.7z"/>
			<g>
				<path class="st6" d="M294.6,269.3l-4.7,17.4c0,0-0.7,0.5,9.1,10.2l7-10.3c0,0-0.1-1.7-6.3-18.8"/>
				<path class="st7" d="M272.7,258.4v8.6c0,0,7.7,5.4,25.4,5.9c0,0,19.5-0.9,23.5-6.8l0.1-8.1C321.7,258.1,277.7,261.7,272.7,258.4
					z"/>
			</g>
		</g>
		<path class="st7" d="M299,296.9l7-10.3c0,0-0.1-1.3-4-12.5c-2.7,2.5-7.2,1-8.8,0.4l-3.3,12.2C289.9,286.8,289.2,287.3,299,296.9z"
			/>
		<path class="st3" d="M280.7,329c1.9,5.9,5.2,9.6,10.4,7.9c0,0,2.6-0.6,4.3-8C289.5,331.2,283.5,329.8,280.7,329z"/>
		<g>
			<g>
				<path class="st3" d="M250.1,183.2c4-10.6,17.3-9.1,22,5.9l-10.3,9.7C261.7,198.8,246.1,193.7,250.1,183.2z"/>
			</g>
			<path class="st5" d="M264.5,188c0,0-0.8-10.8-5.9-7.4c0,0-1.9,1.6-0.5,4.3c-0.3-0.9-6.5,1.7-3.1,4.6
				C257.8,191.9,262.5,189.9,264.5,188z"/>
		</g>
		<g>
			<g>
				<path class="st3" d="M342.1,183.5c-4-10.6-17.3-9.1-22,5.9l10.3,9.7C330.4,199.1,346.1,194.1,342.1,183.5z"/>
			</g>
			<path class="st5" d="M328.6,188.3c0,0-0.1-10.7,4.9-7.4c0,0,1.9,1.6,0.5,4.3c0.3-0.9,6.5,1.7,3.1,4.6
				C334.4,192.2,330.6,190.2,328.6,188.3z"/>
		</g>
		<path class="st5" d="M356.8,231.5c-0.9-0.2-10.1-6.9-10.4-7.2c-2.6-2.2-4.5-5.2-5.2-8.6c-0.9-4.2-1.1-7.7-2.6-11.3l0,0
			c0,0,0,0,0,0c-0.1-0.3-0.3-0.6-0.4-0.9c0,0,0,0,0,0c-0.1-0.3-0.3-0.6-0.4-0.9c0,0,0,0,0-0.1c-0.1-0.3-0.3-0.5-0.5-0.8
			c0,0,0-0.1-0.1-0.1c-0.2-0.3-0.4-0.6-0.6-0.9c-1.4-2-2.8-3.9-4.3-5.8c0,0-0.1-0.1-0.1-0.1c-0.2-0.3-0.5-0.6-0.7-0.8
			c-18-19.2-61-13.2-69,0c-0.3,0.3-0.5,0.6-0.8,0.9c0,0,0,0,0,0c0,0,0,0,0,0c-0.7,0.8-1.3,1.7-2,2.5c-0.2,0.2-0.3,0.4-0.5,0.7
			c-0.6,0.9-1.3,1.7-1.9,2.6c-0.2,0.3-0.4,0.6-0.6,0.9c0,0,0,0.1-0.1,0.1c-0.2,0.3-0.3,0.5-0.5,0.8c0,0,0,0,0,0.1
			c-0.2,0.3-0.3,0.6-0.4,0.9c0,0,0,0,0,0c-0.1,0.3-0.3,0.6-0.4,0.9c0,0,0,0,0,0l0,0c-1.5,3.5-1.7,7-2.6,11.3
			c-0.7,3.4-2.6,6.3-5.2,8.6c-0.4,0.3-9.5,7-10.4,7.2c-0.3,3.1,7.6,30.3,53.8,30.3H303C349.2,261.8,357.1,234.5,356.8,231.5z"/>
		<path class="st4" d="M309.6,237.5c-5.2-8.2-8-19.7-2.6-28.5c7-11.6,21-10.3,31.5-4.6c-7.4-19-26-23-42.9-22.7
			c-9.4,0.2-20.5,1.5-28.5,6.7c-2.8,1.8-10.7,9.3-11.9,16c7-3.8,15.7-6.4,23.3-2.8c6.9,3.2,10.9,10.2,11.1,17.6
			c0.2,7.1-2.5,13.9-6.4,19.7c-4.9,7.3-11.1,14.5-18.8,19c6.7,3.2,14.5,4.6,21.8,5.1c14.8,1.2,29.8-1.2,43.9-5.4
			C322,252.8,314.7,245.5,309.6,237.5C302.8,226.9,314.1,244.6,309.6,237.5z"/>
		<path class="st8" d="M291.2,247.8c0,0,1.2,5.5,7.7,4c4.4-1,4.3-5.2,4.3-5.2l-5.7-2.7l-6.3,3.3"/>
		<path class="st3" d="M306.8,240.1c-0.9,2.3-2.2,4-4.8,4.6c-2,0.5-3.3-1.2-3.7-3c0-0.1-0.1-0.2-0.1-0.3c0-0.4-0.1-0.8-0.1-1.2
			c-0.4-1.9-3.2-1.1-2.8,0.8c0.4,2.1-0.8,3.6-2.8,4.1c-2.4,0.7-4.6-1-5.5-3.2c-0.7-1.7-3.5-1-2.8,0.8c1.5,3.8,4.6,5.9,8.7,5.3
			c1.7-0.3,3.1-1.2,4.1-2.4c1.2,1.4,3,2.2,5.1,2.1c3.9-0.3,6.1-2.9,7.4-6.3C310.1,239.6,307.5,238.3,306.8,240.1z"/>
		<g>
			<g>
				<g>
					<path class="st3" d="M302.3,233.6c-0.5-3.2-4.7-3.4-5.8-0.8v8.5C299.8,240.9,302.6,235.9,302.3,233.6z"/>
				</g>
			</g>
			<g>
				<path class="st5" d="M299.9,235c0.4,0.3,0.3,1.1-0.3,1.7c-0.5,0.6-1.3,0.8-1.7,0.5c-0.4-0.3,0.4-0.5,1-1.1
					C299.4,235.5,299.5,234.7,299.9,235z"/>
			</g>
			<path class="st3" d="M354.2,241.1c11.8-2.2,15-12.1,15-12.1c-4.1,5.3-9.9,6.5-13.7,6.6c7.4-5.3,8.4-13.8,8.4-13.8
				c-1.5,4.1-4,6.1-6.8,7.9c-3.7,2.5-9.3,4.1-13.6,3c-2.9-0.7-5.1-2.7-6.6-5.2c-2.1-3.4-2-7.6-3.6-11.3c-0.7-1.7-1.8-3.2-3.1-4.5
				c-2.6-2.6-6.2-4-9.8-4c-7.7,0-14,6.3-14,14c0,0-1.1,33.6,45.2,24.5c6-1,15.5-3.6,17.3-10.4C369,235.9,362.6,242.5,354.2,241.1z"
				/>
			<circle class="st5" cx="315.2" cy="222.5" r="6.8"/>
			<path class="st3" d="M310.1,221.6c0,2.2,1.8,4,4,4c2.2,0,4-1.8,4-4c0-2.2-1.8-4-4-4C311.8,217.7,310.1,219.4,310.1,221.6z"/>
		</g>
		<g>
			<g>
				<g>
					<path class="st3" d="M291,233.6c0.5-3.2,4.7-3.4,5.8-0.8v8.5C293.5,240.9,290.6,235.9,291,233.6z"/>
				</g>
			</g>
			<g>
				<path class="st5" d="M292.5,234.3c0.1,0.9,0.8,0.5,1.7,0.4c0.9-0.1,1.8,0.1,1.7-0.8c-0.1-0.9-0.8-1.3-1.7-1.2
					C293.3,232.8,292.5,233.4,292.5,234.3z"/>
			</g>
			<path class="st3" d="M239.5,241.1c-11.8-2.2-15-12.1-15-12.1c4.1,5.3,9.9,6.5,13.7,6.6c-7.4-5.3-8.4-13.8-8.4-13.8
				c1.5,4.1,4,6.1,6.8,7.9c3.7,2.5,9.3,4.1,13.6,3c2.9-0.7,5.1-2.7,6.6-5.2c2.1-3.4,2-7.6,3.6-11.3c0.7-1.7,1.8-3.2,3.1-4.5
				c2.6-2.6,6.2-4,9.8-4c7.7,0,14,6.3,14,14c0,0,1.1,33.6-45.2,24.5c-6-1-15.5-3.6-17.3-10.4C224.7,235.9,231.1,242.5,239.5,241.1z"
				/>
			<circle class="st5" cx="278.5" cy="222.5" r="6.8"/>
			<path class="st3" d="M283.6,221.6c0,2.2-1.8,4-4,4c-2.2,0-4-1.8-4-4c0-2.2,1.8-4,4-4C281.9,217.7,283.6,219.4,283.6,221.6z"/>
		</g>
		<path class="st8" d="M277.7,234.8c0,1-1.8,1.8-8.8,1.8c-3.5,0-4.1-0.9-4.1-1.8c0-1,2.9-1.8,6.4-1.8S277.7,233.8,277.7,234.8z"/>
		<path class="st8" d="M327.2,234.8c0,1-1.8,1.8-8.8,1.8c-3.5,0-4.1-0.9-4.1-1.8c0-1,2.9-1.8,6.4-1.8
			C324.3,233,327.2,233.8,327.2,234.8z"/>
		<path class="st5" d="M281.2,222.8c0-1-0.9,0-2,0c-1.1,0-2-1-2,0s0.9,1.5,2,1.5C280.3,224.3,281.2,223.8,281.2,222.8z"/>
		<circle class="st5" cx="281.5" cy="220.3" r="0.8"/>
		<path class="st5" d="M312,222.8c0-1,0.9,0,2,0c1.1,0,2-1,2,0s-0.9,1.5-2,1.5C312.9,224.3,312,223.8,312,222.8z"/>
		<circle class="st5" cx="311.7" cy="220.3" r="0.8"/>
	</g>
</g>
</svg>
