<?xml version="1.0" encoding="UTF-8"?>
<svg id="Ebene_1" data-name="Ebene 1" xmlns="http://www.w3.org/2000/svg" viewBox="0 0 342 114">
  <defs>
    <style>
      .cls-1 {
        fill: #1b8ea1;
      }

      .cls-2 {
        fill: #f9faf9;
      }

      .cls-3 {
        fill: #ddd;
        stroke: #fff;
        stroke-miterlimit: 10;
      }

      .cls-4 {
        fill: #30b2b8;
      }

      .cls-5 {
        fill: #1db4ac;
      }
    </style>
  </defs>
  <rect class="cls-3" x=".5" y=".5" width="341" height="113" rx="33.33" ry="33.33"/>
  <g>
    <path class="cls-4" d="M302.74,29.11s.02.07.03.11c.02.09.02.21.07.27.4.49.51,1.18,1.07,1.55.07.05.11.16.17.23.28.39.56.77.85,1.16.25.34.66.59.76.99.11.38.29.64.6.79.03.24-.25.34-.14.58.16.09.39.14.47.36.11.31.31.57.49.84.28.41.45.84.37,1.34,0,.05.02.06.07.04.05-.07-.01-.2.11-.24.1.02.21.1.2.17-.04.33.16.58.29.85.14.29.36.56.45.86.22.82.62,1.56,1.02,2.29.15.27.13.49-.06.73.34.09.39.34.44.59.13.64.22,1.3.37,1.94.06.25,0,.59.38.7.17.05.2.22.13.39-.05.13-.1.25-.03.4.09.1.27-.05.33.09.07.47-.24.85-.25,1.32.43,0,.47.26.46.59-.01.34.05.68.07,1.02.03.48.13.96.06,1.47-.08.59-.15,1.21.06,1.81l.02.02c.05.28-.09.55-.09.82.22.09.16-.28.39-.17.09.24.02.51.04.76.01.15-.03.32.1.43.27.23.24.53.25.84,0,.15-.06.34.18.43.02-.43.04-.82.06-1.22.17.6.11,1.21.13,1.82.03,1.34.05,2.69-.09,4.02-.17,1.64-.29,3.28-.53,4.91-.19,1.26-.67,2.43-.95,3.65-.07.32-.14.63-.2.95-.14.66-.35,1.29-.67,1.88-.14.25-.11.57-.34.78,0-.02,0-.04-.02-.06-.02-.03-.04-.06-.08-.1-.34.94-.87,1.79-1.14,2.74-.06.21-.15.39-.26.57-.28.45-.62.89-.78,1.39-.18.56-.43,1.07-.73,1.55-.31.48-.57.99-.85,1.48-.39.68-.75,1.37-1.26,1.98-.44.52-.83,1.09-1.25,1.63-.47.62-.85,1.32-1.37,1.9-.07.07-.08.17-.07.27-.03.04-.05.08-.08.12-.29-.06-.41.17-.56.33-.22.26-.45.52-.67.78-.94,1.1-1.98,2.12-3.07,3.08-.2.17-.45.31-.47.62h0s-.07.07-.11.11l-.02.02c-.44.15-.8.4-1.01.83-.05.03-.09.06-.14.09-.37-.01-.57.21-.68.53,0,.02,0,.04-.02.05-.85.63-1.7,1.28-2.57,1.89-.47.32-.99.56-1.45.92-.1.08-.21.17-.33.22-.8.36-1.56.8-2.28,1.31-.12.09-.28.13-.42.18-.62.22-1.22.44-1.76.82-.45.31-.95.47-1.46.64-.54.18-1.08.39-1.62.59h.02c-.11.02-.21.05-.32.07-.1-.09-.24-.12-.31-.04-.2.22-.45.14-.68.21-.47.14-.95.06-1.41.13-.06.16-.03.33-.23.37-.47.09-.9.29-1.37.4-.61.14-1.24.2-1.85.35-.32.08-.64.12-.97.1-1.21-.07-2.4.16-3.61.13-.07,0-.16,0-.17.14.21.17.57-.05.74.26-.16.16-.49-.1-.57.25-.32.08-.63.18-.97.12-.17-.13-.37-.07-.55-.07-1.53,0-3.05-.01-4.58,0-.56,0-1.09-.11-1.64-.18-.83-.1-1.63-.36-2.48-.3-.52.04-1.07.06-1.53-.3-.06-.05-.19,0-.28-.04-.47-.17-.99-.03-1.46-.22-.43-.18-.91-.08-1.35-.21-.03,0-.08.07-.12.11-.03.01-.06.03-.09.05-.09-.03-.17-.06-.26-.08-.02-.03-.03-.07-.03-.1.05-.03.13.01.14-.08-.03,0-.07-.03-.1-.02-.05.02-.08.05-.13.08.01.03.02.06.03.09-.09-.03-.17-.05-.26-.08,0-.03-.01-.07-.01-.1-.07-.22-.28-.25-.46-.29-.7-.16-1.39-.41-2.11-.47-.05,0-.11-.03-.15-.07-.2-.26-.47-.21-.73-.2h-.01c0-.07,0-.17-.08-.2-.51-.21-1.02-.4-1.52-.62-.58-.25-1.21-.37-1.75-.74-.3-.21-.68-.32-1.03-.48-.1-.05-.18.02-.26.06-.46-.08-.87-.28-1.25-.53-.46-.32-.94-.58-1.44-.83-.36-.18-.71-.37-1.03-.62-.37-.28-.75-.53-1.17-.72-.28-.13-.53-.31-.75-.52-.28-.26-.59-.49-.93-.68-.17-.09-.34-.19-.48-.32-1.07-1.01-2.35-1.77-3.42-2.79-1.25-1.21-2.53-2.39-3.6-3.77-.16-.21-.34-.41-.53-.6-.25-.25-.45-.52-.62-.82-.21-.37-.45-.71-.77-.99-.26-.23-.41-.55-.63-.81-.8-.98-1.32-2.15-2.11-3.14-.12-.16-.2-.33-.28-.5-.27-.59-.56-1.17-.94-1.71-.07-.11-.16-.22-.21-.34-.59-1.59-1.52-3.05-1.95-4.71-.11-.45-.34-.85-.52-1.28-.27-.66-.46-1.34-.6-2.04-.23-1.1-.6-2.17-.87-3.26-.16-.65-.29-1.31-.36-1.97-.12-1.1-.19-2.21-.28-3.32,0-.09.02-.19.04-.28.18.03.11.29.32.33.28-.04.26-.27.28-.51.07-.91-.14-1.82-.12-2.74,0-.14.05-.29-.05-.43-.15.11-.18.26-.17.41.05.71-.07,1.4-.11,2.1-.01.15.03.32-.19.36-.13-.15-.09-.33-.09-.49-.06-2.14-.05-4.28.14-6.42.06-.72.07-1.45.15-2.17.09-.82.32-1.6.47-2.41.3-1.67.87-3.28,1.29-4.93.07-.28.16-.55.33-.79.07-.09.13-.2.16-.3.28-.96.71-1.86,1.03-2.8.22-.66.63-1.21.91-1.85.57-1.27,1.17-2.54,2.05-3.64.06-.07.13-.14.19-.21.03-.03.06-.06.09-.1.02-.23,0-.48.29-.57.24-.16.44-.34.7-.41.07-.26.05-.49.05-.71.01-.07.06-.13.13-.14.11-.01.25-.04.28-.16.05-.31.33-.36.52-.53.13-.12.34-.04.41-.24-.06-.18-.18-.28-.34-.34.74-1.07,1.58-2.06,2.41-3.05.73-.87,1.55-1.66,2.35-2.47.84-.85,1.78-1.56,2.68-2.32.76-.64,1.45-1.41,2.39-1.85.18-.09.32-.28.47-.41.43-.39.89-.71,1.49-.76-.05.06-.09.13-.13.19-.48,0-.75.36-1.06.64.41-.11.85-.2,1.06-.65.13-.02.21-.07.21-.21.12-.24.34-.32.59-.37.49.15.83-.43,1.35-.27.01-.3.14-.51.41-.62.14-.05.2-.17.17-.32.37-.37.83-.61,1.29-.82.82-.37,1.63-.75,2.44-1.15.34-.17.71-.3,1.08-.39.83-.18,1.58-.57,2.33-.93.25-.11.49-.21.76-.25,1.21-.16,2.35-.55,3.48-.93.49-.17.99-.28,1.52-.26.03.14.13.16.25.18.96.15,1.93.26,2.9.22.4-.02.81.08,1.12-.28.03-.03.1-.05.16-.05.67-.02,1.3-.29,1.95-.4.11-.02.22-.09.33-.02.48.29.97.24,1.45,0,.11-.05.22-.05.33-.06.63-.08,1.18.17,1.75.39.02,0,.02.06.03.1-.03.17-.29.06-.34.28.49.05.96.1,1.43.16.37.05.71-.11,1.08-.11,1.53,0,3.06-.02,4.59.02.61.02,1.21.15,1.71.55l-.02.02c-.07.02-.15.02-.16.2.66.02,1.24.39,1.93.4.37,0,.76.22,1.16.25.4.03.8.26,1.21.06.05.02.1.05.15.07.36.41.86.58,1.36.75.63.21,1.32.29,1.86.68.8.57,1.67.95,2.63,1.16,0,0-.01,0,0,0,.07.09.13.18.21.26.17.21.57.26.44.68-.03.09.19.21.32.16.34-.14.61-.01.9.14.16.09.34.16.54.14.07,0,.11.03.14.1.29.39.67.67,1.09.9.52.27.97.59,1.25,1.13.09.17.23.4.47.36.38-.07.67.17.83.39.24.33.53.39.86.47h0c.03.39.4.49.64.65.71.47,1.31,1.06,1.88,1.65.59.63,1.31,1.14,1.82,1.86.4.56,1.01.98,1.43,1.55.21.28.46.56.79.73h-.01s.06.09.1.12ZM292.15,58.56c.09-.04.11-.12.13-.21.05-.1.09-.21.14-.31.57-1.16.34-2.05-.71-2.79-.19-.13-.39-.24-.59-.35-.17-.09-.36-.15-.51-.27-.97-.82-2.21-1.2-3.25-1.93-.79-.56-1.66-1.02-2.52-1.49-.6-.34-1.2-.68-1.74-1.1-.24-.18-.52-.32-.8-.43-.32-.13-.65-.26-.92-.47-1.1-.82-2.37-1.33-3.5-2.09-.34-.24-.77-.34-1.08-.65-.44-.42-.97-.68-1.52-.89-.36-.14-.7-.32-.99-.56-.39-.33-.82-.57-1.26-.79-1.05-.51-2.02-1.17-3.01-1.78-.59-.36-1.17-.72-1.79-1.01-.19-.09-.39-.17-.56-.3-.49-.36-.93-.8-1.57-.89-.05,0-.1-.05-.14-.09-.63-.53-1.37-.89-2.08-1.31-.95-.56-1.86-1.21-2.88-1.66-.1-.05-.2-.13-.28-.2-.33-.3-.71-.52-1.12-.7-.64-.28-1.21-.71-1.81-1.06-.87-.52-1.75-.85-2.77-.41-.44.18-.74.46-.9.9-.14.39-.14.79-.13,1.19.03.95.06,1.91.06,2.86.03,4.04.01,8.08.01,12.13,0,7.93,0,15.86,0,23.79,0,.36.06.73-.05,1.08-.31.39-.26.84-.26,1.29,0,.13-.03.29.07.39.51.49.78,1.22,1.57,1.41.43.1.82.27,1.2-.11.13-.14.32-.09.48-.11.14-.02.28.16.43.01q-.13-.26-.48-.37c.07-.06.14-.12.22-.17,1.1-.62,2.14-1.33,3.27-1.91.06.09.14.14.24.08.4-.26.85-.3,1.33-.31.05-.24.1-.45.15-.67.25-.16.51-.3.76-.46.47.09.8-.29,1.22-.36.13-.39.54-.49.76-.79.02-.02.01-.07.02-.11.55-.47,1.16-.83,1.86-1.04.03-.03.07-.05.1-.08v-.03h.04c.72-.32,1.5-.44,2.23-.74-.04-.18-.07-.33-.1-.47.22-.13.43-.26.65-.4.25.02.49.01.7-.18.08-.07.21-.14.31-.13.49.02.6-.3.66-.68.36-.24.74-.46,1.08-.72.34-.26.7-.45,1.1-.59.07,0,.17.03.22,0,.55-.34,1.16-.52,1.74-.78.21-.1.38-.25.33-.52.05-.02.1-.04.14-.06.04,0,.08.01.11,0,.57-.23,1.1-.56,1.68-.78.22-.08.41-.22.36-.51.07-.07.15-.1.24-.09.19-.02.37-.07.46-.26.01-.04.04-.06.09-.06.21.02.41-.13.62-.06.39.14.66-.01.87-.26.07-.17-.09-.29.02-.47.61-.33,1.21-.78,1.94-.95.28-.06.26-.28.25-.5.06-.06.13-.09.21-.09.14.02.25-.02.26-.19l.03-.02c.75-.22,1.54-.4,2.01-1.13.09-.09.18-.13.3-.14.09,0,.16-.05.18-.13.04-.03.08-.05.11-.08.51.11.93-.26,1.47-.27-.1-.31,0-.53.28-.66.13-.06.21-.16.22-.31.47-.41.97-.77,1.58-.97h-.02c.1-.05.21-.08.33-.06l.03.02.02-.04v-.03h.04c.07,0,.18.02.22-.01.44-.37,1.01-.53,1.46-.87.13-.1.25-.17.24-.35l.03-.02c.2.01.36-.02.43-.24v.02ZM224.57,54.32c-.2.53-.19.99.03,1.34.07-.46.11-.87-.03-1.34ZM256.41,14.55q-.77-.06-1.17.19c.38.06.72-.02,1.17-.19Z"/>
    <path class="cls-1" d="M283.08,15.2c-.41.2-.81-.03-1.21-.06-.39-.03-.78-.24-1.16-.25-.7-.01-1.27-.38-1.93-.4.01-.17.09-.18.16-.2.02.02.04.03.06.05-.02-.02-.03-.04-.05-.06-.5-.4-1.1-.54-1.71-.55-1.53-.03-3.06-.02-4.59-.02-.36,0-.71.16-1.08.11-.47-.06-.93-.1-1.43-.16.05-.22.3-.11.34-.28-.01-.03-.02-.09-.03-.1-.56-.21-1.12-.47-1.75-.39-.11.02-.22.01-.33.06-.48.23-.97.29-1.45,0-.11-.07-.22,0-.33.02-.66.11-1.28.39-1.95.4-.06,0-.13.02-.16.05-.31.36-.73.26-1.12.28-.98.04-1.94-.07-2.9-.22-.13-.02-.22-.04-.25-.18.06-.01.11-.02.18-.03.1,0,.2,0,.28-.09.01-.02.03-.03.05-.02.24-.04.49.03.73-.06.48-.1.98-.09,1.47-.09.1.02.19.03.27-.05.34-.09.69-.06,1.04-.05.23,0,.47.06.69-.06.29-.14.6-.13.9-.13,1.51-.01,3.03-.06,4.54-.01,1.37.05,2.75.2,4.12.31.16.01.3.04.46.04,1.1-.02,2.18.21,3.2.57,1.14.4,2.32.62,3.48.93.51.14,1.02.32,1.45.65Z"/>
    <path class="cls-1" d="M312.55,54.26c-.02.4-.04.79-.06,1.22-.24-.09-.18-.28-.18-.43,0-.3.02-.61-.25-.84-.13-.11-.09-.28-.1-.43-.02-.26.05-.53-.04-.76-.24-.11-.17.25-.39.17,0-.26.14-.53.09-.82.29-.25.3-.33.07-.79-.16.26-.06.52-.09.76-.21-.59-.14-1.22-.06-1.81.07-.51-.03-.98-.06-1.47-.02-.34-.09-.68-.07-1.02.01-.32-.03-.58-.46-.59.02-.47.33-.85.25-1.32-.06-.14-.24.01-.33-.09-.07-.14-.02-.27.03-.4.06-.17.03-.34-.13-.39-.38-.11-.32-.45-.38-.7-.15-.64-.24-1.29-.37-1.94-.05-.24-.09-.5-.44-.59.2-.24.21-.46.06-.73-.41-.73-.8-1.47-1.02-2.29-.08-.3-.3-.57-.45-.86-.13-.27-.33-.51-.29-.85.01-.07-.1-.16-.2-.17-.12.05-.06.17-.11.24-.05.02-.07,0-.07-.04.08-.51-.1-.93-.37-1.34-.18-.27-.38-.53-.49-.84-.08-.22-.31-.26-.47-.36-.11-.24.17-.34.14-.58-.32-.16-.49-.41-.6-.79-.11-.4-.52-.65-.76-.99-.28-.39-.56-.77-.85-1.16-.06-.07-.09-.18-.17-.23-.56-.37-.67-1.06-1.07-1.55-.05-.06-.05-.18-.07-.27.41.37.76.82,1.05,1.27.62.94,1.41,1.74,1.98,2.73.39.67.72,1.38,1.13,2.05.17.28.33.56.55.8.33.34.43.8.58,1.23.18.51.39.99.71,1.44.11.16.24.32.29.49.3.93.66,1.83,1.05,2.72.53,1.19.8,2.47,1.11,3.73.29,1.16.78,2.27.84,3.47.08,1.47.39,2.92.44,4.39,0,.02,0,.05,0,.07,0,.21.02.43.03.65Z"/>
    <path class="cls-1" d="M302.08,85.61c0-.1,0-.2.07-.27.53-.58.9-1.28,1.37-1.9.41-.55.8-1.11,1.25-1.63.51-.6.87-1.3,1.26-1.98.28-.49.54-1,.85-1.48.31-.48.56-.99.73-1.55.16-.49.5-.93.78-1.39.11-.18.2-.37.26-.57.27-.95.79-1.81,1.14-2.74.04.05.06.07.08.1.01.02.01.03.02.06-.34,1.01-.57,2.06-1.14,2.98-.13.21-.28.43-.34.66-.36,1.35-1.23,2.44-1.9,3.63-.55.97-1.05,2-1.86,2.81-.16.16-.27.37-.39.56-.56.89-1.29,1.64-1.9,2.5-.07.1-.16.17-.27.21Z"/>
    <path class="cls-1" d="M272.64,101.08c.07-.34.41-.09.57-.25-.16-.31-.53-.09-.74-.26.02-.13.1-.14.17-.14,1.2.03,2.4-.2,3.61-.13.33.02.64-.02.97-.1.61-.15,1.24-.21,1.85-.35.47-.11.9-.31,1.37-.4.2-.04.17-.22.23-.37.46-.07.94,0,1.41-.13.23-.07.49.02.68-.21.07-.08.22-.05.31.04-.68.46-1.5.55-2.27.78-.88.26-1.77.49-2.65.75-.53.16-1.08.25-1.63.34-1.29.21-2.59.33-3.88.43Z"/>
    <path class="cls-1" d="M257.68,99.99s.09-.11.12-.11c.44.13.91.03,1.35.21.47.19.99.05,1.46.22.09.03.21-.01.28.04.47.36,1.01.34,1.53.3.85-.06,1.66.2,2.48.3.55.07,1.08.18,1.64.18,1.53-.02,3.05,0,4.58,0,.18,0,.39-.06.55.07-.71.16-1.44.1-2.17.11-1.14.02-2.29-.02-3.44-.02-.48,0-.95-.1-1.42-.16-1.25-.13-2.51-.25-3.76-.37-.09-.07-.19-.1-.3-.05-.09-.05-.18-.06-.28-.04-.74-.29-1.52-.38-2.28-.55-.08-.05-.17-.07-.26-.06-.02-.02-.05-.06-.07-.09Z"/>
    <path class="cls-1" d="M302.65,29c-.33-.17-.58-.45-.79-.73-.43-.57-1.03-.98-1.43-1.55-.52-.72-1.22-1.23-1.82-1.86-.56-.6-1.17-1.18-1.88-1.65-.25-.16-.62-.26-.64-.66.29-.05.45.18.63.34,1.4,1.22,2.77,2.47,4.03,3.84.56.6,1.1,1.22,1.65,1.83.11.12.23.25.25.44Z"/>
    <path class="cls-1" d="M289.08,17.85c-.95-.2-1.82-.58-2.63-1.16-.55-.39-1.23-.47-1.86-.68-.49-.17-.99-.34-1.36-.75.68.25,1.37.44,2.06.63.39.11.75.28,1.08.51.53.37,1.13.63,1.75.82.29.09.56.22.82.4.07.06.16.11.14.23Z"/>
    <path class="cls-1" d="M297.24,90.55c.02-.31.28-.45.47-.62,1.09-.96,2.13-1.97,3.07-3.08.22-.26.45-.52.67-.78.14-.17.27-.39.56-.33-.4.53-.78,1.08-1.28,1.52-.09.07-.17.16-.24.25-.52.69-1.24,1.18-1.82,1.82-.43.47-.94.82-1.43,1.22Z"/>
    <path class="cls-1" d="M296.09,22.56c-.33-.07-.62-.14-.86-.47-.16-.22-.44-.45-.83-.39-.24.05-.38-.18-.47-.36-.28-.53-.73-.86-1.25-1.13-.42-.22-.8-.51-1.09-.9.57.26,1.12.55,1.62.93.9.69,1.81,1.38,2.71,2.07.08.06.14.13.16.23Z"/>
    <path class="cls-1" d="M248.86,96.74c.09-.04.17-.1.26-.06.34.16.72.26,1.03.48.54.37,1.17.49,1.75.74.5.22,1.01.41,1.52.62.08.03.08.12.08.2-.68-.13-1.27-.51-1.94-.68-.66-.17-1.29-.42-1.86-.84-.25-.2-.56-.31-.85-.46Z"/>
    <path class="cls-5" d="M224.13,59.71c.22-.04.18-.21.19-.36.05-.7.16-1.4.11-2.1-.01-.16.02-.3.17-.41.1.14.06.29.05.43-.02.91.18,1.82.12,2.74-.02.24,0,.47-.28.51-.21-.04-.14-.3-.32-.33-.08-.16-.08-.32-.05-.48Z"/>
    <path class="cls-1" d="M291.46,19.23c-.2.01-.38-.05-.54-.14-.29-.16-.56-.28-.9-.14-.12.05-.34-.07-.32-.16.13-.43-.26-.48-.44-.68-.07-.09-.14-.18-.21-.26.83.42,1.73.71,2.4,1.39Z"/>
    <path class="cls-1" d="M253.53,98.72c.26,0,.53-.06.73.2.03.04.1.07.15.07.72.05,1.41.31,2.11.47.18.04.39.06.46.29-.07,0-.14,0-.21,0-.66-.17-1.32-.33-1.98-.51-.45-.12-.87-.28-1.25-.53Z"/>
    <path class="cls-1" d="M247.3,18.02c.02.15-.03.26-.17.32-.28.1-.4.32-.41.62-.52-.16-.86.42-1.35.27.25-.34.58-.58.96-.75.32-.16.65-.3.98-.45Z"/>
    <path class="cls-2" d="M258.02,100.14c.76.17,1.55.26,2.28.55-.07.07-.17.1-.26.08-.59-.11-1.18-.23-1.77-.35-.14-.03-.22-.13-.25-.28Z"/>
    <path class="cls-1" d="M232.89,30.49c.17.06.29.16.34.34-.07.2-.29.11-.41.24-.18.17-.47.22-.52.53-.02.11-.16.14-.28.16.17-.5.44-.93.86-1.26Z"/>
    <path class="cls-1" d="M231.9,31.9c0,.22.02.45-.05.71-.26.07-.47.26-.7.41.14-.45.31-.88.75-1.13Z"/>
    <path class="cls-1" d="M296.1,91.49c.21-.43.57-.68,1.01-.83-.21.44-.63.61-1.01.83Z"/>
    <path class="cls-1" d="M295.28,92.11c.11-.32.32-.53.68-.53-.18.24-.41.41-.68.53Z"/>
    <path class="cls-4" d="M261.44,13.1c-.24.09-.49.02-.73.06.23-.18.48-.11.73-.06Z"/>
    <path class="cls-4" d="M264.92,12.86c-.22.13-.46.06-.69.06.22-.11.45-.11.69-.06Z"/>
    <path class="cls-4" d="M263.19,12.97c-.08.07-.17.06-.27.05.07-.1.14-.22.27-.05Z"/>
    <path class="cls-4" d="M260.66,13.18c-.07.08-.18.08-.28.09.06-.12.17-.11.28-.09Z"/>
    <path class="cls-2" d="M260.58,100.73c.11-.05.21-.03.3.05-.1-.02-.2-.03-.3-.05Z"/>
    <path class="cls-1" d="M244.77,19.6c0,.14-.08.2-.21.21h0c.05-.06.09-.13.13-.19.02-.02.04-.03.07-.02Z"/>
    <path class="cls-2" d="M256.76,99.75c.07,0,.14,0,.21,0,0,.03.01.07.01.1-.09,0-.17-.01-.22-.1Z"/>
    <path class="cls-1" d="M230.85,33.6s-.06.06-.09.1c-.01-.07.04-.09.09-.1Z"/>
    <path class="cls-2" d="M257.68,99.99s.05.06.07.09c-.05-.01-.11-.03-.16-.04.02-.02.05-.04.09-.05Z"/>
    <path class="cls-1" d="M297.13,90.65s.07-.07.11-.11c-.03.04-.07.07-.11.11Z"/>
    <path class="cls-4" d="M312.51,53.6s-.01-.05,0-.07c.01.02.02.03.04.05-.01.01-.02.02-.03.02Z"/>
    <path class="cls-1" d="M283.38,98.71s-.02,0-.02,0h.02Z"/>
    <path class="cls-2" d="M257.29,99.86s.02.07.03.1c-.03,0-.06-.01-.09-.03,0-.03-.02-.06-.03-.09l.03.02h.05Z"/>
    <path class="cls-1" d="M302.74,29.11s-.06-.07-.1-.11c.06,0,.1.04.1.11Z"/>
    <path class="cls-2" d="M273.64,69.46c-.4.13-.76.33-1.1.59-.34.26-.72.48-1.08.72-.65.18-1.22.48-1.67.99-.22.13-.43.26-.65.4-.79.26-1.55.59-2.13,1.21h-.03v.03s-.08.05-.11.08c-.7.21-1.31.57-1.86,1.04-.42.2-.85.39-1.26.6-.3.16-.55.37-.74.66-.25.16-.51.3-.76.46-.64.18-1.24.43-1.71.91-1.12.58-2.17,1.29-3.27,1.91-.08.05-.15.11-.22.17-.44.16-.89.17-1.35.13-1.12-.1-1.79-.96-1.64-2.06.03-.19.04-.38-.03-.56.11-.36.05-.72.05-1.08v-23.79c0-4.04.02-8.08-.01-12.13,0-.95-.03-1.9-.06-2.86-.01-.4-.02-.8.13-1.19.17-.44.47-.71.9-.9,1.02-.43,1.9-.11,2.77.41.6.36,1.16.78,1.81,1.06.41.18.79.39,1.12.7.09.07.17.16.28.2,1.02.45,1.93,1.1,2.88,1.66.71.41,1.44.78,2.08,1.31.05.03.09.08.14.09.64.09,1.08.53,1.57.89.17.12.37.21.56.3.63.29,1.21.65,1.79,1.01.99.61,1.96,1.27,3.01,1.78.45.22.88.46,1.26.79.29.25.63.43.99.56.56.21,1.09.47,1.52.89.31.3.73.41,1.08.65,1.13.76,2.4,1.28,3.5,2.09.27.2.6.34.92.47.29.11.57.25.8.43.55.43,1.14.76,1.74,1.1.85.48,1.72.94,2.52,1.49,1.04.73,2.27,1.1,3.25,1.93.14.12.34.18.51.27.2.11.4.22.59.35,1.05.74,1.28,1.64.71,2.79-.05.1-.1.21-.14.31-.09.05-.14.1-.13.21v-.02c-.18,0-.3.11-.42.24l-.03.02c-.78.19-1.38.67-1.93,1.24h-.03s-.01.03,0,.03c-.02,0-.04,0-.05.03-.11-.02-.22.02-.33.07h.01c-.6.19-1.11.55-1.58.96-.44.21-.89.41-1.32.64-.26.14-.51.32-.64.6-.04.03-.08.05-.11.08-.11-.03-.17.03-.18.13-.12.01-.22.06-.3.14-.78.18-1.49.48-2.01,1.13l-.03.02c-.12.02-.2.09-.26.19-.08,0-.16.02-.21.08-.21.04-.39.13-.57.22-.8.4-1.51.95-2.31,1.34-.32.16-.6.38-.82.68-.05,0-.07.02-.09.06-.2.02-.34.1-.46.26-.1,0-.18.02-.24.09-.22,0-.4.11-.59.19-.62.24-1.06.71-1.57,1.1-.05.02-.1.04-.14.06-.85.26-1.6.72-2.28,1.29Z"/>
    <path class="cls-1" d="M254.03,76.75c.07.18.06.37.03.56-.16,1.1.52,1.96,1.64,2.06.45.04.91.02,1.35-.13q.34.12.48.37c-.14.14-.28-.03-.43-.01-.17.02-.35-.03-.48.11-.37.39-.76.22-1.2.11-.79-.19-1.07-.92-1.57-1.41-.1-.1-.07-.25-.07-.39,0-.44-.05-.9.26-1.28Z"/>
    <path class="cls-1" d="M279.02,66.38c.21-.3.5-.52.82-.68.8-.39,1.51-.94,2.31-1.34.19-.09.37-.18.57-.22.02.22.03.44-.25.5-.74.17-1.33.63-1.94.95-.11.18.05.29-.02.47-.22.25-.49.4-.87.26-.21-.07-.41.07-.62.06Z"/>
    <path class="cls-1" d="M285.83,62.35c.14-.28.38-.46.64-.6.43-.22.88-.43,1.32-.64,0,.15-.09.25-.22.31-.28.13-.37.34-.28.66-.53,0-.95.39-1.47.27Z"/>
    <path class="cls-1" d="M267.01,73.39c.59-.63,1.35-.95,2.13-1.21.03.15.06.29.1.47-.73.3-1.51.43-2.23.74Z"/>
    <path class="cls-1" d="M273.64,69.46c.69-.57,1.44-1.03,2.29-1.31.05.28-.11.43-.33.53-.58.26-1.2.44-1.74.78-.06.03-.15,0-.22,0Z"/>
    <path class="cls-1" d="M263.01,75.8c.19-.28.44-.51.74-.66.41-.21.84-.4,1.26-.6,0,.04,0,.09-.02.11-.22.29-.64.4-.76.79-.42.07-.75.45-1.22.36Z"/>
    <path class="cls-1" d="M276.07,68.09c.51-.39.95-.87,1.57-1.1.19-.07.37-.2.59-.19.05.29-.14.43-.36.51-.58.22-1.11.55-1.68.78-.03.01-.07,0-.11,0Z"/>
    <path class="cls-1" d="M283.22,63.84c.52-.65,1.23-.95,2.01-1.13-.47.74-1.25.91-2.01,1.13Z"/>
    <path class="cls-1" d="M269.79,71.77c.45-.52,1.02-.82,1.67-.99-.06.38-.16.71-.66.68-.1,0-.23.06-.31.13-.21.19-.45.2-.7.18Z"/>
    <path class="cls-1" d="M260.53,77.17c.48-.48,1.08-.72,1.71-.91-.05.22-.1.44-.15.67-.48,0-.93.05-1.33.31-.1.06-.18.01-.24-.07Z"/>
    <path class="cls-1" d="M289.77,60.04c.55-.56,1.14-1.05,1.93-1.24,0,.18-.11.26-.24.35-.46.34-1.02.49-1.46.87-.05.05-.15.02-.22.02Z"/>
    <path class="cls-5" d="M224.57,54.32c.14.48.1.89.03,1.34-.22-.35-.24-.81-.03-1.34Z"/>
    <path class="cls-1" d="M244.56,19.81c-.22.44-.64.54-1.06.65.32-.29.58-.65,1.06-.65h0Z"/>
    <path class="cls-1" d="M256.41,14.55c-.45.16-.79.25-1.17.19q.4-.25,1.17-.19Z"/>
    <path class="cls-1" d="M278.47,66.71c.11-.16.26-.25.46-.26-.09.2-.26.25-.46.26Z"/>
    <path class="cls-1" d="M291.73,58.78c.12-.13.25-.24.43-.24-.07.21-.24.25-.43.24Z"/>
    <path class="cls-1" d="M285.53,62.57c.02-.1.06-.17.18-.13-.03.09-.09.13-.18.13Z"/>
    <path class="cls-1" d="M282.93,64.06c.06-.1.14-.17.26-.19-.02.17-.13.21-.26.19Z"/>
    <path class="cls-1" d="M257.29,99.86h-.04l-.03-.02s.08-.06.13-.08c.02-.01.06.01.1.02-.02.09-.1.05-.15.08Z"/>
    <path class="cls-1" d="M292.15,58.56c-.02-.11.05-.17.13-.21-.01.09-.03.17-.13.21Z"/>
    <path class="cls-1" d="M266.87,73.5s.07-.05.1-.08c-.03.03-.07.05-.1.08Z"/>
    <path class="cls-1" d="M289.68,60.09s.03-.03.05-.03l-.02.04h-.03Z"/>
    <path class="cls-1" d="M289.37,60.16h-.01s.01,0,.01,0Z"/>
    <path class="cls-4" d="M278.95,14.28s.03.04.05.06c-.02-.02-.04-.03-.06-.05,0,0,.01-.01.01-.01Z"/>
    <path class="cls-4" d="M311.6,52.34c.03-.24-.06-.51.09-.76.23.45.22.54-.07.79,0,0-.02-.02-.02-.02Z"/>
  </g>
</svg>